<svg xmlns="http://www.w3.org/2000/svg" id="Group_1238" data-name="Group 1238" viewBox="0 0 168.275 35.144">
    <defs>
        <style>
            .cls-1{fill:#fff}.cls-2{fill:rgba(255,255,255,.5)}.cls-3{fill:#fcad2d}.cls-4{fill:#f06933}.cls-5{fill:#e89728}.cls-6{fill:#0d6faa}
        </style>
    </defs>
    <path id="Path_1305" d="M4.323 4.63H12.9c4.252 0 6.647 2.872 6.647 6.4a9.414 9.414 0 0 1-9.409 9.193h-3.31l-1.6 8.972H0zm6.4 11.156a3.791 3.791 0 0 0 3.489-4.072 2.254 2.254 0 0 0-2.289-2.545H8.756l-1.165 6.612h3.128zm10.789 1.27c.763-4.4 3.74-7.34 8.354-7.34a13.506 13.506 0 0 1 3.379.472l-1.235 4.323a9.1 9.1 0 0 0-2.435-.4c-1.6 0-2.691 1.235-2.977 2.942L24.45 29.191h-5.086zm28.714 1.064c.909-5.231 4.649-7.812 8.61-7.812a4.48 4.48 0 0 1 4.288 2.435 6.847 6.847 0 0 1 5.161-2.435c3.961 0 6.758 2.581 5.849 7.812L72.1 29.783h-5.085l1.963-11.3c.437-2.505 0-3.781-1.491-3.781-1.526 0-2.435 1.526-2.942 4.4l-1.853 10.681h-5.086L59.459 19.1c.507-2.872.07-4.4-1.416-4.4s-2.36 1.27-2.8 3.781l-2 11.3h-5.086zm27.683.216c.909-5.231 4.544-8.028 9.082-8.028 3.379 0 6.105 2.289 6.105 5.523 0 5.412-6.105 6.105-10.789 6.321l-.07.507c-.326 1.817.4 3.2 2.726 3.2a18.7 18.7 0 0 0 5.413-1.059l.216 4.252a17.758 17.758 0 0 1-6.431 1.2c-5.121 0-7.737-3.309-6.868-8.43zm10.1-2a1.606 1.606 0 0 0-1.78-1.636c-1.491 0-2.726 1.019-3.233 3.56l-.11.547c2.765-.18 5.125-.722 5.125-2.469z" class="cls-1" data-name="Path 1305" transform="translate(0 -2.305)"/>
    <path id="Path_1306" d="M196.987 5.81h6.03l2.907 24.561h-5.231l-.582-5.924h-6.723l-2.616 5.924h-5.342zm2.721 14.314l-.437-4.649a49.123 49.123 0 0 1-.181-4.323c-.582 1.561-1.2 3.163-1.707 4.323l-2.068 4.649zm12.356 17.913h-5.086l3.339-18.892c.909-5.2 4.288-8.249 9.263-8.249 4.177 0 7.194 3.053 6.321 8.249l-.618 3.524c-.979 5.558-4.032 8.174-8.972 8.174a9.43 9.43 0 0 1-2.872-.618zm4.795-11.593c1.526 0 2.872-1.019 3.344-3.781l.618-3.524c.437-2.505-.4-3.851-1.928-3.851-1.6 0-3.053 1.346-3.489 3.851l-1.165 6.612a5.927 5.927 0 0 0 2.62.694zm14.208 11.593h-5.086l3.344-18.892c.909-5.2 4.288-8.249 9.263-8.249 4.177 0 7.194 3.053 6.321 8.249l-.618 3.524c-.979 5.558-4.032 8.174-8.972 8.174a9.43 9.43 0 0 1-2.872-.618zm4.795-11.593c1.526 0 2.872-1.019 3.344-3.781l.618-3.524c.437-2.505-.4-3.851-1.928-3.851-1.6 0-3.053 1.346-3.489 3.851l-1.165 6.612a5.892 5.892 0 0 0 2.62.694zm11.261-.9a12.843 12.843 0 0 0 4.724.909c1.416 0 2.545-.728 2.545-1.707 0-2.289-6.286-1.853-6.286-6.868 0-3.961 2.872-6.974 7.631-6.974a13.045 13.045 0 0 1 4.87.909l-1.416 4.252a11.531 11.531 0 0 0-3.886-.763c-1.451 0-1.963.763-1.963 1.526 0 2.254 6.251 2.068 6.251 7.159 0 3.414-2.36 6.868-8.138 6.868a15.353 15.353 0 0 1-5.7-1.165z" class="cls-2" data-name="Path 1306" transform="translate(-92.333 -2.893)"/>
    <path id="Path_1307" d="M63.994 26.817S64.325 6.935 74.768 1.94c1.446 2.666 5 11.442-4.333 26.765a137.156 137.156 0 0 0-6.441-1.888zm.919-8.038s-6.8-.07-4.584 11.256a49.039 49.039 0 0 0 3.685-3.781zm6.969 14.369s8.093-7.606 2.269-11.688l-3.716 7.24z" class="cls-3" data-name="Path 1307" transform="translate(-29.819 -.966)"/>
    <path id="Path_1308" d="M74.678.618L74.346 0l-.638.306A15.171 15.171 0 0 0 67.3 6.6a32.435 32.435 0 0 0-3.294 8.515 52.498 52.498 0 0 0-.457 2.023 5.6 5.6 0 0 0-3.416 1.962c-1.747 2.1-2.174 5.508-1.27 10.122l.241 1.225.959-.8a38.15 38.15 0 0 0 3.047-3.063c.361.1 2.982.788 6 1.752l1.69 5.191.848-.8a20.538 20.538 0 0 0 2.38-2.776c1.6-2.239 2.34-4.278 2.214-6.07a5.069 5.069 0 0 0-1.942-3.623 30.882 30.882 0 0 0 2.34-10.624A17.915 17.915 0 0 0 74.678.618zM60.093 27.6a15.508 15.508 0 0 1-.07-4.524 6.206 6.206 0 0 1 1.235-3.012 4.178 4.178 0 0 1 2-1.351 55.193 55.193 0 0 0-.71 6.287c-.412.454-1.486 1.644-2.455 2.6zm14.675-3.625c.07.984-.206 2.666-1.928 5.081a19.821 19.821 0 0 1-1.376 1.717l-.959-2.947A53.311 53.311 0 0 0 73.7 21.7a3.494 3.494 0 0 1 1.068 2.278zm-2.028-3.8l-3.414 6.665c-2.3-.728-4.343-1.3-5.3-1.556l.884-7.35c.156-.8.331-1.632.542-2.475a30.958 30.958 0 0 1 3.133-8.123 14.239 14.239 0 0 1 5.126-5.367 16.956 16.956 0 0 1 1.456 7.616 29.891 29.891 0 0 1-2.427 10.593z" class="cls-4" data-name="Path 1308" transform="translate(-29.081)"/>
    <path id="Path_1309" d="M79.151 19.429L75 32.739l-3.5-1.089 4.152-13.31a1.833 1.833 0 1 1 3.5 1.089zm-.477-7.159a2 2 0 1 0 2 2 2 2 0 0 0-2-2z" class="cls-5" data-name="Path 1309" transform="translate(-35.603 -6.11)"/>
    <path id="Path_1310" d="M78.912 20.53L74.991 33.1l-2.591-.812 3.921-12.567a1.4 1.4 0 1 1 2.591.808zm.211-7.26a1.5 1.5 0 1 0 1.5 1.5 1.5 1.5 0 0 0-1.5-1.5z" class="cls-6" data-name="Path 1310" transform="translate(-36.051 -6.608)"/>
</svg>
