<svg xmlns="http://www.w3.org/2000/svg" xmlns:xlink="http://www.w3.org/1999/xlink" width="1300" height="900" viewBox="0 0 1300 900">
  <defs>
    <clipPath id="clip-backimage">
      <rect width="1300" height="900"/>
    </clipPath>
  </defs>
  <g id="backimage" clip-path="url(#clip-backimage)">
    <rect width="1300" height="900" fill="#fff"/>
    <path id="Path_29143" data-name="Path 29143" d="M4352.984,3692.289c0,297.615-926.8,236.195-2036.984,236.195S332.645,3989.9,332.645,3692.289s895.68-765.667,2005.866-765.667S4352.984,3394.674,4352.984,3692.289Z" transform="translate(-1683.645 -2982.622)" fill="#0d6faa"/>
    <g id="Group_4144" data-name="Group 4144" transform="translate(189.374 83.457)">
      <g id="screen" transform="translate(0)">
        <g id="Group_4070" data-name="Group 4070">
          <g id="Group_4067" data-name="Group 4067">
            <path id="Path_28995" data-name="Path 28995" d="M311.807,214.1c-46.74-10.643-70.411-20.98-115.259-38.272L188,172V649.608c47.161-20.735,78.418-31.655,123.938-48.337Z" transform="translate(-151.057 -138.202)" fill="#fff" opacity="0.1"/>
            <g id="Group_4065" data-name="Group 4065" transform="translate(22.008 42.641)">
              <path id="Path_28996" data-name="Path 28996" d="M2614.839,560.651A1374.379,1374.379,0,0,1,2426,574.244v280.95c67.4.456,124.19,4.755,188.839,14.382Z" transform="translate(-1971.293 -493.123)" fill="rgba(255,255,255,0.1)"/>
              <path id="Path_28997" data-name="Path 28997" d="M1018,840.941c83.121-16.948,156.416-24.079,244.056-24.674V535.317c-87.64-.578-160.936-7.491-244.056-23.114Z" transform="translate(-839.969 -454.195)" fill="rgba(255,255,255,0.1)"/>
              <path id="Path_28998" data-name="Path 28998" d="M3682.536,219.751C3618.83,242.3,3540.6,270.252,3473,280.926V597.335c69.758,11.914,150.521,44.927,216.349,71.695V217Z" transform="translate(-2812.554 -217)" fill="rgba(255,255,255,0.1)"/>
              <path id="Path_28999" data-name="Path 28999" d="M272.936,285.979c-46.964-9.869-109.042-31.365-154.174-47.281L112,236.667V683.485c47.161-19.227,111.614-47.4,160.936-58.692Z" transform="translate(-112 -232.802)" fill="rgba(13,111,170,0.1)"/>
            </g>
            <g id="Group_4066" data-name="Group 4066" transform="translate(673.808 79.977)" opacity="0.8">
              <path id="Path_29000" data-name="Path 29000" d="M3614.3,589.354V407h-6.072c-58.044,20.436-117.921,34.869-179.23,44.421V589.354Z" transform="translate(-3429 -407)" fill="#fff"/>
              <path id="Path_29001" data-name="Path 29001" d="M3429,1431v126.366c63.47,10.662,125.565,27.12,185.3,51.076V1431Z" transform="translate(-3429 -1229.781)" fill="#fff"/>
            </g>
          </g>
          <g id="Group_4068" data-name="Group 4068" transform="translate(61.112 75.654)" opacity="0.8">
            <path id="Path_29002" data-name="Path 29002" d="M1096,887.681c75.85-15.441,154.844-21.938,235.017-22.481V609.224C1250.844,608.7,1171.85,602.4,1096,588.165Z" transform="translate(-941.745 -548.242)" fill="#fff"/>
            <path id="Path_29003" data-name="Path 29003" d="M443.05,420.52c-42.838-8.992-84.9-20.39-126.025-35.52H311V770.6a847.127,847.127,0,0,1,132.05-41.386Z" transform="translate(-311 -385)" fill="#fff"/>
          </g>
          <g id="Group_4069" data-name="Group 4069" transform="translate(469.445 125.958)" opacity="0.8">
            <path id="Path_29004" data-name="Path 29004" d="M2571.748,801.936V641c-59.147,8.138-121.439,11.924-182.748,12.328V801.936Z" transform="translate(-2389 -641)" fill="#fff"/>
            <path id="Path_29005" data-name="Path 29005" d="M2389,1434v111.3c61.309.414,123.6,4.313,182.748,13.043V1434Z" transform="translate(-2389 -1278.173)" fill="#fff"/>
          </g>
        </g>
      </g>
      <g id="stairs" transform="translate(570.656 331.369)">
        <g id="Group_4077" data-name="Group 4077" transform="translate(0 56.752)">
          <g id="Group_4071" data-name="Group 4071">
            <path id="Path_29006" data-name="Path 29006" d="M2907.11,2179.185a3.048,3.048,0,0,1-2.977-3.7l43.7-197.952a3.046,3.046,0,0,1,5.948,1.313l-43.7,197.952A3.047,3.047,0,0,1,2907.11,2179.185Z" transform="translate(-2904.061 -1975.14)" fill="#7ac9f9"/>
          </g>
          <g id="Group_4072" data-name="Group 4072" transform="translate(78.172 0.124)">
            <path id="Path_29007" data-name="Path 29007" d="M3304.928,2179.691a3.048,3.048,0,0,1-2.978-3.7l43.372-197.828a3.046,3.046,0,0,1,5.95,1.3L3307.9,2177.3A3.047,3.047,0,0,1,3304.928,2179.691Z" transform="translate(-3301.878 -1975.77)" fill="#7ac9f9"/>
          </g>
          <g id="Group_4073" data-name="Group 4073" transform="translate(17.714 121.453)">
            <path id="Path_29008" data-name="Path 29008" d="M3071.378,2599.3h-74.124a3.046,3.046,0,0,1,0-6.092h74.124a3.046,3.046,0,0,1,0,6.092Z" transform="translate(-2994.208 -2593.212)" fill="#7ac9f9"/>
          </g>
          <g id="Group_4074" data-name="Group 4074" transform="translate(8.85 168.225)">
            <path id="Path_29009" data-name="Path 29009" d="M3026.268,2837.327h-74.124a3.046,3.046,0,0,1,0-6.092h74.124a3.046,3.046,0,1,1,0,6.092Z" transform="translate(-2949.098 -2831.235)" fill="#7ac9f9"/>
          </g>
          <g id="Group_4075" data-name="Group 4075" transform="translate(27.519 76.628)">
            <path id="Path_29010" data-name="Path 29010" d="M3122.8,2371.191h-75.654a3.046,3.046,0,0,1,0-6.092H3122.8a3.046,3.046,0,1,1,0,6.092Z" transform="translate(-3044.105 -2365.099)" fill="#7ac9f9"/>
          </g>
          <g id="Group_4076" data-name="Group 4076" transform="translate(36.62 35.89)">
            <path id="Path_29011" data-name="Path 29011" d="M3169.118,2163.875h-75.654a3.046,3.046,0,0,1,0-6.092h75.654a3.046,3.046,0,1,1,0,6.092Z" transform="translate(-3090.419 -2157.783)" fill="#7ac9f9"/>
          </g>
        </g>
        <g id="Group_4085" data-name="Group 4085" transform="translate(34.989)">
          <g id="Group_4078" data-name="Group 4078" transform="translate(0 0)">
            <path id="Path_29012" data-name="Path 29012" d="M3126.508,1984.568a3.046,3.046,0,0,1-3.012-2.62L3082.148,1689.8a3.046,3.046,0,0,1,6.031-.854l41.347,292.144a3.051,3.051,0,0,1-3.02,3.473Z" transform="translate(-3082.118 -1686.332)" fill="#99d8ff"/>
          </g>
          <g id="Group_4079" data-name="Group 4079" transform="translate(77.776)">
            <path id="Path_29013" data-name="Path 29013" d="M3534.623,1970.311a3.047,3.047,0,0,1-2.987-2.469l-53.661-277.887a3.046,3.046,0,1,1,5.981-1.155l53.661,277.887a3.046,3.046,0,0,1-2.413,3.568A3.083,3.083,0,0,1,3534.623,1970.311Z" transform="translate(-3477.919 -1686.331)" fill="#99d8ff"/>
          </g>
          <g id="Group_4080" data-name="Group 4080" transform="translate(17.973 103.524)">
            <path id="Path_29014" data-name="Path 29014" d="M3250.751,2219.258h-74.124a3.046,3.046,0,1,1,0-6.092h74.124a3.046,3.046,0,1,1,0,6.092Z" transform="translate(-3173.581 -2213.166)" fill="#99d8ff"/>
          </g>
          <g id="Group_4081" data-name="Group 4081" transform="translate(8.715 56.752)">
            <path id="Path_29015" data-name="Path 29015" d="M3203.641,1981.234h-74.124a3.046,3.046,0,1,1,0-6.092h74.124a3.046,3.046,0,1,1,0,6.092Z" transform="translate(-3126.471 -1975.143)" fill="#99d8ff"/>
          </g>
          <g id="Group_4082" data-name="Group 4082" transform="translate(22.865 148.349)">
            <path id="Path_29016" data-name="Path 29016" d="M3284.22,2447.372h-82.7a3.046,3.046,0,0,1,0-6.092h82.7a3.046,3.046,0,1,1,0,6.092Z" transform="translate(-3198.478 -2441.28)" fill="#99d8ff"/>
          </g>
          <g id="Group_4083" data-name="Group 4083" transform="translate(27.446 189.081)">
            <path id="Path_29017" data-name="Path 29017" d="M3224.838,2654.66a3.046,3.046,0,0,1,0-6.092l85.159-.007a3.046,3.046,0,1,1,0,6.092Z" transform="translate(-3221.792 -2648.562)" fill="#99d8ff"/>
          </g>
          <g id="Group_4084" data-name="Group 4084" transform="translate(37.116 236.369)">
            <path id="Path_29018" data-name="Path 29018" d="M3358.978,2895.3h-84.932a3.046,3.046,0,0,1,0-6.092h84.932a3.046,3.046,0,0,1,0,6.092Z" transform="translate(-3271 -2889.212)" fill="#99d8ff"/>
          </g>
        </g>
      </g>
      <g id="infographics" transform="translate(67.456 113.826)">
        <g id="infographics-2" data-name="infographics">
          <g id="Group_4143" data-name="Group 4143">
            <g id="Ciecular_graph" transform="translate(157.098 29.084)" opacity="0.6">
              <ellipse id="Ellipse_650" data-name="Ellipse 650" cx="56.87" cy="55.778" rx="56.87" ry="55.778" fill="#94d0fc" opacity="0.7"/>
              <path id="Path_29019" data-name="Path 29019" d="M1221.328,1066.9c-31.408,0-47.013-21.32-51.562-31.979l51.562-23.8Z" transform="translate(-1164.458 -955.343)" fill="#421aaa"/>
              <path id="Path_29020" data-name="Path 29020" d="M1456.716,754.888c29.824,10.686,55.1,66.712,3.031,99.435l-27.228-48.943Z" transform="translate(-1375.579 -749.46)" fill="#d2eafb"/>
              <path id="Path_29021" data-name="Path 29021" d="M1432.02,1011.285l-.05,55.778a57.49,57.49,0,0,0,27.3-6.81Z" transform="translate(-1375.138 -955.475)" fill="#8db3ff"/>
            </g>
            <path id="Path_29022" data-name="Path 29022" d="M2597.279,794.414l-149.676,5.6a4.916,4.916,0,0,1-5.049-4.757l-.295-8.1a4.929,4.929,0,0,1,4.69-5.121l149.676-5.6a4.916,4.916,0,0,1,5.05,4.756l.294,8.1A4.929,4.929,0,0,1,2597.279,794.414Z" transform="translate(-2029.802 -737.685)" fill="#0db7ae" opacity="0.6"/>
            <path id="Path_29023" data-name="Path 29023" d="M2503.281,969.044l-52.482,1.94a5.386,5.386,0,0,1-5.56-5.175l-.266-7.234a5.388,5.388,0,0,1,5.165-5.571l52.482-1.939a5.386,5.386,0,0,1,5.56,5.175l.266,7.234A5.388,5.388,0,0,1,2503.281,969.044Z" transform="translate(-2031.981 -878.001)" fill="#0db7ae" opacity="0.6"/>
            <g id="Cube_graph" transform="translate(414.538 117.196)" opacity="0.6">
              <g id="Cube_graph-2" data-name="Cube_graph" transform="translate(26.501 8.982)">
                <path id="Path_29024" data-name="Path 29024" d="M2980.21,1352.468l-13.907-.982a3.838,3.838,0,0,1-3.838-3.838v-122.43a3.838,3.838,0,0,1,3.838-3.838h13.907a3.838,3.838,0,0,1,3.839,3.838v122.43C2984.049,1349.767,2982.33,1352.468,2980.21,1352.468Z" transform="translate(-2888.828 -1221.379)" fill="#767dff"/>
                <rect id="Rectangle_1766" data-name="Rectangle 1766" width="21.266" height="24.503" rx="10.633" transform="translate(49.197 104.669)" fill="#0db7ae"/>
                <rect id="Rectangle_1767" data-name="Rectangle 1767" width="21.583" height="103.533" rx="10.792" transform="translate(24.757 25.984)" fill="#94d0fc"/>
                <path id="Path_29025" data-name="Path 29025" d="M3156.356,1459.47l-12.654-.983a4.465,4.465,0,0,1-4.465-4.465V1356.77a4.465,4.465,0,0,1,4.465-4.465h12.654a4.465,4.465,0,0,1,4.465,4.465v97.253C3160.821,1456.489,3158.822,1459.47,3156.356,1459.47Z" transform="translate(-3030.863 -1326.578)" fill="#8047d1"/>
                <rect id="Rectangle_1768" data-name="Rectangle 1768" width="22.218" height="51.767" rx="11.109" transform="translate(0 74.606)" fill="#6400ff"/>
              </g>
              <g id="linear" transform="translate(0)">
                <g id="Group_4086" data-name="Group 4086" transform="translate(11.311 5.631)">
                  <path id="Path_29026" data-name="Path 29026" d="M2668.3,1342.165l-157.88-8.552V1204.329h1.179V1332.5l156.765,8.491Z" transform="translate(-2510.423 -1204.329)" fill="#b2b2b2"/>
                </g>
                <g id="Group_4087" data-name="Group 4087" transform="translate(11.901 7.803)">
                  <rect id="Rectangle_1769" data-name="Rectangle 1769" width="3.809" height="1.179" fill="#b2b2b2"/>
                </g>
                <g id="Group_4088" data-name="Group 4088" transform="translate(11.901 34.376)">
                  <rect id="Rectangle_1770" data-name="Rectangle 1770" width="3.809" height="1.179" fill="#b2b2b2"/>
                </g>
                <g id="Group_4089" data-name="Group 4089" transform="translate(11.901 60.605)">
                  <rect id="Rectangle_1771" data-name="Rectangle 1771" width="3.809" height="1.179" fill="#b2b2b2"/>
                </g>
                <g id="Group_4090" data-name="Group 4090" transform="translate(11.901 86.833)">
                  <rect id="Rectangle_1772" data-name="Rectangle 1772" width="3.809" height="1.179" fill="#b2b2b2"/>
                </g>
                <g id="Group_4091" data-name="Group 4091" transform="translate(11.901 113.062)">
                  <rect id="Rectangle_1773" data-name="Rectangle 1773" width="3.809" height="1.179" fill="#b2b2b2"/>
                </g>
                <g id="Group_4093" data-name="Group 4093" transform="translate(0.419)">
                  <g id="Group_4092" data-name="Group 4092">
                    <path id="Path_29027" data-name="Path 29027" d="M2456.793,1178.983l-.18.249q-.086.12-.165.238a1.979,1.979,0,0,1,.552-.289,2.034,2.034,0,0,1,.655-.1,2.145,2.145,0,0,1,.808.153,1.908,1.908,0,0,1,.663.445,2.142,2.142,0,0,1,.451.718,2.643,2.643,0,0,1,.167.972,2.694,2.694,0,0,1-.177.986,2.427,2.427,0,0,1-.5.793,2.274,2.274,0,0,1-.763.53,2.607,2.607,0,0,1-1.949.008,2.046,2.046,0,0,1-.737-.525,2.376,2.376,0,0,1-.468-.825,3.348,3.348,0,0,1-.165-1.085,3.192,3.192,0,0,1,.2-1.074,5.36,5.36,0,0,1,.653-1.219l1.793-2.62a.57.57,0,0,1,.468-.23h.779Zm.512,4.093a1.616,1.616,0,0,0,.643-.123,1.439,1.439,0,0,0,.493-.343,1.534,1.534,0,0,0,.315-.52,1.874,1.874,0,0,0,.111-.654,2,2,0,0,0-.109-.677,1.451,1.451,0,0,0-.308-.514,1.342,1.342,0,0,0-.475-.324,1.59,1.59,0,0,0-.606-.113,1.517,1.517,0,0,0-.641.131,1.468,1.468,0,0,0-.485.354,1.559,1.559,0,0,0-.306.514,1.771,1.771,0,0,0-.106.608,2.183,2.183,0,0,0,.1.675,1.493,1.493,0,0,0,.288.525,1.291,1.291,0,0,0,.463.34A1.531,1.531,0,0,0,2457.306,1183.075Z" transform="translate(-2454.99 -1176.02)" fill="#b7b7b7"/>
                    <path id="Path_29028" data-name="Path 29028" d="M2487.994,1179.6a6.721,6.721,0,0,1-.2,1.744,3.781,3.781,0,0,1-.545,1.219,2.177,2.177,0,0,1-1.823.954,2.2,2.2,0,0,1-1.008-.236,2.245,2.245,0,0,1-.81-.718,3.743,3.743,0,0,1-.542-1.219,7.827,7.827,0,0,1,0-3.49,3.775,3.775,0,0,1,.542-1.224,2.24,2.24,0,0,1,.81-.721,2.27,2.27,0,0,1,2.015,0,2.224,2.224,0,0,1,.815.721,3.813,3.813,0,0,1,.545,1.224A6.752,6.752,0,0,1,2487.994,1179.6Zm-.911,0a6.783,6.783,0,0,0-.136-1.476,3.1,3.1,0,0,0-.365-.962,1.424,1.424,0,0,0-.53-.522,1.317,1.317,0,0,0-1.251,0,1.407,1.407,0,0,0-.527.522,3.139,3.139,0,0,0-.362.962,8.09,8.09,0,0,0,0,2.949,3.141,3.141,0,0,0,.362.959,1.407,1.407,0,0,0,.527.522,1.318,1.318,0,0,0,1.251,0,1.423,1.423,0,0,0,.53-.522,3.1,3.1,0,0,0,.365-.959A6.745,6.745,0,0,0,2487.083,1179.6Z" transform="translate(-2477.392 -1175.67)" fill="#b7b7b7"/>
                  </g>
                </g>
                <g id="Group_4095" data-name="Group 4095" transform="translate(0.439 27.955)">
                  <g id="Group_4094" data-name="Group 4094">
                    <path id="Path_29029" data-name="Path 29029" d="M2456.323,1321.265a4.5,4.5,0,0,1,1.015-.128,2.516,2.516,0,0,1,.976.177,1.964,1.964,0,0,1,.707.487,2.076,2.076,0,0,1,.429.734,2.819,2.819,0,0,1,.145.921,2.979,2.979,0,0,1-.195,1.1,2.519,2.519,0,0,1-.537.844,2.344,2.344,0,0,1-.805.538,2.643,2.643,0,0,1-1,.188,2.611,2.611,0,0,1-.6-.067,2.9,2.9,0,0,1-.534-.179,3.041,3.041,0,0,1-.461-.257,2.665,2.665,0,0,1-.374-.305l.271-.407a.265.265,0,0,1,.231-.139.409.409,0,0,1,.222.083c.082.055.182.117.3.185a2.437,2.437,0,0,0,.416.185,1.736,1.736,0,0,0,.569.083,1.651,1.651,0,0,0,.665-.129,1.432,1.432,0,0,0,.507-.367,1.639,1.639,0,0,0,.325-.571,2.291,2.291,0,0,0,.114-.745,2.045,2.045,0,0,0-.1-.648,1.291,1.291,0,0,0-.291-.493,1.322,1.322,0,0,0-.485-.316,1.881,1.881,0,0,0-.68-.112,3.351,3.351,0,0,0-.554.048,3.438,3.438,0,0,0-.589.155l-.552-.177.566-3.589h3.346v.418a.488.488,0,0,1-.116.335.508.508,0,0,1-.4.131h-2.217Z" transform="translate(-2455.091 -1318.281)" fill="#b7b7b7"/>
                    <path id="Path_29030" data-name="Path 29030" d="M2487.994,1321.858a6.72,6.72,0,0,1-.2,1.744,3.783,3.783,0,0,1-.545,1.219,2.176,2.176,0,0,1-1.823.953,2.2,2.2,0,0,1-1.008-.236,2.248,2.248,0,0,1-.81-.718,3.745,3.745,0,0,1-.542-1.219,7.827,7.827,0,0,1,0-3.49,3.776,3.776,0,0,1,.542-1.224,2.241,2.241,0,0,1,.81-.72,2.27,2.27,0,0,1,2.015,0,2.225,2.225,0,0,1,.815.72,3.814,3.814,0,0,1,.545,1.224A6.752,6.752,0,0,1,2487.994,1321.858Zm-.911,0a6.787,6.787,0,0,0-.136-1.476,3.1,3.1,0,0,0-.365-.961,1.422,1.422,0,0,0-.53-.522,1.317,1.317,0,0,0-1.251,0,1.406,1.406,0,0,0-.527.522,3.141,3.141,0,0,0-.362.961,8.091,8.091,0,0,0,0,2.949,3.141,3.141,0,0,0,.362.959,1.407,1.407,0,0,0,.527.522,1.318,1.318,0,0,0,1.251,0,1.424,1.424,0,0,0,.53-.522,3.1,3.1,0,0,0,.365-.959A6.745,6.745,0,0,0,2487.083,1321.858Z" transform="translate(-2477.411 -1317.931)" fill="#b7b7b7"/>
                  </g>
                </g>
                <g id="Group_4097" data-name="Group 4097" transform="translate(0 55.218)">
                  <g id="Group_4096" data-name="Group 4096">
                    <path id="Path_29031" data-name="Path 29031" d="M2458.18,1462.016v.546a.225.225,0,0,1-.047.145.174.174,0,0,1-.145.059h-.877v2.02h-.769v-2.02h-3.134a.252.252,0,0,1-.17-.062.272.272,0,0,1-.091-.153l-.089-.488,3.434-4.955h.818v4.907Zm-1.838,0v-3.166q0-.139.01-.305t.03-.338l-2.572,3.809Z" transform="translate(-2452.859 -1457.023)" fill="#b7b7b7"/>
                    <path id="Path_29032" data-name="Path 29032" d="M2487.994,1460.6a6.721,6.721,0,0,1-.2,1.744,3.783,3.783,0,0,1-.545,1.219,2.177,2.177,0,0,1-1.823.954,2.2,2.2,0,0,1-1.008-.236,2.248,2.248,0,0,1-.81-.718,3.745,3.745,0,0,1-.542-1.219,7.827,7.827,0,0,1,0-3.49,3.775,3.775,0,0,1,.542-1.224,2.24,2.24,0,0,1,.81-.721,2.27,2.27,0,0,1,2.015,0,2.224,2.224,0,0,1,.815.721,3.813,3.813,0,0,1,.545,1.224A6.752,6.752,0,0,1,2487.994,1460.6Zm-.911,0a6.783,6.783,0,0,0-.136-1.476,3.1,3.1,0,0,0-.365-.962,1.424,1.424,0,0,0-.53-.522,1.317,1.317,0,0,0-1.251,0,1.407,1.407,0,0,0-.527.522,3.14,3.14,0,0,0-.362.962,8.09,8.09,0,0,0,0,2.949,3.138,3.138,0,0,0,.362.959,1.4,1.4,0,0,0,.527.522,1.317,1.317,0,0,0,1.251,0,1.42,1.42,0,0,0,.53-.522,3.1,3.1,0,0,0,.365-.959A6.745,6.745,0,0,0,2487.083,1460.6Z" transform="translate(-2476.973 -1456.673)" fill="#b7b7b7"/>
                  </g>
                </g>
                <g id="Group_4099" data-name="Group 4099" transform="translate(0.31 81.791)">
                  <g id="Group_4098" data-name="Group 4098">
                    <path id="Path_29033" data-name="Path 29033" d="M2454.656,1594.07a2.99,2.99,0,0,1,.266-.929,2.191,2.191,0,0,1,.5-.678,2.1,2.1,0,0,1,.695-.415,2.465,2.465,0,0,1,.845-.142,2.38,2.38,0,0,1,.828.139,1.889,1.889,0,0,1,.653.4,1.792,1.792,0,0,1,.426.621,2.073,2.073,0,0,1,.153.809,2.252,2.252,0,0,1-.086.651,1.6,1.6,0,0,1-.246.5,1.538,1.538,0,0,1-.387.364,2.219,2.219,0,0,1-.507.246,1.861,1.861,0,0,1,1.037.662,1.911,1.911,0,0,1,.348,1.171,2.357,2.357,0,0,1-.185.953,2.136,2.136,0,0,1-.5.721,2.221,2.221,0,0,1-.746.455,2.612,2.612,0,0,1-.914.158,2.692,2.692,0,0,1-.961-.153,1.96,1.96,0,0,1-.675-.421,2.212,2.212,0,0,1-.453-.635,4.963,4.963,0,0,1-.3-.8l.379-.171a.435.435,0,0,1,.288-.037.287.287,0,0,1,.2.177q.064.15.16.359a1.7,1.7,0,0,0,.263.4,1.345,1.345,0,0,0,1.084.461,1.5,1.5,0,0,0,.648-.131,1.422,1.422,0,0,0,.463-.34,1.443,1.443,0,0,0,.278-.466,1.478,1.478,0,0,0,.094-.509,2.05,2.05,0,0,0-.074-.568.958.958,0,0,0-.276-.444,1.4,1.4,0,0,0-.554-.295,3.179,3.179,0,0,0-.9-.107v-.691a2.654,2.654,0,0,0,.771-.107,1.42,1.42,0,0,0,.517-.279,1.038,1.038,0,0,0,.291-.423,1.563,1.563,0,0,0,.091-.546,1.6,1.6,0,0,0-.1-.579,1.119,1.119,0,0,0-.264-.407,1.079,1.079,0,0,0-.4-.241,1.484,1.484,0,0,0-.5-.08,1.4,1.4,0,0,0-.5.086,1.3,1.3,0,0,0-.4.238,1.373,1.373,0,0,0-.293.362,1.532,1.532,0,0,0-.167.461.461.461,0,0,1-.16.249.405.405,0,0,1-.278.035Z" transform="translate(-2454.439 -1591.906)" fill="#b7b7b7"/>
                    <path id="Path_29034" data-name="Path 29034" d="M2487.994,1595.833a6.717,6.717,0,0,1-.2,1.744,3.777,3.777,0,0,1-.545,1.219,2.176,2.176,0,0,1-1.823.954,2.2,2.2,0,0,1-1.008-.236,2.247,2.247,0,0,1-.81-.718,3.739,3.739,0,0,1-.542-1.219,7.826,7.826,0,0,1,0-3.49,3.774,3.774,0,0,1,.542-1.224,2.239,2.239,0,0,1,.81-.72,2.205,2.205,0,0,1,2.83.72,3.812,3.812,0,0,1,.545,1.224A6.75,6.75,0,0,1,2487.994,1595.833Zm-.911,0a6.785,6.785,0,0,0-.136-1.476,3.106,3.106,0,0,0-.365-.962,1.423,1.423,0,0,0-.53-.522,1.318,1.318,0,0,0-1.251,0,1.407,1.407,0,0,0-.527.522,3.145,3.145,0,0,0-.362.962,8.092,8.092,0,0,0,0,2.949,3.142,3.142,0,0,0,.362.959,1.407,1.407,0,0,0,.527.522,1.318,1.318,0,0,0,1.251,0,1.423,1.423,0,0,0,.53-.522,3.1,3.1,0,0,0,.365-.959A6.748,6.748,0,0,0,2487.083,1595.833Z" transform="translate(-2477.283 -1591.906)" fill="#b7b7b7"/>
                  </g>
                </g>
                <g id="Group_4101" data-name="Group 4101" transform="translate(0.35 109.746)">
                  <g id="Group_4100" data-name="Group 4100">
                    <path id="Path_29035" data-name="Path 29035" d="M2459.039,1741.021a.294.294,0,0,1,.227.091.335.335,0,0,1,.084.236v.578h-4.71v-.327a.6.6,0,0,1,.04-.209.6.6,0,0,1,.123-.2l2.261-2.47q.281-.311.512-.6a4.191,4.191,0,0,0,.394-.576,2.878,2.878,0,0,0,.251-.587,2.212,2.212,0,0,0,.089-.635,1.634,1.634,0,0,0-.1-.592,1.175,1.175,0,0,0-.269-.421,1.1,1.1,0,0,0-.4-.249,1.467,1.467,0,0,0-.5-.083,1.4,1.4,0,0,0-.5.086,1.314,1.314,0,0,0-.4.239,1.371,1.371,0,0,0-.293.362,1.523,1.523,0,0,0-.167.461.43.43,0,0,1-.16.249.425.425,0,0,1-.283.035l-.458-.086a2.96,2.96,0,0,1,.269-.93,2.224,2.224,0,0,1,.5-.678,2.1,2.1,0,0,1,.692-.415,2.438,2.438,0,0,1,.843-.142,2.39,2.39,0,0,1,.838.145,1.9,1.9,0,0,1,1.123,1.093,2.35,2.35,0,0,1,.163.9,2.58,2.58,0,0,1-.118.8,3.268,3.268,0,0,1-.32.7,5.377,5.377,0,0,1-.466.648q-.264.317-.559.638l-1.863,2.068a3.472,3.472,0,0,1,.4-.094,2.285,2.285,0,0,1,.389-.035Z" transform="translate(-2454.639 -1734.164)" fill="#b7b7b7"/>
                    <path id="Path_29036" data-name="Path 29036" d="M2487.994,1738.091a6.719,6.719,0,0,1-.2,1.744,3.78,3.78,0,0,1-.545,1.219,2.178,2.178,0,0,1-1.823.953,2.2,2.2,0,0,1-1.008-.236,2.246,2.246,0,0,1-.81-.718,3.742,3.742,0,0,1-.542-1.219,7.827,7.827,0,0,1,0-3.49,3.775,3.775,0,0,1,.542-1.224,2.24,2.24,0,0,1,.81-.721,2.2,2.2,0,0,1,2.83.721,3.813,3.813,0,0,1,.545,1.224A6.752,6.752,0,0,1,2487.994,1738.091Zm-.911,0a6.784,6.784,0,0,0-.136-1.476,3.1,3.1,0,0,0-.365-.962,1.424,1.424,0,0,0-.53-.522,1.318,1.318,0,0,0-1.251,0,1.408,1.408,0,0,0-.527.522,3.14,3.14,0,0,0-.362.962,8.091,8.091,0,0,0,0,2.949,3.139,3.139,0,0,0,.362.959,1.406,1.406,0,0,0,.527.522,1.319,1.319,0,0,0,1.251,0,1.422,1.422,0,0,0,.53-.522,3.1,3.1,0,0,0,.365-.959A6.749,6.749,0,0,0,2487.083,1738.091Z" transform="translate(-2477.323 -1734.164)" fill="#b7b7b7"/>
                  </g>
                </g>
              </g>
            </g>
            <g id="Lineal_graph" transform="translate(260.358 139.478)" opacity="0.6">
              <g id="_1" data-name="1" transform="translate(21.552 0.666)">
                <g id="Group_4102" data-name="Group 4102" transform="translate(1.399 1.691)">
                  <path id="Path_29037" data-name="Path 29037" d="M1839.566,1366.933l-27.113-4.169-.175-.39-27.239-60.671,1.434-.644,27.064,60.281,25.25,3.882,25.906-40.971,1.329.84Z" transform="translate(-1785.039 -1301.059)" fill="#fb961c"/>
                </g>
                <ellipse id="Ellipse_651" data-name="Ellipse 651" cx="2.645" cy="2.875" rx="2.645" ry="2.875" fill="#fb961c"/>
                <ellipse id="Ellipse_652" data-name="Ellipse 652" cx="2.645" cy="2.875" rx="2.645" ry="2.875" transform="translate(26.71 59.234)" fill="#fb961c"/>
                <ellipse id="Ellipse_653" data-name="Ellipse 653" cx="2.645" cy="2.875" rx="2.645" ry="2.875" transform="translate(52.627 63.834)" fill="#fb961c"/>
                <ellipse id="Ellipse_654" data-name="Ellipse 654" cx="2.645" cy="2.875" rx="2.645" ry="2.875" transform="translate(79.073 22.716)" fill="#fb961c"/>
              </g>
              <g id="_2" data-name="2" transform="translate(22.345 14.756)">
                <ellipse id="Ellipse_655" data-name="Ellipse 655" cx="2.645" cy="2.875" rx="2.645" ry="2.875" transform="translate(78.279)" fill="#6400ff"/>
                <ellipse id="Ellipse_656" data-name="Ellipse 656" cx="2.645" cy="2.875" rx="2.645" ry="2.875" transform="translate(52.362 8.626)" fill="#6400ff"/>
                <ellipse id="Ellipse_657" data-name="Ellipse 657" cx="2.645" cy="2.875" rx="2.645" ry="2.875" transform="translate(26.181 36.23)" fill="#6400ff"/>
                <ellipse id="Ellipse_658" data-name="Ellipse 658" cx="2.645" cy="2.875" rx="2.645" ry="2.875" transform="translate(0 54.058)" fill="#6400ff"/>
                <g id="Group_4103" data-name="Group 4103" transform="translate(1.41 2.126)">
                  <path id="Path_29038" data-name="Path 29038" d="M1790.017,1431.3l-.882-1.3,26.634-18.064,26-28.266,27.439-8.689.474,1.5-27.04,8.563L1816.8,1413.13l-.076.051Z" transform="translate(-1789.135 -1374.976)" fill="#6400ff"/>
                </g>
              </g>
              <g id="_4" data-name="4" transform="translate(21.552 23.382)">
                <ellipse id="Ellipse_659" data-name="Ellipse 659" cx="2.645" cy="2.875" rx="2.645" ry="2.875" fill="#0db7ae"/>
                <ellipse id="Ellipse_660" data-name="Ellipse 660" cx="2.645" cy="2.875" rx="2.645" ry="2.875" transform="translate(26.71 54.633)" fill="#0db7ae"/>
                <ellipse id="Ellipse_661" data-name="Ellipse 661" cx="2.645" cy="2.875" rx="2.645" ry="2.875" transform="translate(53.156 23.291)" fill="#0db7ae"/>
                <ellipse id="Ellipse_662" data-name="Ellipse 662" cx="2.645" cy="2.875" rx="2.645" ry="2.875" transform="translate(79.073 58.659)" fill="#0db7ae"/>
                <g id="Group_4104" data-name="Group 4104" transform="translate(2.115 2.617)">
                  <path id="Path_29039" data-name="Path 29039" d="M1867.806,1481.2l-25.466-35.883-26.274,32.607-27.382-56.041,1.059-.518,26.568,54.375,26.088-32.377,26.368,37.153Z" transform="translate(-1788.685 -1421.371)" fill="#0db7ae"/>
                </g>
              </g>
              <g id="_3" data-name="3" transform="translate(21.552 68.814)">
                <ellipse id="Ellipse_663" data-name="Ellipse 663" cx="2.645" cy="2.875" rx="2.645" ry="2.875" transform="translate(0 22.428)" fill="#6ecef5"/>
                <ellipse id="Ellipse_664" data-name="Ellipse 664" cx="2.645" cy="2.875" rx="2.645" ry="2.875" transform="translate(25.917)" fill="#6ecef5"/>
                <ellipse id="Ellipse_665" data-name="Ellipse 665" cx="2.645" cy="2.875" rx="2.645" ry="2.875" transform="translate(51.834)" fill="#6ecef5"/>
                <ellipse id="Ellipse_666" data-name="Ellipse 666" cx="2.645" cy="2.875" rx="2.645" ry="2.875" transform="translate(79.073 31.63)" fill="#6ecef5"/>
                <g id="Group_4105" data-name="Group 4105" transform="translate(2.262 2.286)">
                  <path id="Path_29040" data-name="Path 29040" d="M1868.429,1684.343l-26.269-32.275h-26.212l-25.751,22-.766-.9,26.082-22.282h27.208l26.623,32.71Z" transform="translate(-1789.431 -1650.889)" fill="#6ecef5"/>
                </g>
              </g>
              <g id="Lineal" transform="translate(0)">
                <g id="linear-2" data-name="linear" transform="translate(9.327 5.267)">
                  <g id="Group_4106" data-name="Group 4106">
                    <path id="Path_29041" data-name="Path 29041" d="M1715.706,1431.813V1315.867h1.179V1430.58l103.316-4.6.052,1.178Z" transform="translate(-1715.706 -1315.867)" fill="#b2b2b2"/>
                  </g>
                  <g id="Group_4107" data-name="Group 4107" transform="translate(0.59 1.711)">
                    <rect id="Rectangle_1774" data-name="Rectangle 1774" width="3.173" height="1.179" fill="#b2b2b2"/>
                  </g>
                  <g id="Group_4108" data-name="Group 4108" transform="translate(0.59 23.852)">
                    <rect id="Rectangle_1775" data-name="Rectangle 1775" width="3.173" height="1.179" fill="#b2b2b2"/>
                  </g>
                  <g id="Group_4109" data-name="Group 4109" transform="translate(0.59 45.705)">
                    <rect id="Rectangle_1776" data-name="Rectangle 1776" width="3.173" height="1.179" fill="#b2b2b2"/>
                  </g>
                  <g id="Group_4110" data-name="Group 4110" transform="translate(0.59 67.558)">
                    <rect id="Rectangle_1777" data-name="Rectangle 1777" width="3.173" height="1.179" fill="#b2b2b2"/>
                  </g>
                  <g id="Group_4111" data-name="Group 4111" transform="translate(0.59 89.411)">
                    <rect id="Rectangle_1778" data-name="Rectangle 1778" width="3.173" height="1.179" fill="#b2b2b2"/>
                  </g>
                  <g id="Group_4112" data-name="Group 4112" transform="translate(103.138 107.253)">
                    <rect id="Rectangle_1779" data-name="Rectangle 1779" width="1.179" height="3.451" fill="#b2b2b2"/>
                  </g>
                </g>
                <g id="Group_4114" data-name="Group 4114" transform="translate(0.349)">
                  <g id="Group_4113" data-name="Group 4113">
                    <path id="Path_29042" data-name="Path 29042" d="M1671.521,1291.823l-.15.208c-.048.067-.094.133-.137.2a1.654,1.654,0,0,1,.46-.241,1.693,1.693,0,0,1,.546-.085,1.786,1.786,0,0,1,.673.127,1.588,1.588,0,0,1,.552.37,1.79,1.79,0,0,1,.375.6,2.2,2.2,0,0,1,.14.81,2.241,2.241,0,0,1-.148.821,2.025,2.025,0,0,1-.412.661,1.9,1.9,0,0,1-.636.442,2.172,2.172,0,0,1-1.624.007,1.707,1.707,0,0,1-.614-.437,1.977,1.977,0,0,1-.39-.687,2.792,2.792,0,0,1-.138-.9,2.656,2.656,0,0,1,.17-.895,4.441,4.441,0,0,1,.544-1.016l1.494-2.183a.476.476,0,0,1,.39-.192h.648Zm.427,3.41a1.352,1.352,0,0,0,.536-.1,1.2,1.2,0,0,0,.411-.286,1.28,1.28,0,0,0,.263-.433,1.561,1.561,0,0,0,.092-.545,1.668,1.668,0,0,0-.09-.565,1.206,1.206,0,0,0-.257-.428,1.116,1.116,0,0,0-.4-.27,1.326,1.326,0,0,0-.505-.094,1.265,1.265,0,0,0-.534.109,1.222,1.222,0,0,0-.4.295,1.3,1.3,0,0,0-.254.429,1.47,1.47,0,0,0-.088.507,1.821,1.821,0,0,0,.082.562,1.248,1.248,0,0,0,.24.437,1.075,1.075,0,0,0,.386.283A1.277,1.277,0,0,0,1671.948,1295.233Z" transform="translate(-1670.019 -1289.355)" fill="#b7b7b7"/>
                    <path id="Path_29043" data-name="Path 29043" d="M1697.517,1292.335a5.6,5.6,0,0,1-.166,1.453,3.148,3.148,0,0,1-.454,1.016,1.813,1.813,0,0,1-1.519.794,1.832,1.832,0,0,1-.839-.2,1.869,1.869,0,0,1-.675-.6,3.116,3.116,0,0,1-.452-1.016,6.515,6.515,0,0,1,0-2.908,3.146,3.146,0,0,1,.452-1.02,1.864,1.864,0,0,1,.675-.6,1.893,1.893,0,0,1,1.679,0,1.856,1.856,0,0,1,.679.6,3.178,3.178,0,0,1,.454,1.02A5.628,5.628,0,0,1,1697.517,1292.335Zm-.76,0a5.681,5.681,0,0,0-.113-1.23,2.594,2.594,0,0,0-.3-.8,1.186,1.186,0,0,0-.441-.435,1.1,1.1,0,0,0-1.043,0,1.172,1.172,0,0,0-.439.435,2.624,2.624,0,0,0-.3.8,6.74,6.74,0,0,0,0,2.457,2.618,2.618,0,0,0,.3.8,1.173,1.173,0,0,0,.439.435,1.1,1.1,0,0,0,1.043,0,1.187,1.187,0,0,0,.441-.435,2.588,2.588,0,0,0,.3-.8A5.644,5.644,0,0,0,1696.758,1292.335Z" transform="translate(-1688.683 -1289.063)" fill="#b7b7b7"/>
                  </g>
                </g>
                <g id="Group_4116" data-name="Group 4116" transform="translate(0.365 23.291)">
                  <g id="Group_4115" data-name="Group 4115">
                    <path id="Path_29044" data-name="Path 29044" d="M1671.129,1410.369a3.742,3.742,0,0,1,.846-.107,2.093,2.093,0,0,1,.813.147,1.636,1.636,0,0,1,.589.406,1.731,1.731,0,0,1,.357.611,2.351,2.351,0,0,1,.121.768,2.487,2.487,0,0,1-.162.919,2.094,2.094,0,0,1-.447.7,1.95,1.95,0,0,1-.671.448,2.2,2.2,0,0,1-.833.156,2.161,2.161,0,0,1-.5-.056,2.388,2.388,0,0,1-.445-.15,2.519,2.519,0,0,1-.384-.214,2.229,2.229,0,0,1-.312-.254l.226-.339a.22.22,0,0,1,.193-.116.34.34,0,0,1,.185.069q.1.069.25.154a2.041,2.041,0,0,0,.347.154,1.447,1.447,0,0,0,.474.069,1.377,1.377,0,0,0,.554-.107,1.2,1.2,0,0,0,.423-.306,1.379,1.379,0,0,0,.271-.475,1.915,1.915,0,0,0,.094-.62,1.712,1.712,0,0,0-.08-.54,1.074,1.074,0,0,0-.242-.411,1.1,1.1,0,0,0-.4-.263,1.564,1.564,0,0,0-.566-.094,2.8,2.8,0,0,0-.462.04,2.879,2.879,0,0,0-.49.129l-.46-.147.472-2.991h2.787v.348a.406.406,0,0,1-.1.279.423.423,0,0,1-.33.109H1671.4Z" transform="translate(-1670.103 -1407.883)" fill="#b7b7b7"/>
                    <path id="Path_29045" data-name="Path 29045" d="M1697.517,1410.863a5.6,5.6,0,0,1-.166,1.453,3.146,3.146,0,0,1-.454,1.015,1.814,1.814,0,0,1-1.519.795,1.832,1.832,0,0,1-.839-.2,1.866,1.866,0,0,1-.675-.6,3.114,3.114,0,0,1-.452-1.015,6.516,6.516,0,0,1,0-2.908,3.141,3.141,0,0,1,.452-1.02,1.862,1.862,0,0,1,.675-.6,1.892,1.892,0,0,1,1.679,0,1.854,1.854,0,0,1,.679.6,3.174,3.174,0,0,1,.454,1.02A5.627,5.627,0,0,1,1697.517,1410.863Zm-.76,0a5.681,5.681,0,0,0-.113-1.23,2.593,2.593,0,0,0-.3-.8,1.186,1.186,0,0,0-.441-.435,1.1,1.1,0,0,0-1.043,0,1.172,1.172,0,0,0-.439.435,2.623,2.623,0,0,0-.3.8,6.741,6.741,0,0,0,0,2.457,2.623,2.623,0,0,0,.3.8,1.171,1.171,0,0,0,.439.435,1.1,1.1,0,0,0,1.043,0,1.186,1.186,0,0,0,.441-.435,2.593,2.593,0,0,0,.3-.8A5.648,5.648,0,0,0,1696.758,1410.863Z" transform="translate(-1688.7 -1407.591)" fill="#b7b7b7"/>
                  </g>
                </g>
                <g id="Group_4118" data-name="Group 4118" transform="translate(0 46.007)">
                  <g id="Group_4117" data-name="Group 4117">
                    <path id="Path_29046" data-name="Path 29046" d="M1672.677,1527.645v.455a.187.187,0,0,1-.039.12.145.145,0,0,1-.121.049h-.731v1.683h-.64v-1.683h-2.611a.21.21,0,0,1-.142-.051.228.228,0,0,1-.076-.127l-.074-.406,2.861-4.129h.682v4.089Zm-1.531,0v-2.638c0-.077,0-.162.008-.254s.014-.186.025-.281l-2.143,3.174Z" transform="translate(-1668.243 -1523.484)" fill="#b7b7b7"/>
                    <path id="Path_29047" data-name="Path 29047" d="M1697.517,1526.464a5.6,5.6,0,0,1-.166,1.453,3.147,3.147,0,0,1-.454,1.016,1.813,1.813,0,0,1-1.519.794,1.832,1.832,0,0,1-.839-.2,1.869,1.869,0,0,1-.675-.6,3.115,3.115,0,0,1-.452-1.016,6.515,6.515,0,0,1,0-2.908,3.146,3.146,0,0,1,.452-1.02,1.863,1.863,0,0,1,.675-.6,1.891,1.891,0,0,1,1.679,0,1.855,1.855,0,0,1,.679.6,3.179,3.179,0,0,1,.454,1.02A5.627,5.627,0,0,1,1697.517,1526.464Zm-.76,0a5.68,5.68,0,0,0-.113-1.23,2.593,2.593,0,0,0-.3-.8,1.188,1.188,0,0,0-.441-.435,1.1,1.1,0,0,0-1.043,0,1.174,1.174,0,0,0-.439.435,2.623,2.623,0,0,0-.3.8,6.74,6.74,0,0,0,0,2.457,2.618,2.618,0,0,0,.3.8,1.173,1.173,0,0,0,.439.435,1.1,1.1,0,0,0,1.043,0,1.187,1.187,0,0,0,.441-.435,2.588,2.588,0,0,0,.3-.8A5.645,5.645,0,0,0,1696.758,1526.464Z" transform="translate(-1688.334 -1523.192)" fill="#b7b7b7"/>
                  </g>
                </g>
                <g id="Group_4120" data-name="Group 4120" transform="translate(0.259 68.148)">
                  <g id="Group_4119" data-name="Group 4119">
                    <path id="Path_29048" data-name="Path 29048" d="M1669.74,1637.668a2.5,2.5,0,0,1,.221-.774,1.833,1.833,0,0,1,.417-.565,1.745,1.745,0,0,1,.579-.346,2.054,2.054,0,0,1,.7-.118,1.985,1.985,0,0,1,.69.116,1.576,1.576,0,0,1,.544.33,1.492,1.492,0,0,1,.355.518,1.729,1.729,0,0,1,.127.674,1.888,1.888,0,0,1-.072.542,1.336,1.336,0,0,1-.205.417,1.292,1.292,0,0,1-.322.3,1.861,1.861,0,0,1-.423.205,1.551,1.551,0,0,1,.864.551,1.593,1.593,0,0,1,.289.975,1.968,1.968,0,0,1-.154.795,1.777,1.777,0,0,1-.421.6,1.846,1.846,0,0,1-.622.38,2.177,2.177,0,0,1-.761.132,2.24,2.24,0,0,1-.8-.127,1.63,1.63,0,0,1-.563-.35,1.855,1.855,0,0,1-.377-.529,4.161,4.161,0,0,1-.251-.663l.316-.143a.362.362,0,0,1,.24-.031.239.239,0,0,1,.17.147c.036.083.08.183.133.3a1.407,1.407,0,0,0,.22.335,1.12,1.12,0,0,0,.9.384,1.253,1.253,0,0,0,.54-.109,1.178,1.178,0,0,0,.386-.284,1.2,1.2,0,0,0,.232-.388,1.232,1.232,0,0,0,.078-.424,1.712,1.712,0,0,0-.062-.473.8.8,0,0,0-.23-.37,1.163,1.163,0,0,0-.462-.246,2.644,2.644,0,0,0-.753-.089v-.576a2.212,2.212,0,0,0,.642-.089,1.182,1.182,0,0,0,.431-.232.868.868,0,0,0,.242-.353,1.3,1.3,0,0,0,.076-.455,1.32,1.32,0,0,0-.08-.482.928.928,0,0,0-.219-.339.9.9,0,0,0-.331-.2,1.241,1.241,0,0,0-.413-.067,1.17,1.17,0,0,0-.412.072,1.081,1.081,0,0,0-.337.2,1.137,1.137,0,0,0-.244.3,1.264,1.264,0,0,0-.14.384.388.388,0,0,1-.133.208.338.338,0,0,1-.232.029Z" transform="translate(-1669.559 -1635.865)" fill="#b7b7b7"/>
                    <path id="Path_29049" data-name="Path 29049" d="M1697.517,1639.137a5.6,5.6,0,0,1-.166,1.453,3.15,3.15,0,0,1-.454,1.016,1.815,1.815,0,0,1-1.519.794,1.829,1.829,0,0,1-.839-.2,1.868,1.868,0,0,1-.675-.6,3.118,3.118,0,0,1-.452-1.016,6.515,6.515,0,0,1,0-2.908,3.143,3.143,0,0,1,.452-1.02,1.861,1.861,0,0,1,.675-.6,1.892,1.892,0,0,1,1.679,0,1.853,1.853,0,0,1,.679.6,3.175,3.175,0,0,1,.454,1.02A5.626,5.626,0,0,1,1697.517,1639.137Zm-.76,0a5.678,5.678,0,0,0-.113-1.23,2.591,2.591,0,0,0-.3-.8,1.186,1.186,0,0,0-.441-.435,1.1,1.1,0,0,0-1.043,0,1.171,1.171,0,0,0-.439.435,2.621,2.621,0,0,0-.3.8,6.741,6.741,0,0,0,0,2.457,2.623,2.623,0,0,0,.3.8,1.17,1.17,0,0,0,.439.435,1.1,1.1,0,0,0,1.043,0,1.185,1.185,0,0,0,.441-.435,2.593,2.593,0,0,0,.3-.8A5.65,5.65,0,0,0,1696.758,1639.137Z" transform="translate(-1688.593 -1635.865)" fill="#b7b7b7"/>
                  </g>
                </g>
                <g id="Group_4122" data-name="Group 4122" transform="translate(0.292 91.439)">
                  <g id="Group_4121" data-name="Group 4121">
                    <path id="Path_29050" data-name="Path 29050" d="M1673.393,1760.106a.244.244,0,0,1,.189.076.279.279,0,0,1,.07.2v.482h-3.924v-.272a.5.5,0,0,1,.033-.174.493.493,0,0,1,.1-.165l1.884-2.057q.234-.259.427-.5a3.485,3.485,0,0,0,.329-.48,2.4,2.4,0,0,0,.209-.489,1.84,1.84,0,0,0,.074-.529,1.363,1.363,0,0,0-.082-.493.975.975,0,0,0-.224-.351.913.913,0,0,0-.334-.207,1.216,1.216,0,0,0-.415-.069,1.166,1.166,0,0,0-.415.071,1.091,1.091,0,0,0-.335.2,1.15,1.15,0,0,0-.244.3,1.268,1.268,0,0,0-.14.384.357.357,0,0,1-.133.208.353.353,0,0,1-.236.029l-.382-.072a2.466,2.466,0,0,1,.224-.774,1.852,1.852,0,0,1,.419-.565,1.747,1.747,0,0,1,.577-.346,2.039,2.039,0,0,1,.7-.118,1.989,1.989,0,0,1,.7.12,1.606,1.606,0,0,1,.562.35,1.626,1.626,0,0,1,.373.56,1.961,1.961,0,0,1,.135.75,2.143,2.143,0,0,1-.1.663,2.71,2.71,0,0,1-.267.582,4.44,4.44,0,0,1-.388.54q-.22.263-.466.531l-1.552,1.723a2.882,2.882,0,0,1,.333-.078,1.927,1.927,0,0,1,.324-.029Z" transform="translate(-1669.727 -1754.393)" fill="#b7b7b7"/>
                    <path id="Path_29051" data-name="Path 29051" d="M1697.517,1757.665a5.6,5.6,0,0,1-.166,1.453,3.149,3.149,0,0,1-.454,1.016,1.815,1.815,0,0,1-1.519.794,1.826,1.826,0,0,1-.839-.2,1.869,1.869,0,0,1-.675-.6,3.117,3.117,0,0,1-.452-1.016,6.514,6.514,0,0,1,0-2.908,3.142,3.142,0,0,1,.452-1.02,1.865,1.865,0,0,1,.675-.6,1.893,1.893,0,0,1,1.679,0,1.857,1.857,0,0,1,.679.6,3.175,3.175,0,0,1,.454,1.02A5.625,5.625,0,0,1,1697.517,1757.665Zm-.76,0a5.681,5.681,0,0,0-.113-1.23,2.593,2.593,0,0,0-.3-.8,1.189,1.189,0,0,0-.441-.435,1.1,1.1,0,0,0-1.043,0,1.174,1.174,0,0,0-.439.435,2.623,2.623,0,0,0-.3.8,6.741,6.741,0,0,0,0,2.457,2.62,2.62,0,0,0,.3.8,1.17,1.17,0,0,0,.439.435,1.1,1.1,0,0,0,1.043,0,1.184,1.184,0,0,0,.441-.435,2.59,2.59,0,0,0,.3-.8A5.65,5.65,0,0,0,1696.758,1757.665Z" transform="translate(-1688.626 -1754.393)" fill="#b7b7b7"/>
                  </g>
                </g>
              </g>
            </g>
            <g id="Cube2_graph" transform="translate(633.281 175.338)" opacity="0.6">
              <g id="_1-2" data-name="1" transform="translate(16.202 6.145)">
                <rect id="Rectangle_1780" data-name="Rectangle 1780" width="16.785" height="41.613" rx="8.393" fill="#767dff"/>
                <rect id="Rectangle_1781" data-name="Rectangle 1781" width="16.785" height="11.418" transform="translate(0 36.031)" fill="#d2eafb"/>
                <rect id="Rectangle_1782" data-name="Rectangle 1782" width="16.785" height="34.001" transform="translate(0 46.18)" fill="#8db3ff"/>
                <path id="Path_29052" data-name="Path 29052" d="M3665.281,1899.166l-16.785-3.533v-23.509h16.785Z" transform="translate(-3648.496 -1799.555)" fill="#421aaa"/>
              </g>
              <g id="_2-2" data-name="2" transform="translate(40.504 36.085)">
                <rect id="Rectangle_1783" data-name="Rectangle 1783" width="17.036" height="18.776" rx="8.518" fill="#767dff"/>
                <rect id="Rectangle_1784" data-name="Rectangle 1784" width="17.036" height="7.105" transform="translate(0 15.224)" fill="#d2eafb"/>
                <rect id="Rectangle_1785" data-name="Rectangle 1785" width="17.036" height="25.433" transform="translate(0 20.553)" fill="#8db3ff"/>
                <path id="Path_29053" data-name="Path 29053" d="M3789.2,1914.151l-17.036-3.2v-25.916H3789.2Z" transform="translate(-3772.165 -1839.871)" fill="#421aaa"/>
              </g>
              <g id="_3-2" data-name="3" transform="translate(64.554 49.026)">
                <rect id="Rectangle_1786" data-name="Rectangle 1786" width="17.036" height="3.933" rx="1.966" fill="#767dff"/>
                <rect id="Rectangle_1787" data-name="Rectangle 1787" width="17.036" height="21.314" transform="translate(0 20.299)" fill="#8db3ff"/>
                <path id="Path_29054" data-name="Path 29054" d="M3911.594,1951.869l-17.036-3.2v-22.313h17.036Z" transform="translate(-3894.558 -1886.012)" fill="#421aaa"/>
                <rect id="Rectangle_1788" data-name="Rectangle 1788" width="17.036" height="17.254" transform="translate(0 3.299)" fill="#d2eafb"/>
              </g>
              <g id="_4-2" data-name="4" transform="translate(88.605 30.757)">
                <rect id="Rectangle_1789" data-name="Rectangle 1789" width="17.537" height="14.209" rx="7.105" fill="#767dff"/>
                <rect id="Rectangle_1790" data-name="Rectangle 1790" width="17.537" height="9.135" transform="translate(0 10.657)" fill="#d2eafb"/>
                <rect id="Rectangle_1791" data-name="Rectangle 1791" width="17.537" height="32.478" transform="translate(0 19.791)" fill="#8db3ff"/>
                <path id="Path_29055" data-name="Path 29055" d="M4034.488,1902.528l-17.537-2.944v-40.374h17.537Z" transform="translate(-4016.951 -1813.792)" fill="#421aaa"/>
              </g>
              <g id="linear-3" data-name="linear">
                <g id="Group_4123" data-name="Group 4123" transform="translate(11.354 4.115)">
                  <path id="Path_29056" data-name="Path 29056" d="M3725.877,1609.835l-102.055-19.166v-98.178H3625v97.2l101.094,18.985Z" transform="translate(-3623.822 -1492.492)" fill="#b2b2b2"/>
                </g>
                <g id="Group_4124" data-name="Group 4124" transform="translate(11.943 5.555)">
                  <rect id="Rectangle_1792" data-name="Rectangle 1792" width="3.006" height="1.179" fill="#b2b2b2"/>
                </g>
                <g id="Group_4125" data-name="Group 4125" transform="translate(11.943 25.093)">
                  <rect id="Rectangle_1793" data-name="Rectangle 1793" width="3.006" height="1.179" fill="#b2b2b2"/>
                </g>
                <g id="Group_4126" data-name="Group 4126" transform="translate(11.943 44.377)">
                  <rect id="Rectangle_1794" data-name="Rectangle 1794" width="3.006" height="1.179" fill="#b2b2b2"/>
                </g>
                <g id="Group_4127" data-name="Group 4127" transform="translate(11.943 63.661)">
                  <rect id="Rectangle_1795" data-name="Rectangle 1795" width="3.006" height="1.179" fill="#b2b2b2"/>
                </g>
                <g id="Group_4128" data-name="Group 4128" transform="translate(11.943 82.945)">
                  <rect id="Rectangle_1796" data-name="Rectangle 1796" width="3.006" height="1.179" fill="#b2b2b2"/>
                </g>
                <g id="Group_4129" data-name="Group 4129" transform="translate(112.928 118.252)">
                  <rect id="Rectangle_1797" data-name="Rectangle 1797" width="1.179" height="3.106" fill="#b2b2b2"/>
                </g>
                <g id="Group_4131" data-name="Group 4131" transform="translate(0.349)">
                  <g id="Group_4130" data-name="Group 4130">
                    <path id="Path_29057" data-name="Path 29057" d="M3569.32,1474.314l-.15.208q-.072.1-.137.2a1.647,1.647,0,0,1,.46-.241,1.689,1.689,0,0,1,.546-.085,1.79,1.79,0,0,1,.674.127,1.586,1.586,0,0,1,.552.371,1.786,1.786,0,0,1,.376.6,2.206,2.206,0,0,1,.14.81,2.24,2.24,0,0,1-.148.821,2.029,2.029,0,0,1-.413.661,1.9,1.9,0,0,1-.636.442,2.173,2.173,0,0,1-1.624.007,1.7,1.7,0,0,1-.614-.437,1.972,1.972,0,0,1-.39-.687,2.79,2.79,0,0,1-.138-.9,2.654,2.654,0,0,1,.171-.9,4.458,4.458,0,0,1,.544-1.015l1.494-2.182a.475.475,0,0,1,.39-.192h.649Zm.427,3.41a1.351,1.351,0,0,0,.536-.1,1.192,1.192,0,0,0,.41-.286,1.273,1.273,0,0,0,.263-.433,1.555,1.555,0,0,0,.093-.545,1.671,1.671,0,0,0-.09-.565,1.21,1.21,0,0,0-.257-.429,1.116,1.116,0,0,0-.4-.27,1.326,1.326,0,0,0-.505-.094,1.263,1.263,0,0,0-.534.109,1.218,1.218,0,0,0-.4.295,1.29,1.29,0,0,0-.255.429,1.467,1.467,0,0,0-.088.507,1.819,1.819,0,0,0,.082.562,1.24,1.24,0,0,0,.24.437,1.078,1.078,0,0,0,.386.283A1.278,1.278,0,0,0,3569.747,1477.724Z" transform="translate(-3567.817 -1471.845)" fill="#b7b7b7"/>
                    <path id="Path_29058" data-name="Path 29058" d="M3595.317,1474.825a5.6,5.6,0,0,1-.166,1.453,3.155,3.155,0,0,1-.454,1.016,1.813,1.813,0,0,1-1.519.794,1.833,1.833,0,0,1-.84-.2,1.871,1.871,0,0,1-.675-.6,3.123,3.123,0,0,1-.451-1.016,6.515,6.515,0,0,1,0-2.908,3.148,3.148,0,0,1,.451-1.02,1.863,1.863,0,0,1,.675-.6,1.892,1.892,0,0,1,1.679,0,1.854,1.854,0,0,1,.679.6,3.181,3.181,0,0,1,.454,1.02A5.628,5.628,0,0,1,3595.317,1474.825Zm-.759,0a5.673,5.673,0,0,0-.113-1.23,2.582,2.582,0,0,0-.3-.8,1.186,1.186,0,0,0-.441-.435,1.1,1.1,0,0,0-1.043,0,1.175,1.175,0,0,0-.439.435,2.627,2.627,0,0,0-.3.8,6.747,6.747,0,0,0,0,2.457,2.626,2.626,0,0,0,.3.8,1.175,1.175,0,0,0,.439.435,1.1,1.1,0,0,0,1.043,0,1.186,1.186,0,0,0,.441-.435,2.58,2.58,0,0,0,.3-.8A5.638,5.638,0,0,0,3594.558,1474.825Z" transform="translate(-3586.483 -1471.553)" fill="#b7b7b7"/>
                  </g>
                </g>
                <g id="Group_4133" data-name="Group 4133" transform="translate(0.365 20.552)">
                  <g id="Group_4132" data-name="Group 4132">
                    <path id="Path_29059" data-name="Path 29059" d="M3568.927,1578.922a3.756,3.756,0,0,1,.846-.107,2.1,2.1,0,0,1,.813.147,1.636,1.636,0,0,1,.589.406,1.73,1.73,0,0,1,.357.611,2.342,2.342,0,0,1,.121.768,2.483,2.483,0,0,1-.162.919,2.1,2.1,0,0,1-.447.7,1.953,1.953,0,0,1-.671.448,2.2,2.2,0,0,1-.833.156,2.167,2.167,0,0,1-.5-.056,2.43,2.43,0,0,1-.446-.15,2.545,2.545,0,0,1-.384-.214,2.246,2.246,0,0,1-.312-.255l.226-.339a.221.221,0,0,1,.193-.116.342.342,0,0,1,.185.069q.1.069.25.154a2.059,2.059,0,0,0,.347.154,1.447,1.447,0,0,0,.474.069,1.375,1.375,0,0,0,.554-.107,1.2,1.2,0,0,0,.423-.306,1.378,1.378,0,0,0,.271-.475,1.913,1.913,0,0,0,.094-.62,1.711,1.711,0,0,0-.08-.54,1.077,1.077,0,0,0-.242-.411,1.1,1.1,0,0,0-.4-.264,1.569,1.569,0,0,0-.567-.094,2.809,2.809,0,0,0-.462.04,2.867,2.867,0,0,0-.49.13l-.46-.147.472-2.991h2.787v.348a.407.407,0,0,1-.1.279.424.424,0,0,1-.331.109H3569.2Z" transform="translate(-3567.901 -1576.436)" fill="#b7b7b7"/>
                    <path id="Path_29060" data-name="Path 29060" d="M3595.317,1579.416a5.6,5.6,0,0,1-.166,1.453,3.149,3.149,0,0,1-.454,1.015,1.814,1.814,0,0,1-1.519.795,1.83,1.83,0,0,1-.84-.2,1.868,1.868,0,0,1-.675-.6,3.117,3.117,0,0,1-.451-1.015,6.515,6.515,0,0,1,0-2.908,3.146,3.146,0,0,1,.451-1.02,1.862,1.862,0,0,1,.675-.6,1.892,1.892,0,0,1,1.679,0,1.853,1.853,0,0,1,.679.6,3.178,3.178,0,0,1,.454,1.02A5.626,5.626,0,0,1,3595.317,1579.416Zm-.759,0a5.672,5.672,0,0,0-.113-1.229,2.584,2.584,0,0,0-.3-.8,1.185,1.185,0,0,0-.441-.435,1.1,1.1,0,0,0-1.043,0,1.174,1.174,0,0,0-.439.435,2.629,2.629,0,0,0-.3.8,6.747,6.747,0,0,0,0,2.457,2.626,2.626,0,0,0,.3.8,1.173,1.173,0,0,0,.439.435,1.1,1.1,0,0,0,1.043,0,1.184,1.184,0,0,0,.441-.435,2.581,2.581,0,0,0,.3-.8A5.64,5.64,0,0,0,3594.558,1579.416Z" transform="translate(-3586.499 -1576.144)" fill="#b7b7b7"/>
                  </g>
                </g>
                <g id="Group_4135" data-name="Group 4135" transform="translate(0 40.597)">
                  <g id="Group_4134" data-name="Group 4134">
                    <path id="Path_29061" data-name="Path 29061" d="M3570.476,1682.605v.455a.187.187,0,0,1-.039.12.145.145,0,0,1-.121.049h-.731v1.683h-.64v-1.683h-2.611a.209.209,0,0,1-.142-.051.229.229,0,0,1-.076-.127l-.074-.406,2.861-4.129h.681v4.089Zm-1.531,0v-2.638c0-.077,0-.162.008-.255s.013-.186.024-.281l-2.143,3.173Z" transform="translate(-3566.042 -1678.445)" fill="#b7b7b7"/>
                    <path id="Path_29062" data-name="Path 29062" d="M3595.317,1681.425a5.6,5.6,0,0,1-.166,1.453,3.155,3.155,0,0,1-.454,1.016,1.814,1.814,0,0,1-1.519.794,1.832,1.832,0,0,1-.84-.2,1.871,1.871,0,0,1-.675-.6,3.123,3.123,0,0,1-.451-1.016,6.515,6.515,0,0,1,0-2.908,3.149,3.149,0,0,1,.451-1.02,1.866,1.866,0,0,1,.675-.6,1.893,1.893,0,0,1,1.679,0,1.857,1.857,0,0,1,.679.6,3.182,3.182,0,0,1,.454,1.02A5.627,5.627,0,0,1,3595.317,1681.425Zm-.759,0a5.671,5.671,0,0,0-.113-1.23,2.579,2.579,0,0,0-.3-.8,1.186,1.186,0,0,0-.441-.435,1.1,1.1,0,0,0-1.043,0,1.175,1.175,0,0,0-.439.435,2.625,2.625,0,0,0-.3.8,6.748,6.748,0,0,0,0,2.457,2.625,2.625,0,0,0,.3.8,1.172,1.172,0,0,0,.439.435,1.1,1.1,0,0,0,1.043,0,1.183,1.183,0,0,0,.441-.435,2.579,2.579,0,0,0,.3-.8A5.641,5.641,0,0,0,3594.558,1681.425Z" transform="translate(-3586.134 -1678.153)" fill="#b7b7b7"/>
                  </g>
                </g>
                <g id="Group_4137" data-name="Group 4137" transform="translate(0.259 60.135)">
                  <g id="Group_4136" data-name="Group 4136">
                    <path id="Path_29063" data-name="Path 29063" d="M3567.539,1779.382a2.511,2.511,0,0,1,.222-.774,1.829,1.829,0,0,1,.417-.565,1.741,1.741,0,0,1,.579-.346,2.048,2.048,0,0,1,.7-.118,1.987,1.987,0,0,1,.69.116,1.577,1.577,0,0,1,.544.33,1.492,1.492,0,0,1,.355.518,1.73,1.73,0,0,1,.127.674,1.883,1.883,0,0,1-.072.542,1.328,1.328,0,0,1-.205.417,1.281,1.281,0,0,1-.322.3,1.851,1.851,0,0,1-.423.205,1.551,1.551,0,0,1,.864.551,1.6,1.6,0,0,1,.29.975,1.973,1.973,0,0,1-.154.795,1.788,1.788,0,0,1-.421.6,1.846,1.846,0,0,1-.622.379,2.17,2.17,0,0,1-.761.132,2.244,2.244,0,0,1-.8-.127,1.629,1.629,0,0,1-.562-.35,1.85,1.85,0,0,1-.378-.529,4.144,4.144,0,0,1-.25-.663l.316-.143a.361.361,0,0,1,.24-.031.238.238,0,0,1,.17.147q.053.125.133.3a1.4,1.4,0,0,0,.22.335,1.119,1.119,0,0,0,.9.384,1.253,1.253,0,0,0,.54-.109,1.174,1.174,0,0,0,.386-.284,1.2,1.2,0,0,0,.232-.388,1.238,1.238,0,0,0,.078-.424,1.7,1.7,0,0,0-.062-.473.8.8,0,0,0-.23-.37,1.166,1.166,0,0,0-.462-.246,2.642,2.642,0,0,0-.753-.089v-.576a2.209,2.209,0,0,0,.642-.089,1.181,1.181,0,0,0,.431-.232.866.866,0,0,0,.242-.353,1.306,1.306,0,0,0,.076-.455,1.321,1.321,0,0,0-.08-.482.926.926,0,0,0-.22-.339.9.9,0,0,0-.331-.2,1.231,1.231,0,0,0-.412-.067,1.17,1.17,0,0,0-.412.071,1.078,1.078,0,0,0-.337.2,1.14,1.14,0,0,0-.244.3,1.262,1.262,0,0,0-.14.384.387.387,0,0,1-.134.208.337.337,0,0,1-.232.029Z" transform="translate(-3567.358 -1777.579)" fill="#b7b7b7"/>
                    <path id="Path_29064" data-name="Path 29064" d="M3595.317,1780.85a5.6,5.6,0,0,1-.166,1.453,3.155,3.155,0,0,1-.454,1.016,1.814,1.814,0,0,1-1.519.794,1.832,1.832,0,0,1-.84-.2,1.872,1.872,0,0,1-.675-.6,3.123,3.123,0,0,1-.451-1.016,6.515,6.515,0,0,1,0-2.908,3.147,3.147,0,0,1,.451-1.02,1.866,1.866,0,0,1,.675-.6,1.893,1.893,0,0,1,1.679,0,1.857,1.857,0,0,1,.679.6,3.179,3.179,0,0,1,.454,1.02A5.626,5.626,0,0,1,3595.317,1780.85Zm-.759,0a5.67,5.67,0,0,0-.113-1.229,2.579,2.579,0,0,0-.3-.8,1.186,1.186,0,0,0-.441-.435,1.1,1.1,0,0,0-1.043,0,1.175,1.175,0,0,0-.439.435,2.625,2.625,0,0,0-.3.8,6.748,6.748,0,0,0,0,2.457,2.625,2.625,0,0,0,.3.8,1.173,1.173,0,0,0,.439.435,1.1,1.1,0,0,0,1.043,0,1.184,1.184,0,0,0,.441-.435,2.579,2.579,0,0,0,.3-.8A5.643,5.643,0,0,0,3594.558,1780.85Z" transform="translate(-3586.393 -1777.579)" fill="#b7b7b7"/>
                  </g>
                </g>
                <g id="Group_4139" data-name="Group 4139" transform="translate(0.291 80.688)">
                  <g id="Group_4138" data-name="Group 4138">
                    <path id="Path_29065" data-name="Path 29065" d="M3571.191,1887.888a.245.245,0,0,1,.189.076.279.279,0,0,1,.07.2v.482h-3.925v-.272a.508.508,0,0,1,.033-.174.5.5,0,0,1,.1-.165l1.884-2.058q.234-.259.427-.5a3.447,3.447,0,0,0,.328-.48,2.4,2.4,0,0,0,.209-.489,1.838,1.838,0,0,0,.074-.529,1.361,1.361,0,0,0-.082-.493.963.963,0,0,0-.224-.35.913.913,0,0,0-.334-.208,1.225,1.225,0,0,0-.415-.069,1.163,1.163,0,0,0-.415.072,1.089,1.089,0,0,0-.335.2,1.149,1.149,0,0,0-.244.3,1.267,1.267,0,0,0-.14.384.358.358,0,0,1-.133.208.353.353,0,0,1-.236.029l-.382-.071a2.461,2.461,0,0,1,.224-.775,1.86,1.86,0,0,1,.418-.565,1.75,1.75,0,0,1,.577-.346,2.039,2.039,0,0,1,.7-.118,1.986,1.986,0,0,1,.7.12,1.6,1.6,0,0,1,.562.35,1.625,1.625,0,0,1,.374.56,1.966,1.966,0,0,1,.135.75,2.15,2.15,0,0,1-.1.663,2.719,2.719,0,0,1-.267.582,4.441,4.441,0,0,1-.388.54q-.219.263-.466.531l-1.552,1.723a2.861,2.861,0,0,1,.333-.078,1.913,1.913,0,0,1,.324-.029Z" transform="translate(-3567.525 -1882.175)" fill="#b7b7b7"/>
                    <path id="Path_29066" data-name="Path 29066" d="M3595.317,1885.447a5.6,5.6,0,0,1-.166,1.453,3.155,3.155,0,0,1-.454,1.016,1.814,1.814,0,0,1-1.519.794,1.832,1.832,0,0,1-.84-.2,1.871,1.871,0,0,1-.675-.6,3.123,3.123,0,0,1-.451-1.016,6.515,6.515,0,0,1,0-2.908,3.15,3.15,0,0,1,.451-1.02,1.866,1.866,0,0,1,.675-.6,1.894,1.894,0,0,1,1.679,0,1.857,1.857,0,0,1,.679.6,3.182,3.182,0,0,1,.454,1.02A5.627,5.627,0,0,1,3595.317,1885.447Zm-.759,0a5.674,5.674,0,0,0-.113-1.23,2.584,2.584,0,0,0-.3-.8,1.19,1.19,0,0,0-.441-.435,1.1,1.1,0,0,0-1.043,0,1.178,1.178,0,0,0-.439.435,2.63,2.63,0,0,0-.3.8,6.748,6.748,0,0,0,0,2.457,2.626,2.626,0,0,0,.3.8,1.175,1.175,0,0,0,.439.435,1.1,1.1,0,0,0,1.043,0,1.186,1.186,0,0,0,.441-.435,2.58,2.58,0,0,0,.3-.8A5.64,5.64,0,0,0,3594.558,1885.447Z" transform="translate(-3586.426 -1882.175)" fill="#b7b7b7"/>
                  </g>
                </g>
              </g>
            </g>
            <path id="Path_29067" data-name="Path 29067" d="M1243.866,1496.663l-85.308,2.15a1.745,1.745,0,0,1-1.708-1.773l-.162-7.6a1.761,1.761,0,0,1,1.631-1.858l85.308-2.15a1.745,1.745,0,0,1,1.708,1.773l.162,7.6A1.761,1.761,0,0,1,1243.866,1496.663Z" transform="translate(-996.851 -1307.362)" fill="#8db3ff" opacity="0.6"/>
            <path id="Path_29068" data-name="Path 29068" d="M1244.883,1745.44l-85.326,2.8a1.727,1.727,0,0,1-1.708-1.76l-.158-7.6a1.779,1.779,0,0,1,1.632-1.87l85.326-2.8a1.727,1.727,0,0,1,1.708,1.76l.158,7.6A1.779,1.779,0,0,1,1244.883,1745.44Z" transform="translate(-997.658 -1507.257)" fill="#c61a9a" opacity="0.6"/>
            <path id="Path_29069" data-name="Path 29069" d="M1203.415,1599.658l-42.778,1.078a1.745,1.745,0,0,1-1.708-1.773l-.162-7.6a1.761,1.761,0,0,1,1.631-1.858l42.777-1.078a1.745,1.745,0,0,1,1.709,1.773l.162,7.6A1.761,1.761,0,0,1,1203.415,1599.658Z" transform="translate(-998.522 -1390.119)" fill="#8db3ff" opacity="0.6"/>
            <rect id="Rectangle_1798" data-name="Rectangle 1798" width="10.503" height="73.411" rx="5.252" transform="translate(18.158 237.762)" fill="#fcb631" opacity="0.6"/>
            <rect id="Rectangle_1799" data-name="Rectangle 1799" width="10.503" height="65.543" rx="5.252" transform="translate(2.241 253.493)" fill="#fcb631" opacity="0.6"/>
            <rect id="Rectangle_1800" data-name="Rectangle 1800" width="10.503" height="88.093" rx="5.252" transform="translate(36.097 216.621)" fill="#fcb631" opacity="0.6"/>
            <rect id="Rectangle_1801" data-name="Rectangle 1801" width="10.503" height="115.622" rx="5.252" transform="translate(54.699 182.352)" fill="#fcb631" opacity="0.6"/>
            <rect id="Rectangle_1802" data-name="Rectangle 1802" width="10.503" height="100.022" rx="5.252" transform="translate(72.251 191.998)" fill="#fcb631" opacity="0.6"/>
            <rect id="Rectangle_1803" data-name="Rectangle 1803" width="10.503" height="118.375" rx="5.252" transform="translate(90.027 166.906)" fill="#fcb631" opacity="0.6"/>
            <rect id="Rectangle_1804" data-name="Rectangle 1804" width="10.503" height="137.645" rx="5.252" transform="translate(105.609 144.237)" fill="#fcb631" opacity="0.6"/>
            <path id="Path_29070" data-name="Path 29070" d="M3481.242,667.368h0a4.54,4.54,0,0,1,3.965-5l46.945-4.741a4.46,4.46,0,0,1,4.819,4.117h0a4.539,4.539,0,0,1-3.965,5l-46.945,4.741A4.46,4.46,0,0,1,3481.242,667.368Z" transform="translate(-2864.607 -642.207)" fill="#c61a9a" opacity="0.7"/>
            <path id="Path_29071" data-name="Path 29071" d="M3479.021,775.441h0a4.539,4.539,0,0,1,3.964-5l46.945-4.741a4.46,4.46,0,0,1,4.819,4.117h0a4.539,4.539,0,0,1-3.964,5l-46.945,4.741A4.46,4.46,0,0,1,3479.021,775.441Z" transform="translate(-2862.823 -729.043)" fill="#fcb631" opacity="0.7"/>
            <path id="Path_29072" data-name="Path 29072" d="M3479.021,885.979h0a4.539,4.539,0,0,1,3.964-5l46.945-4.741a4.46,4.46,0,0,1,4.819,4.117h0a4.539,4.539,0,0,1-3.964,5L3483.84,890.1A4.46,4.46,0,0,1,3479.021,885.979Z" transform="translate(-2862.823 -817.86)" fill="#fcb631" opacity="0.7"/>
            <g id="Group_4140" data-name="Group 4140" transform="translate(0 104.183)" opacity="0.7">
              <path id="Path_29073" data-name="Path 29073" d="M344.232,1192.1l-.95-1.252,40.338-30.6,14.868-21.474h22.678l30.494-29.322,1.09,1.133L421.8,1140.342H399.311l-14.542,21-.1.076Z" transform="translate(-343.282 -1109.448)" fill="#6400ff"/>
            </g>
            <path id="Path_29074" data-name="Path 29074" d="M493.158,616.922l-94.434-21.09a5.986,5.986,0,0,1-4.254-7.088l.129-4.686a5.61,5.61,0,0,1,6.551-4.675l94.434,21.09a5.986,5.986,0,0,1,4.254,7.088l-.129,4.686A5.61,5.61,0,0,1,493.158,616.922Z" transform="translate(-384.315 -579.26)" fill="#0d6faa" opacity="0.6"/>
            <path id="Path_29075" data-name="Path 29075" d="M454.947,757.216l-62.392-13.934a5.986,5.986,0,0,1-4.254-7.088l.129-4.686a5.61,5.61,0,0,1,6.551-4.675l62.392,13.934a5.986,5.986,0,0,1,4.254,7.088l-.129,4.686A5.61,5.61,0,0,1,454.947,757.216Z" transform="translate(-379.358 -697.736)" fill="#0d6faa" opacity="0.6"/>
            <path id="Path_29076" data-name="Path 29076" d="M4110.267,657.251l-8.3,21.252a22.891,22.891,0,0,1,16.33,12.267,24.056,24.056,0,0,1,1.261,18.846l20.31,8.814a47.234,47.234,0,0,0-2.054-38.158A45.053,45.053,0,0,0,4110.267,657.251Z" transform="translate(-3363.376 -641.926)" fill="#fcb631" opacity="0.6"/>
            <g id="Group_4141" data-name="Group 4141" transform="translate(306.388 57.378)" opacity="0.6">
              <path id="Path_29077" data-name="Path 29077" d="M2090.068,907.434l-10.04,8.364a13.015,13.015,0,0,1,.926,20.216l8.314,9.834a25.529,25.529,0,0,0,.8-38.414Z" transform="translate(-2045.141 -900.325)" fill="#fb961c" opacity="0.7"/>
              <path id="Path_29078" data-name="Path 29078" d="M1936.9,908.046a13.739,13.739,0,0,1-7.791,2.4,13.23,13.23,0,1,1,0-26.452,13.769,13.769,0,0,1,6.709,1.729l10.236-8.527a26.929,26.929,0,0,0-16.945-5.937c-14.7,0-26.624,11.623-26.624,25.961s11.92,25.961,26.624,25.961a26.949,26.949,0,0,0,16.111-5.292Z" transform="translate(-1902.487 -871.258)" fill="#8047d1"/>
            </g>
            <g id="Group_4142" data-name="Group 4142" transform="translate(689.764 13.586)" opacity="0.6">
              <path id="Path_29079" data-name="Path 29079" d="M3875.65,697.023a23.7,23.7,0,0,1,12.139-23.263,22.244,22.244,0,0,1,11.4-2.689l8.455-21.677a43.6,43.6,0,0,0-30.065,4.3c-19.4,10.434-28.315,33.347-22.181,54.218Z" transform="translate(-3853.485 -648.4)" fill="#767dff"/>
              <path id="Path_29080" data-name="Path 29080" d="M3920.963,927.93a22.572,22.572,0,0,1-30.875-9.939,24,24,0,0,1-1.9-5.089L3868.4,923.544a47.276,47.276,0,0,0,2.167,4.945c11.5,22.594,38.628,31.329,60.6,19.509a45.44,45.44,0,0,0,19.835-21.29l-20.325-8.82A23.112,23.112,0,0,1,3920.963,927.93Z" transform="translate(-3865.472 -860.927)" fill="#8047d1"/>
            </g>
          </g>
        </g>
      </g>
      <g id="man" transform="translate(310.167 345.071)">
        <g id="man-2" data-name="man">
          <path id="Path_29081" data-name="Path 29081" d="M2106.684,3251.488c.352,1.431,1.032,7.375,1.338,10.86a2.384,2.384,0,0,0,2.31,2.09c2.96.4,10.2,1.9,15.817,3.071,0,0,1.005.212,1.014.215,2.632.885,1.156,4.513-1.606,4.386-6.511-.3-15.612-.591-20.469-.176-1.261.108-2.7.146-3.035-1.971-.578-3.672-1.408-11.083-2.941-17.289Z" transform="translate(-1996.798 -2957.633)" fill="#1c1360"/>
          <path id="Path_29082" data-name="Path 29082" d="M2141.08,3349.173l-.142-.906a.514.514,0,0,0-.486-.365l-25.194-.256a.516.516,0,0,0-.517.557l.064.829a.516.516,0,0,0,.508.477l25.379.24C2141.039,3349.751,2141.122,3349.5,2141.08,3349.173Z" transform="translate(-2009.354 -3034.896)" fill="#2d2d72"/>
          <path id="Path_29083" data-name="Path 29083" d="M2096.53,3271s9.775-.443,9.943-1.686c0,0-1.468-4.938-1.977-7.05l-1.151-4.975-10.746,2.066,3.686,11.551Z" transform="translate(-1991.564 -2962.298)" fill="#fdc6b2"/>
          <path id="Path_29084" data-name="Path 29084" d="M1598.492,3203.317c-.76,1.246-4.449,5.82-6.674,8.431a2.543,2.543,0,0,0,.115,3.195c1.74,2.54,5.626,9.1,8.641,14.206,0,0,.537.915.541.923,1.176,2.619-2.364,3.963-4.159,1.761-4.231-5.191-10.234-12.358-13.837-15.794-.935-.892-1.944-1.969-.693-3.668,2.171-2.947,6.781-8.637,10.072-14.043Z" transform="translate(-1581.174 -2914.919)" fill="#1c1360"/>
          <path id="Path_29085" data-name="Path 29085" d="M1596.381,3293.855l.536-.727a.556.556,0,0,0-.077-.621l-17-19.467a.487.487,0,0,0-.741-.016l-.535.614a.548.548,0,0,0,.013.714l17.141,19.6C1595.949,3294.218,1596.182,3294.11,1596.381,3293.855Z" transform="translate(-1578.435 -2974.807)" fill="#2d2d72"/>
          <path id="Path_29086" data-name="Path 29086" d="M1596.276,3211.306s6.976,7.183,7.959,6.464c0,0,2.448-4.492,3.577-6.322l2.69-4.274-8.771-6.819-5.556,10.7Z" transform="translate(-1592.688 -2916.548)" fill="#fdc6b2"/>
          <path id="Path_29087" data-name="Path 29087" d="M1962.007,1816.08c1.351-.415,2.022-6.5,2.261-7.334.029-.1-.46-.815-.44-.921l2.266-4.947a3.478,3.478,0,0,1,.259-.815l2.678-5.824a3.2,3.2,0,0,1,3.146-1.9l10.531.847c1.733.139,6.029-1.436,5.951.382l-3.359,19.968c0,.01,0,.029,0,.038-.073,1.425-1.188,4.676-4.168,4.1l-4.121-1.315a5.7,5.7,0,0,0-1.774,3.656Z" transform="translate(-1886.634 -1786.811)" fill="#fdc6b2"/>
          <path id="Path_29088" data-name="Path 29088" d="M1973.3,1775.454a1.328,1.328,0,0,1-1.377-1.718c.432-1.532.694-3.589-.491-4.742-2.052-2-5.685,1.243-3.427,5.381,1.713,3.139-3.335,7.64-4.978,4.856-1.6-2.71-1.105-5.062.068-9.053s-2.866-11.812,6.221-10.7c9.657,1.182,2.444-3.649,13.662-3.406,7.788.169,7.564,5.526,6.072,8.23a6.967,6.967,0,0,1-4.933,2.619l-3.972-.77a5.112,5.112,0,0,0-4.682,2.672,8.089,8.089,0,0,0-1,4.743c.048.9-.184,1.773-1.044,1.873Z" transform="translate(-1886.635 -1756.065)" fill="#9c5b40"/>
          <path id="Path_29089" data-name="Path 29089" d="M1650.756,2440.685s-1,63.474-11.274,83.67-11.274,22.557-24.8,68.457l10.522,4.459s49.353-59.015,57.62-100.457S1650.756,2440.685,1650.756,2440.685Z" transform="translate(-1607.558 -2306.155)" fill="#363147"/>
          <path id="Path_29090" data-name="Path 29090" d="M1838.2,2442h-48.852s8.267,43.45,24.426,73.351,2.13,33.566,34.948,91.461l13.3.376-11.8-73.472s-2-11.892-5.512-27.366S1838.2,2442,1838.2,2442Z" transform="translate(-1747.899 -2307.212)" fill="#424261"/>
          <path id="Path_29091" data-name="Path 29091" d="M2042.118,2094.85l1.9.76c1.074.169,3.035-.209,3.608-1.015,3.547-4.98-9.421-9.27-12.085-12.22l-32.483-28.114-16.782-31.4c-2.865-3.173-9.189-5.211-12.909-2.355l-2.086,1.75c-3.289,3.255-6.176,9.24-2.229,16.556l13.105,22.354c10.68,12.278,13.306,12.825,15.051,13.953.116.075,10.036,4.551,10.166,4.592l25.622,9.034c4.288.856,3.479.851,6.8,4.106A17.417,17.417,0,0,0,2042.118,2094.85Z" transform="translate(-1890.759 -1967.449)" fill="#fdc6b2"/>
          <path id="Path_29092" data-name="Path 29092" d="M2049.142,2041.082l-3.685-43.32s8.689,10.1,17.7,30.763Z" transform="translate(-1953.686 -1950.268)" fill="#be2e48"/>
          <path id="Path_29093" data-name="Path 29093" d="M1801.018,1908.669s8.457,14.644,7.644,39.5,3.9,54.149,3.9,54.149-3.59,5.7-11.071,3.489-50.407,2.641-55.286,8.6,2.114-101.146,33.179-112.044l4.554-7.322,20.748,9.772Z" transform="translate(-1712.106 -1867.737)" fill="#dd425e"/>
          <path id="Path_29094" data-name="Path 29094" d="M1914.957,2553.211s2.851,5.18,3.751,7.609-2.4,2.33-3.751-4.436C1913.922,2551.194,1914.957,2553.211,1914.957,2553.211Z" transform="translate(-1848.46 -2396.26)" fill="#fdc6b2"/>
        </g>
        <g id="laptop" transform="translate(23.546 134.889)">
          <path id="Path_29095" data-name="Path 29095" d="M1704.188,2496.795l70.24-6a2.444,2.444,0,0,0,2.159-2.661l-3.378-43.352a2.4,2.4,0,0,0-2.542-2.26l-70.24,6a2.444,2.444,0,0,0-2.159,2.661l3.378,43.352A2.4,2.4,0,0,0,1704.188,2496.795Z" transform="translate(-1698.26 -2442.515)" fill="#d3eafe"/>
          <ellipse id="Ellipse_667" data-name="Ellipse 667" cx="8.297" cy="8.686" rx="8.297" ry="8.686" transform="translate(29.499 19.364)" fill="#8047d1"/>
        </g>
        <path id="Path_29096" data-name="Path 29096" d="M1820.419,2132.666l.731,2.289c.631,1.107,2.36,2.634,3.448,2.581,6.723-.331.978-15.32,1.53-19.888l.15-50.051,14.2-38.007c.594-4.914-2.253-12.185-7.323-13.543l-2.967-.655c-5.093-.675-12.183.985-15.466,9.874l-9.279,28.121c-2.59,18.64-1.157,21.445-.846,23.858.021.16,3.415,12.486,3.475,12.636l10.884,30.017c2.371,4.551,1.792,3.805,1.456,9.194A21.368,21.368,0,0,0,1820.419,2132.666Z" transform="translate(-1759.615 -1964.326)" fill="#fdc6b2"/>
        <path id="Path_29097" data-name="Path 29097" d="M1836.813,2047.306l9.889-26.462c.594-4.914-2.693-14.463-7.762-15.821l-2.96-.574c-5.093-.675-11.75,3.183-15.032,12.072l-9.279,28.121Z" transform="translate(-1765.836 -1955.58)" fill="#be2e48"/>
      </g>
      <g id="girl1" transform="translate(157.077 342.545)">
        <g id="table" transform="translate(79.828 17.347)">
          <path id="Path_29098" data-name="Path 29098" d="M1235.878,1872l-27.419-9.356a4.206,4.206,0,0,1-2.687-5.133l6.536-22.964a4.206,4.206,0,0,1,4.651-3.011l28.584,4.156a4.207,4.207,0,0,1,3.452,5.272l-7.7,28.164A4.207,4.207,0,0,1,1235.878,1872Z" transform="translate(-1205.61 -1831.487)" fill="#3e40b6"/>
          <ellipse id="Ellipse_668" data-name="Ellipse 668" cx="4.599" cy="4.556" rx="4.599" ry="4.556" transform="translate(4.799 25.699) rotate(-75.651)" fill="#ded3ef"/>
          <rect id="Rectangle_1805" data-name="Rectangle 1805" width="14.388" height="2.743" rx="1.372" transform="translate(16.361 25.472) rotate(18.296)" fill="#fcb631"/>
          <rect id="Rectangle_1806" data-name="Rectangle 1806" width="18.981" height="2.743" rx="1.372" transform="translate(17.678 21.489) rotate(18.296)" fill="#fcb631"/>
          <ellipse id="Ellipse_669" data-name="Ellipse 669" cx="4.599" cy="4.556" rx="4.599" ry="4.556" transform="translate(8.275 12.738) rotate(-75.658)" fill="#c61a9a"/>
          <rect id="Rectangle_1807" data-name="Rectangle 1807" width="14.388" height="2.743" rx="1.372" transform="matrix(0.976, 0.219, -0.219, 0.976, 20.523, 12.331)" fill="#ded3ef"/>
          <rect id="Rectangle_1808" data-name="Rectangle 1808" width="18.981" height="2.743" rx="1.372" transform="translate(21.179 7.741) rotate(11.823)" fill="#ded3ef"/>
        </g>
        <g id="girl1-2" data-name="girl1">
          <path id="Path_29099" data-name="Path 29099" d="M987.964,2045.477c-.169.257-1.242,11,1.673,10.932s19.1-2.274,24.118-1.395,19.332,3.018,19.332,3.018-1.711,5.38-9.6,4.583c-3.947-.4-8.622-3.038-8.622-3.038s-24.827,8.1-34.472,5.417c-2.2-.613-1.119-18-1.119-18Z" transform="translate(-943.709 -1986.08)" fill="#eaaa9b"/>
          <path id="Path_29100" data-name="Path 29100" d="M943.016,1808.717l5.784,7.113c12.1,2.42,7.6-9.746,6.745-10.754l8.606-19.413a2.432,2.432,0,0,0-1.008-3.274l-2.827-1.374a2.433,2.433,0,0,0-3.2,1.231l-15.035,23.37A2.211,2.211,0,0,0,943.016,1808.717Z" transform="translate(-913.811 -1773.409)" fill="#fdc6b2"/>
          <path id="Path_29101" data-name="Path 29101" d="M975.765,2318.037c-7.422-1.375-10.6-9.268-12.663-13.117l-17.808-59.878a75.083,75.083,0,0,0-6.222-14.02c-6.872-12.018-21.187-38.745-24.482-58.237-4.377-25.888-20.982,27.815-18.794,33.594s19.7,30.464,26.9,36.123c7.188,5.643-2.212,13.887,31.94,61.808l.2.458s4.841,11.345,3.466,15.469l21.594,1.053S981.348,2319.071,975.765,2318.037Z" transform="translate(-876.688 -2082.738)" fill="#fdc6b2"/>
          <path id="Path_29102" data-name="Path 29102" d="M834.815,2277.023c-7.248-1.342-11.157-4-10.185-10.784h.027l6.194-62.125a79.935,79.935,0,0,0,0-17.841c-1.621-14.505-3.53-44.107,6.233-54.4l-1.325-15.439-23.962-3.9s-16.678,13.8-11.4,34.868c3.63,14.493,8.417,29.556,11.052,37.549a15.266,15.266,0,0,1,.026,9.563c-2.231,6.8-5.033,24.971,4.8,70.141l-.02,0s2.887,11.684,1.512,15.807l21.993-.137S840.4,2278.057,834.815,2277.023Z" transform="translate(-799.366 -2039.959)" fill="#fdc6b2"/>
          <path id="Path_29103" data-name="Path 29103" d="M811.451,2184.95c-2.635-7.992-7.423-23.055-11.052-37.549-5.278-21.072,11.4-34.868,11.4-34.868l23.962,3.9L837.6,2131.8c6.014,23.5,19.411,36.364,21.032,50.869Z" transform="translate(-799.366 -2039.959)" fill="#424261"/>
          <path id="Path_29104" data-name="Path 29104" d="M852.722,1929.874s7.794-14.973,6.145-27.756-1.09-21.658,10.8-18.8c3.436.825,5.065,0,5.065,0s-1.364,4.286-1.024,6.57c.346,2.327,4.4,8.11,6.735,7.56s4.613-8.091,4.613-8.091a4.342,4.342,0,0,1,1.71,2.318c.306.795,1.939,10.119,2.576,13.657,1.05,5.825-.588,5.911-2.878,11.369l-7.447,18.827Z" transform="translate(-842.237 -1855.352)" fill="#00acff"/>
          <path id="Path_29105" data-name="Path 29105" d="M1017.657,1812.562l3.362,1.634c.905.44,2.868.128,3.329-.821l5.426-12.509c.461-.949.229-2.861-.676-3.3l-3.362-1.633a1.881,1.881,0,0,0-2.484.926l-6.4,13.179A1.881,1.881,0,0,0,1017.657,1812.562Z" transform="translate(-973.952 -1785.431)" fill="#fdc6b2"/>
          <path id="Path_29106" data-name="Path 29106" d="M1012.869,1858.5c-2.441-1.125-3.943-2.5-4.466-4.088a3.6,3.6,0,0,1,.135-2.719l.172.095a3.465,3.465,0,0,0-.119,2.567c.506,1.531,1.973,2.866,4.36,3.966Z" transform="translate(-967.168 -1830.375)" fill="#5b325a"/>
          <path id="Path_29107" data-name="Path 29107" d="M894.589,1758.643s1.447-3.921.786-6.507c-.94-3.676-11.434-12.82-18.427-7.085s-7.229,14.342-6.009,18.854c.632,2.338-3.31,1.9-7.255.931a12.318,12.318,0,0,0-15.045,9.486c-.788,4.058.173,9.767,6.513,13.626,0,0-.651-10.058,7.694-11.318s15.521-3.9,14.879-11.854c-.541-6.7,5.757-11.088,10.027-10.982C892.092,1753.9,894.589,1758.643,894.589,1758.643Z" transform="translate(-838.767 -1743.208)" fill="#dd4288"/>
          <path id="Path_29108" data-name="Path 29108" d="M998.756,1809.548c.416,1.539-.2,3.043-1.37,3.36s-2.46-.674-2.876-2.212.2-3.043,1.37-3.361S998.34,1808.009,998.756,1809.548Z" transform="translate(-956.059 -1794.687)" fill="#fdc6b2"/>
          <path id="Path_29109" data-name="Path 29109" d="M924.645,1964.805s8.116,19.415,12.258,20.174c6.186,1.133,37.449-24.574,37.449-24.574s7.915.787,10.006-.747,1.037-6.418,1.956-7.038,5.039-4.511,2.983-4.358-6.852,4.233-6.852,4.233-6.717.5-10.974,4.4-32.11,13.011-32.11,13.011l-4.571-11.375S925.342,1959.378,924.645,1964.805Z" transform="translate(-900.027 -1907.965)" fill="#fdc6b2"/>
          <path id="Path_29110" data-name="Path 29110" d="M976.775,2104a2.669,2.669,0,0,1-.612-.071,3.3,3.3,0,0,1-1.935-1.46l.171-.1a3.153,3.153,0,0,0,1.811,1.366,3.2,3.2,0,0,0,2.529-.62l.109.164A3.765,3.765,0,0,1,976.775,2104Z" transform="translate(-939.867 -2031.795)" fill="#5b325a"/>
          <path id="Path_29111" data-name="Path 29111" d="M900.384,2924.415c1.874,2.448,6.662,3.941,10.2,4.935,5.859,1.643,5.193,5.242,5.193,5.242l-23.08.219c.489-2.222.167-6.6-.079-10.4Z" transform="translate(-874.297 -2692.305)" fill="#fff"/>
          <path id="Path_29112" data-name="Path 29112" d="M1218.182,2901.344c1.817,2.491,6.438,4.536,9.957,5.612,5.818,1.78,5.069,5.363,5.069,5.363l-23.079-.322c.541-2.21-.521-6.6-.679-10.395Z" transform="translate(-1128.867 -2673.767)" fill="#fff"/>
          <rect id="Rectangle_1809" data-name="Rectangle 1809" width="23.103" height="3.145" transform="translate(18.404 241.919)" fill="#1c1360"/>
          <rect id="Rectangle_1810" data-name="Rectangle 1810" width="23.103" height="3.145" transform="translate(81.269 238.12)" fill="#1c1360"/>
        </g>
        <g id="phone" transform="translate(68.352 60.775)">
          <path id="Path_29113" data-name="Path 29113" d="M1147.255,2059.55l4.009,7.415a1.3,1.3,0,0,0,1.512,1.015l23.5-5.672a1.3,1.3,0,0,0,.848-1.612l-5.267-7.158s-1.25-1.221-2.323-1.027l-21.434,5.426A1.3,1.3,0,0,0,1147.255,2059.55Z" transform="translate(-1147.209 -2052.49)" fill="#6400ff"/>
          <path id="Path_29114" data-name="Path 29114" d="M1159.761,2066.919l3.2,5.558a1.028,1.028,0,0,0,1.246.74l19.8-4.8a1.028,1.028,0,0,0,.743-1.244l-4.262-5.336a2.807,2.807,0,0,0-1.924-.733l-18.061,4.572A1.028,1.028,0,0,0,1159.761,2066.919Z" transform="translate(-1157.269 -2059.393)" fill="#d9e8ff"/>
          <path id="Path_29115" data-name="Path 29115" d="M1159.761,2066.919a1.028,1.028,0,0,1,.743-1.244l18.061-4.572a2.807,2.807,0,0,1,1.924.733l4.262,5.336a1.028,1.028,0,0,1-.743,1.244Z" transform="translate(-1157.269 -2059.393)" opacity="0.11"/>
        </g>
      </g>
      <g id="girl2" transform="translate(460.51 339.808)">
        <g id="girl2-2" data-name="girl2">
          <path id="Path_29116" data-name="Path 29116" d="M2658.554,1850.969l-8.836,4.866c-13.01-3.221-4.276-7.977-2.679-11.92l.761-27.921a2.782,2.782,0,0,1,2.433-3.036l3.4-.116a2.763,2.763,0,0,1,2.618,2.864l3.953,32.346C2660.25,1849.674,2659.943,1850.922,2658.554,1850.969Z" transform="translate(-2583.905 -1796.42)" fill="#fdc6b2"/>
          <path id="Path_29117" data-name="Path 29117" d="M2372.216,3253.022s-4.571,13.593-2.888,18.4l-24.262,1.99s-1.7-2.563,4.547-3.975c8.306-1.877,12.232-10.912,14.424-15.518Z" transform="translate(-2344.595 -2953.602)" fill="#fdc6b2"/>
          <path id="Path_29118" data-name="Path 29118" d="M2670.837,3257.651s-2.861,13.864-1.177,18.674l-24.751.6s-.789-2.646,5.458-4.058c8.306-1.877,12.691-5.578,11.062-13.955Z" transform="translate(-2585.662 -2957.321)" fill="#fdc6b2"/>
          <path id="Path_29119" data-name="Path 29119" d="M2659.071,3314.264c-1.958,1.876-4.925,3.107-8.7,3.961-6.247,1.412-5.458,4.058-5.458,4.058l24.751-.6c-.571-1.631-.632-4.762-.447-7.582Z" transform="translate(-2585.662 -3002.677)" fill="#fff"/>
          <path id="Path_29120" data-name="Path 29120" d="M2434.294,2560.121h-13.3l8.935-74.236c.9-11.824,1.9-21.582,5.775-30.984,6.938-16.835,13.13-41.892,18.208-67.941,1.3-6.646,32.257,31.8,29.846,39.651s-16.539,35.452-27.53,51.773C2449.705,2488.064,2458,2499.048,2434.294,2560.121Z" transform="translate(-2405.77 -2257.106)" fill="#363147"/>
          <path id="Path_29121" data-name="Path 29121" d="M2615.693,2230.375s21.079,22.718,15.536,51.251c-3.813,19.625-7.528,37.39-10.392,48.237a22.868,22.868,0,0,0,.33,12.862c2.977,9.185,7.428,30.207-1.323,94.4l-12.574-.06-9.016-80.717a120.28,120.28,0,0,1-.677-23.993c1.4-19.567-5.365-48.906-17.485-62.391l7-34.725Z" transform="translate(-2533.606 -2131.908)" fill="#424261"/>
          <path id="Path_29122" data-name="Path 29122" d="M2621.649,2024.9s-8.253-17.372-4.248-32c2.934-10.718-.206-20.306-2.467-23.534-.613-.875-6.282-6.084-6.282-6.084a8.658,8.658,0,0,1-1.01,4.171c-1.2,2.482-12.105,6.628-13.1,6.333-2.872-.849,1.643-8.991,1.643-8.991s-.6-1.513-7.18,8.589c-.548.841-3.4,4.857-5.757,8.785-3.557,5.928-4.414,6.681-3.522,13.715l4.816,33.7Z" transform="translate(-2533.049 -1917.296)" fill="#00acff"/>
          <path id="Path_29123" data-name="Path 29123" d="M2631.225,1824.85l-3.236.1c-1.447.049-4.07-1.882-4.124-3.6l-1.165-17.341a2.934,2.934,0,0,1,2.532-3.22l3.063-.1c1.447-.049,3.8-.7,3.855,1.018l-.555,20.375C2631.648,1823.8,2632.671,1824.8,2631.225,1824.85Z" transform="translate(-2567.841 -1786.521)" fill="#fdc6b2"/>
          <path id="Path_29124" data-name="Path 29124" d="M2705.033,1732.323c-1.1,2.573-.22,5.487,1.964,6.51s5.9.785,6.845-1.849c1.365-3.819-.427-6.681-2.865-7.467A4.762,4.762,0,0,0,2705.033,1732.323Z" transform="translate(-2633.617 -1729.277)" fill="#9c5b40"/>
          <path id="Path_29125" data-name="Path 29125" d="M2644.577,3354.128l24.77-.764-.052-1.836-24.77.764Z" transform="translate(-2585.38 -3032.751)" fill="#6a39b7"/>
          <path id="Path_29126" data-name="Path 29126" d="M2356.975,3310.391a14.218,14.218,0,0,1-7.6,3.992c-6.247,1.412-5.458,4.058-5.458,4.058l24.751-.6c-.571-1.631-.249-4.529-.063-7.348Z" transform="translate(-2343.817 -2999.698)" fill="#fff"/>
          <path id="Path_29127" data-name="Path 29127" d="M2343.585,3349.743l24.77-.764-.052-1.836-24.77.764Z" transform="translate(-2343.534 -3029.228)" fill="#6a39b7"/>
          <path id="Path_29128" data-name="Path 29128" d="M2426.958,2083.845s-17.221,26.243-23.006,31.4c-4.993,4.452-41.242,20.663-41.242,20.663s-3.023,8.089-5.44,9.36-5.1-.73-6.086-1.361c-1.143-.731-2.481-1.2-1.143-2.965.842-1.107,1.483-1.092,1.483-1.092s3.652-6.283,9.295-8.486,28.775-24.209,28.775-24.209l22.543-27.823S2421.585,2081.828,2426.958,2083.845Z" transform="translate(-2348.313 -2010.546)" fill="#fdc6b2"/>
          <path id="Path_29129" data-name="Path 29129" d="M2671.687,2042.834a1.881,1.881,0,0,0,2.23-.948c1.753-3.318,7.127-12.716,3.488-17.89-4.245-6.036-11.569-2.533-17.671,10.12a2.061,2.061,0,0,0,.436,2.386A30.208,30.208,0,0,0,2671.687,2042.834Z" transform="translate(-2597.437 -1963.771)" fill="#02a1ef"/>
          <path id="Path_29130" data-name="Path 29130" d="M2633.564,1792.02a17.264,17.264,0,0,0-.043-10.591c-.84-2.565-1.851-5.7-2.715-8.525-.7-2.287-6.049-.892-7.273-2.813-1.1-1.729-.533-4.172-1.958-5.294,0,0-.731,5.375-1.441,5.5-5.482.995-6.748-6.381-.8-12.169,6.5-6.327,19.664-6.658,26.681,11.556,6.626,17.2,9.152,13.973,17.434,20.319s4.093,22.855-.695,26.17c-1.857,1.286-17.766,10.569-26.06-5.161,0,0-7.823-1.3-5.373-11.939Z" transform="translate(-2561.987 -1749.308)" fill="#9c5b40"/>
        </g>
      </g>
      <g id="girl3" transform="translate(620.145 246.906)">
        <g id="girl3-2" data-name="girl3">
          <path id="Path_29131" data-name="Path 29131" d="M3169.552,1323.755c-4.92-4.184-7.729-45.6-7.729-45.6s-5.77-5.784-5.908-8.444,4.768-4.885,4.633-6.015c-.795-6.663-.262-8.364.65-6.453.861,1.8,2.751,7.84,2.751,7.84s2.871,7.164,2.534,13.086,9.686,34.047,9.686,34.047Z" transform="translate(-3155.912 -1256.503)" fill="#fdc6b2"/>
          <path id="Path_29132" data-name="Path 29132" d="M3591.306,1979.187c4.894,5.478,6.017,6.5,9.835,10.7,1.518,1.669,4.037,3.912,4.035,6.153,0,.883.643,5.491,1.417,6.97,1.1,2.1,4.286,4.924,4.835,1.946.316-1.712-2.2-10.352-3.652-13.868a110.869,110.869,0,0,0-10.252-19.859Z" transform="translate(-3505.75 -1830.78)" fill="#fdc6b2"/>
          <path id="Path_29133" data-name="Path 29133" d="M3186.97,1449.3l9.4-.6s5.688,39.33,29.111,39.6,25.783,9.536,29.7,26.123c5.022,21.284,21.067,41.127,21.067,41.127s1.647,2.134-1.107,4.9a17.95,17.95,0,0,1-4,3.173c-.986.742-4.628-.965-11.271-8.2-6.63-7.223-8.373-9.509-8.373-9.509-3.234-3.981-4.166-12.4-6.9-11.154-1.208.549-4.528,7.508-1.957,13.622.619,1.472-32.665,10.561-31.1,7.3,1.16-2.417-2.259-2.432-2.259-2.432s-.211-.614-2.606-.347-6.565-6.267-1.363-12.442c0,0,4.907-22.682-4.892-40.2C3194.954,1490.481,3188.833,1476.186,3186.97,1449.3Z" transform="translate(-3180.867 -1410.935)" fill="#00acff"/>
          <path id="Path_29134" data-name="Path 29134" d="M3378.376,1609.749l5.995,2.133c.656.233,1.317.161,1.469-.161l4.6-9.7c.153-.322-.259-.776-.915-1.009l-5.995-2.133c-.656-.233-1.317-.161-1.469.161l-4.6,9.7C3377.309,1609.061,3377.72,1609.515,3378.376,1609.749Z" transform="translate(-3333.901 -1531.494)" fill="#fdc6b2"/>
          <path id="Path_29135" data-name="Path 29135" d="M3378.738,1556.7l3.993,1.706a1.922,1.922,0,0,0,2.386-.534l7-11.673a1.422,1.422,0,0,0-.882-1.973l-5.295-4.47c-.9-.4-4.537,1.527-4.329.969l-4.994,11.808A3.707,3.707,0,0,0,3378.738,1556.7Z" transform="translate(-3333.18 -1484.055)" fill="#fdc6b2"/>
          <path id="Path_29136" data-name="Path 29136" d="M3393.223,1617.1a12.869,12.869,0,0,1-3.909-.689l.06-.187c2.831.912,5.169.906,6.948-.016a5.178,5.178,0,0,0,2.477-2.736l.188.059a5.3,5.3,0,0,1-2.574,2.852A6.843,6.843,0,0,1,3393.223,1617.1Z" transform="translate(-3343.45 -1543.33)" fill="#6f38b2"/>
          <path id="Path_29137" data-name="Path 29137" d="M3345.934,1538.651a24.3,24.3,0,0,0,8.175-6.671,23.69,23.69,0,0,0,3.281-5.264c.69-1.681-4.5-4.638-4.308-6.375.174-1.564,1.259-2.331,1.371-3.339,0,0-2.959,3.432-3.4,3.07-3.211-2.625-.536-7.957,5.886-8.278,7.021-.351,15.207,5.978,12.255,21.109-3.13,16.047,3.672,18.057,3.749,26.187.158,16.674-11.752,15.772-20.809,14.659-1.751-.215-15.181-7.258-12.549-20.6,0,0-5.19-7.133,1.479-12.047Z" transform="translate(-3301.946 -1461.618)" fill="#dd4288"/>
          <path id="Path_29138" data-name="Path 29138" d="M3339.661,2536.829s4.762,11.716,4.576,14.125-3.623,3.264-8.021,5.886c-4.3,2.563,15.954-1.074,15.954-1.074s-1.019-7.866-1.39-18.243Z" transform="translate(-3300.304 -2285.242)" fill="#fdc6b2"/>
          <path id="Path_29139" data-name="Path 29139" d="M3656.724,2419.06s11.84,8.4,12.237,9.983-.659,8.9-.659,8.9,5.607-5.94,5.805-8.719,2.794-3.986.611-5.376-9.655-12.611-9.655-12.611Z" transform="translate(-3558.313 -2184.333)" fill="#fdc6b2"/>
          <path id="Path_29140" data-name="Path 29140" d="M3337.891,2618.542c0,.174,3.962,5.985-2.78,6.081-6.878.1-10.1,3.288-16.552,2.4,0,0-2.377-4.351,6.693-6.158l1.841.464a20.643,20.643,0,0,0,4.923.384,12.461,12.461,0,0,0,4.658-.743C3338.343,2619.863,3337.891,2618.542,3337.891,2618.542Z" transform="translate(-3286.373 -2350.898)" fill="#421aaa"/>
          <path id="Path_29141" data-name="Path 29141" d="M3718.713,2471.965c1.516.793,7.715.645,4.071,6.852-3.976,6.771-3.083,10.132-7.813,15.819,0,0-4.023,1.016-1.885-7.9l2.762-3.932s2.757-5.165,2.834-7.469S3718.713,2471.965,3718.713,2471.965Z" transform="translate(-3603.096 -2233.124)" fill="#421aaa"/>
          <path id="Path_29142" data-name="Path 29142" d="M3278,1960.37c1.238.248,11.472-3.546,35.74-4.537,0,0,12.218,12.073,12.119,35.352-.134,31.5,1.6,27.5,15.609,35.8,0,0,12.345,5.335,21.152,23.982,0,0-3.115,6.122-5.095,6.981-.884.384-9.428-5.426-9.428-5.426s-27.892-15.776-38.443-28.639c0,0-7.913-20.065-8.9-30.713,0,0-5.514,21.636-6.1,24.811-1.455,7.853,6.969,12.043,8.123,55.407,0,0,0,1.722-1.17,1.969a26.164,26.164,0,0,1-4.833.642,3.915,3.915,0,0,1-4.364-3.071c-1.012-4.452-16.486-52.679-16.486-52.679s-.557-4.653.322-14.632C3277.914,1986.619,3278,1960.37,3278,1960.37Z" transform="translate(-3252.198 -1818.413)" fill="#424261"/>
          <rect id="Rectangle_1811" data-name="Rectangle 1811" width="20.666" height="1.684" transform="translate(32.186 276.129) rotate(-10.966)" fill="#0db7ae"/>
          <rect id="Rectangle_1812" data-name="Rectangle 1812" width="21.734" height="2.195" transform="matrix(0.402, -0.916, 0.916, 0.402, 111.874, 261.512)" fill="#0db7ae"/>
          <ellipse id="Ellipse_670" data-name="Ellipse 670" cx="2.8" cy="2.063" rx="2.8" ry="2.063" transform="translate(51.199 67.623) rotate(-44.139)" fill="#fdc6b2"/>
        </g>
      </g>
    </g>
  </g>
</svg>
