<svg xmlns="http://www.w3.org/2000/svg" xmlns:xlink="http://www.w3.org/1999/xlink" width="788.046" height="453.456" viewBox="0 0 788.046 453.456"><defs><style>.a{fill:url(#a);}.b,.e{fill:#f6f5f2;}.c{fill:#f06933;}.d{fill:#fcad2d;}.d,.e,.f,.h,.i,.l,.n,.p,.q{fill-rule:evenodd;}.f,.m{fill:rgba(0,107,255,0.3);}.g{fill:#abc3ff;}.h{fill:#79a1f2;}.i{fill:#618de5;}.j,.q{fill:#fff;}.k{fill:#7b91ff;}.l{fill:#80c3ff;}.n{fill:#494089;}.o,.p{fill:#90c9ea;}</style><linearGradient id="a" x1="-0.221" y1="-0.389" x2="1.414" y2="1.412" gradientUnits="objectBoundingBox"><stop offset="0" stop-color="#b03498"/><stop offset="1" stop-color="#006bff"/></linearGradient></defs><g transform="translate(-50.926 -91.735)"><path class="a" d="M141.181,226c-34.891,11.26-75.3,28.8-81.766,64.883C55.2,314.39,68.86,339,89.427,351.147c10.039,5.93,22.364,10.1,27.615,20.513,8.161,16.177-6.5,34.726-21.988,44.132s-34.37,16.867-41.42,33.559c-4.645,11-2.824,23.813,1.775,34.833C72.276,524.6,121.457,542.3,165.2,540.135s85.222-19.2,128.127-27.975c147.336-30.127,301.813,38.254,448.9,6.918,22.888-4.877,45.943-12.509,63.62-27.843,19.925-17.283,31.239-43.36,32.945-69.683,1.629-25.111-7.274-53.387-29.751-64.7-13.134-6.615-28.832-6.344-43.091-2.747-9.1,2.3-18.053,5.9-27.445,5.958s-19.724-4.643-22.445-13.633c-2.862-9.451,3.66-19.207,11.137-25.655,15.211-13.115,35.55-19.666,49.363-34.243a58.321,58.321,0,0,0-22.827-95.077c-46.416-16.476-96.987,28.44-144.448,15.28-3.525-.978-7.232-2.484-9.087-5.635-1.811-3.076-1.4-6.979-.358-10.393,5.815-19.112,28.4-31.279,29.388-51.232.538-10.846-5.875-20.994-13.958-28.248-55.543-49.838-136.022,9.445-192.653,28.159C329.486,170.156,234.559,195.859,141.181,226Z" transform="translate(0)"/><g transform="translate(264.672 284.598)"><g transform="translate(0)"><path class="b" d="M264.94,269.354q-2.642-4.468-6.864-5.239c-2.815-.509-9.79,2.526-9.79,2.526l-.036.018-9.459,5.59a.017.017,0,0,1-.026-.006l-44.872-75.913-.024-.032s-5.2-6.11-8.8-6.829a14.119,14.119,0,0,0-10.249,1.787,14.808,14.808,0,0,0-4.944,4.806c-1.31,2.033-2.284,6.735-2.284,6.735l-.006.04L158.92,319.442a.279.279,0,0,0,0,.04s.325,7.325,2.084,10.3a11.5,11.5,0,0,0,7.026,5.516c3,.823,9.508-1.728,9.508-1.728l.036-.018,48.736-28.808a.021.021,0,0,1,.028.006l8.669,14.672.024.032s5.109,6.169,8.527,6.993a15,15,0,0,0,16.939-10.011c.924-3.391-2.017-10.841-2.017-10.841l-.016-.036-8.673-14.672a.018.018,0,0,1,.008-.026l9.459-5.593.032-.024S268.61,275.562,264.94,269.354Zm-84.226,37.224c-.008.006-.016,0-.014-.01l5.021-70.5c0-.012.006-.014.012,0l29.576,50.04a.02.02,0,0,1-.008.028Z" transform="translate(-158.918 -189.176)"/></g><g transform="translate(254.796 16.342)"><path class="b" d="M424.836,207.807a14.121,14.121,0,0,0-6.365-8.226,14.8,14.8,0,0,0-6.561-2.126c-2.409-.212-7.021,1.124-7.021,1.124l-.038.014L297.7,245.4l-.034.018s-6.328,3.705-8.139,6.654a11.5,11.5,0,0,0-1.6,8.792c.673,3.036,5.968,7.594,5.968,7.594l.032.024,48.237,29.64a.017.017,0,0,1,.006.026l-8.921,14.522-.018.036s-3.07,7.395-2.2,10.8a15,15,0,0,0,16.766,10.3c3.428-.766,8.644-6.844,8.644-6.844l.024-.032,8.921-14.522a.021.021,0,0,1,.028-.006l9.364,5.754.036.016s12.919,3.717,16.693-2.427q2.716-4.421,1.427-8.515c-.865-2.725-6.8-7.476-6.8-7.476l-.032-.024-9.364-5.752a.022.022,0,0,1-.006-.028l46.165-75.134.018-.036S425.883,211.33,424.836,207.807Zm-71.321,71.882a.021.021,0,0,1-.028.006l-34.234-21.034c-.008-.006-.008-.014,0-.02l64.681-28.486c.01,0,.014,0,.008.01Z" transform="translate(-287.65 -197.433)"/></g></g><g transform="translate(348.467 245.833)"><circle class="c" cx="68.223" cy="68.223" r="68.223" transform="translate(0 96.482) rotate(-45)"/><path class="d" d="M215.807,230.936c20.24,2.878,54.266-11.577,65.174-13.695,22.174-4.3,44.949.821,67.549,1.57a67.863,67.863,0,0,0-6.272-14.017c-8.311.342-17.071-1.1-25.456-1.342-15.919-.463-31.75,3.719-47.647,2.757-7.347-.445-23.88-6.878-38.917-9.409A67.862,67.862,0,0,0,215.807,230.936Z" transform="translate(-187.002 -142.946)"/><path class="d" d="M259.857,183.868a68.188,68.188,0,0,0-19.921,2.963c8.547,4.881,25.677,6.631,29.654,7.163,7.145.956,14.908,1.3,21.042-2.486.085-.053.168-.115.253-.17A67.912,67.912,0,0,0,259.857,183.868Z" transform="translate(-163.374 -155.609)"/><path class="d" d="M351.3,220.809a132.1,132.1,0,0,0-60.279-1.041c-10.761,2.349-21.186,6.047-31.882,8.683a166.718,166.718,0,0,1-41.163,4.814c-.584-.006-1.18-.024-1.783-.051a68.069,68.069,0,0,0,19.015,35.219,234.991,234.991,0,0,0,46.7-22.625c12.83-8.081,25.667-17.7,40.767-19.086,9.374-.857,18.585,1.587,27.866,3.505A68.684,68.684,0,0,0,351.3,220.809Z" transform="translate(-186.621 -123.376)"/><path class="d" d="M330.1,229.515c-9.253-1.37-25.8,6.767-29.846,10.2-3.616,3.062-6.662,6.8-10.565,9.489-4.954,3.408-10.941,4.891-16.764,6.4q-17.632,4.548-34.986,10.09c-1.469.469-3.06,1.114-3.776,2.439a68.2,68.2,0,0,0,53.922,3.8c7.08-10.108,11.31-23.2,22.514-27.953,1.894-.8,8.548-1.754,14.56-3.311A67.841,67.841,0,0,0,330.1,229.515Z" transform="translate(-169.029 -111.058)"/></g><path class="e" d="M543.023,399.669c-16.947-90.689-96.506-159.332-192.109-159.332S175.752,308.98,158.805,399.669Z" transform="translate(105.644 145.523)"/><path class="f" d="M295.825,304.635c-.9,6.85-11.513,11.1-23.7,9.493s-21.335-8.461-20.432-15.31,11.515-11.1,23.7-9.493S296.73,297.786,295.825,304.635Z" transform="translate(196.545 193.163)"/><g transform="translate(271.915 200.796)"><circle class="g" cx="25.236" cy="25.236" r="25.236" transform="translate(16.854)"/><path class="h" d="M189.95,146.837a25.105,25.105,0,0,0-12.343,3.236,4.307,4.307,0,0,0,.618.829c2.549,2.573,8.626,2.684,12.016,2.844a41.365,41.365,0,0,0,14.686-1.95A25.079,25.079,0,0,0,189.95,146.837Z" transform="translate(-147.859 -146.837)"/><path class="h" d="M215.627,155.736a13.478,13.478,0,0,0,2.438-1.037,25.322,25.322,0,0,0-2.183-3.167l-7.551,3.381a39.108,39.108,0,0,1-5.987,2.3,35.785,35.785,0,0,1-9.39.823,190.3,190.3,0,0,1-19.4-1.384,25,25,0,0,0-1.886,16.169,22.678,22.678,0,0,0,3.715-2.161,50.029,50.029,0,0,1,10.466-4.562Z" transform="translate(-154.238 -142.239)"/><path class="h" d="M205.51,154.561c-1.954,1.746-3.4,4.063-5.538,5.73a29.673,29.673,0,0,1-7.389,4.228c-1.87.732-3.82,1.279-5.613,2.187a2.589,2.589,0,0,0-1.534,1.532c-.289,1.289,1.227,2.217,2.514,2.516a28.991,28.991,0,0,0,7.836.372l9.324-.4c.552-.024,1.118-.069,1.676-.137a24.918,24.918,0,0,0-1.277-16.024Z" transform="translate(-140.228 -139.273)"/><path class="h" d="M196.4,159.242a58.6,58.6,0,0,0-13.03,4.25,66.711,66.711,0,0,1-8.386,3.674,14.747,14.747,0,0,1-3.294.41,25.266,25.266,0,0,0,8.016,11.838c.259-.309.513-.621.752-.942,3.774-5.015,6.338-11.337,11.787-14.453a17.441,17.441,0,0,0,2.925-1.762A3.21,3.21,0,0,0,196.4,159.242Z" transform="translate(-153.651 -134.689)"/><path class="h" d="M212.011,165.051a5.239,5.239,0,0,0-.839-.028l-16.163.9c-3.349.186-6.882.431-9.655,2.316-2.14,1.453-3.567,3.715-4.932,5.91-.463.744-1.3,1.777-2.07,2.872a25.058,25.058,0,0,0,10.215,2.454c.659-.827,1.257-1.72,1.9-2.565a22.218,22.218,0,0,1,15.183-8.588c1.577-.168,3.171-.172,4.744-.34A24.886,24.886,0,0,0,212.011,165.051Z" transform="translate(-147.13 -129.033)"/><path class="i" d="M217.353,166.973a25.145,25.145,0,0,0,1.5-4.7,156.108,156.108,0,0,1-22.374,5.956,155.069,155.069,0,0,1-23.211,2.836,25.425,25.425,0,0,0,3.159,3.8,165.584,165.584,0,0,0,20.8-2.755A166.527,166.527,0,0,0,217.353,166.973Z" transform="translate(-152.104 -131.717)"/><g transform="translate(0 13.17)"><path class="j" d="M179.919,181.71c-9.043,0-16.422-1.441-17.265-5.789-.792-4.1,4.556-8.349,15.9-12.638a1.979,1.979,0,0,1,1.4,3.7c-11.488,4.344-13.526,7.608-13.414,8.182.42,2.165,14.674,4.673,40.415-.315,10.8-2.09,20.755-4.992,28.025-8.168,8.321-3.638,9.679-6.154,9.586-6.631-.115-.6-3.373-2.935-16.309-2.561a1.979,1.979,0,1,1-.117-3.957c12.654-.378,19.5,1.568,20.313,5.766.7,3.608-3.189,7.209-11.888,11.009-7.529,3.292-17.778,6.284-28.858,8.43A159.421,159.421,0,0,1,179.919,181.71Z" transform="translate(-162.577 -153.491)"/></g></g><g transform="translate(680.721 249.237)"><circle class="k" cx="20.328" cy="20.328" r="20.328" transform="translate(0 7.69) rotate(-10.903)"/><path class="l" d="M390.977,175.515a20.232,20.232,0,0,0-9.983-2.44,3.388,3.388,0,0,0,.119.825c.819,2.8,5.081,5.207,7.42,6.623a33.34,33.34,0,0,0,11.153,4.25A20.212,20.212,0,0,0,390.977,175.515Z" transform="translate(-357.493 -169.586)"/><path class="l" d="M408.976,190.537a10.992,10.992,0,0,0,2.124.2,20.288,20.288,0,0,0-.331-3.082l-6.644-.5a31.8,31.8,0,0,1-5.124-.669,28.927,28.927,0,0,1-6.967-3.016,153.48,153.48,0,0,1-13.21-8.418,20.118,20.118,0,0,0-7.535,10.73,18.418,18.418,0,0,0,3.46-.1,40.139,40.139,0,0,1,9.164.78Z" transform="translate(-366.997 -167.646)"/><path class="l" d="M401.147,184.271c-2.054.487-3.97,1.574-6.12,1.936a23.907,23.907,0,0,1-6.856.16c-1.607-.2-3.2-.558-4.816-.6a2.083,2.083,0,0,0-1.672.5c-.7.8.018,2.041.813,2.745a23.382,23.382,0,0,0,5.409,3.268l6.759,3.29c.4.2.819.38,1.241.546a20.082,20.082,0,0,0,5.241-11.84Z" transform="translate(-357.096 -158.619)"/><path class="l" d="M391.934,184.99A47.1,47.1,0,0,0,381.075,183a53.859,53.859,0,0,1-7.349-.614,12,12,0,0,1-2.49-.974,20.36,20.36,0,0,0,1.138,11.46c.3-.119.6-.243.895-.378,4.6-2.106,8.837-5.6,13.893-5.718a14.282,14.282,0,0,0,2.747-.127A2.586,2.586,0,0,0,391.934,184.99Z" transform="translate(-367.399 -161.413)"/><path class="l" d="M401.284,195.573a4.231,4.231,0,0,0-.584-.342q-5.9-2.779-11.794-5.562c-2.443-1.152-5.039-2.334-7.727-2.062a15.074,15.074,0,0,0-5.762,2.3c-.612.35-1.6.762-2.567,1.241a20.172,20.172,0,0,0,6.3,5.655c.784-.333,1.55-.736,2.328-1.091a17.916,17.916,0,0,1,14.049-.261c1.18.487,2.31,1.095,3.489,1.579A20.345,20.345,0,0,0,401.284,195.573Z" transform="translate(-365.467 -155.391)"/></g><path class="b" d="M3.936,0H51.483A3.937,3.937,0,0,1,55.42,3.937v11.9a0,0,0,0,1,0,0H0a0,0,0,0,1,0,0V3.936A3.936,3.936,0,0,1,3.936,0Z" transform="translate(266.909 504.654) rotate(-62.204)"/><path class="b" d="M3.937,0H37.628a3.937,3.937,0,0,1,3.937,3.937v11.9a0,0,0,0,1,0,0H0a0,0,0,0,1,0,0V3.937A3.937,3.937,0,0,1,3.937,0Z" transform="matrix(0.371, 0.929, -0.929, 0.371, 629.884, 466.546)"/><path class="b" d="M3.937,0H51.483A3.936,3.936,0,0,1,55.42,3.936v11.9a0,0,0,0,1,0,0H0a0,0,0,0,1,0,0V3.937A3.937,3.937,0,0,1,3.937,0Z" transform="matrix(0.812, -0.583, 0.583, 0.812, 328.901, 423.312)"/><path class="b" d="M3.937,0H51.483A3.937,3.937,0,0,1,55.42,3.937v11.9a0,0,0,0,1,0,0H0a0,0,0,0,1,0,0V3.937A3.937,3.937,0,0,1,3.937,0Z" transform="translate(556.459 404.336) rotate(37.09)"/><g transform="translate(331.442 423.72)"><ellipse class="m" cx="31.174" cy="13.855" rx="31.174" ry="13.855" transform="matrix(0.892, -0.453, 0.453, 0.892, 0, 28.224)"/><path class="n" d="M219.674,275.7c13.867-7.038,27.621-8.341,32.712-3.5a7.09,7.09,0,0,0-.622-4.192c-3.464-6.823-18.716-6.037-34.069,1.758S192.706,289.4,196.17,296.229a6.56,6.56,0,0,0,1.358,1.746C198.408,291.145,207.129,282.069,219.674,275.7Z" transform="translate(-189.899 -255.651)"/></g><g transform="translate(544.904 434.855)"><path class="f" d="M336.667,289.8c-2.724,4.354-12.875,2.917-22.675-3.208s-15.537-14.627-12.814-18.981,12.875-2.919,22.675,3.208S339.39,285.444,336.667,289.8Z" transform="translate(-300.501 -265.091)"/><path class="n" d="M321.054,274.013c8.851,5.534,14.364,12.992,13.346,17.6a4.764,4.764,0,0,0,2.2-1.809c2.723-4.356-3.012-12.853-12.814-18.981s-19.951-7.565-22.675-3.208a4.359,4.359,0,0,0-.532,1.385C304.806,267.135,313.043,269.006,321.054,274.013Z" transform="translate(-300.429 -265.091)"/></g><path class="n" d="M275.391,289.325c-12.188-1.607-22.8,2.642-23.7,9.493a7.18,7.18,0,0,0-.026,1.486c2.646-5.528,12.206-8.723,23.027-7.3,11.3,1.49,19.979,7.5,20.458,13.823a7.279,7.279,0,0,0,.675-2.2C296.725,297.786,287.577,290.932,275.391,289.325Z" transform="translate(196.55 193.163)"/><circle class="o" cx="6.433" cy="6.433" r="6.433" transform="translate(162.635 307.021)"/><path class="p" d="M300.918,117.61a2.886,2.886,0,1,1,2.884-2.886A2.886,2.886,0,0,1,300.918,117.61Z" transform="translate(241.986 19.686)"/><circle class="o" cx="2.885" cy="2.885" r="2.885" transform="translate(580.925 185.048)"/><circle class="o" cx="2.885" cy="2.885" r="2.885" transform="translate(98.887 278.981)"/><path class="q" d="M288.8,167.8a3.715,3.715,0,1,1-3.715-3.715A3.715,3.715,0,0,1,288.8,167.8Z" transform="translate(225.664 70.852)"/><path class="q" d="M367.668,254.052a3.715,3.715,0,1,1-3.715-3.715A3.715,3.715,0,0,1,367.668,254.052Z" transform="translate(302.903 155.315)"/><path class="q" d="M423.045,257.175a3.715,3.715,0,1,1-3.715-3.715A3.715,3.715,0,0,1,423.045,257.175Z" transform="translate(357.132 158.374)"/><path class="q" d="M127.668,284.552a3.715,3.715,0,1,1-3.715-3.715A3.715,3.715,0,0,1,127.668,284.552Z" transform="translate(67.876 185.183)"/><path class="q" d="M236.045,148.675a3.715,3.715,0,1,1-3.715-3.715A3.715,3.715,0,0,1,236.045,148.675Z" transform="translate(174.007 52.122)"/><path class="q" d="M214.819,194.952l4.953,2.83-5.055,2.643-2.83,4.953-2.643-5.055-4.953-2.83,5.055-2.643,2.83-4.953Z" transform="translate(150.187 96.128)"/><path class="q" d="M330.886,167.75l3.234,1.848-3.3,1.726-1.848,3.233-1.726-3.3-3.234-1.848,3.3-1.726,1.848-3.234Z" transform="translate(267.428 71.207)"/><path class="q" d="M138.05,246.165l3.234,1.848-3.3,1.726-1.848,3.234-1.726-3.3-3.233-1.848,3.3-1.726,1.848-3.233Z" transform="translate(78.587 147.998)"/><path class="q" d="M138.984,179.532l3.234,1.848-3.3,1.726-1.848,3.234-1.726-3.3-3.234-1.848,3.3-1.726,1.848-3.234Z" transform="translate(79.501 82.745)"/><path class="q" d="M89.016,278.97l3.234,1.848-3.3,1.726L87.1,285.777l-1.726-3.3-3.233-1.848,3.3-1.726,1.848-3.233Z" transform="translate(30.569 180.123)"/><path class="q" d="M385.856,232.865l3.233,1.848-3.3,1.726-1.848,3.234-1.726-3.3-3.234-1.848,3.3-1.726,1.848-3.234Z" transform="translate(321.258 134.973)"/><path class="q" d="M406.016,298.636l3.234,1.848-3.3,1.726-1.848,3.233-1.726-3.3-3.233-1.848,3.3-1.726,1.848-3.234Z" transform="translate(341.001 199.382)"/></g></svg>