<svg xmlns="http://www.w3.org/2000/svg" xmlns:xlink="http://www.w3.org/1999/xlink" width="120" height="80" viewBox="0 0 120 80">
  <defs>
    <clipPath id="clip-Gallery">
      <rect width="120" height="80"/>
    </clipPath>
  </defs>
  <g id="Gallery" clip-path="url(#clip-Gallery)">
    <rect width="120" height="80" fill="#fff"/>
    <path id="Path_1399" data-name="Path 1399" d="M5,0H115a5,5,0,0,1,5,5V75a5,5,0,0,1-5,5H5a5,5,0,0,1-5-5V5A5,5,0,0,1,5,0Z" fill="#fff"/>
    <g id="Group_4074" data-name="Group 4074">
      <rect id="Rectangle_1182" data-name="Rectangle 1182" width="80" height="2" transform="translate(32) rotate(90)" fill="#e4e7eb"/>
      <rect id="Rectangle_1182-2" data-name="Rectangle 1182" width="80" height="2" transform="translate(62) rotate(90)" fill="#e4e7eb"/>
      <rect id="Rectangle_1182-3" data-name="Rectangle 1182" width="80" height="2" transform="translate(92) rotate(90)" fill="#e4e7eb"/>
      <rect id="Rectangle_1351" data-name="Rectangle 1351" width="120" height="2" transform="translate(0 26)" fill="#e4e7eb"/>
      <rect id="Rectangle_1351-2" data-name="Rectangle 1351" width="120" height="2" transform="translate(0 52)" fill="#e4e7eb"/>
    </g>
    <path id="Path_1394" data-name="Path 1394" d="M139.868,122.212H125.386a.26.26,0,0,0-.259.261v11.478a.26.26,0,0,0,.259.261h14.483a.26.26,0,0,0,.259-.261V122.473A.26.26,0,0,0,139.868,122.212Zm-10.6,2.87a1.453,1.453,0,1,1-1.44,1.453A1.448,1.448,0,0,1,129.265,125.082Zm9.5,4.872a.257.257,0,0,1-.365.016l-2.912-2.693-2.374,2.623,1.243,1.254a.262.262,0,0,1,0,.369.257.257,0,0,1-.366,0l-2.664-2.687-4.219,3.747a.257.257,0,0,1-.365-.023.263.263,0,0,1,.023-.368l4.4-3.908a.257.257,0,0,1,.354.011l1.227,1.237,2.533-2.8a.258.258,0,0,1,.179-.085.265.265,0,0,1,.186.068l3.1,2.87A.262.262,0,0,1,138.766,129.954Z" transform="translate(-117.053 -115.028)" fill="#e4e7eb"/>
    <path id="Path_1394-2" data-name="Path 1394" d="M139.868,122.212H125.386a.26.26,0,0,0-.259.261v11.478a.26.26,0,0,0,.259.261h14.483a.26.26,0,0,0,.259-.261V122.473A.26.26,0,0,0,139.868,122.212Zm-10.6,2.87a1.453,1.453,0,1,1-1.44,1.453A1.448,1.448,0,0,1,129.265,125.082Zm9.5,4.872a.257.257,0,0,1-.365.016l-2.912-2.693-2.374,2.623,1.243,1.254a.262.262,0,0,1,0,.369.257.257,0,0,1-.366,0l-2.664-2.687-4.219,3.747a.257.257,0,0,1-.365-.023.263.263,0,0,1,.023-.368l4.4-3.908a.257.257,0,0,1,.354.011l1.227,1.237,2.533-2.8a.258.258,0,0,1,.179-.085.265.265,0,0,1,.186.068l3.1,2.87A.262.262,0,0,1,138.766,129.954Z" transform="translate(-87.053 -115.028)" fill="#e4e7eb"/>
    <path id="Path_1394-3" data-name="Path 1394" d="M139.868,122.212H125.386a.26.26,0,0,0-.259.261v11.478a.26.26,0,0,0,.259.261h14.483a.26.26,0,0,0,.259-.261V122.473A.26.26,0,0,0,139.868,122.212Zm-10.6,2.87a1.453,1.453,0,1,1-1.44,1.453A1.448,1.448,0,0,1,129.265,125.082Zm9.5,4.872a.257.257,0,0,1-.365.016l-2.912-2.693-2.374,2.623,1.243,1.254a.262.262,0,0,1,0,.369.257.257,0,0,1-.366,0l-2.664-2.687-4.219,3.747a.257.257,0,0,1-.365-.023.263.263,0,0,1,.023-.368l4.4-3.908a.257.257,0,0,1,.354.011l1.227,1.237,2.533-2.8a.258.258,0,0,1,.179-.085.265.265,0,0,1,.186.068l3.1,2.87A.262.262,0,0,1,138.766,129.954Z" transform="translate(-57.053 -115.028)" fill="#e4e7eb"/>
    <path id="Path_1394-4" data-name="Path 1394" d="M139.868,122.212H125.386a.26.26,0,0,0-.259.261v11.478a.26.26,0,0,0,.259.261h14.483a.26.26,0,0,0,.259-.261V122.473A.26.26,0,0,0,139.868,122.212Zm-10.6,2.87a1.453,1.453,0,1,1-1.44,1.453A1.448,1.448,0,0,1,129.265,125.082Zm9.5,4.872a.257.257,0,0,1-.365.016l-2.912-2.693-2.374,2.623,1.243,1.254a.262.262,0,0,1,0,.369.257.257,0,0,1-.366,0l-2.664-2.687-4.219,3.747a.257.257,0,0,1-.365-.023.263.263,0,0,1,.023-.368l4.4-3.908a.257.257,0,0,1,.354.011l1.227,1.237,2.533-2.8a.258.258,0,0,1,.179-.085.265.265,0,0,1,.186.068l3.1,2.87A.262.262,0,0,1,138.766,129.954Z" transform="translate(-27.053 -115.028)" fill="#e4e7eb"/>
    <path id="Path_1394-5" data-name="Path 1394" d="M139.868,122.212H125.386a.26.26,0,0,0-.259.261v11.478a.26.26,0,0,0,.259.261h14.483a.26.26,0,0,0,.259-.261V122.473A.26.26,0,0,0,139.868,122.212Zm-10.6,2.87a1.453,1.453,0,1,1-1.44,1.453A1.448,1.448,0,0,1,129.265,125.082Zm9.5,4.872a.257.257,0,0,1-.365.016l-2.912-2.693-2.374,2.623,1.243,1.254a.262.262,0,0,1,0,.369.257.257,0,0,1-.366,0l-2.664-2.687-4.219,3.747a.257.257,0,0,1-.365-.023.263.263,0,0,1,.023-.368l4.4-3.908a.257.257,0,0,1,.354.011l1.227,1.237,2.533-2.8a.258.258,0,0,1,.179-.085.265.265,0,0,1,.186.068l3.1,2.87A.262.262,0,0,1,138.766,129.954Z" transform="translate(-117.053 -88.028)" fill="#e4e7eb"/>
    <path id="Path_1394-6" data-name="Path 1394" d="M139.868,122.212H125.386a.26.26,0,0,0-.259.261v11.478a.26.26,0,0,0,.259.261h14.483a.26.26,0,0,0,.259-.261V122.473A.26.26,0,0,0,139.868,122.212Zm-10.6,2.87a1.453,1.453,0,1,1-1.44,1.453A1.448,1.448,0,0,1,129.265,125.082Zm9.5,4.872a.257.257,0,0,1-.365.016l-2.912-2.693-2.374,2.623,1.243,1.254a.262.262,0,0,1,0,.369.257.257,0,0,1-.366,0l-2.664-2.687-4.219,3.747a.257.257,0,0,1-.365-.023.263.263,0,0,1,.023-.368l4.4-3.908a.257.257,0,0,1,.354.011l1.227,1.237,2.533-2.8a.258.258,0,0,1,.179-.085.265.265,0,0,1,.186.068l3.1,2.87A.262.262,0,0,1,138.766,129.954Z" transform="translate(-87.053 -88.028)" fill="#e4e7eb"/>
    <path id="Path_1394-7" data-name="Path 1394" d="M139.868,122.212H125.386a.26.26,0,0,0-.259.261v11.478a.26.26,0,0,0,.259.261h14.483a.26.26,0,0,0,.259-.261V122.473A.26.26,0,0,0,139.868,122.212Zm-10.6,2.87a1.453,1.453,0,1,1-1.44,1.453A1.448,1.448,0,0,1,129.265,125.082Zm9.5,4.872a.257.257,0,0,1-.365.016l-2.912-2.693-2.374,2.623,1.243,1.254a.262.262,0,0,1,0,.369.257.257,0,0,1-.366,0l-2.664-2.687-4.219,3.747a.257.257,0,0,1-.365-.023.263.263,0,0,1,.023-.368l4.4-3.908a.257.257,0,0,1,.354.011l1.227,1.237,2.533-2.8a.258.258,0,0,1,.179-.085.265.265,0,0,1,.186.068l3.1,2.87A.262.262,0,0,1,138.766,129.954Z" transform="translate(-57.053 -88.028)" fill="#e4e7eb"/>
    <path id="Path_1394-8" data-name="Path 1394" d="M139.868,122.212H125.386a.26.26,0,0,0-.259.261v11.478a.26.26,0,0,0,.259.261h14.483a.26.26,0,0,0,.259-.261V122.473A.26.26,0,0,0,139.868,122.212Zm-10.6,2.87a1.453,1.453,0,1,1-1.44,1.453A1.448,1.448,0,0,1,129.265,125.082Zm9.5,4.872a.257.257,0,0,1-.365.016l-2.912-2.693-2.374,2.623,1.243,1.254a.262.262,0,0,1,0,.369.257.257,0,0,1-.366,0l-2.664-2.687-4.219,3.747a.257.257,0,0,1-.365-.023.263.263,0,0,1,.023-.368l4.4-3.908a.257.257,0,0,1,.354.011l1.227,1.237,2.533-2.8a.258.258,0,0,1,.179-.085.265.265,0,0,1,.186.068l3.1,2.87A.262.262,0,0,1,138.766,129.954Z" transform="translate(-27.053 -88.028)" fill="#e4e7eb"/>
    <path id="Path_1394-9" data-name="Path 1394" d="M139.868,122.212H125.386a.26.26,0,0,0-.259.261v11.478a.26.26,0,0,0,.259.261h14.483a.26.26,0,0,0,.259-.261V122.473A.26.26,0,0,0,139.868,122.212Zm-10.6,2.87a1.453,1.453,0,1,1-1.44,1.453A1.448,1.448,0,0,1,129.265,125.082Zm9.5,4.872a.257.257,0,0,1-.365.016l-2.912-2.693-2.374,2.623,1.243,1.254a.262.262,0,0,1,0,.369.257.257,0,0,1-.366,0l-2.664-2.687-4.219,3.747a.257.257,0,0,1-.365-.023.263.263,0,0,1,.023-.368l4.4-3.908a.257.257,0,0,1,.354.011l1.227,1.237,2.533-2.8a.258.258,0,0,1,.179-.085.265.265,0,0,1,.186.068l3.1,2.87A.262.262,0,0,1,138.766,129.954Z" transform="translate(-117.053 -61.028)" fill="#e4e7eb"/>
    <path id="Path_1394-10" data-name="Path 1394" d="M139.868,122.212H125.386a.26.26,0,0,0-.259.261v11.478a.26.26,0,0,0,.259.261h14.483a.26.26,0,0,0,.259-.261V122.473A.26.26,0,0,0,139.868,122.212Zm-10.6,2.87a1.453,1.453,0,1,1-1.44,1.453A1.448,1.448,0,0,1,129.265,125.082Zm9.5,4.872a.257.257,0,0,1-.365.016l-2.912-2.693-2.374,2.623,1.243,1.254a.262.262,0,0,1,0,.369.257.257,0,0,1-.366,0l-2.664-2.687-4.219,3.747a.257.257,0,0,1-.365-.023.263.263,0,0,1,.023-.368l4.4-3.908a.257.257,0,0,1,.354.011l1.227,1.237,2.533-2.8a.258.258,0,0,1,.179-.085.265.265,0,0,1,.186.068l3.1,2.87A.262.262,0,0,1,138.766,129.954Z" transform="translate(-87.053 -61.028)" fill="#e4e7eb"/>
    <path id="Path_1394-11" data-name="Path 1394" d="M139.868,122.212H125.386a.26.26,0,0,0-.259.261v11.478a.26.26,0,0,0,.259.261h14.483a.26.26,0,0,0,.259-.261V122.473A.26.26,0,0,0,139.868,122.212Zm-10.6,2.87a1.453,1.453,0,1,1-1.44,1.453A1.448,1.448,0,0,1,129.265,125.082Zm9.5,4.872a.257.257,0,0,1-.365.016l-2.912-2.693-2.374,2.623,1.243,1.254a.262.262,0,0,1,0,.369.257.257,0,0,1-.366,0l-2.664-2.687-4.219,3.747a.257.257,0,0,1-.365-.023.263.263,0,0,1,.023-.368l4.4-3.908a.257.257,0,0,1,.354.011l1.227,1.237,2.533-2.8a.258.258,0,0,1,.179-.085.265.265,0,0,1,.186.068l3.1,2.87A.262.262,0,0,1,138.766,129.954Z" transform="translate(-57.053 -61.028)" fill="#e4e7eb"/>
    <path id="Path_1394-12" data-name="Path 1394" d="M139.868,122.212H125.386a.26.26,0,0,0-.259.261v11.478a.26.26,0,0,0,.259.261h14.483a.26.26,0,0,0,.259-.261V122.473A.26.26,0,0,0,139.868,122.212Zm-10.6,2.87a1.453,1.453,0,1,1-1.44,1.453A1.448,1.448,0,0,1,129.265,125.082Zm9.5,4.872a.257.257,0,0,1-.365.016l-2.912-2.693-2.374,2.623,1.243,1.254a.262.262,0,0,1,0,.369.257.257,0,0,1-.366,0l-2.664-2.687-4.219,3.747a.257.257,0,0,1-.365-.023.263.263,0,0,1,.023-.368l4.4-3.908a.257.257,0,0,1,.354.011l1.227,1.237,2.533-2.8a.258.258,0,0,1,.179-.085.265.265,0,0,1,.186.068l3.1,2.87A.262.262,0,0,1,138.766,129.954Z" transform="translate(-27.053 -61.028)" fill="#e4e7eb"/>
  </g>
</svg>
