<svg xmlns="http://www.w3.org/2000/svg" xmlns:xlink="http://www.w3.org/1999/xlink" width="120" height="80" viewBox="0 0 120 80">
  <defs>
    <clipPath id="clip-Maps">
      <rect width="120" height="80"/>
    </clipPath>
  </defs>
  <g id="Maps" clip-path="url(#clip-Maps)">
    <rect width="120" height="80" fill="#fff"/>
    <path id="Path_1399" data-name="Path 1399" d="M5,0H115a5,5,0,0,1,5,5V75a5,5,0,0,1-5,5H5a5,5,0,0,1-5-5V5A5,5,0,0,1,5,0Z" fill="#fff"/>
    <path id="Path_1402" data-name="Path 1402" d="M1238.489,329.222c.126-.01.295-.123.4-.021a.836.836,0,0,1-.4.443c-.088.039-.2.024-.295.063-.175.072-.268.254-.421.379s-.336.218-.485.316-.351.284-.527.147c.014-.246.276-.244.338-.443,0-.147-.131-.164-.126-.316.292-.256.751-.44.821-.969.032-.234-.158-.737.126-.759.336-.025.146.338.169.527.009.077.087.129.125.232C1238.285,329.006,1238.279,329.174,1238.489,329.222Zm-2.548,1.1c-.266.169-.521.386-.8.589a15.467,15.467,0,0,1-1.938.864,5.561,5.561,0,0,0-.7.358c-.382.287.194.487.506.463a2.276,2.276,0,0,0,.885-.4,6.836,6.836,0,0,1,.737-.548c.175-.082.362-.061.526-.127.127-.049.213-.2.316-.274.339-.223.852-.407.969-.758C1236.3,330.461,1236.074,330.232,1235.941,330.318Zm-4.108-13.65c.012.087.313.215.484.231a.477.477,0,0,0,.59-.464c-.04-.009-.038-.06-.106-.042C1232.609,316.551,1231.79,316.365,1231.833,316.668Zm-.547.526c.01-.154.221-.163.21-.316-.014-.2-.5-.289-.59-.38s-.095-.227-.169-.316a3.388,3.388,0,0,0-1.37-.611c-.157-.056-.289-.146-.442-.189-.175-.049-.359-.071-.506-.127-.206-.077-.326-.218-.5-.231a1.036,1.036,0,0,0-.548.169c-.2.123-.329.46-.547.442-.169-.013-.355-.318-.379-.442-.019-.1.028-.2,0-.295a.949.949,0,0,0-.737-.422c-.255.038-.36.418-.211.674.059.1.228.137.274.253.038.094-.009.166.021.232.17.369.844.275,1.285.506.125.065.209.188.316.253s.228.068.316.147a.844.844,0,0,1,.253.548c-.026.178-.443.264-.379.527.079.324.586-.05.8-.021s.32.322.548.4.387-.01.674.021c.3-.17.3-.554.632-.59a.945.945,0,0,1,.59.211c.215.2.263.538.464.7.176.139.374.07.632.126.192.042.345.223.463.1.218-.215-.458-.694-.611-.737C1231.7,317.483,1231.266,317.5,1231.286,317.194Zm-4.635,13.25c-.24-.039-.4-.232-.548.063a2.5,2.5,0,0,0-.168.7c.069.378.673.111.864-.021a1.344,1.344,0,0,0,.527-.737C1227.128,330.295,1226.9,330.483,1226.651,330.444Zm-1.1-30.924c-.014-.152.067-.3.043-.442a1.16,1.16,0,0,0-.927-.78c-.25.287.14.545.21.78a.764.764,0,0,1-.295.843c-.073.039-.168.022-.253.084s-.11.364-.294.443c-.214.09-.5,0-.78.063a1.5,1.5,0,0,0-.505.4c-.1.1-.405.355-.4.505s.2.243.336.421c.113.147.215.387.4.358.261-.041.04-.526.253-.653.371.127.519-.374.822-.379.117,0,.213.138.337.105.154-.04.2-.306.358-.379.341-.155.8-.048,1.032-.337-.067-.236-.125-.485-.211-.737A2.024,2.024,0,0,1,1225.555,299.52Zm-.358-2.317c-.464-.077-.869-.464-1.074-.421,0,.027-.028.029-.021.063.091.228.252.349.19.59-.038.142-.195.216-.19.337.007.192.291.385.463.421.065-.18-.05-.332.147-.379.168-.04.358.158.528.126.106-.02.208-.213.294-.274s.184-.04.232-.147C1225.749,297.225,1225.5,297.252,1225.2,297.2Zm-.526,21.739c.032.113.337.134.316-.041C1224.95,318.764,1224.677,318.806,1224.671,318.942Zm-.8-22.6c.356-.23-.149-.48-.358-.59C1223.43,295.987,1223.655,296.259,1223.87,296.339Zm-1.727,22.013a.192.192,0,0,1,.084.085c.257-.024.429-.234.632-.358s.518-.117.61-.379c-.422-.145-.686.143-.927.274C1222.377,318.063,1222.142,318.117,1222.143,318.352Zm-.78-4.423a.454.454,0,0,0-.4.379c.125.044.159-.045.274-.063.541-.085,1.357.316,1.39-.211-.172-.1-.405-.021-.653-.021C1221.749,314.012,1221.518,313.913,1221.363,313.929Zm-.084.927c-.073-.015-.225-.258-.338-.252-.228.01-.186.377-.252.568-.046.133-.2.27-.189.4.015.157.213.2.252.4.045.23-.171.526.042.59.435.129.139-.908.463-.969.17.267.4,1.029.822.947.1-.072.055-.282.063-.443a9.789,9.789,0,0,1-.443-.884c.111-.224.508-.257.484-.548C1221.83,314.6,1221.531,314.91,1221.279,314.855Zm-.421,2.886c.037.146.47.223.547.063C1221.37,317.625,1220.932,317.575,1220.858,317.741Zm-.316.4c.048.163.219.2.379.253a.518.518,0,0,0,.083-.085C1221,318.112,1220.661,317.968,1220.542,318.142Zm-.78-.464c-.158.015-.358-.091-.421.063.045.181.265.184.485.189.133-.16.5,0,.611-.147C1220.369,317.476,1220.017,317.655,1219.762,317.678Zm-2.38,8.6c-.01.177.089.344.084.484a1.482,1.482,0,0,1-.231.59c-.078.115-.317.219-.316.379,0,.2.243.262.379.379.687.1.943-.269,1.389-.4a6.663,6.663,0,0,1,1.327-.043,2.852,2.852,0,0,1,1.159-.631c.124-.022.268.012.4,0,.515-.05.929-.4,1.58-.3a3,3,0,0,1,.716.274,1.858,1.858,0,0,1,.358.611c.024.134-.1.3.063.358.178.032.289-.181.442-.273a2.819,2.819,0,0,1,.422-.169.421.421,0,0,0-.085.295.349.349,0,0,1,.105.422c.066.136.223.176.232.337s-.129.242-.1.422c.042.329.373.326.674.421.144.046.194.1.295.105.246,0,.379-.148.547-.126.151.02.3.216.464.211s.362-.234.674-.358a2.223,2.223,0,0,1,.611-.085c.371-.041.478-.445.695-.7.15-.172.38-.326.569-.526a6.182,6.182,0,0,1,.547-.569c.13-.106.288-.168.421-.274a2.8,2.8,0,0,0,.59-.737,7.749,7.749,0,0,0,.527-.822,4.407,4.407,0,0,0,.083-.7c.037-.173.19-.317.148-.526a1.878,1.878,0,0,0-.274-.422,2.486,2.486,0,0,1-.295-.421c-.04-.105-.031-.216-.063-.274-.066-.118-.248-.132-.316-.273-.02-.042,0-.147-.021-.211a1,1,0,0,1-.105-.378c-.208-.278-.531-.27-.7-.527-.13-.2-.042-.435-.083-.716-.023-.152-.155-.307-.169-.485-.008-.1.056-.235.042-.336-.041-.294-.337-.251-.505-.379a1.675,1.675,0,0,0-.3-1.222c-.25.1-.36.491-.442.779-.03.106-.105.209-.127.316a4.329,4.329,0,0,1-.21.99c-.12.26-.333.533-.547.527-.189-.005-.285-.207-.422-.3-.043-.028-.146-.046-.21-.084s-.2-.183-.338-.273c-.207-.132-.554-.245-.547-.485.005-.192.187-.227.358-.295.063-.1-.007-.156.021-.253.04-.137.207-.245.189-.379-.04-.3-.411-.078-.611-.085-.372-.011-.786-.342-1.032-.358-.1.083.026.162,0,.3-.117.187-.356.053-.569.105-.264.064-.375.354-.526.569-.1.147-.222.392-.338.421-.323.082-.461-.333-.759-.358a.835.835,0,0,0-.336.085,2.96,2.96,0,0,0-.485.315c-.166.138-.19.353-.337.485a1.3,1.3,0,0,1-.379.19c-.094.024-.183-.017-.274.021-.185.079-.156.274-.253.505a1.757,1.757,0,0,1-.589.632,2.414,2.414,0,0,1-.674.148c-.264.059-.5.219-.7.253-.059.01-.17-.013-.253,0-.324.053-.583.347-.906.506-.092.044-.325.12-.379.21-.043.071-.045.258-.084.358-.085.216-.214.3-.211.463,0,.236.15.267.084.463-.04.12-.2.134-.232.274-.015.077.05.186.063.316.01.09-.01.182,0,.253a4.36,4.36,0,0,1,.148.547C1217.468,325.988,1217.39,326.135,1217.382,326.273Zm-1.391-9.522c-.292-.038-.62.017-.61.211s.716.455.906.484c.161.024.335-.021.506,0,.281.034.548.2.842.231.233.027.46.012.674.042.237.034.511.175.7-.021-.128-.25-.532-.226-.779-.357,0-.108.041-.164-.022-.232-.291.035-.533-.156-.779-.147-.115,0-.2.089-.316.1C1216.623,317.135,1216.37,316.8,1215.991,316.751Zm1.981-1.011c.114.008.246-.064.358-.063.293,0,.469.257.654.274s.323-.112.463-.1c.2-.184.1-.508.189-.759.074-.209.312-.25.4-.422.025-.237-.043-.247.021-.4s.387-.158.4-.316c.007-.08-.171-.213-.231-.337a1.5,1.5,0,0,1-.126-.359c-.074-.524.276-.556.4-.927-.09-.149-.3-.182-.4-.316-.023-.172-.319-.594-.506-.379-.22.254-.229.548-.505.759-.106.081-.227.082-.358.169s-.185.253-.274.358a.906.906,0,0,1-.337.295c-.134.049-.306.023-.4.084-.17.109-.134.372-.337.422-.1.025-.253-.088-.4-.063-.365.06-.306.7-.168.99.094.2.269.276.315.421s.025.4.169.485c.07.043.219.019.378.063C1217.809,315.651,1217.882,315.733,1217.972,315.74Zm-1.658.237a.416.416,0,0,0,0-.832A.416.416,0,0,0,1216.314,315.977Zm-1.1-.784c-.149-.023-.17-.2-.274-.316-.084-.094-.224-.142-.253-.253-.015-.062.036-.195.021-.273-.059-.317-.494-.478-.738-.632-.179-.114-.368-.169-.506-.253-.1-.061-.191-.211-.316-.316s-.265-.161-.379-.253c-.2-.163-.335-.462-.526-.526-.094-.031-.249,0-.379-.021-.2-.038-.313-.208-.421-.084.026.466.535.631.8.948.063.076.1.183.168.253.1.106.251.163.337.3s.1.337.189.485c.108.18.311.3.422.463.125.188.164.409.273.611a2.343,2.343,0,0,0,.337.379,6.19,6.19,0,0,0,1.011.948.964.964,0,0,0,.421-.042c.171-.156.027-.5.126-.8.065-.2.288-.188.3-.337a.877.877,0,0,0-.3-.422C1215.367,315.024,1215.361,315.234,1215.212,315.193Zm-9.69-4.508c-.127.375-.206,1.3.211,1.369a.478.478,0,0,0,.463-.231c.176-.406-.43-1.142-.611-1.2A.108.108,0,0,0,1205.522,310.684Zm-13.84,11.4c-.021.353-.438.561-.485.99a1.792,1.792,0,0,0,.106.506,3.017,3.017,0,0,0,.021.379.6.6,0,0,0,.548.421,2.211,2.211,0,0,0,.59-.148c.277-.153.333-.716.485-1.075.038-.091.126-.171.169-.273.115-.282.2-.641.336-.969a3.391,3.391,0,0,0,.358-1.242c.058-.114.243-.149.273-.317a2.587,2.587,0,0,0-.062-.295c-.045-.368-.129-.9-.422-.779-.1.082-.087.22-.148.295s-.2.1-.252.168c-.083.1-.088.248-.19.379a1.642,1.642,0,0,1-.506.379c-.2.1-.458.087-.653.231a.956.956,0,0,0-.274.549C1191.548,321.55,1191.7,321.815,1191.682,322.081Zm-10.764-31.24a.752.752,0,0,1,.084-.421c.191-.352.8-.386.99-.674.089-.135.085-.27.147-.337a.794.794,0,0,1,.885-.042c0,.475-.947.546-.968.927,0,.083.065.224.084.359s0,.208.021.273a.693.693,0,0,0,.569.379c.5.033,1.262-.484,1.707-.105-.195.426-.889.077-1.39.253-.1.036-.164.133-.253.169-.12.048-.337,0-.337.19.1.2.258-.04.38-.042s.334.147.316.316c-.042.389-.383-.013-.611,0-.332.02-.4.488-.337.843-.15.083-.323.318-.526.337-.127.012-.229-.109-.4-.127-.379-.039-.734.305-1.1.3-.157,0-.319-.192-.569-.19-.129,0-.225.093-.358.105-.167.017-.434-.056-.421-.189.019-.208.3-.035.463-.063.2-.036.157-.205.3-.231.093-.018.177.078.316.063s.283-.235.421-.295c.27-.117.484-.053.527-.274.023-.123-.075-.305-.043-.442.071-.3.635-.258.611-.611C1181.409,291.095,1180.968,291.04,1180.918,290.841Zm-3.75,21.866c.372.031.674-.136.969-.063a.879.879,0,0,1,.506.569,1.819,1.819,0,0,1-.127.569c-.058.246-.061.54-.105.7-.034.121-.129.2-.127.316a1.33,1.33,0,0,0,.253.526c.138.178.359.313.527.506a4.829,4.829,0,0,1,.653,1.243,1.985,1.985,0,0,1,.232.611c0,.131-.076.247-.063.379.027.282.2.4.232.653.069.586-.462.761-.569,1.243-.025.114,0,.233-.021.337-.036.156-.146.273-.169.421a3.122,3.122,0,0,0-.042.59c.021.225.261.433.379.632s.23.569.379.842a2.831,2.831,0,0,1,.253.4,4.7,4.7,0,0,1,.021.569c.019.158.106.295.127.421a3.058,3.058,0,0,0,.274,1.1c.1.161.269.259.4.464s.172.459.295.694.293.413.3.548c0,.115-.108.234-.105.358a.742.742,0,0,0,.632.653c.123,0,.247-.1.379-.126.078-.013.156.012.232,0,.131-.021.238-.112.337-.126.27-.039.545.039.8.021a2.645,2.645,0,0,0,1.221-.443,6.312,6.312,0,0,0,.906-.779c.183-.2.27-.466.443-.653.137-.148.349-.226.442-.4a2.856,2.856,0,0,0,.211-.611c.009-.127-.068-.22-.042-.337.086-.385.858-.31,1.011-.674a1.83,1.83,0,0,0-.021-1.1,1.525,1.525,0,0,1-.126-.421c.022-.21.362-.4.611-.611.15-.126.273-.314.421-.422.213-.155.518-.188.717-.317a1.972,1.972,0,0,0,.569-.632c.09-.212,0-.381-.021-.611-.035-.361.026-.774,0-1.2a2.087,2.087,0,0,1-.421-.8,1.419,1.419,0,0,0,.021-.653c-.039-.13-.153-.209-.169-.337-.042-.333.2-.5.316-.737a4.357,4.357,0,0,1,.253-.547c.114-.15.326-.226.463-.379.1-.107.14-.253.232-.379a4.566,4.566,0,0,1,.927-.927c.17-.124.355-.192.506-.316a4.179,4.179,0,0,0,.421-.421,4.262,4.262,0,0,0,.738-.948c.049-.107.042-.234.083-.337a11.093,11.093,0,0,0,.548-.99c.02-.067.02-.151.042-.232.061-.23.217-.5,0-.737-.2-.062-.375.156-.632.189-.273.036-.522.017-.737.063-.127.027-.225.127-.337.147-.072.013-.167-.012-.253,0-.17.025-.31.137-.421.127-.271-.026-.428-.337-.59-.506.025-.125.121-.173.085-.315-.028-.111-.183-.13-.3-.232a6.252,6.252,0,0,0-.589-.59c-.259-.181-.611-.3-.738-.569a4.852,4.852,0,0,0-.21-.653c-.152-.238-.518-.384-.59-.632s-.007-.437-.063-.695c-.083-.385-.5-.488-.632-.822-.036-.092-.031-.207-.063-.295a4.22,4.22,0,0,0-.4-.674,3.231,3.231,0,0,1-.358-.737c.085-.111.27-.123.442-.148a3.485,3.485,0,0,1,.842,1.011c.052.1.066.225.127.316.092.138.256.2.337.3a1.2,1.2,0,0,1,.253.442c.025.095-.006.192.02.316.1.456.592.646.843,1.011.074.108.1.243.169.337.131.193.346.3.4.527-.014.112-.177.075-.168.211.065.169.245.218.336.379.179.315.2.762.358,1.116.326.192.624-.138.948-.231.1-.029.212-.016.316-.042.131-.033.26-.133.4-.168.068-.018.147,0,.211-.021.155-.055.263-.213.442-.295.279-.127.609-.128.8-.253s.184-.343.336-.442c.233-.152.5-.108.779-.211.143-.053.225-.193.358-.3a4.315,4.315,0,0,0,.358-.274c.109-.1.3-.211.338-.295.022-.046.012-.2.042-.274.04-.094.169-.148.253-.253a2.014,2.014,0,0,0,.359-.653c-.012-.138-.428-.532-.527-.569-.159-.06-.295-.022-.4-.063a.7.7,0,0,1-.358-.358c-.079-.164,0-.294-.231-.442-.392.339-.641.819-1.517.674-.19-.084-.108-.44-.189-.632-.093-.1-.271.013-.358-.021-.13-.447-.564-.572-.8-.905-.072-.1-.249-.351-.232-.485.025-.191.294-.3.463-.3.486,0,.544.65.864.864.131.087.3.151.484.274a1.225,1.225,0,0,0,.969.253c.181-.041.289-.193.484-.147.165.038.2.314.3.4a1.568,1.568,0,0,0,.779.232c.212.022.468.062.674.084a4.462,4.462,0,0,0,.885-.042c.2-.016.517.016.7,0a1.479,1.479,0,0,1,.253-.042c.281.029.428.364.589.505.283.246.654.36.8.569-.176.348.428.737.652.737s.324-.2.527-.253c.221.106.151.274.169.548a3.612,3.612,0,0,0,.168.716c.071.223.135.473.211.674a5.169,5.169,0,0,0,.4.7,7.524,7.524,0,0,1,.3.8c.094.2.285.357.379.527.2.368.317,1.246.779,1.18.1-.015.124-.105.231-.232.066-.078.183-.141.254-.232.043-.057.067-.169.125-.253s.15-.134.169-.211c.033-.143-.035-.287-.022-.421.016-.157.13-.291.148-.443.04-.332-.135-.6-.126-.947.154-.3.491-.314.716-.527.084-.079.109-.212.19-.3.1-.1.251-.166.358-.274a5.761,5.761,0,0,1,.568-.632c.159-.108.4-.11.464-.337-.05-.5.293-.392.716-.421a3.514,3.514,0,0,0,.569-.105c.123-.041.26-.21.379-.19s.15.236.231.4a1.663,1.663,0,0,0,.3.379c.121.117.3.18.4.295.05.06.066.172.127.253.15.2.351.307.359.59,0,.14-.09.271-.063.4a.384.384,0,0,0,.358.253c.275,0,.484-.426.7-.4s.294.494.379.737a3.983,3.983,0,0,0,.168.4,2.349,2.349,0,0,1,.189.379c.038.146,0,.344.022.506.011.087.06.16.063.231.011.333-.1.665-.085.948.011.2.273.282.421.421a1.969,1.969,0,0,1,.464.675c.069.229.053.443.126.632a1.886,1.886,0,0,0,.168.253,1.687,1.687,0,0,0,.611.632,1.716,1.716,0,0,0,.548.274c.212-.274-.141-.468-.211-.737-.06-.233.028-.495-.063-.716a2.617,2.617,0,0,0-.7-.7c-.112-.08-.28-.1-.379-.19-.15-.136-.17-.414-.316-.653-.088-.144-.265-.258-.294-.4-.071-.346.143-.571.189-.864s-.017-.476.168-.484c.115-.005.2.212.316.273a2.216,2.216,0,0,1,.548.274c.119.116.183.316.337.443.188.154.49.228.548.379.042.11-.047.348.105.4.379-.036.491-.455.717-.59.3-.178.673-.246.821-.569.1-1.273-.524-1.585-1.116-2.107-.159-.139-.623-.614-.611-.843.015-.306.648-.864.927-.885a.488.488,0,0,1,.547.505c-.026.151-.354.254-.337.505.015.223.278.309.4.3a.544.544,0,0,0,.379-.548c-.018-.172-.243-.274-.231-.442.021-.342.52-.284.8-.379.112-.038.212-.17.337-.211a4.288,4.288,0,0,0,1.412-.569,2.4,2.4,0,0,0,.737-1.517c.3-.137.146-.479.19-.843-.052-.151-.285-.122-.337-.274-.011-.109.06-.137.042-.253-.107-.092-.092-.261-.189-.4-.041-.057-.185-.118-.275-.211-.207-.215-.4-.523-.547-.632-.174-.129-.4-.163-.4-.358,0-.337.569-.524.674-.779a1.045,1.045,0,0,0-.632-.19c-.15.013-.25.179-.4.169-.18-.012-.2-.235-.4-.316-.218-.089-.488-.042-.463-.274.013-.126.222-.144.337-.231.17-.131.363-.578.653-.548.38.039.007.491.316.674.21-.04.281-.23.506-.273.307-.06.688.047.779.273.067.169.018.354.189.443.262.135.484.018.612.232.045.077.03.185.064.253.063.13.188.2.231.358.055.207-.025.432.21.505s.849-.213.865-.421a1.184,1.184,0,0,0-.274-.589,3.554,3.554,0,0,0-.7-.632c-.137-.092-.412-.131-.421-.337-.009-.222.3-.261.358-.485.036-.143-.029-.214-.042-.421.156-.191.2-.43.463-.442.171-.009.246.133.421.126a.8.8,0,0,0,.548-.421c.044-.1.055-.288.1-.442a2.715,2.715,0,0,0,.148-.4c.016-.123-.023-.255-.021-.4,0-.215.092-.443.084-.569a1.476,1.476,0,0,0-.338-.632c-.065-.088-.476-.489-.211-.59.137-.052.36.185.422.253.136.15.226.275.315.379.241.282.317.613.653.737.088-.094.008-.188.042-.316.024-.088.117-.131.106-.232s-.305-.336-.4-.421c-.171-.152-.358-.248-.485-.358-.349-.306-.52-.693-.885-.8-.191.063-.1.2-.295.211a1.623,1.623,0,0,1-.464-.211.978.978,0,0,0-.484-.19c-.1,0-.273.148-.4.147-.213,0-.514-.292-.695-.316-.109-.015-.148.044-.232.021-.352-.1.046-.456.084-.548s.038-.23.063-.295a2.941,2.941,0,0,0,.169-.3c.028-.085.01-.192.042-.274.226-.579,1.21-.132,1.874-.253.118-.021.25-.144.4-.147.306-.007.481.247.821.274.122.01.678-.026.7-.147s-.235-.224-.253-.316a.533.533,0,0,1,.336-.59c.632-.155.677.393,1.075.358a.417.417,0,0,0,.316-.295c.02-.1-.1-.231.021-.3a.89.89,0,0,1,.464.506c.008.147-.2.385-.211.632-.005.091.038.186.021.253-.041.162-.276.248-.273.358.073.716.777,1.134,1.221,1.474s.8.689,1.2.948a.326.326,0,0,0,.19-.232c.015-.124-.1-.218-.1-.358-.007-.1.072-.188.063-.274-.013-.129-.14-.155-.126-.253.036-.154.22-.122.21-.274-.007-.12-.283-.16-.316-.337-.02-.1.056-.119.042-.274-.058-.1-.17-.107-.275-.189-.127-.1-.209-.282-.357-.337-.126-.047-.255.007-.358-.063-.159-.108-.113-.376-.189-.569.145-.274.441-.1.673-.147.091-.018.191-.147.295-.169.283-.059.57.163.759.127.154-.03.279-.372.421-.506a1.536,1.536,0,0,1,.632-.337c.125-.015.291.092.442-.021-.077-.359-1-.328-1.031-.7a.336.336,0,0,1,.252-.294c.781-.2,1.4.479,2.149.316.059-.595-.69-.859-1.326-.864-.128,0-.216.045-.316.042a3.354,3.354,0,0,1-.7-.231c-.414-.128-.936-.183-1.327-.3-.071-.02-.141-.086-.211-.105s-.163,0-.253-.021a2.875,2.875,0,0,0-.273-.105,2.278,2.278,0,0,0-.569.063,2.624,2.624,0,0,1-.822-.043c-.286-.066-.506-.275-.737-.295-.094-.008-.216.043-.316.042-.183,0-.346-.1-.464,0s.11.207-.02.3c-.3.051-.635-.279-.843-.274-.165,0-.246.117-.38.126a2.5,2.5,0,0,1-.252-.042c-.4-.032-1,.043-1.391,0-.272-.03-.378-.235-.631-.337a3.689,3.689,0,0,0-1.58-.127,2.9,2.9,0,0,1-.654.042c-.1-.015-.218-.1-.358-.126-.208-.041-.452-.016-.59-.063-.208-.071-.36-.28-.568-.316a4.757,4.757,0,0,0-.611.021c-.592-.016-1.222-.073-1.854-.042-.106.076-.08.214-.211.274-.336.154-1.077-.072-1.5.021-.133.06-.139.21-.273.231a1.165,1.165,0,0,1-.506-.169c-.117-.071-.192-.221-.316-.316a2.083,2.083,0,0,0-.59-.337,9.46,9.46,0,0,0-1.053-.021,1.474,1.474,0,0,0-.316-.042c-.18.028-.348.225-.569.232-.107,0-.226-.051-.358-.063-.1-.009-.21.014-.295,0-.117-.019-.217-.108-.337-.127a5.9,5.9,0,0,0-.779-.042,2.152,2.152,0,0,1-.527.021c-.252-.067-.377-.262-.589-.337-.051-.332-.235-.3-.506-.4-.087-.032-.16-.107-.232-.127-.4-.109-.862.027-1.306-.042-.145-.023-.268-.186-.421-.21a2.922,2.922,0,0,0-.589.084,5.7,5.7,0,0,0-.632,0c-.117.029-.2.143-.316.19a1.176,1.176,0,0,1-.379.084c-.2,0-.411-.146-.632-.127s-.467.207-.737.253a3.129,3.129,0,0,0-1.138.273c-.086.1.1.174.021.274-.3.106-.839-.024-1.074.147-.065.12.111.231-.021.316-.192-.02-.233-.089-.358-.084-.231.008-.352.333-.527.337-.143,0-.215-.24-.358-.232-.172.009-.251.375-.4.379-.173,0-.133-.239-.253-.4a.841.841,0,0,0-.969-.063,2.521,2.521,0,0,0-.295.505,1.217,1.217,0,0,0,.231.443c.15.128.486.044.527.337a13.86,13.86,0,0,1-1.369-.316c-.324-.046-.667-.039-.99-.063-.1.123.219.223.083.358-.081.08-.282-.078-.4-.085-.166-.008-.3.1-.506.127-.085.012-.192-.011-.295,0-.128.013-.228.075-.316.063-.161-.022-.252-.169-.379-.169-.1,0-.233.1-.358.126-.1.021-.2,0-.274.021-.1.026-.2.121-.316.169-.1.04-.216.044-.294.084-.2.1-.236.284-.443.3a.339.339,0,0,1-.337-.19c-.013-.126.115-.11.084-.253-.061-.119-.453-.171-.527-.021-.147.217.13.338.105.569a.187.187,0,0,0-.085.084.99.99,0,0,0-.948.211c-.03.117-.01.285-.126.316-.3.043-.548-.222-.759-.063-.034.217.273.092.232.316a.88.88,0,0,1-.99-.779c.346-.11.785.084,1.116.084.2,0,.665-.081.653-.358-.009-.234-.532-.338-.779-.421a5.128,5.128,0,0,0-.927-.295c-.1-.012-.2.01-.294,0-.274-.028-.49-.17-.7-.19-.14-.013-.264.034-.358,0-.187-.067-.171-.232-.316-.295a2.506,2.506,0,0,0-.926-.021c-.2,0-.393-.057-.548-.042-.107.011-.193.06-.274.063-.063,0-.187-.028-.231-.021-.125.019-.247.139-.379.19a4.951,4.951,0,0,1-.717.105c-.229.049-.422.3-.632.337-.153.024-.416-.084-.484.063-.042.152.123.191.063.3-.136.236-.47.32-.653.547-.05.062-.056.164-.106.232-.071.1-.2.147-.252.231-.085.134-.052.25-.169.316-.185.106-.464.036-.653.105-.113.042-.194.157-.295.211-.268.143-.639.187-.8.464a1.5,1.5,0,0,0,.084.589,1.713,1.713,0,0,0,.021.337.7.7,0,0,0,.611.4c.4,0,.711-.5,1.032-.442.157.03.174.279.253.421s.406.352.358.569c-.038.174-.436.234-.632.232-.017-.19.028-.5-.126-.611-.319.152-.544.108-.632.358-.112.317.193.548.147.843-.048.309-.687.2-.969.253-.211.038-.289.3-.463.505a1.588,1.588,0,0,1-.527.379,1.691,1.691,0,0,0-.274.084c-.119.078-.16.267-.294.358a2.171,2.171,0,0,1-.569.253c-.119,0-.23-.112-.316-.085-.126.04-.111.287-.253.337-.279.1-.745-.247-.843.168.12.241.423.183.632.316a1.633,1.633,0,0,1,.443.589,2.248,2.248,0,0,1-.063.716c-.13.336-.435.22-.821.211-.106,0-.218.028-.316.021-.652-.044-1.307-.274-1.6.19a2.713,2.713,0,0,1,.021.906c-.058.228-.263.434-.253.632,0,.1.123.2.147.337.013.073-.034.229,0,.3.107.208.4.033.59.063a.586.586,0,0,1,.4.506,1.315,1.315,0,0,1-.232.527c-.184.279-.431.293-.695.442a1.306,1.306,0,0,0-.442.548.874.874,0,0,0-.169.716,1.66,1.66,0,0,1-.864.78,2.11,2.11,0,0,0-.379.147c-.084.061-.133.223-.253.358-.147.165-.3.232-.379.358-.06.1-.081.291-.147.421-.09.177-.283.263-.4.443-.054.083-.087.249-.147.358-.133.242-.362.419-.337.632s.258.242.274.421c.01.1-.068.163-.063.274.007.162.114.276.126.4.032.313-.109.439-.168.653-.028.1-.015.215-.042.295-.052.156-.269.3-.274.485,0,.132.136.237.147.421.008.127-.064.262-.042.379.045.229.454.5.632.674.239.238.551.423.653.674.087.213.087.493.253.653.123.118.327.193.484.316s.307.215.463.337c.257.2.645.6,1.053.568.213-.015.432-.188.674-.231a3.227,3.227,0,0,1,.822-.042,4,4,0,0,0,.589.126,2.392,2.392,0,0,0,.7-.274,3.145,3.145,0,0,1,1.643-.337C1176.872,311.974,1176.848,312.5,1177.169,312.707Zm10.849,6.045h.042c.22.105.1.541,0,.7C1187.823,319.35,1187.923,318.927,1188.017,318.752Zm-.443-3.392c-.257.019-.465-.012-.548-.168.077-.2-.015-.353.043-.548.085-.29.844-.49.905-.084.028.184-.139.338-.21.484S1187.717,315.3,1187.574,315.361Zm-1.453.906h.063c.174.1.085.333.127.527.036.166.252.267.168.422C1186.184,317.181,1185.969,316.612,1186.121,316.266Zm14.514-19.78c-.1-.143.131-.349.21-.19C1200.829,296.413,1200.778,296.5,1200.635,296.487Zm-4.951.126c.257-.064.595.482.253.548C1195.705,297.205,1195.349,296.7,1195.685,296.613Zm-1.938,3.476a1.921,1.921,0,0,1-.653-.273c-.219-.1-.458-.106-.5-.337a1.571,1.571,0,0,1,.063-.527c.039-.127.153-.154.146-.274-.007-.144-.359-.406-.485-.527-.177-.171-.413-.3-.505-.505-.034-.074-.026-.185-.063-.274-.074-.172-.26-.249-.274-.379a.542.542,0,0,1,.189-.337c.093-.072.277-.154.443-.274a1.271,1.271,0,0,1,1.18-.211c.135.078.229.417.084.527-.344-.008-.646.124-.653.358-.008.285.583.6.822.737.022.132.035.274.126.337.317-.12.634.067.632.316-.073.169-.282,0-.421.063-.04,0-.015.069-.063.063.1.521.674.576.569,1.306A.887.887,0,0,1,1193.747,300.088Zm-5.056-1.685c-.582-.013-1.015-.449-1.685-.421a1.287,1.287,0,0,0-.4.085c-.181.068-.306.218-.464.253-.2.042-.5-.052-.653,0-.192.064-.213.522-.59.211-.021-.2.239-.112.253-.274-.014-.157-.212-.239-.232-.421-.021-.207.181-.293.254-.527.023-.076,0-.159.021-.211.037-.086.144-.136.211-.231.126-.183.258-.542.506-.569s.368.175.569.169c.139.19.205.508.463.548.217.034.468-.158.674-.232-.05-.192-.268-.09-.295-.274-.047-.318.638-.428.927-.358.167.349-.257.414-.252.611,0,.181.568.352.716.442.256.156.518.27.737.4.289.172.55.655-.021.758A4.547,4.547,0,0,1,1188.691,298.4Zm-.843,3.012c-.11.336-.038.667-.358.779-.435.153-.693-.172-1.1-.147-.21.013-.369.22-.589.253-.347.052-.713-.249-1.117-.295-.094-.011-.2.019-.274,0-.1-.025-.173-.136-.274-.169-.175-.057-.309-.022-.463-.063-.208-.365-1.258-.39-1.348.148-.04.237.121.57-.232.611-.224.026-.451-.228-.759-.294-.126-.028-.3-.009-.4-.043-.23-.079-.2-.3-.4-.442a1.644,1.644,0,0,0-.59-.211c-.113-.012-.218.034-.337.021a1.373,1.373,0,0,1-.463-.189c-.114-.07-.35-.174-.379-.274-.044-.155.284-.331.3-.463.008-.1-.124-.163-.148-.316-.014-.093.039-.191.021-.253a.431.431,0,0,0-.379-.232c-.15,0-.293.122-.421.127-.185.006-.487-.1-.716-.085-.141.011-.27.1-.4.105-.367.029-.664-.017-.948,0a2.631,2.631,0,0,0-.758.169c-.1.045-.169.148-.3.211-.057.029-.135.029-.21.063a3.042,3.042,0,0,1-.358.211,6.349,6.349,0,0,1-.716-.021c-.214.009-.565.008-.569-.253,0-.39.664-.247,1.032-.316.139-.026.213-.154.379-.253.079-.047.178-.054.253-.105a1,1,0,0,0,.337-.4c.017-.094-.053-.226-.042-.3.015-.089.118-.182.232-.295a2.9,2.9,0,0,1,.59-.527c.149-.079.353-.071.422-.19a2.871,2.871,0,0,0-.021-.337.6.6,0,0,1,.232-.169c.227-.049.451.158.716.147a.74.74,0,0,0,.337-.169,3.062,3.062,0,0,1,.316-.168c.111-.057.223-.182.358-.19.332-.021.46.348.611.548a3.019,3.019,0,0,0,.7.569c.116.066.272.069.4.127.273.123.812.532.821.8.005.134-.126.235-.105.359a.437.437,0,0,0,.443-.4c0-.13-.13-.2-.106-.337.1-.208.381,0,.506-.084-.024-.236-.347-.257-.548-.379-.109-.066-.182-.206-.295-.253-.164-.067-.336-.049-.463-.147s-.177-.3-.3-.443c-.17-.2-.544-.235-.442-.695.051-.069.173-.177.253-.148.156.038.137.172.252.253.084.058.2.046.3.105.111.07.17.253.295.358a3.859,3.859,0,0,0,.737.379c.233.111.608.262.653.463.026.113-.036.238-.021.337a.864.864,0,0,0,.169.337c.163.224.389.423.569.7-.005.37.133.6.548.547.149-.08.072-.191.189-.316s.356-.1.358-.273c0-.264-.63-.306-.547-.7.024-.124.163-.064.273-.063.18-.208.555-.47.8-.147a2.314,2.314,0,0,0,.759,1.538c.32-.115.457.181.758.126.146-.027.217-.21.359-.231.258-.039.431.243.674.274.395.049.685-.4,1.074-.168.019.32.117.49.105.716C1188.071,301.023,1187.925,301.182,1187.849,301.415Zm22.476-7.331c-.1.1-.161.261-.294.169.012-.163.15-.2.231-.295-.014-.214.208-.36.232-.569.016-.148-.159-.4.084-.443a.754.754,0,0,1,.21.716C1210.733,293.844,1210.486,293.934,1210.325,294.085Zm-5.708-7.373c-.051-.124.11-.147.189-.189a.8.8,0,0,1,.463-.169C1205.221,286.6,1204.819,286.687,1204.617,286.712Zm-8.089,1.791c.01-.371-.661-.487-.632-.948.025,0,.018-.038.021-.063.311-.06.293.216.422.421.106.171.365.2.441.273a.438.438,0,0,1-.4.759C1196.317,288.718,1196.523,288.7,1196.527,288.5Zm-6.783-.337c.076-.212-.357-.249-.3-.021C1189.493,288.224,1189.677,288.229,1189.744,288.166Zm-2.4,12.492c-.078-.154-.475-.09-.484.084C1186.94,300.943,1187.317,300.827,1187.343,300.658Zm-6.888-.653c.124-.093.133-.3.19-.463-.3.006-.792-.114-1.011.063A1.134,1.134,0,0,0,1180.455,300Zm-2.381-.927c.136.26.437.027.506-.148.108-.585-.2-.744-.485-.442A2.193,2.193,0,0,1,1178.074,299.077Zm.3-.948a.28.28,0,0,0,.147-.316C1178.3,297.582,1178.092,298.081,1178.369,298.13Zm-4.318-4.34c.02.245-.171.279-.232.443.037.1.195.086.211.211-.023.134-.263.153-.211.295.226.176.461-.036.674-.063.471-.059.954.058,1.243-.169-.04-.225.235-.3.21-.505-.019-.152-.268-.169-.379-.274-.059-.056-.075-.186-.147-.295-.083-.125-.245-.215-.337-.337-.124-.164-.38-.4-.379-.527,0-.144.178-.182.21-.379-.036-.181-.374-.061-.4-.253.014-.119.125-.141.126-.274a.138.138,0,0,0-.105-.021c-.108.141-.3.082-.484.147a1.243,1.243,0,0,0-.463.4c-.063.15.015.317,0,.548.12.052.195.287.4.4.078.043.184.024.253.063a.356.356,0,0,1,.19.337C1174.395,293.71,1174.168,293.662,1174.051,293.79Zm-1.538-.463c-.171.064-.291.01-.316.169-.021.13.109.194.105.316-.062.155-.243.192-.274.379.213.348.725.037.99-.042.119-.036.294-.03.359-.126.074-.111.008-.3.063-.464.061-.177.231-.2.211-.358-.027-.209-.519-.34-.8-.169C1172.69,293.129,1172.637,293.279,1172.513,293.327Zm-14.662-4.676c.057.242.656,0,.611-.19C1158.31,288.215,1157.806,288.457,1157.851,288.65Zm-.4,47.291h.316A.5.5,0,0,0,1157.451,335.941Zm-.632-48.892c.089.019.106-.035.127-.084a.1.1,0,0,0-.127,0Zm-2.254,3.181a.166.166,0,0,0-.085.168c.045.224.468.032.464-.084S1154.677,290.161,1154.565,290.23Zm-8.426,19.738c.011-.031.031-.053.042-.085C1146.117,309.674,1145.916,309.96,1146.139,309.968Zm-8.32-14.577c.1-.1-.042-.318-.19-.232C1137.614,295.236,1137.656,295.423,1137.819,295.391Zm23.171.779c.288,0,.29-.311.126-.506.052-.2.134-.3.063-.442-.13-.26-.607,0-.632-.337-.016-.21.177-.2.253-.358-.034-.406.334-.437.3-.8-.017-.152-.146-.152-.253-.295-.055-.073-.081-.217-.148-.274-.22-.186-.667-.15-.695-.506-.01-.209.05-.383.021-.611-.027-.212-.172-.8-.358-.843-.235-.051-.477.351-.759.485a1.006,1.006,0,0,1-.527.126.455.455,0,0,1-.316-.358c-.017-.221.149-.227.19-.463-.035-.139-.179-.106-.316-.211-.155-.117-.279-.371-.485-.4-.1-.014-.235.077-.337.084-.313.021-.583-.2-.821-.147-.284.064-.273.505-.548.59.037.206-.243.342-.273.505a1.373,1.373,0,0,0,.042.337c.063,1.007-.767,1.48-1.749,1.453-.192.184-.148.527-.253.779a.755.755,0,0,1-.611.421.456.456,0,0,1-.336-.379c0-.18.261-.279.105-.485.022-.14.333-.22.294-.443s-.363-.111-.652-.147a2.177,2.177,0,0,1-.675-.253c-.247-.137-.458-.4-.78-.443-.183-.022-.356.061-.442-.042s.037-.28.042-.358c-.006-.128-.242-.17-.253-.3-.008-.088.226-.365.316-.442a4.732,4.732,0,0,1,.737-.443,5.65,5.65,0,0,1,.821-.379c.109-.036.233-.024.337-.063.267-.1.442-.285.695-.359.131-.038.275-.03.421-.063.35-.078.609-.329.906-.379-.066.243-.337.281-.4.527.255.464.691-.108.99-.105.271,0,.545.385.716.021a.879.879,0,0,0-.421-.421c-.162-.1-.417-.2-.4-.421.194-.086.269.147.443.148.094,0,.218-.114.316-.148a2.409,2.409,0,0,0,.758-.253c.1-.092.088-.239.169-.358.069-.1.243-.13.316-.232.09-.125.012-.229.127-.295.246-.11.549.025.821,0,.129-.012.216-.115.337-.105.236.019.362.4.527.505.121.079.337.077.358.232.041.307-.4.329-.674.485-.136.077-.193.253-.359.316-.446.17-1.121-.188-1.264.294.206.3.582-.02.843-.021a.875.875,0,0,1,.526.295c.1.105.134.31.253.379a1.785,1.785,0,0,0,.316.063,1.734,1.734,0,0,0,.906.189c.116-.2-.24-.261-.105-.421a1.714,1.714,0,0,1,.548.189c.244-.178.409-.2.4-.484-.006-.239-.32-.25-.316-.527a.225.225,0,0,1,.232-.232c.271-.011.349.392.548.421a1.72,1.72,0,0,0,.548-.189c.1-.05.411-.233.421-.337.015-.155-.325-.356-.485-.421-.227-.093-.457-.079-.547-.274-.049-.107.027-.22-.064-.295-.01-.114.139-.185.105-.3s-.156-.1-.316-.168c-.112-.052-.218-.167-.316-.19-.132-.031-.257,0-.358-.042-.371-.137-.3-.445-.548-.59-.318.04-.593-.112-.822.021-.284-.157-.712.037-1.074,0-.105-.011-.211-.075-.316-.085a2.336,2.336,0,0,0-1.538.548c-.041.046-.2.32-.168.443.063.225.478.06.589.273-.026.261-.305.394-.527.506-.206.1-.472.365-.695.231-.087-.227.25-.227.168-.421-.061-.145-.325-.051-.442-.189-.164-.194.031-.47-.021-.759.236-.431,1.147-.188,1.391-.611-.035-.135-.17-.062-.274-.105s-.136-.144-.253-.147-.25.119-.38.168a2.281,2.281,0,0,0-.4.168c-.235.152-.328.535-.611.464-.063-.229.266-.348.232-.548-.069-.133-.258-.077-.4-.063a1.114,1.114,0,0,0-.843.337c-.138-.017-.33-.093-.421.021.091.16.278.408.484.443.147.024.3-.114.443,0,.036.225-.264.222-.274.443-.006.132.165.207.147.337a.619.619,0,0,1-.674.3c0-.207.277-.146.273-.337,0-.081-.136-.195-.232-.211a.808.808,0,0,0-.569.211c-.1.1-.093.277-.21.358-.187.128-.436.059-.653.063a1.769,1.769,0,0,1-.969-.127c-.089-.046-.268-.13-.253-.273a5.592,5.592,0,0,0,1.032.084c.138-.026.186-.151.316-.211s.313,0,.358-.147c-.011-.256-.312-.178-.337-.379-.014-.111.16-.356.274-.463s.357-.143.4-.3c-.105-.217-.334.015-.506.043-.1.016-.2-.021-.295,0-.216.048-.323.24-.463.316-.15-.026-.168-.184-.316-.211-.189.144-.359.044-.548,0-.1-.023-.221-.021-.295-.043-.171-.049-.278-.254-.485-.316-.118-.035-.322,0-.527-.021a4.136,4.136,0,0,0-.969-.105c-.361.051-.593.306-.885.421-.354.139-.97.328-.484.632.481-.019.884-.225,1.306-.232.044.259-.139.472-.232.653-.069.133-.051.222-.127.274-.3.2-.838-.172-1.221-.232a2.749,2.749,0,0,0-.59.063c-.2.006-.385-.1-.569,0-.166-.051-.138-.249-.3-.274-.118-.019-.249.112-.358.127s-.2-.026-.316-.021a4.917,4.917,0,0,0-.674.147,5.936,5.936,0,0,1-.758.042,6.288,6.288,0,0,1-1.032.169c-.177-.019-.317-.177-.485-.211-.12-.024-.256,0-.379-.021s-.238-.083-.358-.105c-.315-.06-.687,0-1.011-.042-.138-.018-.259-.106-.4-.126s-.325.024-.484,0c-.1-.015-.193-.084-.295-.105-.133-.028-.275,0-.4-.021s-.246-.12-.379-.126a2.433,2.433,0,0,0-.569.126,5.915,5.915,0,0,1-.611.042c-.258.023-.536.131-.822.169a3.082,3.082,0,0,0-.8.211,3.081,3.081,0,0,1-.8.211c-.25.037-.58.006-.758.253.044.174.194.354.126.569-.138.3-.455.033-.7.021a4.061,4.061,0,0,0-.821.127c-.265.056-.625.126-.611.358.024.383.935.076,1.159.253.035.289-.38.233-.674.274-.138.019-.271.119-.379.127s-.214-.047-.294-.043a3.577,3.577,0,0,0-.653.232c-.17.052-.6.177-.611.295-.02.183.445.327.7.442a3.589,3.589,0,0,0,.821.316,4.9,4.9,0,0,0,1.244.021,3.3,3.3,0,0,1,.358-.063c.2.02.205.176.379.189.208.016.3-.122.506-.169a3.675,3.675,0,0,0,.674-.105c.206-.09.292-.262.442-.273.243-.02.368.227.632.273.43.076.765-.029,1.074.127.243.122.371.488.485.632.049.063-.135.222-.147.316-.009.065.047.165.042.253-.014.22-.185.365-.042.485s.407-.18.548.021-.134.278-.168.463a3.472,3.472,0,0,0,.063.632,1.5,1.5,0,0,1-.063.379c-.063.148-.276.145-.3.295-.03.241.352.408.379.611a1.359,1.359,0,0,1-.169.527,3.732,3.732,0,0,1-.61.906,6.852,6.852,0,0,0-.717.8c-.084.149-.094.323-.168.463-.107.2-.3.3-.4.506a4.084,4.084,0,0,0,0,.821c.015.27-.009.547.021.8a1.73,1.73,0,0,0,.147.547c.091.151.237.108.421.211a.989.989,0,0,1,.4.421,3.961,3.961,0,0,1,.043.611,3.137,3.137,0,0,0,.084.632c.06.172.339.344.337.547,0,.186-.254.208-.253.4,0,.306.6.313.674.611.037.152-.074.318-.042.443.038.15.289.272.358.337.124.116.2.315.4.274.149-.194-.117-.345-.189-.506-.082-.18-.079-.491-.168-.779-.056-.182-.22-.322-.274-.484s-.045-.344-.105-.485-.255-.324-.274-.463c-.068-.5.461-.677.611-.3.09.23-.039.438,0,.674.031.193.275.376.4.547a4.187,4.187,0,0,0,.379.506,1.486,1.486,0,0,1,0,.295c.173.2.375.391.548.611a1.642,1.642,0,0,1,.548,1.159c-.017.159-.176.3-.169.464.006.143.178.311.337.421a4.11,4.11,0,0,0,.442.316c.095.045.263.054.379.1.151.067.27.228.442.317.214.109.5.174.758.295a2.494,2.494,0,0,0,.78.274c.2,0,.412-.2.632-.211.517-.014.741.656,1.159.863a1.764,1.764,0,0,0,.379.085,2.607,2.607,0,0,1,.3.105c.223.076.5.068.674.147.268.119.464.623.7.758a1.656,1.656,0,0,0,.021.421c.109.148.263.114.443.211.215.116.281.414.484.506.07.031.247.029.358.063.28.084.372.408.611.337.157-.046.144-.208.168-.358.1-.113.218-.291.379-.295.261-.005.284.272.379.527.054.144.194.27.231.421a4.029,4.029,0,0,1-.02,1.2c-.066.192-.325.272-.485.485-.075.1-.111.246-.168.316-.1.125-.26.158-.337.274a3.159,3.159,0,0,0-.126.295c-.127.269-.3.458-.189.78.043.132.252.223.253.379,0,.183-.391.346-.421.547a2.406,2.406,0,0,0,.168.611c.035.148.313.24.4.337a5.207,5.207,0,0,1,.4.611c.267.41.477.908.737,1.306a4.435,4.435,0,0,1,.421.611c.047.109.041.239.085.337.15.339.815.7,1.158.863.161.079.337.108.485.189a2.761,2.761,0,0,1,.779.654,3.655,3.655,0,0,1,.21.884,7.6,7.6,0,0,1,.021,1.053c.01.216.082.436.084.653,0,.076-.04.133-.042.21-.01.263.064.557.042.822a2.439,2.439,0,0,0-.042.379c.011.131.074.244.084.359s-.031.283-.021.379c.029.265.222.472.274.715a3.318,3.318,0,0,1,.042.822c-.013.122-.087.245-.105.379-.014.1.015.216,0,.316-.021.147-.114.263-.105.4.019.285.335.517.379.8a2.541,2.541,0,0,1-.021.294,2.676,2.676,0,0,0,.126.484c.057.246,0,.582.253.7.264-.081-.05-.375.105-.506.3.092.206.581.3.885-.119.075-.262-.085-.337.063-.065.128.1.249.105.338.009.153-.113.334-.084.442.046.179.37.146.421.3s-.107.273-.105.442a1.838,1.838,0,0,0,.4.717c.081.107.206.177.274.274a3.08,3.08,0,0,0,.169.315c.072.076.247.115.358.19.183.123.387.431.569.526.079.041.194.059.3.106.135.06.276.166.4.21.345.123.687.207.969.337h.295a.5.5,0,0,1,.316,0h.042c.168-.049.339-.1.379-.273-.128-.295-.568-.258-.864-.421a2.359,2.359,0,0,1-.527-.506c-.147-.166-.443-.388-.442-.59,0-.165.176-.208.211-.358.026-.11-.045-.141,0-.274.084-.248.324-.251.316-.5-.015-.42-.825-.243-.843-.674-.012-.289.408-.277.463-.548.025-.125-.036-.177-.042-.379.047-.206.273-.233.316-.443-.088-.15-.289-.049-.421-.127a.4.4,0,0,1-.168-.4c.22-.093.643.224.8-.084.078-.145-.088-.506.021-.653.074-.1.476-.1.632-.127a1.925,1.925,0,0,0,.611-.168.749.749,0,0,0,.316-.611c-.012-.124-.1-.164-.19-.274a2.294,2.294,0,0,1-.168-.295c-.1-.148-.252-.126-.3-.337.3-.058.763.25,1.2.127.208-.059.494-.5.59-.7.031-.062.029-.157.063-.232s.115-.147.126-.189c.033-.115.016-.2.042-.273.076-.214.273-.284.4-.443.1-.119.141-.26.232-.379a3.34,3.34,0,0,0,.252-.358c.062-.385-.153-.653-.063-.99.1-.378.623-.609.99-.779.126-.059.256-.153.358-.189.254-.089.569-.041.8-.127.395-.144.437-.567.632-.927a2,2,0,0,0,.232-.463c.017-.11-.04-.209-.021-.337s.134-.24.168-.379a3,3,0,0,0,.063-.653c0-.167-.077-.313-.084-.463-.027-.547.2-.608.4-.906.1-.148.14-.315.211-.421.339-.506.927-.752.885-1.517-.014-.253-.171-.824-.358-.905-.106-.046-.351-.005-.506-.063-.5-.186-.791-.8-1.306-.843-.11-.009-.213.045-.337.043-.2,0-.511-.143-.737-.169-.144-.016-.335.042-.421,0-.132-.064-.146-.306-.253-.378a2.429,2.429,0,0,0-.379-.127,1.966,1.966,0,0,0-.611-.19,2.059,2.059,0,0,1-.253.021c-.133-.021-.236-.178-.358-.253-.153-.093-.295-.141-.358-.274.138-.454-.244-.581-.337-.843-.044-.123-.025-.27-.063-.379-.055-.157-.208-.248-.379-.379a1.975,1.975,0,0,0-1.011-.506c-.192-.023-.38.057-.612.042a1.278,1.278,0,0,1-.737-.442,2.564,2.564,0,0,0-.422-.485c-.147-.094-.341-.094-.442-.19-.045-.043-.037-.112-.085-.211-.074-.153-.2-.238-.105-.421-.168-.086-.174.158-.358.126a.559.559,0,0,0-.674-.274c-.17.031-.265.247-.463.253-.163,0-.291-.18-.506-.211-.162-.023-.348.044-.463.021-.18-.035-.236-.187-.4-.295a1.483,1.483,0,0,0-.421-.211c-.212.007-.361.45-.653.295-.143-.18.231-.274.063-.443-.128-.128-.235.056-.337.127a1.691,1.691,0,0,1-.358.211c-.29.108-.469.052-.7.169-.209.108-.218.29-.336.505-.1.177-.318.432-.463.443-.177.013-.346-.247-.506-.316-.482-.209-.716.184-1.117.189a1.162,1.162,0,0,1-.885-.948c.012-.213.122-.536.147-.8.021-.21.167-.335.168-.527,0-.256-.339-.454-.505-.485-.394-.072-.939.158-1.391-.021-.086-.143.1-.24.148-.379.027-.079.009-.187.042-.273.05-.134.19-.237.253-.379.047-.108.057-.266.105-.4.055-.153.157-.25.168-.358a.471.471,0,0,0-.147-.4,2.175,2.175,0,0,0-.78.126c-.455.208-.366.824-.821.969a4.654,4.654,0,0,1-.548.084,2.677,2.677,0,0,1-.485.105,1.165,1.165,0,0,1-.611-.295,3.75,3.75,0,0,1-.358-.716,2.119,2.119,0,0,1,.253-1.622,2.642,2.642,0,0,0,.168-.274c.056-.146.019-.368.063-.526.081-.294.466-.47.737-.611a2.45,2.45,0,0,1,.927-.442,2.625,2.625,0,0,1,.611.084c.159.032.284.137.421.147.389.03.482-.272.8-.442.328.046.546-.056.843-.021.2.023.348.241.506.253.132.011.25-.126.379-.105a.688.688,0,0,1,.358.442c.025.189-.139.361-.084.569a2.513,2.513,0,0,0,.843.358c.185-.152.025-.432,0-.653-.011-.1.01-.185,0-.274-.016-.152-.083-.291-.084-.421,0-.6.482-.88.885-1.117.174-.1.312-.282.463-.358.214-.107.372-.133.548-.232a5.737,5.737,0,0,0,.843-.527,2.716,2.716,0,0,0,.021-.906c.115-.071.215.032.337.021.193-.041.207-.313.316-.421.063-.062.238-.107.316-.169.192-.15.254-.377.421-.442.06-.024.2-.017.295-.042.125-.034.3-.183.506-.253.132-.045.434-.054.485-.105s0-.242.021-.337c.1-.476.819-.577,1.243-.737a1.767,1.767,0,0,1,.927-.253c-.064.226-.368.147-.316.421.072.381.582-.112.716-.168.257-.108.7-.173,1.033-.3.3-.107.826-.272.547-.611-.232-.013-.344.271-.547.358-.14.021-.113-.115-.232-.126s-.178.1-.294.085a.475.475,0,0,1-.3-.337c-.046-.352.3-.5.443-.758-.1-.318-.534-.065-.8-.19a.489.489,0,0,1,.442-.358,1.305,1.305,0,0,1,.7.084c.063.053.007.186.105.274a.42.42,0,0,0,.379.063c.051-.24-.313-.178-.273-.337.285-.186.747-.032,1.1-.084a1.931,1.931,0,0,0,.59-.274c.169-.1.39-.263.569-.105.049.172-.157.23-.252.316a6.881,6.881,0,0,0-.906.948c.154.15.436.075.7.105.1.012.229.044.337.063.125.022.26.018.358.042C1160.767,295.982,1160.815,296.17,1160.99,296.17Zm-23.362-1.011c.148-.086.289.13.19.232C1137.656,295.423,1137.614,295.236,1137.629,295.159Zm14.009,2.254c.014-.1.178-.134.316-.147.2-.019.481-.044.569.042C1152.454,297.586,1151.856,297.514,1151.637,297.413Zm-.505-.505c-.286.049-.4.609-.611.59s-.31-.507-.105-.653c.008-.128-.091-.148-.085-.274a.506.506,0,0,1,.4-.147c.1.008.218.117.337.127s.205-.061.274-.043a.258.258,0,0,1,.084.443C1151.289,296.967,1151.235,296.89,1151.132,296.908Zm-.737,1.243c-.16.05-.436.115-.463-.063-.034-.219.233-.17.379-.189.246-.033.522-.212.822-.105A2.009,2.009,0,0,1,1150.395,298.15Zm-.906-1.9c-.146-.025-.232-.227-.379-.253-.291-.051-.685.351-.884.021.051-.187.262-.193.484-.253.395-.108.88-.447,1.222-.358.191.05.694.6.274.779A4.4,4.4,0,0,1,1149.489,296.255Zm.042.59a1.263,1.263,0,0,0-.569.843c-.028.113-.321.409-.463.379-.334-.07.093-.686.169-.779s.2-.2.295-.316.159-.273.253-.337c.136-.093.608-.208.7-.105C1149.882,296.753,1149.7,296.74,1149.531,296.844Zm-2.254-3.286c.394-.092.235.6,0,.611C1146.949,294.181,1147.013,293.62,1147.277,293.558Zm-1.1,16.326c-.011.031-.031.053-.042.085C1145.916,309.96,1146.117,309.674,1146.181,309.884Zm-9.1-17.568c-.012-.076.062-.064.126-.064,0,.038.026.045.021.085A.088.088,0,0,1,1137.081,292.316Zm22.434-3.413c.015.106-.043.139-.147.126C1159.286,288.924,1159.422,288.837,1159.516,288.9Zm-2.7-1.854v-.084a.1.1,0,0,1,.127,0C1156.925,287.014,1156.909,287.068,1156.819,287.049Zm-9.269,1.391c.028-.444.353-.4.548-.127a3.975,3.975,0,0,1,.969.063c.052.1-.056.165-.126.211C1148.536,288.291,1147.943,288.758,1147.551,288.44Zm-3.2,2.465c.017-.157.263-.18.442-.274.153-.081.227-.216.379-.211.116,0,.218.111.316.189-.03.128-.2.106-.316.148A1.534,1.534,0,0,1,1144.349,290.9Zm-.253-1.475a1.068,1.068,0,0,1,.211-.421c.374-.033,1.016-.316,1.116.147-.086.122-.224.061-.358.084C1144.737,289.3,1144.386,289.5,1144.1,289.43Zm7.2,21.023c.2-.093.251.289.084.316S1151.148,310.523,1151.3,310.452Zm-14.219-18.137a.088.088,0,0,0,.147.021c0-.04-.024-.047-.021-.085C1137.144,292.252,1137.069,292.24,1137.081,292.316Zm-.906,1.327a.525.525,0,0,0,.1.105.448.448,0,0,0,.3-.253C1136.469,293.3,1136.185,293.443,1136.176,293.643Z" transform="translate(-1124.691 -264.689)" fill="#e4e7eb"/>
    <path id="Path_1403" data-name="Path 1403" d="M282.724,422.246a10.542,10.542,0,0,0-10.542,10.542c0,6.225,10.542,18.248,10.542,18.248s10.542-11.56,10.542-18.248A10.542,10.542,0,0,0,282.724,422.246Zm0,14.672a4.562,4.562,0,1,1,4.562-4.562A4.562,4.562,0,0,1,282.724,436.918Z" transform="translate(-201.651 -414.491)" fill="#c6d0e1"/>
    <path id="Path_1404" data-name="Path 1404" d="M281.394,422.246a9.212,9.212,0,0,0-9.212,9.212c0,5.44,9.212,15.946,9.212,15.946s9.212-10.1,9.212-15.946A9.212,9.212,0,0,0,281.394,422.246Zm0,12.822a3.987,3.987,0,1,1,3.986-3.987A3.986,3.986,0,0,1,281.394,435.068Z" transform="translate(-249.8 -390.797)" fill="#c6d0e1"/>
    <path id="Path_1405" data-name="Path 1405" d="M279.871,422.246a7.689,7.689,0,0,0-7.689,7.689c0,4.54,7.689,13.31,7.689,13.31s7.689-8.432,7.689-13.31A7.689,7.689,0,0,0,279.871,422.246Zm0,10.7a3.327,3.327,0,1,1,3.327-3.328A3.327,3.327,0,0,1,279.871,432.948Z" transform="translate(-177.576 -382.624)" fill="#c6d0e1"/>
  </g>
</svg>
