<?xml version="1.0" encoding="utf-8"?>
<!-- Generator: Adobe Illustrator 23.0.2, SVG Export Plug-In . SVG Version: 6.00 Build 0)  -->
<svg version="1.1" id="Layer_1" xmlns="http://www.w3.org/2000/svg" xmlns:xlink="http://www.w3.org/1999/xlink" x="0px" y="0px"
	 viewBox="0 0 928.4 510.9" style="enable-background:new 0 0 928.4 510.9;" xml:space="preserve">
<style type="text/css">
	.st0{fill:#F4F4F4;}
	.st1{fill:#FFFFFF;}
	.st2{fill:#F0F0F0;}
	.st3{fill:#D5DBE0;}
	.st4{fill:#FCD2C5;}
	.st5{fill:#00ACFF;}
	.st6{fill:#0D6FAA;}
	.st7{fill:#4D3782;}
	.st8{fill:#424261;}
	.st9{fill:#DD4288;}
	.st10{fill:#363653;}
	.st11{fill:#FCAD2D;}
	.st12{fill:#25346E;}
	.st13{fill:#F06933;}
	.st14{fill:#92C549;}
	.st15{fill:url(#Path_28873_1_);}
	.st16{fill:url(#Path_28877_1_);}
	.st17{fill:url(#Path_28890_1_);}
</style>
<g id="dashboard" transform="translate(58.505 1.843)">
	<path id="Path_28736" class="st0" d="M-58.5,509c15.2-1.9,37.6-22.5,48.3-51.5S9,393.7,28.5,381c18.3-11.9,39.6,33.7,58.9,26.4
		c39.4-15,44-213.6,93.8-213.6c47.3,0,129.8,176.8,195.4,112c63-62.2,100.2-275.9,152.1-302.8C629-49.1,650,340.9,722,340.9
		c20.4,0,35.2-93.3,50.7-104.9c49.8-37.4,26.4,202.9,97.2,273H-58.5z"/>
	<g id="Group_3274" transform="translate(-46.502 180.427)">
		<path id="Path_28764" class="st1" d="M47,50h11.9L60.5,37H41.2L47,50z"/>
		<g id="Group_3273" transform="translate(2.573 1.455)">
			<path id="Path_28765" class="st1" d="M13.5,2L0,0l8.9,16.1l11.2-3.7c0-0.1,0-5.9,0-5.9C20.1,2.9,17.2,2,13.5,2z"/>
			<path id="Path_28766" class="st1" d="M8.9,22.2L0,38.3l13.5-2c3.7,0,6.6-0.8,6.6-4.5c0,0,0-5.8,0-5.9L8.9,22.2z"/>
		</g>
		<path id="Path_28767" class="st2" d="M0,21.3c0,0,91.9-0.2,92.1,0C81.3-16.7,5.1,4.5,0,21.3z"/>
		<path id="Path_28768" class="st1" d="M0,21.3c5.1,16.9,81.3,38.1,92.1,0C91.9,21.5,0,21.3,0,21.3z"/>
		<path id="Path_28769" class="st1" d="M54.7,8.7C21.4,8.7,0.3,21.2,0,21.3h92.1C91.9,21.1,88,8.7,54.7,8.7z"/>
		<path id="Path_28770" class="st2" d="M54.7,33.9c33.3,0,37.2-12.4,37.4-12.6H0C0.3,21.5,21.4,33.9,54.7,33.9z"/>
		<path id="Path_28771" class="st3" d="M92.1,21.3L92.1,21.3L92.1,21.3L92.1,21.3z"/>
	</g>
	<g id="Group_3275" transform="translate(569.494 194.069)">
		<path id="Path_28772" class="st1" d="M186.5,18.8c-3.5,0.1-6.8,1.7-8.9,4.4h17.8C193.3,20.4,190,18.8,186.5,18.8z"/>
		<path id="Path_28773" class="st1" d="M142.7,13.8c-3.8,0-6.7,4.5-10.2,3.7C125.1,15.7,122,6,113.7,6c-6.4,0-10.1,7.9-15.9,7.4
			C88.5,12.6,84.3,0,74.2,0C65,0,60.4,10.8,51.8,11.7c-5,0.6-8.7-5.5-14.2-5.5c-10.3,0-11.3,4.1-20.8,7.1c-2.7,0.9-4.8,6.2-7.9,6.2
			c-3.6,0-6.9,1.1-8.9,3.7h158.3C155.2,17.4,149.2,13.9,142.7,13.8z"/>
	</g>
	<g id="Group_3276" transform="translate(149.62 175.042)">
		<path id="Path_28774" class="st1" d="M8.9,18.8c-3.5,0.1-6.8,1.7-8.9,4.4h17.8C15.7,20.4,12.4,18.8,8.9,18.8z"/>
		<path id="Path_28775" class="st1" d="M186.5,19.5c-3.1,0-0.4-5.1-7.9-6.2c-12.9-1.8-10.4-7.1-20.8-7.1c-5.5,0-9.2,6.1-14.2,5.5
			C135,10.8,130.5,0,121.2,0c-10,0-14.2,12.6-23.5,13.4C91.8,14,88.1,6,81.7,6c-8.3,0-11.4,9.7-18.9,11.5c-3.4,0.8-6.3-3.7-10.2-3.7
			c-6.5,0.1-12.4,3.7-15.5,9.4h158.3C193.4,20.6,190.1,19.5,186.5,19.5z"/>
	</g>
	<g transform="matrix(1, 0, 0, 1, -58.5, -1.84)">
		<rect id="Rectangle_1587-2" x="202.5" y="219.1" class="st1" width="343.9" height="265"/>
	</g>
	<g id="Group_3286" transform="translate(379.729 267.098)">
		<rect id="Rectangle_1588" x="0" y="0" class="st3" width="16" height="5"/>
		<rect id="Rectangle_1589" x="24" y="0" class="st3" width="35" height="5"/>
		<rect id="Rectangle_1590" x="63.1" y="0" class="st3" width="7.3" height="5"/>
		<rect id="Rectangle_1591" x="46.3" y="8" class="st3" width="24.1" height="5"/>
		<rect id="Rectangle_1592" x="0" y="8" class="st3" width="5.8" height="5"/>
		<rect id="Rectangle_1593" x="8.7" y="8" class="st3" width="31.9" height="5"/>
		<rect id="Rectangle_1594" x="0" y="15.9" class="st3" width="19.2" height="5"/>
		<rect id="Rectangle_1595" x="23.1" y="15.9" class="st3" width="47.3" height="5"/>
	</g>
	<g id="Group_3287" transform="translate(379.729 393.008)">
		<rect id="Rectangle_1596" x="0" y="0" class="st3" width="16" height="5"/>
		<rect id="Rectangle_1597" x="24" y="0" class="st3" width="35" height="5"/>
		<rect id="Rectangle_1598" x="63.1" y="0" class="st3" width="7.3" height="5"/>
		<rect id="Rectangle_1599" x="46.3" y="8" class="st3" width="24.1" height="5"/>
		<rect id="Rectangle_1600" x="0" y="8" class="st3" width="5.8" height="5"/>
		<rect id="Rectangle_1601" x="8.7" y="8" class="st3" width="31.9" height="5"/>
		<rect id="Rectangle_1602" x="0" y="15.9" class="st3" width="19.2" height="5"/>
		<rect id="Rectangle_1603" x="23.1" y="15.9" class="st3" width="47.3" height="5"/>
	</g>
	<g id="Group_3288" transform="translate(210.265 377.052)">
		<rect id="Rectangle_1604" x="78.2" y="16" class="st3" width="16" height="5"/>
		<rect id="Rectangle_1605" x="102.2" y="16" class="st3" width="35" height="5"/>
		<rect id="Rectangle_1606" x="141.3" y="16" class="st3" width="7.3" height="5"/>
		<rect id="Rectangle_1607" x="124.4" y="23.9" class="st3" width="24.1" height="5"/>
		<rect id="Rectangle_1608" x="78.2" y="23.9" class="st3" width="5.8" height="5"/>
		<rect id="Rectangle_1609" x="86.9" y="23.9" class="st3" width="31.9" height="5"/>
		<rect id="Rectangle_1610" x="102.2" y="0" class="st3" width="35" height="5"/>
		<rect id="Rectangle_1611" x="141.3" y="0" class="st3" width="7.3" height="5"/>
		<rect id="Rectangle_1612" x="124.4" y="8" class="st3" width="24.1" height="5"/>
		<rect id="Rectangle_1613" x="86.9" y="8" class="st3" width="31.9" height="5"/>
		<rect id="Rectangle_1614" x="78.2" y="31.9" class="st3" width="19.2" height="5"/>
		<rect id="Rectangle_1615" x="101.2" y="31.9" class="st3" width="47.3" height="5"/>
		<rect id="Rectangle_1616" x="0" y="16" class="st3" width="16" height="5"/>
		<rect id="Rectangle_1617" x="24" y="16" class="st3" width="35" height="5"/>
		<rect id="Rectangle_1618" x="46.3" y="23.9" class="st3" width="24.1" height="5"/>
		<rect id="Rectangle_1619" x="0" y="23.9" class="st3" width="5.8" height="5"/>
		<rect id="Rectangle_1620" x="8.7" y="23.9" class="st3" width="31.9" height="5"/>
		<rect id="Rectangle_1621" x="0" y="31.9" class="st3" width="19.2" height="5"/>
		<rect id="Rectangle_1622" x="23.1" y="31.9" class="st3" width="47.3" height="5"/>
	</g>
	<g id="Group_3292" transform="translate(378.134 279.546)">
		<g id="Group_3289" transform="translate(68.952 39.196)">
			<path id="Path_28777" class="st4" d="M7.6,3.1c0.1-0.6,0.3-1.1-0.5-1.1c-0.5,0-1,2-0.9,2.5c0.6,1,1.2,0.6,1.7,1.7
				C7.6,5.1,7.5,4.1,7.6,3.1z"/>
			<path id="Path_28778" class="st4" d="M4.6,1.8C4.1,1.2,3.6,0.6,3,0.1C2.5,0,2,0,1.4,0.1C1.2,0.2,1,0.5,0.9,0.8
				C0.3,0.9,0.8,2.2,0.6,2.2c-0.7,0-1,0.8,0.4,2.3C1.1,4.6,3.6,9,4.6,10.3c1.4-0.9,2.7-1.9,4-3C8.2,6.4,7.7,5.6,7.1,4.8
				C6.5,3.9,4.7,1.9,4.6,1.8z"/>
			<path id="Path_28779" class="st4" d="M40.2,0.1C37.2,4.8,31.5,22,27.2,29.7c-5.3,9.5,3.2,9.8,5.7,7.4C39.5,30.9,54.8,10.8,52,7
				C50.7,5.4,40.8-0.8,40.2,0.1z"/>
			<path id="Path_28780" class="st5" d="M40.2,0.1c-2.2,3.3-6,12.8-10.2,20.4c2.6,2,5.3,3.8,8.2,5.4c1,0.6,4.1,2.4,5.2,2.8
				C49.7,20.6,53.9,9.5,52,7C50.7,5.4,40.8-0.8,40.2,0.1z"/>
			<path id="Path_28781" class="st4" d="M32.2,31.9C28.4,27.2,11.3,12.1,8.1,6.6C6.9,7.7,5.5,8.8,4,9.6c5.4,9,21.4,30,25.5,29
				c3.7-1,3.9-3.8,3.3-5.6C32.6,32.6,32.4,32.2,32.2,31.9z"/>
		</g>
		<g id="Group_3290" transform="translate(0 26.463)">
			<rect id="Rectangle_1623" x="0" y="36.8" class="st5" width="11.4" height="25.4"/>
			<rect id="Rectangle_1624" x="14" y="26.6" class="st5" width="10.1" height="35.5"/>
			<rect id="Rectangle_1625" x="29.2" y="33" class="st5" width="8.9" height="29.2"/>
			<rect id="Rectangle_1626" x="41.9" y="21.6" class="st5" width="11.4" height="40.6"/>
			<rect id="Rectangle_1627" x="55.8" y="11.4" class="st5" width="11.4" height="50.7"/>
			<rect id="Rectangle_1628" x="71" y="0" class="st6" width="8.9" height="62.2"/>
		</g>
		<path id="Path_28782" class="st4" d="M132.9,146.8c0.1,1.5,4.3,75.5,4.3,75.5c1.4,1,3.1,1.4,4.7,1c0,0,6.7-75.5,6.4-78.9
			C146.4,145.9,134.1,148,132.9,146.8z"/>
		<path id="Path_28783" class="st7" d="M141.7,222.3l-4-2.2c0,0-0.9,1.3-1.5,2.1c-1.3,1.6-7.7,2.7-7.7,5c0,1.1,2.4,2.2,4.3,2.2
			c1.6,0.2,3.2,0,4.7-0.6c1.3-0.8,3.8-1.4,4.2-2.1c0.4-0.8,0.5-1.8,0.2-2.6C142,222.7,141.7,222.3,141.7,222.3z"/>
		<path id="Path_28784" class="st4" d="M136.2,222.2c0.6,0.9,1.4,1.7,2.3,2.2c0.8,0.5,3.3-0.4,3.3-0.4c0.2-1.3,0.3-2.1,0.3-2.1
			l-4.5-2C137.2,220.7,136.7,221.5,136.2,222.2z"/>
		<path id="Path_28785" class="st8" d="M126.5,90.8c-0.7,5.1,10.1,130.1,10.1,130.1c0.1,0.2,3.9,2.3,5.8,0.2c0,0,2-28.8,5.9-56
			C151.7,141.6,153,93,153,93C143.5,93.6,129.7,92.2,126.5,90.8z"/>
		<path id="Path_28786" class="st4" d="M112.2,146.8c0.1,1.5,4.3,75.5,4.3,75.5c1.4,1,3.1,1.4,4.7,1c0,0,6.7-75.5,6.4-78.9
			C125.7,145.9,113.5,148,112.2,146.8z"/>
		<path id="Path_28787" class="st7" d="M121,222.3l-4-2.2c0,0-0.8,1.3-1.5,2.1c-1.3,1.6-7.7,2.7-7.7,5c0,1.1,2.4,2.2,4.3,2.2
			c1.6,0.1,3.2-0.2,4.7-0.6c1.1-0.4,3.8-1.4,4.2-2.1c0.4-0.8,0.5-1.8,0.2-2.6C121.3,222.7,121,222.3,121,222.3z"/>
		<path id="Path_28788" class="st4" d="M115.5,222.2c0.6,0.9,1.4,1.7,2.3,2.2c0.8,0.5,3.3-0.4,3.3-0.4c0.2-1.3,0.3-2.1,0.3-2.1
			l-4.5-2C116.5,220.7,116.1,221.5,115.5,222.2z"/>
		<path id="Path_28789" class="st8" d="M105.9,90.8c-0.7,5.1,10.1,130.1,10.1,130.1c0.1,0.2,3.9,2.3,5.8,0.2c0,0,2-28.8,5.9-56
			c3.4-23.5,2.9-45.7,4.7-47.2V93C122.8,93.6,109,92.2,105.9,90.8z"/>
		<path id="Path_28790" class="st5" d="M105.1,88.7c0,0-3,14.6-1.6,15.8c3.3,2.9,15.7,0.2,25.1-0.9s26.7,0.8,27.2-1.2
			c1.2-5.2-1.1-16.6-1.1-16.6L105.1,88.7z"/>
		<path id="Path_28791" class="st4" d="M129.6,20.9c-0.7,0.5-7.5,4.3-9.5,4c0,0.5,1.3,6.3,0.1,9.4c0.5,2.9,8.5,2.9,10.7-2
			C130,30.9,129.2,23.5,129.6,20.9z"/>
		<path id="Path_28792" class="st4" d="M122.4,11.3c-3.6-0.2-7.1,0.6-7.9,4c-0.3,1.2,0.2,12.3,6.1,13.9c2.5,0.7,7.3-3.5,7.5-6.4
			c0,0,0.3-4,0.3-4C128.6,15,126.3,11.6,122.4,11.3z"/>
		<path id="Path_28793" class="st5" d="M149.8,45.2c-2.2-6.1-4.8-9.3-10.9-10.8c-2-0.5-8.1-2.2-8.1-2.2s-4.3,3.7-7.1,3.9
			c-1.9,0.1-3.6-2-3.6-2s-7,2.1-8.3,2.9c-4.9,2.9-5,7.7-5.3,11.7c-2.9,40-4.7,45.8-3.4,48c3.1,5.4,54,1.8,53-4.9
			C153,69.7,150.5,47.1,149.8,45.2z"/>
		<path id="Path_28794" class="st9" d="M130.5,9.5c-5.3-4.8-13.5,0.3-13.5,0.3c-6.2,1.2-4.9,10.3-2,11.6c-1.4-6.7,3.2-8.9,3.2-8.9
			c8.4-0.1,11.4,9.9,10.8,12.5C129,25.1,138.4,16.7,130.5,9.5z"/>
		<path id="Path_28795" class="st4" d="M128.2,17.3c-0.6,0-1.1,0.2-1.6,0.6c0.5,1.5,1,3,1.7,4.4c1.1-0.5,1.8-1.5,2-2.7
			C130.2,18.6,129.2,17.3,128.2,17.3z"/>
		<path id="Path_28796" class="st9" d="M150.6,15.5C148.8-9,128.9,1.3,129.4,7.8c0.1,1.6,1,2.5,2.3,0.8c2.2-2.8,10-5.3,5.5,9.6
			c-1.2,3.9-6.3,9,4.8,16.1c10.1,6.4,1.8,8.9,2.3,11.9c1.4,7.6,21.2-8.9,10.8-20.3C152.9,23.5,151.1,22.9,150.6,15.5z"/>
		<path id="Path_28797" class="st7" d="M130.6,7.3c-0.4-0.3-0.9-0.4-1.4-0.4c-0.7,0.1-1.4,0.4-1.8,0.9c1.8,0.7,3.4,1.8,4.7,3.2
			C132.5,9.8,132.5,8.4,130.6,7.3z"/>
		<g id="Group_3291" transform="translate(69.437 36.68)">
			<path id="Path_28798" class="st4" d="M9.2,12.9c-0.3-0.5-0.4-1.1-1-0.7c-0.4,0.3,0.3,2.3,0.7,2.6c1.1,0.5,1.4-0.2,2.4,0.4
				C10.4,14.5,9.8,13.7,9.2,12.9z"/>
			<path id="Path_28799" class="st4" d="M8.8,14c-1.3-0.6-4.4-1.5-4.6-1.6c-0.9-0.3-1.8-0.6-2.7-0.7c-0.5,0.1-1,0.4-1.4,0.8
				C0,12.7,0,13.1,0.2,13.4c-0.5,0.5,0.9,1.5,0.8,1.6c-0.6,0.4-0.3,1.3,2.1,2c0.1,0,5.7,2.9,7.6,3.7c0.6-1.6,1-3.3,1.3-5
				C11,15,9.9,14.5,8.8,14z"/>
			<path id="Path_28800" class="st4" d="M68.8,0.1C64,2.9,51.4,15.9,44.1,20.9c-8.9,6.2-1.4,10.2,1.9,9.2c8.7-2.6,31.2-14,30.3-18.7
				C75.9,9.4,69.7-0.4,68.8,0.1z"/>
			<path id="Path_28801" class="st5" d="M68.8,0.1C64.9,0.8,57.8,9,50.8,14c1.5,5.1,4.4,9.6,8.4,13.2c9.2-4.5,16.3-10.3,18-12.9
				C81.3,7.3,73.9-0.9,68.8,0.1z"/>
			<path id="Path_28802" class="st4" d="M46.9,23.1c-0.3-0.2-0.7-0.4-1-0.5c-5.8-1.7-28.4-4.4-34.2-7.1c-0.3,1.7-0.9,3.3-1.7,4.8
				c9.6,4.4,34.7,12.5,37.4,9.3C49.9,26.7,48.4,24.2,46.9,23.1z"/>
		</g>
	</g>
	<g id="Group_3296" transform="translate(58.193 283.087)">
		<g id="Group_3293" transform="translate(87.956 38.177)">
			<path id="Path_28803" class="st4" d="M59.3,49.6c-0.9,0.4-1.9,0.7-2.9,0.8c1.1,0,1,0.7,2.2,1c0.5-0.1,2.7-1.8,2.5-2.2
				C60.8,48.4,60.2,49.2,59.3,49.6z"/>
			<path id="Path_28804" class="st4" d="M54.4,50.6c-0.3,1.7-0.4,3.4-0.3,5.1c1.2-0.1,2.5,0,3.7,0.2c2.5,0.1,2.2-4.9,2.1-5.4
				C59.8,50.1,57.7,52.1,54.4,50.6z"/>
			<path id="Path_28805" class="st4" d="M16.1,2.4C15.6,1.5,5.3,7.1,4,8.6c-3.1,3.6,11,24.6,17.3,31.1c2.4,2.5,10.9,2.7,6.1-7.1
				C23.6,24.7,18.9,7.2,16.1,2.4z"/>
			<path id="Path_28806" class="st4" d="M25,33.4c-1.9-0.2-4.6,0.6-4.7,4.5c-0.1,4.2,30.5,18.3,33.8,17.8c0.6-1.5,1.3-3,2.2-4.4
				c-6.1-1.8-24.7-15-30.2-17.6C25.8,33.6,25.4,33.5,25,33.4z"/>
			<path id="Path_28807" class="st5" d="M28,33.7C27.8,33,18.7,2.5,17.3,0C17-0.4,2,4.6,0.6,6.2c-4.1,4.7,13.5,28.4,18.4,33.7
				c4.6,5.2,24,13.9,32.5,16.7l2.8-6.9c-3.5-1.1-11.7-6.5-18.3-10.8C33,36.9,30.2,35,28,33.7z"/>
		</g>
		<path id="Path_28808" class="st4" d="M72.3,140.1c-0.5,3.4,1.4,79.2,1.4,79.2c1.6,0.4,3.4,0.2,4.8-0.7c0,0,8.8-73.6,9-75.1
			C86.3,144.6,74.2,141.7,72.3,140.1z"/>
		<path id="Path_28809" class="st8" d="M79.6,218.5c-0.6-0.9-1.4-2.2-1.4-2.2l-4.1,1.9c0,0-0.3,0.4-0.2,1.7c-0.4,0.8-0.4,1.8,0,2.6
			c0.4,0.7,2.9,2,4,2.4c1.5,0.6,3,0.9,4.6,0.9c1.9,0,4.4-0.8,4.5-2C87.1,221.7,80.8,220.1,79.6,218.5z"/>
		<g id="Group_3294" transform="translate(51.206 92.924)">
			<path id="Path_28810" class="st8" d="M44.2,120c-0.8-1-1.3-1.1-1.3-1.1l-4.3,1.3c0,0,0.3,1.5,0.4,2.6c0.2,2.1-3.4,7.4-1.8,9
				c0.8,0.8,3.2-0.2,4.6-1.5c1.2-1,2.2-2.3,2.8-3.8c0.4-1.5,1.6-3.7,1.4-4.5C45.6,121.1,45,120.4,44.2,120z"/>
			<path id="Path_28811" class="st8" d="M38.3,120.1c0.3,0.8,0.6,1.7,0.7,2.6c1.1,0.2,2.1,0.2,3.2-0.1c0.9-0.3,2-2.7,2-2.7
				c-0.8-1-1.3-1.7-1.3-1.7L38.3,120.1z"/>
			<path id="Path_28812" class="st10" d="M25.1,0.7C15.7,1.8,3.2,1.2,0,0c-0.2,2.7,3.1,36.9,7,70.1c1.9,15.9,31.6,51.2,31.6,51.2
				c1.9,0.5,3.9-0.2,5.2-1.6c0,0-20.1-40.2-19.7-50.4C25.3,46.3,27.9,17.3,25.1,0.7z"/>
		</g>
		<path id="Path_28813" class="st4" d="M73.7,217.8c0,0,0,0.9,0.2,2.1c0,0,2.4,1,3.3,0.6c1-0.5,1.8-1.2,2.4-2.1
			c-0.5-0.7-1-1.6-1.3-2.4L73.7,217.8z"/>
		<path id="Path_28814" class="st8" d="M72.2,88.4c0,0-3,48.6-1.1,72.2c2.1,27.4,2.3,56.3,2.3,56.3c1.8,2.3,5.8,0.4,5.8,0.2
			c0,0,20-124.1,19.6-129.2C95.5,89.1,81.6,89.6,72.2,88.4z"/>
		<path id="Path_28815" class="st6" d="M54.2,81.5c0,0-4.6,11.2-2.8,18.6c6,3,12.4,4.9,19.1,5.6l3.8-8.4c0,0,3.1,9.2,4.7,9.4
			c8.6,1.1,17.5,1.1,23.7-1.9l-1.9-13.4L54.2,81.5z"/>
		<path id="Path_28816" class="st4" d="M87.2,16.6c0,2.7-1.7,9.9-2.8,11.1c1.5,5.1,9.4,6.2,10.3,3.4c-0.8-3.2,1.3-8.8,1.4-9.3
			C94,21.9,87.8,17.2,87.2,16.6z"/>
		<path id="Path_28817" class="st5" d="M102.5,35.1c-1.2-0.9-7.8-4-7.8-4s-1.9,1.8-3.8,1.4c-2.8-0.6-6.5-4.9-6.5-4.9s-6.2,0.8-8.3,1
			c-6.3,0.6-9.8,5.7-11.9,10.6c-4.8,11-10,36.8-11.4,43.7c-0.2,1.1,0.2,2.3,1.1,3.1c10.8,8.8,41.1,10.4,46.7,8.6
			c4.3-1.4,1.5-33.9,5.6-47.3C107.7,43,106.2,38,102.5,35.1z"/>
		<g id="Group_3295" transform="translate(0 3.614)">
			<path id="Path_28818" class="st4" d="M4.5,1.9C3.8,1.2,3.1,0.6,2.3,0.1C1.8-0.1,1.2,0,0.7,0.2C0.4,0.4,0.3,0.7,0.4,1
				c-0.7,0.2,0.2,1.7,0.1,1.8c-0.7,0.1-0.8,1.1,1.1,2.7c0.1,0.1,4,5,5.4,6.5c1.2-1.2,2.3-2.6,3.2-4C9.5,7,8.8,6.1,8,5.2
				C7,4.2,4.6,2,4.5,1.9z"/>
			<path id="Path_28819" class="st4" d="M70.8,25.3c-5.6-0.7-23.5,2-32.3,1.6c-10.8-0.5-7.3,7.2-4.1,8.4c8.5,3.2,33.3,7.8,35.4,3.6
				C70.8,37,71.8,25.4,70.8,25.3z"/>
			<path id="Path_28820" class="st4" d="M38.1,28.5c-4.6-4-24-15.8-28.1-20.8c-1,1.4-2.2,2.6-3.5,3.7c6.9,8,26.3,25.8,30.1,24.1
				c3.5-1.6,3.2-4.5,2.3-6.1C38.6,29,38.4,28.7,38.1,28.5z"/>
			<path id="Path_28821" class="st5" d="M79.6,24.7c-18.1-1.7-41.6,2-42.3,2c-2.1-1.5-4.9-3.4-8-5.4C22.8,17,14.6,11.6,12.2,8.9
				L7,14.1c6,6.7,21.7,21,28.3,23.2c6.8,2.4,32.5,7.5,35.2,1.8C71.3,37.3,81.7,24.9,79.6,24.7z"/>
		</g>
		<path id="Path_28822" class="st9" d="M101.9,27.5c1.2-3.6,1.3-7.5,0.4-11.1c-1.5-2.8-6.8,2-6.8,2.1c0.8,3.3,0.9,6.8,0.1,10.1
			c-0.9,3.2-2.9,5.3-1.6,13.1c1.8,11.1-4.9,22.3-2.7,23.8c2,1.3,9.6-3.9,11.6-15.9c0.3-2.1,0.6-6.4-0.8-9.7
			C100.5,35.8,100.5,31.5,101.9,27.5z"/>
		<path id="Path_28823" class="st4" d="M96.3,7.6c-3.9-0.3-7.3,3.3-7.6,7.1c0,0-0.3,4-0.3,4c-0.2,2.9,3.9,7.8,6.5,7.4
			c6.1-0.8,8.1-11.7,8-12.9C102.6,9.7,99.9,7.8,96.3,7.6z"/>
		<path id="Path_28824" class="st9" d="M102.1,5.3c-1.1-0.7-2.3-1.1-3.6-1c0,0,0.2-1.7-3.2-3.5c-2.7-1.4-7.9-0.8-12,3
			c-4.7,4.2-6.8,10.6-5.6,16.8c1.2,4.8,0,9.9-3.2,13.7c-3,3.4-3.6,8.3-3.6,10.7c0,13.8,10.4,21.6,13.8,20.6
			c3.7-1.1-3.9-15.2,1.7-27.2c3.9-8.3,1.3-11.3,0.8-15c-0.7-4.9,1.9-11,4.1-13.1c2.4-2.3,6.9-2.3,6.9-2.3s6.2,2.3,3,12.2
			C104.8,17.4,106.1,8,102.1,5.3z"/>
		<path id="Path_28825" class="st4" d="M86.7,15.2c0,1.2,0.6,2.3,1.6,3c0.8-1.3,1.6-2.7,2.3-4.2c-0.4-0.4-1-0.7-1.5-0.8
			C88.1,13.1,86.9,14.2,86.7,15.2z"/>
	</g>
	<g id="Group_3347" transform="translate(544.516 271.735)">
		<rect id="Rectangle_1630" x="56" y="0" class="st11" width="3.3" height="39.1"/>
		<rect id="Rectangle_1631" x="92.9" y="0" class="st11" width="3.3" height="39.1"/>
		<rect id="Rectangle_1632" x="87.6" y="54.2" class="st11" width="43.6" height="3.3"/>
		<path id="Path_28828" class="st11" d="M68.3,0H65v14.3h9.9v19.8h3.3V11h-9.9V0z"/>
		<path id="Path_28829" class="st11" d="M116.8,35.4H97v3.3h23.1v-9.9h11v-3.3h-14.3L116.8,35.4z"/>
		<path id="Path_28830" class="st11" d="M96.7,106h-3.3v13.4h5.8v6.2h3.3v-9.4h-5.8L96.7,106z"/>
		<path id="Path_28831" class="st11" d="M47.1,9.8h-9.4v14.4H41V13.1h9.4V0h-3.3V9.8z"/>
		<path id="Path_28832" class="st11" d="M14.4,81.6H0v3.3h11.1v9.4h23.5V91H14.4V81.6z"/>
		<path id="Path_28833" class="st11" d="M11.1,63.4H0v3.3h14.4v-9.4h20.2V54H11.1V63.4z"/>
		<path id="Path_28834" class="st11" d="M116.2,72.2c-2.8,0-5.2,0-5.9,0l-0.8,0l-0.1,3.3l0.8,0c0.7,0,2.8,0,6.1,0c4.1,0,9,0,11.6,0
			v8.4h3.3V72.1l-1.7,0C129.3,72.1,121.9,72.2,116.2,72.2z"/>
		<path id="Path_28835" class="st11" d="M58.9,103.7l-3.3-0.1l0,0.8c-0.1,2,0,13.1,0,17.7h-4.2v3.3h7.5l0-2
			c-0.1-10.6-0.1-17.5,0-18.8L58.9,103.7z"/>
		<path id="Path_28836" class="st11" d="M78.1,104.4l0-0.8l-3.3,0.1l0,0.8c0.1,2.3,0,19.1,0,19.2l0,1.7h11.7v-3.3h-8.4
			C78.1,116.8,78.2,106.3,78.1,104.4z"/>
		<rect id="Rectangle_1633" x="103.2" y="90.8" class="st11" width="28" height="3.3"/>
		<rect id="Rectangle_1634" x="0" y="35.4" class="st11" width="36.8" height="3.3"/>
		<rect id="Rectangle_1635" x="0" y="72.3" class="st11" width="28" height="3.3"/>
		<rect id="Rectangle_1636" x="37.7" y="97.4" class="st11" width="3.3" height="28"/>
		<g id="Group_3298" transform="translate(33.734 22.289)">
			<rect id="Rectangle_1637" x="0" y="0" class="st2" width="10.8" height="6.6"/>
		</g>
		<g id="Group_3299" transform="translate(52.202 22.289)">
			<rect id="Rectangle_1638" x="0" y="0" class="st2" width="10.8" height="6.6"/>
		</g>
		<g id="Group_3300" transform="translate(70.669 22.289)">
			<rect id="Rectangle_1639" x="0" y="0" class="st2" width="10.8" height="6.6"/>
		</g>
		<g id="Group_3301" transform="translate(89.135 22.289)">
			<rect id="Rectangle_1640" x="0" y="0" class="st2" width="10.8" height="6.6"/>
		</g>
		<g id="Group_3302" transform="translate(33.734 100.572)">
			<rect id="Rectangle_1641" x="0" y="0" class="st2" width="10.8" height="6.6"/>
		</g>
		<g id="Group_3303" transform="translate(52.202 100.572)">
			<rect id="Rectangle_1642" x="0" y="0" class="st2" width="10.8" height="6.6"/>
		</g>
		<g id="Group_3304" transform="translate(70.669 100.572)">
			<rect id="Rectangle_1643" x="0" y="0" class="st2" width="10.8" height="6.6"/>
		</g>
		<g id="Group_3305" transform="translate(89.135 100.572)">
			<rect id="Rectangle_1644" x="0" y="0" class="st2" width="10.8" height="6.6"/>
		</g>
		<g id="Group_3306" transform="translate(102.664 31.642)">
			<rect id="Rectangle_1645" x="0" y="0" class="st2" width="6.6" height="10.8"/>
		</g>
		<g id="Group_3307" transform="translate(102.664 50.109)">
			<rect id="Rectangle_1646" x="0" y="0" class="st2" width="6.6" height="10.8"/>
		</g>
		<g id="Group_3308" transform="translate(102.664 68.576)">
			<rect id="Rectangle_1647" x="0" y="0" class="st2" width="6.6" height="10.8"/>
		</g>
		<g id="Group_3309" transform="translate(102.664 87.042)">
			<rect id="Rectangle_1648" x="0" y="0" class="st2" width="6.6" height="10.8"/>
		</g>
		<g id="Group_3310" transform="translate(24.381 31.642)">
			<rect id="Rectangle_1649" x="0" y="0" class="st2" width="6.6" height="10.8"/>
		</g>
		<g id="Group_3311" transform="translate(24.381 50.109)">
			<rect id="Rectangle_1650" x="0" y="0" class="st2" width="6.6" height="10.8"/>
		</g>
		<g id="Group_3312" transform="translate(24.381 68.576)">
			<rect id="Rectangle_1651" x="0" y="0" class="st2" width="6.6" height="10.8"/>
		</g>
		<g id="Group_3313" transform="translate(24.381 87.042)">
			<rect id="Rectangle_1652" x="0" y="0" class="st2" width="6.6" height="10.8"/>
		</g>
		<g id="Group_3314" transform="translate(27.694 25.6)">
			<rect id="Rectangle_1653" x="0" y="0" class="st2" width="78.3" height="78.3"/>
		</g>
		<g id="Group_3315" transform="translate(35.724 33.631)">
			<rect id="Rectangle_1654" x="0" y="0" class="st6" width="62.2" height="62.2"/>
		</g>
		<g id="Group_3346" transform="translate(42.113 39.741)">
			<g id="Group_3321">
				<g id="Group_3316">
					<rect id="Rectangle_1655" x="0" y="0" class="st2" width="7.6" height="7.6"/>
				</g>
				<g id="Group_3317" transform="translate(10.455)">
					<rect id="Rectangle_1656" x="0" y="0" class="st2" width="7.6" height="7.6"/>
				</g>
				<g id="Group_3318" transform="translate(20.91)">
					<rect id="Rectangle_1657" x="0" y="0" class="st2" width="7.6" height="7.6"/>
				</g>
				<g id="Group_3319" transform="translate(31.368)">
					<rect id="Rectangle_1658" x="0" y="0" class="st2" width="7.6" height="7.6"/>
				</g>
				<g id="Group_3320" transform="translate(41.823)">
					<rect id="Rectangle_1659" x="0" y="0" class="st2" width="7.6" height="7.6"/>
				</g>
			</g>
			<g id="Group_3327" transform="translate(0 10.596)">
				<g id="Group_3322">
					<rect id="Rectangle_1660" x="0" y="0" class="st2" width="7.6" height="7.6"/>
				</g>
				<g id="Group_3323" transform="translate(10.455)">
					<rect id="Rectangle_1661" x="0" y="0" class="st2" width="7.6" height="7.6"/>
				</g>
				<g id="Group_3324" transform="translate(20.91)">
					<rect id="Rectangle_1662" x="0" y="0" class="st2" width="7.6" height="7.6"/>
				</g>
				<g id="Group_3325" transform="translate(31.368)">
					<rect id="Rectangle_1663" x="0" y="0" class="st2" width="7.6" height="7.6"/>
				</g>
				<g id="Group_3326" transform="translate(41.823)">
					<rect id="Rectangle_1664" x="0" y="0" class="st2" width="7.6" height="7.6"/>
				</g>
			</g>
			<g id="Group_3333" transform="translate(0 21.19)">
				<g id="Group_3328">
					<rect id="Rectangle_1665" x="0" y="0" class="st2" width="7.6" height="7.6"/>
				</g>
				<g id="Group_3329" transform="translate(10.455)">
					<rect id="Rectangle_1666" x="0" y="0" class="st2" width="7.6" height="7.6"/>
				</g>
				<g id="Group_3330" transform="translate(20.91)">
					<rect id="Rectangle_1667" x="0" y="0" class="st2" width="7.6" height="7.6"/>
				</g>
				<g id="Group_3331" transform="translate(31.368)">
					<rect id="Rectangle_1668" x="0" y="0" class="st2" width="7.6" height="7.6"/>
				</g>
				<g id="Group_3332" transform="translate(41.823)">
					<rect id="Rectangle_1669" x="0" y="0" class="st2" width="7.6" height="7.6"/>
				</g>
			</g>
			<g id="Group_3339" transform="translate(0 31.786)">
				<g id="Group_3334">
					<rect id="Rectangle_1670" x="0" y="0" class="st2" width="7.6" height="7.6"/>
				</g>
				<g id="Group_3335" transform="translate(10.455)">
					<rect id="Rectangle_1671" x="0" y="0" class="st2" width="7.6" height="7.6"/>
				</g>
				<g id="Group_3336" transform="translate(20.91)">
					<rect id="Rectangle_1672" x="0" y="0" class="st2" width="7.6" height="7.6"/>
				</g>
				<g id="Group_3337" transform="translate(31.368)">
					<rect id="Rectangle_1673" x="0" y="0" class="st2" width="7.6" height="7.6"/>
				</g>
				<g id="Group_3338" transform="translate(41.823)">
					<rect id="Rectangle_1674" x="0" y="0" class="st2" width="7.6" height="7.6"/>
				</g>
			</g>
			<g id="Group_3345" transform="translate(0 42.381)">
				<g id="Group_3340">
					<rect id="Rectangle_1675" x="0" y="0" class="st2" width="7.6" height="7.6"/>
				</g>
				<g id="Group_3341" transform="translate(10.455)">
					<rect id="Rectangle_1676" x="0" y="0" class="st2" width="7.6" height="7.6"/>
				</g>
				<g id="Group_3342" transform="translate(20.91)">
					<rect id="Rectangle_1677" x="0" y="0" class="st2" width="7.6" height="7.6"/>
				</g>
				<g id="Group_3343" transform="translate(31.368)">
					<rect id="Rectangle_1678" x="0" y="0" class="st2" width="7.6" height="7.6"/>
				</g>
				<g id="Group_3344" transform="translate(41.823)">
					<rect id="Rectangle_1679" x="0" y="0" class="st2" width="7.6" height="7.6"/>
				</g>
			</g>
		</g>
	</g>
	<g id="Group_3357" transform="translate(154.353 270.2)">
		
			<rect id="Rectangle_1680" x="43.3" y="85.6" transform="matrix(0.6998 -0.7144 0.7144 0.6998 -49.7518 64.377)" class="st8" width="16.8" height="11.6"/>
		<path id="Path_28837" class="st8" d="M36.8,94.8L2.4,129.9c-3.2,3.3-3,8.5,0.3,11.7c3.2,3.1,8.4,3,11.5-0.1l34.4-35.1
			c3.2-3.2,3.2-8.5,0-11.7c-3.2-3.2-8.5-3.2-11.7,0C36.9,94.7,36.8,94.7,36.8,94.8L36.8,94.8z"/>
		<g id="Group_3356" transform="translate(41.075)">
			<g id="Group_3349" transform="translate(0 0.024)">
				<g id="Group_3348">
					<path id="Path_28838" class="st12" d="M0,50.9c0,5.3,0.8,10.5,2.5,15.5l15-4.4c-1.2-3.6-1.8-7.4-1.6-11.2
						C16.7,32.2,30.4,16.3,49.2,15V0C21.8,0.9,0,23.4,0,50.9z"/>
				</g>
			</g>
			<g id="Group_3351" transform="translate(51.877)">
				<g id="Group_3350">
					<path id="Path_28839" class="st2" d="M0,14.9c9.1,0.2,17.8,3.8,24.5,10l10.4-10.1C25.6,5.6,13.1,0.2,0,0V14.9z"/>
				</g>
			</g>
			<g id="Group_3353" transform="translate(51.877 16.745)">
				<g id="Group_3352">
					<path id="Path_28840" class="st5" d="M26.4,10.1c6,6.4,9.8,14.9,9.4,24C34.9,53.5,20.1,69.9,0,70v15
						c28.1-0.5,50.4-23.8,49.9-51.8C49.6,20.9,45,9.1,36.7,0L26.4,10.1z"/>
				</g>
			</g>
			<g id="Group_3355" transform="translate(3.343 64.584)">
				<g id="Group_3354">
					<path id="Path_28841" class="st13" d="M15.1,0L0,4.4c7.3,19.1,25.4,32,45.9,32.7V22C32.4,20.7,20.7,12.3,15.1,0z"/>
				</g>
			</g>
		</g>
	</g>
	<g id="Group_3368" transform="translate(216.01 290.22)">
		<g id="Group_3367">
			<g id="Group_3360">
				<g id="Group_3359">
					<g id="Group_3358">
						<path id="Path_28842" class="st8" d="M32.3,0v32.3H0c1.1,16.7,15.6,29.4,32.3,28.3C49.1,59.5,61.7,45,60.6,28.3
							C59.6,13.1,47.5,1,32.3,0z"/>
					</g>
				</g>
			</g>
			<g id="Group_3363" transform="translate(5.616 1.994)">
				<g id="Group_3362">
					<g id="Group_3361">
						<path id="Path_28843" class="st11" d="M0,14.3l22.6,10.8V0C13.2,0.7,4.7,6.1,0,14.3z"/>
					</g>
				</g>
			</g>
			<g id="Group_3366" transform="translate(1.995 19.976)">
				<g id="Group_3365">
					<g id="Group_3364">
						<path id="Path_28844" class="st6" d="M0,8.3h19.3L1.9,0C0.8,2.7,0.2,5.4,0,8.3z"/>
					</g>
				</g>
			</g>
		</g>
	</g>
	<g id="Group_3369" transform="translate(319.688 267.096)">
		<path id="Path_28845" class="st2" d="M4.2,24.3c4.3,4.4,11,5.5,16.5,2.6l-6.4-12.7L4.2,24.3z"/>
		<path id="Path_28846" class="st9" d="M7.8,1.6l6.4,12.7l6.4,12.7c7-3.5,9.9-12,6.5-19s-12-9.9-19-6.5C8,1.4,7.9,1.5,7.8,1.6
			L7.8,1.6z"/>
		<path id="Path_28847" class="st5" d="M0.2,16.4l14-2.2L7.8,1.6C2.2,4.3-0.8,10.3,0.2,16.4z"/>
		<path id="Path_28848" class="st11" d="M4.2,24.3l10.1-10.1l-14,2.2C0.6,19.4,2,22.2,4.2,24.3z"/>
	</g>
	<g id="Group_3371" transform="translate(31.262 257.044)">
		<path id="Path_28853" class="st2" d="M19.8,23.4l15.3,12.5c5.5-6.6,6.1-16,1.3-23.2L19.8,23.4z"/>
		<path id="Path_28854" class="st11" d="M4.5,10.9c-6.9,8.5-5.6,20.9,2.8,27.8c8.5,6.9,20.9,5.6,27.8-2.8l0,0L19.8,23.4L4.5,10.9z"
			/>
		<path id="Path_28855" class="st5" d="M4.5,10.9l15.3,12.5L27,4.9C19,1.7,9.8,4.1,4.5,10.9z"/>
		<path id="Path_28856" class="st14" d="M31.1,0l-7.2,18.4L40.5,7.7C38.3,4.2,35,1.5,31.1,0z"/>
		<path id="Path_28857" class="st4" d="M35.1,33c-0.5,0.1-0.6,2.9-0.4,3.4c0.8,0.9,1,0.8,1.9,0.6C36.2,36,35.9,35,35.8,34
			C35.7,33.5,35.8,32.8,35.1,33z"/>
	</g>
	<path id="Path_28858" class="st4" d="M198.9,371.6c-0.3,0.4,0.3,1.1,0.3,1.1c-0.5,0.4,0.8,1.5,0.7,1.6c-0.6,0.3-0.4,1.3,2,2.2
		c1,0.6,2.3,0.8,3.5,0.5c1.2-0.3,2-4.3,1.5-4.7C203.8,370.2,199.1,371.3,198.9,371.6z"/>
	<g id="Group_3379" transform="translate(607.883 318.768)">
		<g id="Group_3377">
			<g id="Group_3376" transform="translate(43.818 31.531)">
				<path id="Path_28864" class="st4" d="M44,3.1c-2.2,5.2-4.8,23.1-7.7,31.4c-3.5,10.2,4.9,9,6.9,6.3c5.5-7.2,17-29.7,13.5-32.9
					C55.3,6.5,44.4,2.1,44,3.1z"/>
				<g id="Group_3375">
					<path id="Path_28865" class="st4" d="M6.3,56.6c-0.5-0.1-1.1-0.4-1.2,0.3c-0.1,0.5,1.9,1.3,2.4,1.2c1.1-0.5,0.8-1.2,1.9-1.5
						C8.4,56.7,7.3,56.7,6.3,56.6z"/>
					<path id="Path_28866" class="st4" d="M10.2,56.3c-1.1,0.4-2.2,0.8-3.3,1.3c-1.3,0.6-4,2.3-4.2,2.4c-0.8,0.4-1.6,1-2.3,1.5
						C0.1,62,0,62.6,0,63.1c0.1,0.3,0.4,0.5,0.7,0.6c0,0.7,1.7,0.3,1.7,0.4c-0.1,0.7,0.8,1.1,2.9-0.3c0.1-0.1,6-2.4,7.8-3.3
						C12.3,59,11.3,57.6,10.2,56.3z"/>
					<path id="Path_28867" class="st4" d="M38.8,35c-0.4,0.1-0.7,0.2-1.1,0.4c-5.1,3.2-22,18.5-27.9,21c1,1.4,1.9,2.9,2.5,4.4
						c9.6-4.3,32.2-17.9,31.7-22C43.5,35,40.7,34.5,38.8,35z"/>
					<path id="Path_28868" class="st5" d="M42.3,0.2c-0.9,5.7-1.8,10.9-3.1,17.1c-1,5.7-2.4,11.3-4.1,16.8c-0.2,0.7-0.4,1.3-0.6,2
						c-2.1,1.6-4.8,3.8-7.7,6.2c-6.3,5.1-14.1,11.5-17.5,13l3.6,6.8c8.4-3.8,27.3-14.8,31.4-20.5c4.4-5.9,16.2-27.4,13.1-33
						C52.2-0.9,42.3-0.2,42.3,0.2z"/>
				</g>
			</g>
			<path id="Path_28869" class="st8" d="M92.4,94.2c-8.2,0.4-51.2,15.8-68.7,26.3c-7.4,4.5-4.3,12.4,3.8,11.9
				c23.7-1.4,55-0.6,68.9-10.5C118.5,106.1,96.7,94,92.4,94.2z"/>
			<path id="Path_28870" class="st4" d="M47.2,177.1c-0.1,2.4-0.2,3.8-0.2,3.8c1.3,1.1,2.9,1.7,4.6,1.5c0.4-1.6,0.6-3.3,0.3-5
				C51.7,177.4,49.3,175.1,47.2,177.1z"/>
			<path id="Path_28871" class="st8" d="M20.5,132.8c14.2,25.6,26.4,47,26.4,47c1.1-1.9,3.3-2.7,5.4-2.1c0,0-8.3-24.1-16.6-48.5
				C30.3,113.1,14.7,122.3,20.5,132.8z"/>
			<path id="Path_28872" class="st7" d="M47.1,179.5c-0.3,0.4-0.7,0.8-1.1,1.1c-1.5,1.4-8.2,4.4-8.5,6.7c-0.1,1.1,2.1,2.4,4.1,2.7
				c1.6,0.4,3.2,0.3,4.7-0.2c1.4-0.6,4.2-3.6,4.6-4.2c0.8-1.1,0.8-4.3,0.8-4.3C50.7,178.7,47.1,179.5,47.1,179.5z"/>
			
				<linearGradient id="Path_28873_1_" gradientUnits="userSpaceOnUse" x1="-378.4234" y1="77.1208" x2="-377.4234" y2="77.1208" gradientTransform="matrix(12.0605 0 0 -8.2527 4602.5254 822.5473)">
				<stop  offset="0" style="stop-color:#A1D8F6"/>
				<stop  offset="1" style="stop-color:#9E90F2"/>
			</linearGradient>
			<path id="Path_28873" class="st15" d="M47,182.3c-1.9,1.4-8.2,3.6-8.4,5.4c-0.1,0.9,1.8,2,3.4,2.2c1.3,0.3,2.7,0.3,4-0.1
				c1.5-1,2.8-2.2,3.9-3.6C52.1,183.3,48.8,181,47,182.3z"/>
			<path id="Path_28874" class="st4" d="M83.6,178.2c0.5,2.8,1.4,5.7,1.4,5.7c2.2-0.5,4.2-1.5,5.9-3c0,0-1.3-2-2.2-3.8
				C86.5,175.1,83.9,178.2,83.6,178.2z"/>
			<path id="Path_28875" class="st8" d="M58.6,136.6c14.2,25.6,25.2,43.2,25.2,43.2c1.1-1.9,3.3-2.7,5.4-2.1c0,0-7-20.3-15.3-44.7
				C68.4,116.9,52.8,126.1,58.6,136.6z"/>
			<path id="Path_28876" class="st7" d="M90.6,180.6c-0.8-0.7-0.7-0.9-1.1-1.1c-1.1-0.7-4.2-1-4.8,1.8c-0.2,1.5,0.1,3,0.8,4.3
				c0.5,0.7,3.3,3.6,4.6,4.2c1.5,0.5,3.2,0.5,4.7,0.2c1.9-0.3,4.2-1.5,4.1-2.7C98.8,185.1,92.1,182.1,90.6,180.6z"/>
			
				<linearGradient id="Path_28877_1_" gradientUnits="userSpaceOnUse" x1="-378.4287" y1="77.1214" x2="-377.4287" y2="77.1214" gradientTransform="matrix(12.058 0 0 -8.2526 4649.1157 822.5406)">
				<stop  offset="0" style="stop-color:#A1D8F6"/>
				<stop  offset="1" style="stop-color:#9E90F2"/>
			</linearGradient>
			<path id="Path_28877" class="st16" d="M89.7,182.3c-1.9-1.3-5.1,1-2.9,4c1.1,1.4,2.4,2.6,3.9,3.6c1.3,0.4,2.7,0.4,4,0.1
				c1.6-0.2,3.5-1.3,3.4-2.2C97.9,185.9,91.6,183.7,89.7,182.3z"/>
			<path id="Path_28878" class="st2" d="M105.6,93.5c-9.5,1.2-18.9,2.5-28.5,2.7c-5.7,0.2-11.3-0.5-16.8-2c0,8.9-1.8,10.2-5.7,12.6
				c2.8,9.7,8.4,12.4,13.3,14c12.8,4.2,44.8-5.4,45.8-5.5c-0.1-7.7-0.7-15.3-1.6-22.9C109.9,92.9,107.7,93.2,105.6,93.5z"/>
			<path id="Path_28879" class="st4" d="M85.9,15.7c-0.7,0.5-7.5,4.3-9.5,4c0,0.5,1.4,6.3,0.1,9.4c0.6,2.9,8.5,2.9,10.7-2
				C86.3,25.8,85.6,18.4,85.9,15.7z"/>
			<path id="Path_28880" class="st4" d="M78.7,6.2c-3.6-0.2-7.1,0.6-7.9,4c-0.3,1.2,0.3,12.3,6.2,13.9c2.5,0.7,7.3-3.6,7.5-6.5
				c0,0,0.3-4,0.3-4C84.9,9.8,82.6,6.5,78.7,6.2z"/>
			<path id="Path_28881" class="st5" d="M95.4,29.3c-2-0.5-8.1-2.1-8.1-2.1s-1.2,1.7-4.9,2.4c-1.9,0.4-4,0.3-5.8-0.4
				c0,0-7,2.1-8.3,2.9c-4.9,2.9-5,5-5.3,11.7c-0.2,3.2-0.2,51.6-7.9,62.8c0.3,0.4,3,7.1,9.3,8.7l1.6-13.7l1.4,14.3
				c14.8,3.2,26.2-2.7,38.1-4.5l1.1-18l3.4,17.4c1.2-0.1,2.2-0.3,3.1-0.3c-0.2-27.5-7.8-68.8-8.1-70
				C103.7,35.1,101.5,30.7,95.4,29.3z"/>
			<path id="Path_28882" class="st8" d="M86.3,1.8c-5.7-4.4-15.2-0.1-17.7,5.7c-1.9,4.3-3.6,1.3-3.4,0.2c-0.6,2.9,0.7,5.4,6.2,4.9
				c1.2-0.1-2.6,1.1-2.6,1.1S74.7,26,83.9,23c1.9-0.8,3.7-2,5.1-3.6c0,0-3,0.5-1.4-1.9C90.6,12.8,91.3,5.7,86.3,1.8z"/>
			<path id="Path_28883" class="st4" d="M8.1,14.5c-0.5,0-1,2-0.9,2.5c0.6,1,1.2,0.6,1.7,1.7c-0.3-1-0.4-2-0.3-3
				C8.6,15,8.8,14.4,8.1,14.5z"/>
			<path id="Path_28884" class="st4" d="M4.6,12.4c-0.5-0.8-1.1-1.5-1.8-2.1c-0.5-0.2-1.1-0.3-1.6-0.2c-0.3,0.1-0.5,0.5-0.5,0.8
				c-0.7,0.1-0.1,1.8-0.2,1.7c-0.7,0-1,0.9,0.6,2.9c0.1,0.1,3.1,5.6,4.2,7.3c1.4-1,2.7-2.1,3.8-3.4c-0.5-1.1-1.1-2.1-1.7-3.1
				C6.8,15.1,4.8,12.6,4.6,12.4z"/>
			<path id="Path_28885" class="st4" d="M32.4,41.8C27.5,38.2,13,23.2,8.5,18.6c-0.9,1.5-2,2.8-3.2,4c7.6,7.3,22.5,28.4,26.2,26.3
				c3.4-1.9,2.8-4.7,1.7-6.3C33,42.3,32.7,42,32.4,41.8z"/>
			<path id="Path_28886" class="st4" d="M64.8,35.7c-5.6-0.2-23.2,4-32,4.4c-10.8,0.5-6.6,7.8-3.3,8.8c8.7,2.4,33.9,4.9,35.6,0.5
				C65.8,47.4,65.8,35.8,64.8,35.7z"/>
			<path id="Path_28887" class="st5" d="M66.8,33c-5.6,1.3-10.8,2.4-17,3.4c-5.6,1.1-11.4,1.9-17.1,2.4c-0.7,0-1.4,0.1-2.1,0.2
				c-2.2-1.4-17.8-17.8-20.4-20.4l-5.7,4.9c5.6,7.1,17.9,24.9,24.7,26.6c7.1,1.9,33.2,5.8,37.3,0.8C73.3,42.7,67.2,32.9,66.8,33z"/>
		</g>
		<g id="Group_3378" transform="translate(44.537 55.801)">
			<path id="Path_28888" class="st2" d="M72.4,80.1L91,134.3H93L74.4,80.1H72.4z"/>
			<path id="Path_28889" class="st2" d="M40.9,80.1l18.6,54.2h2.1L43,80.1H40.9z"/>
			
				<linearGradient id="Path_28890_1_" gradientUnits="userSpaceOnUse" x1="-400.226" y1="-7.5925" x2="-399.226" y2="-7.5925" gradientTransform="matrix(95.1231 0 0 -80.132 38071.7266 -568.3339)">
				<stop  offset="0" style="stop-color:#A1D8F6"/>
				<stop  offset="1" style="stop-color:#9E90F2"/>
			</linearGradient>
			<path id="Path_28890" class="st17" d="M76.5,0c-13,0-25.6,10.6-28.1,23.6l-8.2,33.9c-1.4,7.7-9.8,13.2-17.6,13.2h-17
				c-2.6,0-4.6,2.1-4.6,4.6s2.1,4.6,4.6,4.6l70.1,0.1c3.3,0,6.1-2.3,6.7-5.5l13.3-51C98.1,10.6,89.5,0,76.5,0z"/>
			<path id="Path_28891" class="st1" d="M76.5,0c-13,0-25.6,10.6-28.1,23.6l-8.2,34c-1.4,7.7-9.8,13.3-17.6,13.3h-17
				c-2.5,0-4.6,2-4.7,4.5c0,2.5,2,4.6,4.5,4.7c0,0,0.1,0,0.1,0l2.2,0c0.7-1.7,2.4-2.8,4.3-2.9h17c7.8,0,16.2-5.5,17.6-13.2l8.2-33.9
				C57.3,17,69.9,6.5,82.9,6.5c3.7,0,7.3,0.9,10.5,2.7C90.2,3.6,84.1,0,76.5,0z"/>
			<path id="Path_28892" class="st1" d="M0,134.3h2.1l18.6-54.2h-2.1L0,134.3z"/>
			<path id="Path_28893" class="st1" d="M31.5,134.3h2.1l18.6-54.2h-2.1L31.5,134.3z"/>
		</g>
	</g>
	<g id="Group_3383" transform="matrix(-0.966, 0.259, -0.259, -0.966, 346.256, 333.472)">
		<path id="Path_28845-2" class="st2" d="M3,17.2c3.1,3.1,7.8,3.9,11.7,1.8l-4.6-9L3,17.2z"/>
		<path id="Path_28846-2" class="st9" d="M5.5,1.1l4.6,9l4.6,9c5-2.5,6.9-8.6,4.4-13.6C16.5,0.6,10.5-1.4,5.5,1.1L5.5,1.1z"/>
		<path id="Path_28847-2" class="st5" d="M0.1,11.7l10-1.6l-4.6-9C1.6,3.1-0.6,7.3,0.1,11.7z"/>
		<path id="Path_28848-2" class="st11" d="M3,17.2l7.1-7.1l-10,1.6C0.4,13.8,1.4,15.7,3,17.2z"/>
	</g>
</g>
</svg>
