<?xml version="1.0" encoding="utf-8"?>
<!-- Generator: Adobe Illustrator 24.2.0, SVG Export Plug-In . SVG Version: 6.00 Build 0)  -->
<svg version="1.1" id="Layer_1" xmlns="http://www.w3.org/2000/svg" xmlns:xlink="http://www.w3.org/1999/xlink" x="0px" y="0px"
	 viewBox="0 0 300 300" style="enable-background:new 0 0 300 300;" xml:space="preserve">
<style type="text/css">
	.st0{opacity:0.1;fill:#F4763E;enable-background:new    ;}
	.st1{fill:#F4763E;}
	.st2{fill:#FFB61E;}
	.st3{fill:#FFFFFF;}
	.st4{opacity:0.5;fill:#173D7A;enable-background:new    ;}
	.st5{fill:#396CAA;}
	.st6{fill:#173D7A;}
	.st7{fill:#5793CE;}
	.st8{fill:#D4ECFF;}
	.st9{fill:#FF2C9C;}
	.st10{fill:#092E63;}
	.st11{clip-path:url(#SVGID_2_);}
</style>
<g id="Group_1" transform="translate(-204.342 -72.814)">
	<g id="Group_248" transform="translate(204.342 277.594)">
		<g id="Group_246">
			<path id="Path_28912" class="st0" d="M44.32,55.55c-6.77,3.56-17.74,3.56-24.5,0s-6.77-9.34,0-12.9s17.74-3.56,24.5,0
				S51.08,51.99,44.32,55.55z"/>
			<path id="Path_28913" class="st1" d="M51.77,41.3v-5.05h-1.05c-1.2-1.73-2.83-3.12-4.73-4.04c-7.7-4.05-20.18-4.05-27.88,0
				c-1.9,0.91-3.53,2.3-4.73,4.04h-1.04v5.02l0,0c-0.01,2.67,1.91,5.33,5.77,7.37c7.7,4.05,20.18,4.05,27.88,0
				C49.85,46.61,51.77,43.95,51.77,41.3z"/>
			<ellipse id="Ellipse_194" class="st2" cx="32.06" cy="36.25" rx="19.71" ry="10.38"/>
			<path id="Path_28914" class="st3" d="M46,43.59c-7.7,4.05-20.18,4.05-27.88,0c-3.69-1.94-5.59-4.46-5.74-7.01
				c-0.17,2.77,1.74,5.56,5.74,7.67c7.7,4.05,20.18,4.05,27.88,0c4.01-2.11,5.91-4.9,5.74-7.67C51.59,39.12,49.69,41.65,46,43.59z"
				/>
		</g>
		<g id="Group_247" transform="translate(9.691 5.46)">
			<path id="Path_28915" class="st3" d="M12.87,34.23c-0.28-0.11-0.48-0.36-0.52-0.66l0.02-6.76c0-0.52,0.8-0.93,1.78-0.93
				s1.77,0.42,1.77,0.94l-0.02,5.61l17.84-1.99c0.96-0.11,1.9,0.22,2.1,0.72s-0.41,1-1.37,1.11l-19.99,2.23
				c-0.5,0.06-1.01,0-1.49-0.19C12.96,34.27,12.91,34.25,12.87,34.23z"/>
		</g>
	</g>
	<g id="Group_253" transform="translate(239.11 160.601)">
		<g id="Group_249">
			<path id="Path_28916" class="st4" d="M241.26,96.31l-66.44-38.47c-3.61-2.09-9.92-1.84-14.09,0.56L21.3,138.64
				c-4.17,2.4-4.63,6.04-1.02,8.13l66.44,38.47c3.61,2.09,9.92,1.84,14.09-0.56l139.43-80.24
				C244.41,102.04,244.87,98.4,241.26,96.31z"/>
			<path id="Path_28917" class="st5" d="M84.78,171l-69.14-40.04c-2.27-1.32-3.33-3.09-3.26-4.93l-0.02,0.01L12.39,116l3.85,4.5
				c0.25-0.17,0.5-0.33,0.77-0.49l141.44-81.4c5.61-3.23,14.1-3.57,18.96-0.76l68.17,39.48c1.38-1.51,4.27-4.7,4.27-4.7l-0.03,9.81
				l0,0c0.1,2.21-1.47,4.57-4.64,6.39l-141.44,81.4C98.12,173.47,89.63,173.81,84.78,171z"/>
			<path id="Path_28918" class="st6" d="M47.39,146.44l3.98,2.3c0.53,0.3,0.96-0.02,0.96-0.72l0,0c-0.01-0.73-0.37-1.41-0.96-1.83
				l-3.98-2.3c-0.53-0.3-0.96,0.02-0.96,0.72l0,0C46.44,145.33,46.8,146.01,47.39,146.44z"/>
			<path id="Path_28919" class="st7" d="M158.45,38.62c5.61-3.23,14.1-3.57,18.96-0.76l68.17,39.48c1.38-1.51,4.27-4.7,4.27-4.7
				l-0.03,9.81l0,0c0.1,2.21-1.47,4.57-4.64,6.39l-141.44,81.4c-3.14,1.7-6.64,2.61-10.21,2.65l0.13-96.99L158.45,38.62z"/>
			<path id="Path_28920" class="st8" d="M246.58,67.81l-69.14-40.04c-4.86-2.81-13.34-2.47-18.96,0.76l-141.44,81.4
				c-5.62,3.23-6.23,8.13-1.38,10.94l69.14,40.04c4.86,2.81,13.34,2.47,18.96-0.76l141.44-81.4
				C250.82,75.52,251.44,70.63,246.58,67.81z"/>
			<path id="Path_28921" class="st3" d="M84.75,161.98l-69.14-40.04c-2.5-1.45-3.54-3.46-3.2-5.5c0.12,1.66,1.19,3.23,3.25,4.43
				l69.14,40.04c4.86,2.81,13.34,2.47,18.96-0.76l141.44-81.4c2.72-1.57,4.26-3.52,4.58-5.44c0.17,2.25-1.4,4.65-4.63,6.51
				l-141.44,81.4C98.1,164.46,89.61,164.8,84.75,161.98z"/>
			<path id="Path_28922" class="st6" d="M241.26,69.39l-66.44-38.47c-3.61-2.09-9.92-1.84-14.09,0.56L21.3,111.72
				c-4.17,2.4-4.63,6.04-1.02,8.13l66.44,38.47c3.61,2.09,9.92,1.84,14.09-0.56l139.43-80.24
				C244.41,75.12,244.87,71.47,241.26,69.39z"/>
		</g>
		<g id="Group_251" transform="translate(34.739 83.688)">
			<path id="Path_28923" class="st8" d="M68.71,54.66L21.83,27.59l2.99-1.73L71.7,52.93L68.71,54.66z"/>
			<path id="Path_28924" class="st8" d="M36.09,46.77l-23.74-13.7l2.99-1.73l23.74,13.7L36.09,46.77z"/>
			<path id="Path_28925" class="st9" d="M47.61,53.42l-7.7-4.45l2.99-1.73l7.7,4.45L47.61,53.42z"/>
			<path id="Path_28926" class="st3" d="M59.23,60.13l-7.7-4.45l2.99-1.73l7.7,4.45L59.23,60.13z"/>
			<path id="Path_28927" class="st3" d="M36.35,41.45L17.09,30.33l2.99-1.73l19.27,11.12L36.35,41.45z"/>
			<path id="Path_28928" class="st8" d="M59.87,55.03L40.61,43.91l2.99-1.73L62.87,53.3L59.87,55.03z"/>
			<g id="Group_250" transform="translate(29.043 2.954)">
				<path id="Path_28929" class="st9" d="M16.56,28.3c-1.1,0.56-2.39,0.56-3.49,0c-0.56-0.19-0.86-0.79-0.67-1.35
					c0.11-0.31,0.35-0.56,0.67-0.67c1.1-0.56,2.39-0.56,3.49,0c0.56,0.19,0.86,0.79,0.67,1.35C17.13,27.95,16.88,28.19,16.56,28.3z"
					/>
				<path id="Path_28930" class="st3" d="M21.78,31.31c-1.1,0.56-2.39,0.56-3.49,0c-0.56-0.19-0.86-0.79-0.67-1.35
					c0.11-0.31,0.35-0.56,0.67-0.67c1.1-0.56,2.39-0.56,3.49,0c0.56,0.19,0.86,0.79,0.67,1.35C22.34,30.95,22.09,31.2,21.78,31.31z"
					/>
				<path id="Path_28931" class="st8" d="M27,34.32c-1.1,0.56-2.39,0.56-3.49,0c-0.56-0.19-0.86-0.79-0.67-1.35
					c0.11-0.31,0.35-0.56,0.67-0.67c1.1-0.56,2.39-0.56,3.49,0c0.56,0.19,0.86,0.79,0.67,1.35C27.56,33.97,27.31,34.22,27,34.32z"/>
				<path id="Path_28932" class="st9" d="M32.21,37.33c-1.1,0.56-2.39,0.56-3.49,0c-0.56-0.19-0.86-0.79-0.67-1.35
					c0.11-0.32,0.35-0.56,0.67-0.67c1.1-0.56,2.39-0.56,3.49,0c0.56,0.19,0.86,0.79,0.67,1.35C32.77,36.98,32.53,37.23,32.21,37.33z
					"/>
				<path id="Path_28933" class="st3" d="M37.43,40.35c-1.1,0.56-2.39,0.56-3.49,0c-0.56-0.19-0.86-0.79-0.67-1.35
					c0.11-0.31,0.35-0.56,0.67-0.67c1.1-0.56,2.39-0.56,3.49,0c0.56,0.19,0.86,0.79,0.67,1.35C37.99,39.99,37.74,40.24,37.43,40.35z
					"/>
			</g>
		</g>
		<g id="Group_252" transform="translate(150.562 16.944)">
			<path id="Path_28934" class="st9" d="M55.5,52.74l-7.89-4.56l3.07-1.77l7.89,4.56L55.5,52.74z"/>
			<path id="Path_28935" class="st3" d="M66.49,59.09l-7.89-4.56l3.07-1.77l7.89,4.56L66.49,59.09z"/>
			<path id="Path_28936" class="st3" d="M20.24,32.19l-7.89-4.56l3.07-1.77l7.89,4.56L20.24,32.19z"/>
			<path id="Path_28937" class="st3" d="M53.74,57.33l-10.99-6.35l3.07-1.77l10.99,6.35L53.74,57.33z"/>
			<path id="Path_28938" class="st8" d="M61.63,61.89l-4.82-2.79l3.07-1.77l4.82,2.79L61.63,61.89z"/>
		</g>
	</g>
	<g id="Group_255" transform="translate(453.633 253.129)">
		<g id="Group_254">
			<path id="Path_28939" class="st0" d="M25.71,66.51L12.35,58.8l13.36-7.71l13.36,7.71L25.71,66.51z"/>
			<path id="Path_28940" class="st1" d="M39.07,49.01l-13.36,7.71V41.29l13.36-7.71L39.07,49.01z"/>
			<path id="Path_28941" class="st2" d="M25.71,41.29l-13.36-7.71l13.36-7.71l13.36,7.71L25.71,41.29z"/>
			<path id="Path_28942" class="st2" d="M25.71,56.72l-13.36-7.71V33.58l13.36,7.71V56.72z"/>
		</g>
		<path id="Path_28943" class="st3" d="M20.9,48.38l-3.74-2.16v-4.32l3.74,2.16V48.38z"/>
	</g>
	<g id="Group_257" transform="translate(222.178 190.135)">
		<g id="Group_256" transform="translate(0 0)">
			<path id="Path_28944" class="st4" d="M26.26,68.18l-13.91-8.03l13.91-8.03l13.91,8.03L26.26,68.18z"/>
			<path id="Path_28945" class="st6" d="M40.17,49.96l-13.91,8.03V41.93l13.91-8.03V49.96z"/>
			<path id="Path_28946" class="st8" d="M26.26,41.93L12.35,33.9l13.91-8.03l13.91,8.03L26.26,41.93z"/>
			<path id="Path_28947" class="st7" d="M26.26,57.99l-13.91-8.03V33.9l13.91,8.03V57.99z"/>
		</g>
		<path id="Path_28948" class="st3" d="M21.25,49.31l-3.89-2.25v-4.49l3.89,2.25V49.31z"/>
	</g>
	<g id="Group_260" transform="translate(296.749 72.814)">
		<g id="Group_258">
			<path id="Path_28949" class="st1" d="M46.47,42.84L17.54,26.14c-0.44-0.31-1.02-0.36-1.5-0.12V26l-2.81,1.62l1.97,0.72v21.07
				c0.03,1.77,0.89,3.42,2.33,4.45l27.66,15.97v2.47l2.83-1.63l-0.02,0c0.57-0.44,0.87-1.14,0.79-1.86V47.29
				C48.76,45.52,47.9,43.87,46.47,42.84z"/>
			<path id="Path_28950" class="st2" d="M43.61,72.21L14.68,55.51c-1.44-1.03-2.3-2.68-2.33-4.45V29.55c0-1.71,1.04-2.5,2.33-1.76
				l28.93,16.7c1.44,1.03,2.3,2.68,2.33,4.45v21.52C45.94,72.17,44.9,72.96,43.61,72.21z"/>
			<path id="Path_28951" class="st3" d="M44.32,43.98L15.39,27.27c-0.59-0.46-1.44-0.36-1.9,0.22c-0.02,0.02-0.03,0.04-0.04,0.06
				c0.43-0.09,0.87-0.01,1.23,0.23l28.93,16.7c1.44,1.03,2.3,2.68,2.33,4.45v21.52c0.02,0.52-0.11,1.04-0.38,1.48
				c0.65-0.17,1.09-0.88,1.09-1.99V48.43C46.62,46.66,45.76,45.01,44.32,43.98z"/>
		</g>
		<g id="Group_259" transform="translate(8.153 18.579)">
			<path id="Path_28952" class="st3" d="M16.25,29.52c0,1.24-0.87,1.75-1.95,1.13c-1.15-0.75-1.88-2.01-1.95-3.38
				c0-1.25,0.88-1.75,1.95-1.13C15.45,26.89,16.18,28.14,16.25,29.52z"/>
			
				<ellipse id="Ellipse_195" transform="matrix(0.866 -0.5 0.5 0.866 -13.193 14.3694)" class="st3" cx="20.22" cy="31.8" rx="1.59" ry="2.76"/>
			
				<ellipse id="Ellipse_196" transform="matrix(0.866 -0.5 0.5 0.866 -14.1077 17.7839)" class="st3" cx="26.13" cy="35.22" rx="1.59" ry="2.76"/>
		</g>
	</g>
	<path id="Path_28953" class="st10" d="M364.5,270.89l47.48-27.41c5.14-2.97,4.5-8.15-1.44-11.58l0,0
		c-5.93-3.43-14.91-3.8-20.05-0.83l-47.48,27.41c-5.14,2.97-4.5,8.15,1.44,11.58l0,0C350.38,273.49,359.36,273.86,364.5,270.89z"/>
	<g id="Group_267" transform="translate(260.95 100.593)">
		<g id="Group_261" transform="translate(104.194 56.749)">
			<path id="Path_28954" class="st7" d="M25.41,68.72l0.01-5.58l6.6-33.25l-6.52-4.03l-13.06,7.21l-0.09,42.85
				c-0.01,2.88,1.08,4.83,2.73,5.47l0,0l5.81,3.65l0.73-2.76l1-5.03C24.35,74.74,25.32,71.78,25.41,68.72z"/>
			<path id="Path_28955" class="st7" d="M25.38,84.92L25.38,84.92c-3.61,1.99-6.52-0.23-6.51-4.97l0.09-42.85l13.06-7.21
				l-0.09,42.85C31.92,77.48,28.98,82.93,25.38,84.92z"/>
		</g>
		<g id="Group_262" transform="translate(71.324)">
			
				<ellipse id="Ellipse_197" transform="matrix(0.866 -0.5 0.5 0.866 -16.6185 45.4179)" class="st1" cx="76.44" cy="53.72" rx="13.93" ry="24.12"/>
			<path id="Path_28956" class="st1" d="M88.67,74.51l-49.64,28.46L12.35,62.89l51.71-29.86L88.67,74.51z"/>
		</g>
		<path id="Path_28957" class="st8" d="M140.47,78.09c0-11.19-7.85-24.79-17.54-30.38c-4.4-2.54-8.42-2.99-11.5-1.67v-0.01
			l-0.06,0.03l-0.08,0.04c-0.14,0.06-0.27,0.13-0.4,0.2C92.56,55.29,72.29,59.59,51.89,58.8l-5.78-0.23l47.05,80.64l2.55-4.93
			c9.29-17.96,22.87-33.35,39.54-44.8C138.47,87.68,140.47,83.73,140.47,78.09z"/>
		<path id="Path_28958" class="st8" d="M98.65,120.99c0-21.46-15.07-47.56-33.65-58.29c-9.27-5.35-17.66-5.87-23.75-2.38l0,0
			l-0.03,0.02l-0.05,0.03l-5.52,3.24l1.93-0.4c-3.92,4.09-6.23,10.53-6.23,18.94c0,21.46,15.07,47.56,33.65,58.29
			c7.29,4.21,14.05,5.43,19.56,4.06l-0.88,1.29l5.08-2.97l0.08-0.05l0.18-0.11h-0.01C94.97,139.07,98.65,131.59,98.65,120.99z"/>
		<path id="Path_28959" class="st3" d="M94.71,123.29c0-21.46-15.07-47.56-33.65-58.29c-9.14-5.28-17.43-5.85-23.5-2.52l-0.84,0.5
			c-0.29,0.18-0.57,0.38-0.85,0.58l1.71-0.36c-3.92,4.09-6.23,10.53-6.23,18.94c0,21.46,15.07,47.56,33.65,58.29
			c7.29,4.21,14.05,5.43,19.56,4.06l-0.8,1.17C90.49,142.44,94.71,134.65,94.71,123.29z"/>
		
			<ellipse id="Ellipse_198" transform="matrix(0.866 -0.5 0.5 0.866 -44.23 43.9752)" class="st7" cx="59.94" cy="104.52" rx="27.48" ry="47.59"/>
		
			<ellipse id="Ellipse_199" transform="matrix(0.866 -0.5 0.5 0.866 -44.23 43.9752)" class="st6" cx="59.94" cy="104.52" rx="24.11" ry="41.75"/>
		<path id="Path_28960" class="st3" d="M61.32,138.02c-16.31-9.41-29.52-32.31-29.52-51.14c0-9.89,3.65-16.68,9.47-19.55
			c-6.62,2.43-10.85,9.49-10.85,20.14c0,18.83,13.22,41.72,29.52,51.14c7.74,4.47,14.79,5.1,20.06,2.5
			C74.91,142.98,68.41,142.11,61.32,138.02z"/>
		<g id="Group_265" transform="translate(5.837 30.439)">
			<g>
				<defs>
					
						<ellipse id="SVGID_1_" transform="matrix(0.866 -0.5 0.5 0.866 -29.7921 36.9783)" cx="54.1" cy="74.08" rx="24.11" ry="41.75"/>
				</defs>
				<clipPath id="SVGID_2_">
					<use xlink:href="#SVGID_1_"  style="overflow:visible;"/>
				</clipPath>
				<g id="Group_264" transform="translate(0 0)" class="st11">
					<g id="Group_263" transform="translate(33.416 8.031)">
						<path id="Path_28961" class="st8" d="M16.27,58.99l42.84-33.12l15.56,26.99L24.38,73.49L16.27,58.99z"/>
						
							<ellipse id="Ellipse_200" transform="matrix(0.866 -0.5 0.5 0.866 -30.254 19.1943)" class="st7" cx="20.69" cy="66.05" rx="4.81" ry="8.34"/>
					</g>
				</g>
			</g>
		</g>
		<g id="Group_266" transform="translate(105.75 87.259)">
			<path id="Path_28962" class="st3" d="M14.16,38.58l-0.23-0.13c-0.96-0.68-1.54-1.78-1.56-2.96l-0.02-8.26
				c0-1.14,0.69-1.67,1.55-1.18l0.23,0.13c0.96,0.68,1.54,1.78,1.56,2.96l0.02,8.26C15.71,38.54,15.02,39.07,14.16,38.58z"/>
		</g>
	</g>
</g>
</svg>
