<svg xmlns="http://www.w3.org/2000/svg" xmlns:xlink="http://www.w3.org/1999/xlink" width="744.94" height="442.823" viewBox="0 0 744.94 442.823">
  <defs>
    <linearGradient id="linear-gradient" x1="7.819" y1="4.689" x2="8.907" y2="4.679" gradientUnits="objectBoundingBox">
      <stop offset="0" stop-color="#e3dad3"/>
      <stop offset="0.311" stop-color="#e3edf8"/>
      <stop offset="1" stop-color="#cfe1f3"/>
    </linearGradient>
    <linearGradient id="linear-gradient-2" x1="1.177" y1="-0.406" x2="0.1" y2="1.218" gradientUnits="objectBoundingBox">
      <stop offset="0" stop-color="#fcad2d"/>
      <stop offset="1" stop-color="#fcad2d"/>
    </linearGradient>
    <clipPath id="clip-path">
      <circle id="Ellipse_172" data-name="Ellipse 172" cx="30.761" cy="30.761" r="30.761" transform="matrix(0.159, -0.987, 0.987, 0.159, 0, 60.735)" fill="none"/>
    </clipPath>
    <clipPath id="clip-path-2">
      <circle id="Ellipse_131" data-name="Ellipse 131" cx="27.952" cy="27.952" r="27.952" transform="matrix(0.914, -0.406, 0.406, 0.914, 0, 22.678)" fill="none"/>
    </clipPath>
  </defs>
  <g id="reports" transform="translate(-687.847 -270.908)">
    <path id="Path_453" data-name="Path 453" d="M168.585,601.52s-190.943-136.7-96.544-234.38,320.491-34.613,379.45-70.3,190.182-166.976,298.874-93.609c99.175,66.94-26.218,174.5,8.2,240.875,37.483,72.286,39.092,102.5,20.939,157.419Z" transform="translate(642.015 112.211)" fill="#fff"/>
    <g id="Group_3226" data-name="Group 3226" transform="translate(912.795 277.015)">
      <line id="Line_1" data-name="Line 1" y2="21.464" transform="translate(10.768 49.288)" fill="none" stroke="#e9f2f4" stroke-miterlimit="10" stroke-width="0.25"/>
      <g id="Group_3220" data-name="Group 3220" transform="translate(0 37.024)">
        <path id="Path_3690" data-name="Path 3690" d="M774.975,359.771A10.768,10.768,0,1,1,764.206,349,10.768,10.768,0,0,1,774.975,359.771Z" transform="translate(-753.438 -349.003)" fill="#2f6fc5"/>
      </g>
      <line id="Line_2" data-name="Line 2" y2="20.838" transform="translate(10.768 14.057)" fill="none" stroke="#e9f2f4" stroke-miterlimit="10" stroke-width="0.25"/>
      <g id="Group_3222" data-name="Group 3222">
        <path id="Path_3691" data-name="Path 3691" d="M774.975,341.488a10.768,10.768,0,1,1-10.768-10.766A10.768,10.768,0,0,1,774.975,341.488Z" transform="translate(-753.438 -330.722)" fill="#2f6fc5"/>
        <g id="Group_3221" data-name="Group 3221" transform="translate(4.936 2.254)">
          <path id="Path_3692" data-name="Path 3692" d="M760.855,345.436l-4.98-6.412,4.513,1.887,10.378-9.077Z" transform="translate(-755.875 -331.835)" fill="#fff"/>
        </g>
      </g>
      <g id="Group_3223" data-name="Group 3223" transform="translate(0 74.769)">
        <path id="Path_3693" data-name="Path 3693" d="M774.975,378.406a10.768,10.768,0,1,1-10.768-10.766A10.768,10.768,0,0,1,774.975,378.406Z" transform="translate(-753.438 -367.64)" fill="#2f6fc5"/>
      </g>
      <g id="Group_3224" data-name="Group 3224" transform="translate(4.936 38.428)">
        <path id="Path_3694" data-name="Path 3694" d="M760.855,363.3l-4.98-6.412,4.513,1.887,10.378-9.077Z" transform="translate(-755.875 -349.696)" fill="#fff"/>
      </g>
      <g id="Group_3225" data-name="Group 3225" transform="translate(4.936 76.593)">
        <path id="Path_3695" data-name="Path 3695" d="M760.855,382.142l-4.98-6.412,4.513,1.887,10.378-9.077Z" transform="translate(-755.875 -368.541)" fill="#fff"/>
      </g>
    </g>
    <rect id="Rectangle_1227" data-name="Rectangle 1227" width="44.008" height="5.942" transform="translate(940.695 280.409)" opacity="0.2"/>
    <rect id="Rectangle_1228" data-name="Rectangle 1228" width="77.02" height="16.574" transform="translate(940.695 288.861)" opacity="0.1"/>
    <rect id="Rectangle_1229" data-name="Rectangle 1229" width="77.02" height="16.574" transform="translate(940.695 325.726)" opacity="0.1"/>
    <rect id="Rectangle_1230" data-name="Rectangle 1230" width="77.02" height="16.574" transform="translate(940.695 363.058)" opacity="0.1"/>
    <rect id="Rectangle_1231" data-name="Rectangle 1231" width="44.008" height="5.942" transform="translate(940.695 317.674)" opacity="0.2"/>
    <rect id="Rectangle_1232" data-name="Rectangle 1232" width="44.008" height="5.942" transform="translate(940.695 354.654)" opacity="0.2"/>
    <line id="Line_3" data-name="Line 3" x2="87.817" transform="translate(1142.53 276.229)" fill="none" stroke="rgba(0,0,0,0.1)" stroke-miterlimit="10" stroke-width="1"/>
    <line id="Line_4" data-name="Line 4" x2="87.817" transform="translate(1142.53 282.26)" fill="none" stroke="rgba(0,0,0,0.1)" stroke-miterlimit="10" stroke-width="1"/>
    <line id="Line_5" data-name="Line 5" x2="87.817" transform="translate(1142.53 288.291)" fill="none" stroke="rgba(0,0,0,0.1)" stroke-miterlimit="10" stroke-width="1"/>
    <line id="Line_6" data-name="Line 6" x2="87.817" transform="translate(1142.53 294.323)" fill="none" stroke="rgba(0,0,0,0.1)" stroke-miterlimit="10" stroke-width="1"/>
    <line id="Line_7" data-name="Line 7" x2="87.817" transform="translate(1142.53 300.354)" fill="none" stroke="rgba(0,0,0,0.1)" stroke-miterlimit="10" stroke-width="1"/>
    <line id="Line_8" data-name="Line 8" x2="87.817" transform="translate(1142.53 306.385)" fill="none" stroke="rgba(0,0,0,0.1)" stroke-miterlimit="10" stroke-width="1"/>
    <line id="Line_9" data-name="Line 9" x2="87.817" transform="translate(1142.53 314.307)" fill="none" stroke="rgba(0,0,0,0.1)" stroke-miterlimit="10" stroke-width="1"/>
    <line id="Line_10" data-name="Line 10" x2="87.817" transform="translate(1142.53 320.205)" fill="none" stroke="rgba(0,0,0,0.1)" stroke-miterlimit="10" stroke-width="1"/>
    <line id="Line_11" data-name="Line 11" x2="87.817" transform="translate(1142.53 326.102)" fill="none" stroke="rgba(0,0,0,0.1)" stroke-miterlimit="10" stroke-width="1"/>
    <line id="Line_12" data-name="Line 12" x2="87.817" transform="translate(1142.53 331.999)" fill="none" stroke="rgba(0,0,0,0.1)" stroke-miterlimit="10" stroke-width="1"/>
    <line id="Line_13" data-name="Line 13" x2="39.086" transform="translate(1286.832 423.584)" fill="none" stroke="#e9f2f4" stroke-miterlimit="10" stroke-width="1"/>
    <line id="Line_14" data-name="Line 14" x2="39.086" transform="translate(1286.832 432.149)" fill="none" stroke="#e9f2f4" stroke-miterlimit="10" stroke-width="1"/>
    <line id="Line_15" data-name="Line 15" x2="39.086" transform="translate(1286.832 440.714)" fill="none" stroke="#e9f2f4" stroke-miterlimit="10" stroke-width="1"/>
    <rect id="Rectangle_1257" data-name="Rectangle 1257" width="21.256" height="42.936" transform="translate(1177.864 368.893)" fill="rgba(0,0,0,0.05)"/>
    <rect id="Rectangle_1258" data-name="Rectangle 1258" width="60.698" height="78.485" transform="translate(1168.771 348.283)" fill="none" stroke="#e9f2f4" stroke-miterlimit="10" stroke-width="1"/>
    <g id="Group_3258" data-name="Group 3258" transform="translate(1207.053 368.353)">
      <path id="Path_3775" data-name="Path 3775" d="M913.829,383.371a7.549,7.549,0,1,1-7.548-7.55A7.549,7.549,0,0,1,913.829,383.371Z" transform="translate(-898.731 -375.821)" fill="#0d6faa"/>
    </g>
    <g id="Group_3259" data-name="Group 3259" transform="translate(1210.514 369.339)">
      <path id="Path_3776" data-name="Path 3776" d="M903.931,385.844l-3.492-4.5,3.164,1.323,7.276-6.364Z" transform="translate(-900.44 -376.308)" fill="#fff"/>
    </g>
    <g id="Group_3260" data-name="Group 3260" transform="translate(1207.054 390.755)">
      <circle id="Ellipse_137" data-name="Ellipse 137" cx="7.549" cy="7.549" r="7.549" fill="#0d6faa"/>
    </g>
    <g id="Group_3261" data-name="Group 3261" transform="translate(1210.514 391.74)">
      <path id="Path_3777" data-name="Path 3777" d="M903.931,396.9l-3.492-4.5,3.164,1.323,7.276-6.364Z" transform="translate(-900.44 -387.368)" fill="#fff"/>
    </g>
    <g id="Group_3388" data-name="Group 3388">
      <path id="Path_28900" data-name="Path 28900" d="M0,0H10.453V21.983H0Z" transform="translate(1272.909 305.372)" fill="#d8d8d8"/>
      <path id="Path_28899" data-name="Path 28899" d="M0,0H10.453V13.739H0Z" transform="translate(1288.221 313.616)" fill="#d8d8d8"/>
      <path id="Path_28898" data-name="Path 28898" d="M0,0H10.453V20.259H0Z" transform="translate(1303.534 307.096)" fill="#d8d8d8"/>
      <path id="Path_28897" data-name="Path 28897" d="M0,0H10.453V35.842H0Z" transform="translate(1318.846 291.513)" fill="#d8d8d8"/>
      <path id="Path_3778" data-name="Path 3778" d="M931.248,353.576l10.453-3.655,10.086,3.655,30.625-24.643" transform="translate(341.661 -55.54)" fill="none" stroke="#dbdbdb" stroke-miterlimit="10" stroke-width="1"/>
      <path id="Path_3779" data-name="Path 3779" d="M926.207,383.373h76.938V336.539" transform="translate(336.493 -47.743)" fill="none" stroke="#d9d9d9" stroke-miterlimit="10" stroke-width="1"/>
    </g>
    <g id="Group_3384" data-name="Group 3384">
      <path id="Path_28663" data-name="Path 28663" d="M575.039,491.5h3.644l29.712-144.84h-7.526Z" transform="translate(362.206 213.293)" fill="#fff"/>
      <path id="Path_28664" data-name="Path 28664" d="M724.8,491.5h-3.644l-29.712-144.84h7.526Z" transform="translate(492.802 213.293)" fill="#fff"/>
      <path id="Path_28665" data-name="Path 28665" d="M574.021,307.885a10.307,10.307,0,0,0-2.355,4.7,7.23,7.23,0,0,1,2.434-3.291c1.5-.951,3.484-.821,4.993-1.755,1.409-.872,2.13-2.5,2.773-4.027a11.4,11.4,0,0,1-3.856,2.234A7.738,7.738,0,0,0,574.021,307.885Z" transform="translate(358.422 164.882)" fill="#482c3b"/>
      <g id="Group_1779" data-name="Group 1779" transform="translate(891.755 493.403)">
        <g id="Group_1778" data-name="Group 1778" transform="translate(27.221 114.562)">
          <g id="Group_1777" data-name="Group 1777" transform="translate(0 0)">
            <rect id="Rectangle_1504" data-name="Rectangle 1504" width="5.532" height="53.608" transform="translate(31.76 80.605) rotate(180)" fill="#d9d9d9"/>
            <rect id="Rectangle_1505" data-name="Rectangle 1505" width="8.893" height="7.805" transform="translate(33.441 26.997) rotate(180)" fill="#d9d9d9"/>
            <rect id="Rectangle_1506" data-name="Rectangle 1506" width="6.716" height="16.73" transform="translate(32.352 76.703) rotate(180)" fill="#d9d9d9"/>
            <rect id="Rectangle_1507" data-name="Rectangle 1507" width="8.893" height="7.805" transform="translate(33.441 84.507) rotate(180)" fill="#d9d9d9"/>
            <rect id="Rectangle_1508" data-name="Rectangle 1508" width="21.558" height="14.775" transform="translate(39.773 19.192) rotate(180)" fill="#d9d9d9"/>
            <rect id="Rectangle_1509" data-name="Rectangle 1509" width="60.143" height="11.064" rx="0.541" transform="translate(60.143 11.064) rotate(180)" fill="#d9d9d9"/>
            <path id="Path_28666" data-name="Path 28666" d="M571.174,420.182l16.979-8.418v-5.871l-19.207,12.875Z" transform="translate(-563.606 -328.219)" fill="#d9d9d9"/>
            <circle id="Ellipse_167" data-name="Ellipse 167" cx="3.978" cy="3.978" r="3.978" transform="translate(1.362 89.635)" fill="#d9d9d9"/>
            <circle id="Ellipse_168" data-name="Ellipse 168" cx="3.978" cy="3.978" r="3.978" transform="translate(25.016 89.635)" fill="#d9d9d9"/>
            <path id="Path_28667" data-name="Path 28667" d="M599.168,420.182l-16.979-8.418v-5.871L601.4,418.769Z" transform="translate(-548.748 -328.219)" fill="#d9d9d9"/>
            <path id="Path_28668" data-name="Path 28668" d="M597.322,415.508a3.978,3.978,0,1,1-3.979-3.978A3.979,3.979,0,0,1,597.322,415.508Z" transform="translate(-540.696 -321.896)" fill="#d9d9d9"/>
            <rect id="Rectangle_1510" data-name="Rectangle 1510" width="2.155" height="12.959" transform="translate(30.072 93.564) rotate(180)" fill="#d9d9d9"/>
          </g>
        </g>
        <path id="Path_28669" data-name="Path 28669" d="M570.823,435.92a4.207,4.207,0,0,1-4.231-3.2c-1.453-5.992-4.093-17.179-4.153-45.128-.066-30.842-6.476-54.3-8.683-64.181a6.4,6.4,0,0,1,3.058-6.955h0a8.683,8.683,0,0,1,4.329-1.156h53.595s22.032,39.41,24.919,52.914,6.926,65.342,6.926,65.342Z" transform="translate(-553.601 -315.297)" fill="#d9d9d9"/>
        <path id="Path_28670" data-name="Path 28670" d="M569.6,436.022s-5.005-9.814-5.088-48.432c-.068-31.8-6.387-58-8.21-68.108a3.554,3.554,0,0,1,3.508-4.184h57s22.032,39.41,24.92,52.914,6.928,65.342,6.928,65.342Z" transform="translate(-550.633 -315.297)" fill="#d9d9d9"/>
        <path id="Rectangle_1511" data-name="Rectangle 1511" d="M0,0H55.723a1.309,1.309,0,0,1,1.309,1.309V11.747a0,0,0,0,1,0,0H0a0,0,0,0,1,0,0V0A0,0,0,0,1,0,0Z" transform="translate(70.959 120.726) rotate(180)" fill="#d9d9d9"/>
        <path id="Rectangle_1512" data-name="Rectangle 1512" d="M1.639,0H83.656a0,0,0,0,1,0,0V10.109a1.639,1.639,0,0,1-1.639,1.639H1.639A1.639,1.639,0,0,1,0,10.109V1.639A1.639,1.639,0,0,1,1.639,0Z" transform="translate(110.877 120.726) rotate(180)" fill="#d9d9d9"/>
      </g>
      <path id="Path_28671" data-name="Path 28671" d="M573.282,318.557s8.288-2.625,9.124-6.232c.677-2.932,1.759-12.033,1.759-12.033h14.459s-.552,8.131,0,10.766c1.375,6.548,9.591,8.7,9.591,8.7l1.171,20.457-21.312,17.866-20.561-20.659Z" transform="translate(353.763 161.272)" fill="#fec4ad"/>
      <path id="Path_28672" data-name="Path 28672" d="M601.821,294.377c3.643,4.861,2.9,5.549,2.4,12.25a54.05,54.05,0,0,1-2.875,13.794c-.982,2.523-6.124,13.381-15.288,9.419-5.071-2.194-10.83-7.6-12.489-11.314-1.216-2.722-1.861-7.637-1.954-12.171-.093-4.456-.115-10.236.045-13.559C572.223,281.058,595.152,285.478,601.821,294.377Z" transform="translate(358.285 144.888)" fill="#fec4ad"/>
      <g id="Group_1780" data-name="Group 1780" transform="translate(914.605 479.829)">
        <path id="Path_28673" data-name="Path 28673" d="M615.811,355.048c7.9-1.71,12.292.83,17.02,6.5s2.837,19.388,0,30.736-13.714,86.955-13.714,86.955H611.08s-2.065-29.789-3.482-51.541,3.437-52.909,3.437-52.909l-30.691-19.744S608.722,356.584,615.811,355.048Z" transform="translate(-546.448 -257.717)" fill="#133a50"/>
        <path id="Path_28674" data-name="Path 28674" d="M619.35,356.26c6.028,5.627,23.772,15.116,20.228,26.846l-23.765,10.07s-24.147-8.753-31.552-25.961l-7.408-17.206,15.914-6.332Z" transform="translate(-550.364 -269.884)" fill="#133a50"/>
        <path id="Path_28675" data-name="Path 28675" d="M610.487,359.492c4.371,3.155,16.184,8.354,13.82,21.794-1.205,6.854-20.527,48.252-31.082,65.649-5.377,8.867-14.959,27.428-14.959,27.428l-8.984,2.147s6.922-22.526,11.649-43.331,18.494-45.644,18.494-45.644-10.166-6.862-17.733-10.172-11.636-4.66-.289-15.534S601.976,353.345,610.487,359.492Z" transform="translate(-558.858 -257.993)" fill="#133a50"/>
        <path id="Path_28676" data-name="Path 28676" d="M605.873,326.564c1.239,5.211,2.78,10.3,4.668,13.591s40.863,17.66,40.863,17.66H628.639s-21.673-2.845-27.854-11.151-11.919-20.1-11.919-20.1Z" transform="translate(-536.887 -289.083)" fill="#fec4ad"/>
        <path id="Path_28677" data-name="Path 28677" d="M592.885,310.809c4.032,1.793,7.755,11.978,10.733,20.657s3.227,12.774,3.227,12.774-10.416,5.956-15.942,4.467c0,0-5.247-18.851-1.634-28.374Z" transform="translate(-537.859 -306.758)" fill="#133a50"/>
        <path id="Path_28678" data-name="Path 28678" d="M599.3,395.957c11.354-.454,22.706-.73,34.056-.681-5.515-3.575-10.387-6.069-11.448-7.13-2.364-2.366-1.562-23.428.176-29.972s1.632-14.123.376-17.5-3.064-27.727-3.064-27.727l-7.654-2.845s2.347,17.665-16.218,17.665c-18.637,0-18.715-18.87-18.715-18.87l-11.88,2.631s-.876,23-.435,33.439,5.4,28.516,6.818,37.973c1.1,7.361-.94,11.861-2.347,17.283C578.415,396.511,588.8,395.594,599.3,395.957Z" transform="translate(-564.369 -308.9)" fill="#133a50"/>
        <path id="Path_28679" data-name="Path 28679" d="M579.384,410.22c-2.553-.511-3.456.509-5.753,2.041a9.688,9.688,0,0,1-4.849,1.532v6.89h17.745Z" transform="translate(-559.418 -195.379)" fill="#ff5e69"/>
        <path id="Path_28680" data-name="Path 28680" d="M605.355,410.751s-.259,2.389-4.087,3.467-6.431-2.084-6.431-2.084l-.847,7.8,30.245.185Z" transform="translate(-531.138 -194.634)" fill="#ff5e69"/>
      </g>
      <path id="Path_28681" data-name="Path 28681" d="M640.434,364.252c-3.4-.4-6.661-3.58-19.818-3.739-2.364-.028-18-3.077-22.223-4.324-8.3-2.447-12.545-5.413-12.545-5.413s-4.823-17.979-6.663-29.384c-5.349-.588-10.684-1.273-15.986-2.171-.189,14.242,9.9,39.565,13.26,42.092,6.538,4.916,21.9,4.672,25.592,4.74,8.549.155,44.969,1.137,44.969,1.137S649.828,365.368,640.434,364.252Z" transform="translate(348.921 182.508)" fill="#fec4ad"/>
      <path id="Path_28682" data-name="Path 28682" d="M584.471,349.838s-4.846-28.457-6.249-31.451c-7.259-15.475-17.23-7.229-15.766,4.747.622,5.1,1.021,18.274,3.6,30.719C571.85,354.171,580.448,352.153,584.471,349.838Z" transform="translate(347.928 172.073)" fill="#133a50"/>
      <g id="Group_1781" data-name="Group 1781" transform="translate(945.377 499.518)">
        <g id="Group_3381" data-name="Group 3381">
          <path id="Path_28683" data-name="Path 28683" d="M595.942,368.359h14.342l14.341-50.18h-10.9Z" transform="translate(-559.72 -318.179)" fill="#d9d9d9"/>
          <path id="Path_28684" data-name="Path 28684" d="M597.882,368.359h55.973l14.341-50.18H612.224Z" transform="translate(-557.543 -318.179)" fill="#d9d9d9"/>
          <rect id="Rectangle_1513" data-name="Rectangle 1513" width="64.208" height="3.743" transform="translate(96.312 52.786) rotate(180)" fill="#d9d9d9"/>
          <rect id="Rectangle_1514" data-name="Rectangle 1514" width="32.104" height="3.743" transform="translate(32.104 52.786) rotate(180)" fill="#d9d9d9"/>
        </g>
        <path id="Path_28685" data-name="Path 28685" d="M612.76,333.809c-1.621,3.841-.48,7.989,2.546,9.266s6.792-.8,8.413-4.645.48-7.991-2.546-9.266S614.379,329.966,612.76,333.809Z" transform="translate(-541.679 -306.277)" fill="#fff"/>
      </g>
      <path id="Path_28686" data-name="Path 28686" d="M566.756,356.189c-2.113,10.177,2.888,32.408,35.972,38.215l18.874,7.647s7.511-8.449,5.146-20.113S611.133,365.831,602.4,351.72c0,0-13.712-5.733-22.526-2.663S566.756,356.189,566.756,356.189Z" transform="translate(352.445 214.967)" fill="#133a50"/>
      <path id="Path_28687" data-name="Path 28687" d="M610.159,303.66s-3.979.155-8.87-7.216c0,0,.526,3.34-4.231,7.834s-9.024,3.28-9.742,5.449a16.464,16.464,0,0,0-.783,4.123s-.8-.011-1.57-1.175c-.509-.768-.768-2.638-1.632-3.208-2.173-1.439-5.907.488-4.711,4.717.747,2.64,3.6,4.407,3.6,4.407-.053,7.219,2.892,9.438,2.892,9.438s-4.889,2.217-7.376,1.2c-3.575-1.462-4.484-3.7-4.352-7.747a9.591,9.591,0,0,1-4.783-2.487c-4.984-4.946.764-19.033,3.073-20.775,0,0-5.449-7.717,1.4-12.9,6.947-5.26,9.631,3.242,9.631,3.242,2.307-1.74,11.768-2.326,16.585-.53C612.865,293.09,610.159,303.66,610.159,303.66Z" transform="translate(352.769 142.546)" fill="#fcad2d"/>
      <path id="Path_28688" data-name="Path 28688" d="M586.707,289.616c.427,2.756.021,9.16-7.363,14.172" transform="translate(367.036 149.295)" fill="none" stroke="#fcad2d" stroke-miterlimit="10" stroke-width="0.25"/>
      <g id="Group_1784" data-name="Group 1784" transform="translate(1227.787 607.965)">
        <g id="Group_1783" data-name="Group 1783">
          <rect id="Rectangle_1515" data-name="Rectangle 1515" width="5.532" height="53.608" transform="translate(28.383 26.997)" fill="#d9d9d9"/>
          <rect id="Rectangle_1516" data-name="Rectangle 1516" width="8.893" height="7.805" transform="translate(26.702 19.192)" fill="#d9d9d9"/>
          <rect id="Rectangle_1517" data-name="Rectangle 1517" width="6.716" height="16.73" transform="translate(27.791 59.973)" fill="#d9d9d9"/>
          <rect id="Rectangle_1518" data-name="Rectangle 1518" width="8.893" height="7.805" transform="translate(26.702 76.703)" fill="#d9d9d9"/>
          <rect id="Rectangle_1519" data-name="Rectangle 1519" width="21.558" height="14.775" transform="translate(20.37 4.418)" fill="#d9d9d9"/>
          <rect id="Rectangle_1520" data-name="Rectangle 1520" width="60.143" height="11.064" rx="0.541" fill="#d9d9d9"/>
          <path id="Path_28689" data-name="Path 28689" d="M745.719,420.182l-16.979-8.418v-5.871l19.208,12.875Z" transform="translate(-693.145 -328.219)" fill="#d9d9d9"/>
          <path id="Path_28690" data-name="Path 28690" d="M743.873,415.508a3.977,3.977,0,1,1-3.978-3.978A3.979,3.979,0,0,1,743.873,415.508Z" transform="translate(-685.092 -321.896)" fill="#d9d9d9"/>
          <circle id="Ellipse_169" data-name="Ellipse 169" cx="3.978" cy="3.978" r="3.978" transform="translate(27.171 89.635)" fill="#d9d9d9"/>
          <path id="Path_28691" data-name="Path 28691" d="M717.725,420.182l16.979-8.418v-5.871L715.5,418.769Z" transform="translate(-708.002 -328.219)" fill="#d9d9d9"/>
          <circle id="Ellipse_170" data-name="Ellipse 170" cx="3.978" cy="3.978" r="3.978" transform="translate(3.517 89.635)" fill="#d9d9d9"/>
          <rect id="Rectangle_1521" data-name="Rectangle 1521" width="2.155" height="12.959" transform="translate(30.072 80.605)" fill="#d9d9d9"/>
        </g>
      </g>
      <path id="Path_28692" data-name="Path 28692" d="M785.079,435.92a4.211,4.211,0,0,0,4.231-3.2c1.453-5.992,4.091-17.179,4.153-45.128.066-30.842,16.232-54.3,18.439-64.181a6.4,6.4,0,0,0-3.058-6.955h0a8.683,8.683,0,0,0-4.329-1.156H741.164s-22.032,39.41-24.922,52.914-6.926,65.342-6.926,65.342Z" transform="translate(512.852 178.106)" fill="#d9d9d9"/>
      <path id="Path_28693" data-name="Path 28693" d="M786,436.022s5.006-9.814,5.088-48.432c.07-31.8,16.145-58,17.968-68.108a3.554,3.554,0,0,0-3.508-4.184H738.788s-22.032,39.41-24.922,52.914-6.926,65.342-6.926,65.342Z" transform="translate(510.186 178.106)" fill="#d9d9d9"/>
      <g id="Group_1785" data-name="Group 1785" transform="translate(1204.275 602.381)">
        <path id="Rectangle_1522" data-name="Rectangle 1522" d="M0,0H74.58a0,0,0,0,1,0,0V10.439a1.309,1.309,0,0,1-1.309,1.309H0a0,0,0,0,1,0,0V0A0,0,0,0,1,0,0Z" transform="translate(22.37)" fill="#d9d9d9"/>
        <path id="Rectangle_1523" data-name="Rectangle 1523" d="M1.639,0H30.049a1.639,1.639,0,0,1,1.639,1.639V11.747a0,0,0,0,1,0,0H1.638A1.638,1.638,0,0,1,0,10.109V1.639A1.639,1.639,0,0,1,1.639,0Z" fill="#d9d9d9"/>
      </g>
      <path id="Path_28694" data-name="Path 28694" d="M750.727,311.392c-5.163,5.137-5.513,30.963-10.735,44.369,0,0-35.595,13.915-51.819,18l5.634,5.935s48.226-11.592,54.344-15.662c9.349-6.219,14.783-31.385,15.674-43.974S756.123,306.022,750.727,311.392Z" transform="translate(489.132 170.419)" fill="#fec4ad"/>
      <path id="Path_28695" data-name="Path 28695" d="M706.425,340.766l-3.957-.932s-8.14-.745-10.745-1.116-5.723,2.606-9.281,3.722a33.818,33.818,0,0,0-7.009,3.329h2.843l5.8.951,5.228-.951a51.592,51.592,0,0,1,9.816,0,42.4,42.4,0,0,0,8.982,0Z" transform="translate(474.837 204.347)" fill="#fec4ad"/>
      <path id="Path_28696" data-name="Path 28696" d="M725.891,352.864c-11.046,3.66-24.59,9.529-28.558,13.219s-11.781,8.929-5.479,29.208c4.027,12.956,21.584,78.593,21.584,78.593l8.895-1.583s-3.16-38.033-6.325-66.483c-1.534-13.792-2.056-17.639-2.056-17.639l11.94-4.861c15.136-6.219,9.948-32.215,9.948-32.215Z" transform="translate(490.6 218.277)" fill="#fec4ad"/>
      <path id="Path_28697" data-name="Path 28697" d="M711.064,359.471c-3.968,3.69-6.771,2.455-12.725,22.838-3.8,13.024-17.68,78.707-17.68,78.707l8.288,3.6c11.208-31.4,11.2-31.366,24.289-56.848a113.466,113.466,0,0,0,9.007-24.535l24.209-1.454c15.135-6.219,9.95-28.31,9.95-28.31S715.031,355.779,711.064,359.471Z" transform="translate(480.7 220.928)" fill="#fec4ad"/>
      <path id="Path_28698" data-name="Path 28698" d="M774.847,354.49c0,10.6,7.679,22.322-1.22,34.383-8.046,10.909-55.1,7.45-55.1,7.45s6.637-11.494.335-20.2c-4.027-5.561-13.313-10.711-13.313-10.711l26.322-8.5L753,340.5Z" transform="translate(508.625 206.381)" fill="#424261"/>
      <path id="Path_28699" data-name="Path 28699" d="M740.54,331.267c-1.424,4.838-11.52,4.742-18.972-4.29s-12.852-24.429-5.415-35.306,17.385,10.189,20.773,21.393S740.54,331.267,740.54,331.267Z" transform="translate(516.529 148.201)" fill="#dd4288"/>
      <path id="Path_28700" data-name="Path 28700" d="M715.17,293.193c-2,2.374-.087,11.416.265,12.759.677,2.6-.641,6.173.112,6.775s1.129.112,2.408.414c.136.032,3.639,6.9,4.259,8.328.942,2.166,6.024-1.674,7.56-.047,1.114,1.18,1.165,3.363,1.541,6.073l-2.971,12,24.241-4.668s-7.077-10.539-8.882-15.356.452-10.09-.151-16.564-3.493-14.794-12.649-15.657A18.144,18.144,0,0,0,715.17,293.193Z" transform="translate(518.41 146.528)" fill="#fec4ad"/>
      <path id="Path_28701" data-name="Path 28701" d="M719.656,390.765s6.156-1.352,16.239,0,25.028-1.477,25.028-1.477-6.124-31.576-5.746-45.9,1.507-29.772,1.507-29.772l-26.852-4.522s-6.5,2.326-10.175,12.814S716.545,377.636,719.656,390.765Z" transform="translate(521.591 171.148)" fill="#fff"/>
      <path id="Path_28702" data-name="Path 28702" d="M729.386,306.164c-1.98,1.98-8.479,4.524-8.479,7.35s-5.088,27.135-4.806,32.221,2.152,24.419,1.021,30.356-1.131,19.093-1.131,19.093l4.916-1.131s-1.413-33.619,0-46.056,10.175-35.332,10.175-35.332l-3.3-1.131Z" transform="translate(520.339 167.86)" fill="#00acff"/>
      <path id="Path_28703" data-name="Path 28703" d="M732.613,312.723l-8.074-.282s-2.716,12.436-2.716,36.384c0,20.16,4.129,47.337,4.129,47.337a49.646,49.646,0,0,0,14.737,2.7,35.128,35.128,0,0,0,14.942-2.828,308.933,308.933,0,0,1,0-38.935c1.413-19.22,6.552-23.591,5.559-36.18-1.647-20.879-20.54-13.567-20.54-13.567Z" transform="translate(526.882 167.802)" fill="#00acff"/>
      <path id="Path_28704" data-name="Path 28704" d="M723.1,314.476s13-6.219,14.98-10.177c0,0,1.413,3.393,1.131,5.088S726.5,322.955,726.5,322.955Z" transform="translate(528.318 165.768)" fill="#0d6faa"/>
      <path id="Path_28705" data-name="Path 28705" d="M743.781,339.662c3.189-16.048-5.347-20.765-14.681-26.488s-14.828-15.367-14.828-15.367,3.614-11.745,14.153-14.153,24,4.161,27.4,20.778c2.41,11.779,5.564,15.929,13.55,21.679,9.633,6.937,12.517,24.616,1.277,33.135-10.4,7.881-4.386-10.836-8.244-21.344-.651-1.776-8.736,7.261-13.251,8.755C744.42,348.225,743.27,342.244,743.781,339.662Z" transform="translate(518.411 142.065)" fill="#dd4288"/>
      <path id="Path_28706" data-name="Path 28706" d="M724.28,306.164s-.849,3.957,1.7,6.219l-4.8,6.784s-1.413-5.37,0-7.632S724.28,306.164,724.28,306.164Z" transform="translate(525.446 167.86)" fill="#0d6faa"/>
      <path id="Path_28707" data-name="Path 28707" d="M706.3,406.726s.259,2.387,4.087,3.465,6.434-2.084,6.434-2.084l.847,7.8-12.224,8.617H695.29l5.494-6.094Z" transform="translate(497.115 280.68)" fill="#133a50"/>
      <path id="Path_28708" data-name="Path 28708" d="M692.991,401.63a4.2,4.2,0,0,0,1.517,5.538c3.319,2.192,6.762-.028,6.762-.028l-1.568,7.692L670.834,405.8Z" transform="translate(469.678 274.962)" fill="#133a50"/>
      <g id="Group_1788" data-name="Group 1788" transform="translate(1177.24 479.898)">
        <path id="Path_28709" data-name="Path 28709" d="M771.244,313.271c-2.79,6.729-10.983,28.828-16.2,42.232,0,0-37.931,12.152-54.155,16.239l5.632,5.935s46.264-7.085,56.3-11.76c10.177-4.742,19.816-37.364,21.529-45.924C786.816,307.616,774.257,306.005,771.244,313.271Z" transform="translate(-673.849 -308.932)" fill="#fec4ad"/>
        <path id="Path_28710" data-name="Path 28710" d="M719.135,340.07l-3.957-.929s-8.14-.745-10.745-1.118-5.723,2.606-9.281,3.724a33.824,33.824,0,0,0-7.009,3.329h2.843l5.8.951,5.228-.951a51.413,51.413,0,0,1,9.816,0,42.529,42.529,0,0,0,8.98,0Z" transform="translate(-688.143 -276.332)" fill="#fec4ad"/>
      </g>
      <path id="Path_28711" data-name="Path 28711" d="M634.915,262.792l-7.906,15.359,2.027.732,7.913-15.367a.326.326,0,0,0-.218-.452l-1.278-.452A.443.443,0,0,0,634.915,262.792Z" transform="translate(420.098 127.99)" fill="#d5c8bf"/>
      <path id="Path_28712" data-name="Path 28712" d="M1.488,6.932,0,6.29,2.5.489A.811.811,0,0,1,3.567.066h0A.812.812,0,0,1,3.99,1.131Z" transform="matrix(0.999, 0.035, -0.035, 0.999, 1053.77, 388.242)" fill="#d5c8bf"/>
      <g id="Group_1800" data-name="Group 1800" transform="translate(1085.478 360.504) rotate(4)">
        <g id="Group_1514" data-name="Group 1514" transform="translate(0 0)">
          <path id="Path_27780" data-name="Path 27780" d="M.252,3.853c-1.4,8.94,3.375,29.318,5.682,31.807,2.371,2.56,8.956-.553,8.956-.553l2.624,15.071L30.5,45.965,24.768,4.02S1.624-4.912.252,3.853Z" fill="#f9caaa"/>
        </g>
      </g>
      <path id="Path_28713" data-name="Path 28713" d="M669.343,299.534s-10.117,27.788-13.8,27.657c-2.765-.1-21.259-25.382-24.234-29.757s-8.753-14.66-8.753-14.66l7.526-2.34s12.954,15.6,16.279,18.4,4.725,3.851,4.725,3.851l3.851-10.522Z" transform="translate(415.516 138.993)" fill="#fec4ad"/>
      <path id="Path_28714" data-name="Path 28714" d="M648.062,275.866c-4.074,1.084-5.479,4.709-7.229,12.19a148.819,148.819,0,0,1-4.3,14.545l13.4,6.241s2.417-13.3,3.308-21.7S651.618,274.919,648.062,275.866Z" transform="translate(431.199 133.71)" fill="#2663b4"/>
      <path id="Path_28715" data-name="Path 28715" d="M677.9,410.635v9.839H658.985s.711-3.561,9.68-5.2l1.32-4.634Z" transform="translate(456.385 285.065)" fill="#46679b"/>
      <path id="Path_28716" data-name="Path 28716" d="M659.064,410.635v9.839H640.149s.711-3.561,9.68-5.2l1.32-4.634Z" transform="translate(435.253 285.065)" fill="#46679b"/>
      <path id="Path_28717" data-name="Path 28717" d="M689.9,317.123s3.442,31.287,3.563,64.9,2.122,133.492,2.122,133.492H682.006s-14-96.516-19.084-118.126-18.316-79.866-18.316-79.866Z" transform="translate(440.253 180.155)" fill="#716978"/>
      <path id="Path_28718" data-name="Path 28718" d="M667.728,263.57s.881,6.843,1.6,10.325a27.812,27.812,0,0,0,1.852,6.378c1.178,2.358,8.4,9.538,8.4,9.538s-22.5,11.88-29.121,11.88-4.3-13.27-4.3-13.27,7.217-5.7,8.29-8.585,1.674-11.225,1.674-11.225Z" transform="translate(442.476 119.15)" fill="#f9caaa"/>
      <path id="Path_28719" data-name="Path 28719" d="M669.159,351.371s-2.544,51.216-3.051,61.3S663.9,515.38,663.9,515.38s-9.995.346-9.995,0S641.394,417.71,639.84,392.862s-.645-54.308-2.708-57.743S642.7,317.2,642.7,317.2l18,4.8Z" transform="translate(431.472 180.241)" fill="#716978"/>
      <path id="Path_28720" data-name="Path 28720" d="M683.626,272.784l21.03,11.359s-2.466,17.35-2.72,24.793-2.924,66.241-2.924,66.241-7.1,11-41.284,6.622c-13.179-1.689-19.659-8.112-19.659-8.112s3.694-64.752,4.713-72.2,3.561-22.329,3.561-22.329l11.148-3.431,4.551,6.786Z" transform="translate(432.919 130.411)" fill="#2f6fc5"/>
      <path id="Path_28721" data-name="Path 28721" d="M646.552,318.751" transform="translate(442.436 181.981)" fill="none" stroke="#aebfde" stroke-miterlimit="10" stroke-width="0.25"/>
      <path id="Path_28722" data-name="Path 28722" d="M649.367,277.372" transform="translate(445.594 135.558)" fill="none" stroke="#aebfde" stroke-miterlimit="10" stroke-width="0.25"/>
      <path id="Path_28723" data-name="Path 28723" d="M669.92,270.883l-20.553,13.769,5.65,6.5,15.935-16.231Z" transform="translate(445.594 128.278)" fill="#2663b4"/>
      <path id="Path_28724" data-name="Path 28724" d="M652.332,282.519l-5.607,4.5,1.057-11.287,2.1-2.95Z" transform="translate(442.629 130.411)" fill="#2663b4"/>
      <path id="Path_27781" data-name="Path 27781" d="M0,5.43.275,3.29C3.9,1.976,7.991,0,7.991,0A84.9,84.9,0,0,1,0,5.43Z" transform="translate(1097.35 393.461) rotate(4)" fill="rgba(0,0,0,0.2)"/>
      <g id="Group_1791" data-name="Group 1791" transform="translate(1027.377 405.286)">
        <path id="Path_28725" data-name="Path 28725" d="M662.743,321.77l-19.761,5.71a4.619,4.619,0,0,1-5.271-2.33L618.47,284.036a3.075,3.075,0,0,1,2.037-4.395l19.585-5.786c3.569-.348,5.349.348,6.255,2.239l19.286,40.8C666.546,318.8,666.2,320.14,662.743,321.77Z" transform="translate(-616.822 -273.769)" fill="#d5c8bf"/>
        <path id="Path_28726" data-name="Path 28726" d="M662.322,322.108l-19.854,5.746a4.639,4.639,0,0,1-5.3-2.332l-19.318-41.3a3.087,3.087,0,0,1,2.058-4.409l19.687-5.8a4.775,4.775,0,0,1,5.494,2.334l19.449,41.175A3.224,3.224,0,0,1,662.322,322.108Z" transform="translate(-617.516 -273.694)" fill="url(#linear-gradient)"/>
      </g>
      <g id="Group_1792" data-name="Group 1792" transform="translate(1054.482 409.139)">
        <path id="Path_28727" data-name="Path 28727" d="M705.339,299.641s-18.371,30.492-20.822,31.542-34.148-19.587-40.1-23.438-10.934-7.635-11.677-8.248-2.516-6.826-2.451-6.8a9.645,9.645,0,0,0,.832-1.093l.787.414-.416-2.472.745-1.4.721.242.24-2.5L634.3,284s3.121,3.531,5.046,5.632a28.483,28.483,0,0,0,4.2,3.675,30.532,30.532,0,0,1,0-4.025,11.369,11.369,0,0,0-.35-2.975l3.07,1.844s2.708,8.534,3.232,9.209a15.573,15.573,0,0,0,9.277,8.725c13.162,5.014,20.47,6.9,20.47,6.9-.52-.076,11.984-22.789,11.984-22.789Z" transform="translate(-630.29 -266.139)" fill="#f9caaa"/>
        <path id="Path_28728" data-name="Path 28728" d="M686.093,291.145c-1.749,8.305-13.909,26.43-13.909,26.43L657.269,306.4s5.839-11.677,9.1-17.794c3.607-6.771,6.97-15,13.353-12.6C685.883,278.328,687.493,284.492,686.093,291.145Z" transform="translate(-600.023 -275.585)" fill="#2f6fc5"/>
      </g>
      <g id="Group_1801" data-name="Group 1801" transform="translate(1077.875 350.18) rotate(4)">
        <path id="Path_27792" data-name="Path 27792" d="M36.548,39.195c-.815-8.595,3.4-14.257,4.41-19.282a13.267,13.267,0,0,0,.188-5.733,5.885,5.885,0,0,0-3.8-4.269C39.283,5.627,35.5,1.686,31.681.584,27.594-.6,23.749.267,19.647.95A80.934,80.934,0,0,0,6.863,3.975a14.964,14.964,0,0,0-4.29,2.068A6.188,6.188,0,0,0,.055,9.968C-.5,13.882,3.226,16.527,6.5,17.751c3.215,1.2,12.273,1.036,12.273,1.036q.469,2.809.94,5.619c.107.639.422,4.639,1.153,4.433s1.245-4.124,1.479-4.9a4.606,4.606,0,0,1,3.318-3.078,3.945,3.945,0,0,1,3.877,1.644,4.5,4.5,0,0,1,.367,4.254,5.25,5.25,0,0,1-3.241,2.855Z" transform="translate(0 0)" fill="url(#linear-gradient-2)"/>
      </g>
      <g id="Group_1794" data-name="Group 1794" transform="translate(1141.536 499.518)">
        <g id="Group_3382" data-name="Group 3382">
          <path id="Path_28731" data-name="Path 28731" d="M698.87,368.359H691l-7.865-50.18h5.98Z" transform="translate(-658.052 -317.179)" fill="#d9d9d9"/>
          <path id="Path_28732" data-name="Path 28732" d="M709.877,368.359h-30.7l-7.865-50.18h30.7Z" transform="translate(-671.317 -317.179)" fill="#d9d9d9"/>
          <rect id="Rectangle_1524" data-name="Rectangle 1524" width="33.366" height="3.743" transform="translate(7.453 50.043)" fill="#d9d9d9"/>
          <rect id="Rectangle_1525" data-name="Rectangle 1525" width="42.069" height="3.743" transform="translate(40.818 50.043)" fill="#d9d9d9"/>
        </g>
        <path id="Path_28733" data-name="Path 28733" d="M684.935,333.809c.889,3.841.263,7.989-1.4,9.266s-3.726-.8-4.613-4.645-.263-7.991,1.4-9.266S684.048,329.966,684.935,333.809Z" transform="translate(-663.234 -306.277)" fill="#fff"/>
      </g>
      <rect id="Rectangle_1526" data-name="Rectangle 1526" width="377.834" height="7.262" transform="translate(1259.714 559.954) rotate(180)" fill="#d9d9d9"/>
      <g id="Group_1796" data-name="Group 1796" transform="translate(922.2 559.954)">
        <path id="Path_28734" data-name="Path 28734" d="M567.949,491.5h3.644L601.3,346.661h-7.526Z" transform="translate(-567.949 -346.661)" fill="#d9d9d9"/>
        <path id="Path_28735" data-name="Path 28735" d="M717.711,491.5h-3.644l-29.712-144.84h7.526Z" transform="translate(-437.352 -346.661)" fill="#d9d9d9"/>
      </g>
    </g>
    <g id="Group_3386" data-name="Group 3386" transform="translate(1045.966 270.908)" clip-path="url(#clip-path)">
      <circle id="Ellipse_171" data-name="Ellipse 171" cx="30.761" cy="30.761" r="30.761" transform="matrix(0.159, -0.987, 0.987, 0.159, 0, 60.735)" fill="#fcad2d"/>
      <path id="Path_28894" data-name="Path 28894" d="M861.92,332.081,851.6,364.3l-29.621-28.459,41.956-9.434Z" transform="translate(-816.332 -329.033)" fill="#e9f2f4"/>
      <path id="Path_28895" data-name="Path 28895" d="M846.924,332.081,836.608,364.3l35.148-21.627-22.813-16.265Z" transform="translate(-801.336 -329.033)" fill="#f06933"/>
      <path id="Path_28896" data-name="Path 28896" d="M836.608,386.832V356.071l35.148-21.627,2.682,36.591-30.584,20.025Z" transform="translate(-801.336 -320.799)" fill="#2f6fc5"/>
    </g>
    <g id="Group_3387" data-name="Group 3387" transform="translate(1268.223 350.096)">
      <g id="Group_3231" data-name="Group 3231" clip-path="url(#clip-path-2)">
        <circle id="Ellipse_130" data-name="Ellipse 130" cx="27.952" cy="27.952" r="27.952" transform="matrix(0.914, -0.406, 0.406, 0.914, 0, 22.678)" fill="#fcad2d"/>
        <path id="Path_3699" data-name="Path 3699" d="M970.149,373.169l-9.375,29.282-26.917-25.861,38.125-8.572Z" transform="translate(-923.886 -365.563)" fill="#e9f2f4"/>
        <path id="Path_3700" data-name="Path 3700" d="M956.523,370.562l-9.375,29.282,36.382,3.165-12.886-29.171Z" transform="translate(-910.26 -362.955)" fill="#e9f2f4"/>
        <path id="Path_3701" data-name="Path 3701" d="M947.148,412.973V385.02H978.43l3.094,13.6-27.792,18.2Z" transform="translate(-910.26 -348.132)" fill="#0d6faa"/>
      </g>
    </g>
    <circle id="Ellipse_173" data-name="Ellipse 173" cx="15.847" cy="15.847" r="15.847" transform="translate(1286.038 398.751) rotate(-76.672)" fill="#f6f5f2"/>
  </g>
</svg>
