<svg xmlns="http://www.w3.org/2000/svg" xmlns:xlink="http://www.w3.org/1999/xlink" width="500" height="500" viewBox="0 0 500 500">
  <defs>
    <clipPath id="clip-path">
      <rect id="Rectangle_1216" data-name="Rectangle 1216" width="500" height="500" transform="translate(851 259)" fill="#fff" stroke="#707070" stroke-width="1"/>
    </clipPath>
    <filter id="Ellipse_125" x="-58.5" y="-42.5" width="618" height="618" filterUnits="userSpaceOnUse">
      <feOffset input="SourceAlpha"/>
      <feGaussianBlur stdDeviation="49.5" result="blur"/>
      <feFlood flood-opacity="0.051"/>
      <feComposite operator="in" in2="blur"/>
      <feComposite in="SourceGraphic"/>
    </filter>
    <linearGradient id="linear-gradient" x1="-35.41" y1="0.103" x2="-34.155" y2="0.95" gradientUnits="objectBoundingBox">
      <stop offset="0" stop-color="#3a9bd5"/>
      <stop offset="1" stop-color="#2573ba"/>
    </linearGradient>
    <linearGradient id="linear-gradient-2" x1="-17.036" y1="0.221" x2="-16.33" y2="0.746" gradientUnits="objectBoundingBox">
      <stop offset="0" stop-color="#7bdaff"/>
      <stop offset="1" stop-color="#59bdef"/>
    </linearGradient>
    <linearGradient id="linear-gradient-3" x1="-33.45" y1="0.314" x2="-32.111" y2="0.71" gradientUnits="objectBoundingBox">
      <stop offset="0" stop-color="#2573ba"/>
      <stop offset="1" stop-color="#0063ad"/>
    </linearGradient>
    <linearGradient id="linear-gradient-4" x1="-9.965" y1="0.5" x2="-8.965" y2="0.5" gradientUnits="objectBoundingBox">
      <stop offset="0" stop-color="#7bdaff"/>
      <stop offset="1" stop-color="#e6e6e6"/>
    </linearGradient>
    <linearGradient id="linear-gradient-5" x1="-32.196" y1="0.103" x2="-30.941" y2="0.95" xlink:href="#linear-gradient"/>
    <linearGradient id="linear-gradient-6" x1="-15.429" y1="0.221" x2="-14.723" y2="0.746" xlink:href="#linear-gradient-2"/>
    <linearGradient id="linear-gradient-7" x1="-30.236" y1="0.314" x2="-28.897" y2="0.71" xlink:href="#linear-gradient-3"/>
    <linearGradient id="linear-gradient-8" x1="-9.133" y1="0.5" x2="-8.133" y2="0.5" xlink:href="#linear-gradient-4"/>
    <linearGradient id="linear-gradient-9" x1="-28.981" y1="0.103" x2="-27.727" y2="0.95" xlink:href="#linear-gradient"/>
    <linearGradient id="linear-gradient-10" x1="-13.822" y1="0.221" x2="-13.116" y2="0.746" xlink:href="#linear-gradient-2"/>
    <linearGradient id="linear-gradient-11" x1="-27.022" y1="0.314" x2="-25.682" y2="0.71" xlink:href="#linear-gradient-3"/>
    <linearGradient id="linear-gradient-12" x1="-8.302" y1="0.5" x2="-7.302" y2="0.5" xlink:href="#linear-gradient-4"/>
    <clipPath id="clip-extentions">
      <rect width="500" height="500"/>
    </clipPath>
  </defs>
  <g id="extentions" clip-path="url(#clip-extentions)">
    <g id="Mask_Group_16" data-name="Mask Group 16" transform="translate(-851 -259)" clip-path="url(#clip-path)">
      <g id="extentions-2" data-name="extentions" transform="translate(-4019 -931)">
        <g transform="matrix(1, 0, 0, 1, 4870, 1190)" filter="url(#Ellipse_125)">
          <circle id="Ellipse_125-2" data-name="Ellipse 125" cx="160.5" cy="160.5" r="160.5" transform="translate(90 106)" fill="#fff"/>
        </g>
        <g id="Group_1525" data-name="Group 1525" transform="translate(5326.453 1196.191)">
          <g id="Group_1526" data-name="Group 1526" transform="translate(-321.204 180.26)">
            <g id="Group_1523" data-name="Group 1523" transform="translate(0 0)">
              <g id="Group_1503" data-name="Group 1503">
                <g id="Group_1502" data-name="Group 1502">
                  <g id="Group_1501" data-name="Group 1501">
                    <path id="Path_2594" data-name="Path 2594" d="M-180.13,200.783l-9.318-3.548,0,.006c-3.481-2.073-8.32-1.813-13.673,1.278a30.75,30.75,0,0,0-5.048,3.7l-9.4-5.428,0,0c-5.162-3.629-12.633-3.471-20.948,1.33-10.519,6.073-19.686,18.018-24.536,30.674a11.42,11.42,0,0,0-5.294,1.674c-6.864,3.963-12.429,13.6-12.429,21.528,0,.171.017.326.022.493a15.006,15.006,0,0,0-6.4,2.142c-8.779,5.069-15.9,17.4-15.9,27.533,0,5.023,1.752,8.561,4.584,10.241l-.007,0,.073.042.014.009,9.014,3.359,5.027-24.18,67.217-38.808c8.591-4.959,15.86-15.677,18.306-26.076Z" transform="translate(317.041 -184.271)" fill="#b6d4e6"/>
                    <path id="Path_2598" data-name="Path 2598" d="M-187.9,205.477a34.049,34.049,0,0,0-8.406,7.09c-3.523-11.317-14.269-14.828-26.984-7.487-10.519,6.072-19.686,18.018-24.536,30.674a11.423,11.423,0,0,0-5.294,1.674c-6.864,3.963-12.429,13.6-12.429,21.528,0,.171.017.326.022.493a15.006,15.006,0,0,0-6.4,2.142c-8.779,5.069-15.9,17.4-15.9,27.533s7.117,14.246,15.9,9.178L-187.9,249.79c10.6-6.119,19.188-21,19.188-33.235S-177.3,199.359-187.9,205.477Z" transform="translate(310.912 -187.828)" fill="#0d6faa"/>
                  </g>
                </g>
              </g>
              <g id="Group_1522" data-name="Group 1522" transform="translate(37.57 34.935)">
                <g id="Group_1521" data-name="Group 1521" transform="translate(69.853)">
                  <g id="Group_1517" data-name="Group 1517">
                    <g id="Group_1516" data-name="Group 1516">
                      <path id="Path_2628" data-name="Path 2628" d="M-153.6,266.54l21.732-12.547v-9.637L-153.6,256.9Z" transform="translate(175.333 -231.809)" fill="url(#linear-gradient)"/>
                      <path id="Path_2629" data-name="Path 2629" d="M-159.37,253.572l21.732-12.547-21.731-12.546L-181.1,241.026Z" transform="translate(181.102 -228.479)" fill="url(#linear-gradient-2)"/>
                      <path id="Path_2630" data-name="Path 2630" d="M-181.1,253.993l21.732,12.547V256.9L-181.1,244.356Z" transform="translate(181.102 -231.809)" fill="url(#linear-gradient-3)"/>
                    </g>
                    <path id="Path_2631" data-name="Path 2631" d="M-159.37,256.356l21.314-12.306.418.241-21.732,12.547L-181.1,244.292l.418-.241Z" transform="translate(181.102 -231.745)" fill="#a9ebff"/>
                  </g>
                  <path id="Path_2632" data-name="Path 2632" d="M-148.306,260.44l12.611-7.363,10.623,8.507.9,7.343v6.694l46.082,27.83,10.49,6.194-1.6,4.8-7.293,2.9-10.09-3L-112.1,298.364l-18.657-10.255-6.251-4.8-.4-10.19-.8-6.194Z" transform="translate(174.222 -233.639)" fill="#fff"/>
                  <g id="Group_1518" data-name="Group 1518" transform="translate(25.276 26.458)">
                    <path id="Path_2633" data-name="Path 2633" d="M-77.2,320.891a12.044,12.044,0,0,0,6.034-1.636A11.947,11.947,0,0,0-65.128,308.8V274.875a1.649,1.649,0,0,0-1.648-1.648,1.649,1.649,0,0,0-1.649,1.648V308.8a8.68,8.68,0,0,1-4.385,7.6,8.68,8.68,0,0,1-8.771,0l-51.062-29.5a6.236,6.236,0,0,1-3.109-5.385v-7.551a9.541,9.541,0,0,0-4.757-8.24l-6.135-3.541a1.648,1.648,0,0,0-2.251.6,1.648,1.648,0,0,0,.6,2.251l6.135,3.542a6.236,6.236,0,0,1,3.109,5.385v7.551a9.539,9.539,0,0,0,4.757,8.24l51.062,29.5A12.035,12.035,0,0,0-77.2,320.891Z" transform="translate(149.117 -261.96)" fill="#fff"/>
                  </g>
                  <path id="Path_2634" data-name="Path 2634" d="M-133.179,253.624a1.649,1.649,0,0,1,2.252-.6l6.134,3.542a9.538,9.538,0,0,1,4.757,8.239v7.551a6.236,6.236,0,0,0,3.109,5.385L-63.5,308.606a8.8,8.8,0,0,0,3.581,1.147c-.114,1.091-.072,2.2-.162,3.3a12.094,12.094,0,0,1-5.068-1.592l-53.429-30.868a9.542,9.542,0,0,1-4.757-8.24V264.8a6.235,6.235,0,0,0-3.109-5.385l-6.134-3.541A1.649,1.649,0,0,1-133.179,253.624Z" transform="translate(171.096 -233.581)" fill="#fff"/>
                  <path id="Path_2635" data-name="Path 2635" d="M-52.1,323.634l5.013-6.27.711-7.418V291.964l-.05-6.683,13.134,2.234v-6.109a1.649,1.649,0,0,1,1.648-1.648,1.649,1.649,0,0,1,1.648,1.648v25.259a11.947,11.947,0,0,1-6.034,10.452,12.323,12.323,0,0,1-2.1.963l0,0Z" transform="translate(154.041 -239.235)" fill="#ccc"/>
                  <g id="Group_1519" data-name="Group 1519" transform="translate(25.276 26.458)">
                    <path id="Path_2636" data-name="Path 2636" d="M-77.2,320.891a12.044,12.044,0,0,0,6.034-1.636A11.947,11.947,0,0,0-65.128,308.8V274.875a1.649,1.649,0,0,0-1.648-1.648,1.649,1.649,0,0,0-1.649,1.648V308.8a8.68,8.68,0,0,1-4.385,7.6,8.68,8.68,0,0,1-8.771,0l-51.062-29.5a6.236,6.236,0,0,1-3.109-5.385v-7.551a9.541,9.541,0,0,0-4.757-8.24l-6.135-3.541a1.648,1.648,0,0,0-2.251.6,1.648,1.648,0,0,0,.6,2.251l6.135,3.542a6.236,6.236,0,0,1,3.109,5.385v7.551a9.539,9.539,0,0,0,4.757,8.24l51.062,29.5A12.035,12.035,0,0,0-77.2,320.891Z" transform="translate(149.117 -261.96)" fill="url(#linear-gradient-4)"/>
                  </g>
                  <g id="Group_1520" data-name="Group 1520" transform="translate(2.368 17.121)">
                    <path id="Path_2637" data-name="Path 2637" d="M-159.405,265.4l2.218,1.281v-4.455l-2.218-1.281Z" transform="translate(174.183 -252.41)" fill="#fff" opacity="0.2"/>
                    <path id="Path_2638" data-name="Path 2638" d="M-164.08,262.7l2.218,1.281v-4.455l-2.218-1.281Z" transform="translate(175.163 -251.844)" fill="#fff"/>
                    <path id="Path_2639" data-name="Path 2639" d="M-168.755,260l2.218,1.281v-4.455l-2.218-1.281Z" transform="translate(176.144 -251.278)" fill="#fff"/>
                    <path id="Path_2640" data-name="Path 2640" d="M-173.43,257.3l2.218,1.281v-4.455l-2.218-1.281Z" transform="translate(177.125 -250.712)" fill="#fff"/>
                    <path id="Path_2641" data-name="Path 2641" d="M-178.105,254.6l2.218,1.281v-4.455l-2.218-1.281Z" transform="translate(178.105 -250.145)" fill="#fff"/>
                  </g>
                </g>
                <g id="Group_1515" data-name="Group 1515" transform="translate(34.927 20.245)">
                  <g id="Group_1511" data-name="Group 1511">
                    <g id="Group_1510" data-name="Group 1510">
                      <path id="Path_2614" data-name="Path 2614" d="M-197.8,292.159l21.732-12.547v-9.637L-197.8,282.522Z" transform="translate(219.531 -257.428)" fill="url(#linear-gradient-5)"/>
                      <path id="Path_2615" data-name="Path 2615" d="M-203.568,279.191l21.732-12.547L-203.567,254.1-225.3,266.645Z" transform="translate(225.299 -254.098)" fill="url(#linear-gradient-6)"/>
                      <path id="Path_2616" data-name="Path 2616" d="M-225.3,279.612l21.732,12.547v-9.637L-225.3,269.975Z" transform="translate(225.3 -257.428)" fill="url(#linear-gradient-7)"/>
                    </g>
                    <path id="Path_2617" data-name="Path 2617" d="M-203.568,281.975l21.314-12.306.418.241-21.732,12.547L-225.3,269.911l.418-.241Z" transform="translate(225.299 -257.364)" fill="#a9ebff"/>
                  </g>
                  <path id="Path_2618" data-name="Path 2618" d="M-192.5,286.059l12.611-7.363,10.623,8.507.9,7.343v6.694l46.082,27.83,10.49,6.194-1.6,4.8-7.293,2.9-10.091-3L-156.3,323.983l-18.657-10.255-6.251-4.8-.4-10.19-.8-6.194Z" transform="translate(218.42 -259.258)" fill="#fff"/>
                  <g id="Group_1512" data-name="Group 1512" transform="translate(25.276 26.458)">
                    <path id="Path_2619" data-name="Path 2619" d="M-121.394,346.51a12.041,12.041,0,0,0,6.033-1.636,11.945,11.945,0,0,0,6.034-10.452V300.494a1.648,1.648,0,0,0-1.648-1.648,1.648,1.648,0,0,0-1.648,1.648v33.929a8.681,8.681,0,0,1-4.386,7.6,8.68,8.68,0,0,1-8.771,0l-51.062-29.5a6.237,6.237,0,0,1-3.109-5.385v-7.551a9.541,9.541,0,0,0-4.757-8.24l-6.134-3.541a1.648,1.648,0,0,0-2.252.6,1.648,1.648,0,0,0,.6,2.251l6.134,3.542a6.234,6.234,0,0,1,3.109,5.385v7.551a9.54,9.54,0,0,0,4.757,8.24l51.062,29.5A12.037,12.037,0,0,0-121.394,346.51Z" transform="translate(193.315 -287.579)" fill="#fff"/>
                  </g>
                  <path id="Path_2620" data-name="Path 2620" d="M-177.376,279.243a1.648,1.648,0,0,1,2.251-.6l6.135,3.542a9.54,9.54,0,0,1,4.757,8.239v7.552a6.234,6.234,0,0,0,3.109,5.385l53.429,30.868a8.8,8.8,0,0,0,3.581,1.147c-.115,1.091-.072,2.2-.162,3.3a12.092,12.092,0,0,1-5.068-1.592l-53.429-30.868a9.54,9.54,0,0,1-4.757-8.24v-7.552a6.237,6.237,0,0,0-3.109-5.385l-6.135-3.541A1.649,1.649,0,0,1-177.376,279.243Z" transform="translate(215.293 -259.2)" fill="#fff"/>
                  <path id="Path_2621" data-name="Path 2621" d="M-96.292,349.253l5.012-6.27.712-7.418V317.583l-.051-6.683,13.134,2.234v-6.109a1.649,1.649,0,0,1,1.648-1.648,1.648,1.648,0,0,1,1.648,1.648v25.259a11.946,11.946,0,0,1-6.033,10.452,12.375,12.375,0,0,1-2.1.963l0,0Z" transform="translate(198.238 -264.854)" fill="#ccc"/>
                  <g id="Group_1513" data-name="Group 1513" transform="translate(25.276 26.458)">
                    <path id="Path_2622" data-name="Path 2622" d="M-121.394,346.51a12.041,12.041,0,0,0,6.033-1.636,11.945,11.945,0,0,0,6.034-10.452V300.494a1.648,1.648,0,0,0-1.648-1.648,1.648,1.648,0,0,0-1.648,1.648v33.929a8.681,8.681,0,0,1-4.386,7.6,8.68,8.68,0,0,1-8.771,0l-51.062-29.5a6.237,6.237,0,0,1-3.109-5.385v-7.551a9.541,9.541,0,0,0-4.757-8.24l-6.134-3.541a1.648,1.648,0,0,0-2.252.6,1.648,1.648,0,0,0,.6,2.251l6.134,3.542a6.234,6.234,0,0,1,3.109,5.385v7.551a9.54,9.54,0,0,0,4.757,8.24l51.062,29.5A12.037,12.037,0,0,0-121.394,346.51Z" transform="translate(193.315 -287.579)" fill="url(#linear-gradient-8)"/>
                  </g>
                  <g id="Group_1514" data-name="Group 1514" transform="translate(2.368 17.121)">
                    <path id="Path_2623" data-name="Path 2623" d="M-203.6,291.016l2.218,1.281v-4.455l-2.218-1.281Z" transform="translate(218.38 -278.029)" fill="#fff" opacity="0.2"/>
                    <path id="Path_2624" data-name="Path 2624" d="M-208.278,288.317l2.218,1.281v-4.455l-2.218-1.281Z" transform="translate(219.361 -277.463)" fill="#fff" opacity="0.2"/>
                    <path id="Path_2625" data-name="Path 2625" d="M-212.953,285.618l2.218,1.281v-4.455l-2.218-1.281Z" transform="translate(220.342 -276.897)" fill="#fff"/>
                    <path id="Path_2626" data-name="Path 2626" d="M-217.628,282.919l2.218,1.281v-4.455l-2.218-1.281Z" transform="translate(221.322 -276.331)" fill="#fff"/>
                    <path id="Path_2627" data-name="Path 2627" d="M-222.3,280.22l2.218,1.281v-4.455l-2.218-1.281Z" transform="translate(222.303 -275.764)" fill="#fff"/>
                  </g>
                </g>
                <g id="Group_1527" data-name="Group 1527" transform="translate(0 40.49)">
                  <g id="Group_1505" data-name="Group 1505">
                    <g id="Group_1504" data-name="Group 1504">
                      <path id="Path_2600" data-name="Path 2600" d="M-242,317.778l21.732-12.547v-9.637L-242,308.141Z" transform="translate(263.729 -283.048)" fill="url(#linear-gradient-9)"/>
                      <path id="Path_2601" data-name="Path 2601" d="M-247.766,304.81l21.732-12.547-21.731-12.547L-269.5,292.264Z" transform="translate(269.497 -279.717)" fill="url(#linear-gradient-10)"/>
                      <path id="Path_2602" data-name="Path 2602" d="M-269.5,305.231l21.732,12.547v-9.637L-269.5,295.594Z" transform="translate(269.497 -283.048)" fill="url(#linear-gradient-11)"/>
                    </g>
                    <path id="Path_2603" data-name="Path 2603" d="M-247.766,307.594l21.314-12.305.418.241-21.732,12.547L-269.5,295.53l.418-.241Z" transform="translate(269.497 -282.983)" fill="#a9ebff"/>
                  </g>
                  <g id="Group_1508" data-name="Group 1508" transform="translate(2.368 17.121)">
                    <path id="Path_2609" data-name="Path 2609" d="M-247.8,316.635l2.218,1.281V313.46l-2.218-1.281Z" transform="translate(262.578 -303.648)" fill="#fff" opacity="0.2"/>
                    <path id="Path_2610" data-name="Path 2610" d="M-252.475,313.936l2.218,1.281v-4.455l-2.218-1.281Z" transform="translate(263.559 -303.082)" fill="#fff" opacity="0.2"/>
                    <path id="Path_2611" data-name="Path 2611" d="M-257.151,311.237l2.218,1.281v-4.455l-2.218-1.281Z" transform="translate(264.539 -302.516)" fill="#fff" opacity="0.2"/>
                    <path id="Path_2612" data-name="Path 2612" d="M-261.826,308.538l2.218,1.281v-4.455l-2.218-1.281Z" transform="translate(265.52 -301.95)" fill="#fff"/>
                    <path id="Path_2613" data-name="Path 2613" d="M-266.5,305.839l2.218,1.281v-4.455l-2.218-1.281Z" transform="translate(266.501 -301.383)" fill="#fff"/>
                  </g>
                  <path id="Path_2642" data-name="Path 2642" d="M-236.7,311.678l12.611-7.363,10.623,8.507.9,7.343v6.694l46.082,27.83,10.49,6.194-1.6,4.8-7.293,2.9-6.426-.864-25.519-15.977-22.322-12.388-6.251-4.8-.4-10.19-.8-6.194Z" transform="translate(262.617 -284.877)" fill="#fff"/>
                  <g id="Group_1527-2" data-name="Group 1527" transform="translate(25.276 26.458)">
                    <path id="Path_2605" data-name="Path 2605" d="M-165.592,372.129a12.044,12.044,0,0,0,6.034-1.636,11.946,11.946,0,0,0,6.033-10.452V326.113a1.649,1.649,0,0,0-1.648-1.648,1.648,1.648,0,0,0-1.648,1.648v33.929a8.68,8.68,0,0,1-4.385,7.6,8.681,8.681,0,0,1-8.771,0l-51.062-29.5a6.236,6.236,0,0,1-3.109-5.385V325.2a9.54,9.54,0,0,0-4.758-8.24l-6.134-3.541a1.648,1.648,0,0,0-2.251.6,1.648,1.648,0,0,0,.6,2.251l6.134,3.542a6.235,6.235,0,0,1,3.11,5.385v7.551a9.539,9.539,0,0,0,4.757,8.24l51.062,29.5A12.034,12.034,0,0,0-165.592,372.129Z" transform="translate(237.512 -313.198)" fill="#fff"/>
                  </g>
                  <path id="Path_2643" data-name="Path 2643" d="M-221.574,304.862a1.649,1.649,0,0,1,2.252-.6l6.134,3.542a9.54,9.54,0,0,1,4.757,8.239v7.552a6.236,6.236,0,0,0,3.109,5.385l53.429,30.868a8.8,8.8,0,0,0,3.581,1.147c-.114,1.091-.072,2.2-.162,3.3a12.1,12.1,0,0,1-5.068-1.592l-53.429-30.868a9.542,9.542,0,0,1-4.757-8.24V316.04a6.235,6.235,0,0,0-3.109-5.385l-6.134-3.541A1.649,1.649,0,0,1-221.574,304.862Z" transform="translate(259.491 -284.819)" fill="#fff"/>
                  <path id="Path_2644" data-name="Path 2644" d="M-140.49,374.872l5.012-6.27.712-7.418V343.2l-.05-6.683,13.134,2.234v-6.109a1.648,1.648,0,0,1,1.648-1.648,1.648,1.648,0,0,1,1.648,1.648V357.9a11.947,11.947,0,0,1-6.034,10.452,12.358,12.358,0,0,1-2.1.963l0,0Z" transform="translate(242.436 -290.473)" fill="#ccc"/>
                  <g id="Group_1528" data-name="Group 1528" transform="translate(25.276 26.458)">
                    <path id="Path_2608" data-name="Path 2608" d="M-165.592,372.129a12.044,12.044,0,0,0,6.034-1.636,11.946,11.946,0,0,0,6.033-10.452V326.113a1.649,1.649,0,0,0-1.648-1.648,1.648,1.648,0,0,0-1.648,1.648v33.929a8.68,8.68,0,0,1-4.385,7.6,8.681,8.681,0,0,1-8.771,0l-51.062-29.5a6.236,6.236,0,0,1-3.109-5.385V325.2a9.54,9.54,0,0,0-4.758-8.24l-6.134-3.541a1.648,1.648,0,0,0-2.251.6,1.648,1.648,0,0,0,.6,2.251l6.134,3.542a6.235,6.235,0,0,1,3.11,5.385v7.551a9.539,9.539,0,0,0,4.757,8.24l51.062,29.5A12.034,12.034,0,0,0-165.592,372.129Z" transform="translate(237.512 -313.198)" fill="url(#linear-gradient-12)"/>
                  </g>
                </g>
              </g>
            </g>
          </g>
        </g>
        <g id="Group_1594" data-name="Group 1594" transform="translate(4491.337 573.426)">
          <g id="Group_1462" data-name="Group 1462" transform="translate(616.875 670.558)">
            <path id="Path_2471" data-name="Path 2471" d="M523.045,813.57v-4.194a1.817,1.817,0,0,1,1.817-1.817h0a1.818,1.818,0,0,1,1.818,1.817v4.194a1.819,1.819,0,0,1-1.818,1.818h0A1.818,1.818,0,0,1,523.045,813.57Z" transform="translate(-513.562 -807.558)" fill="rgba(0,0,0,0.1)"/>
            <path id="Path_2472" data-name="Path 2472" d="M523.045,826.771v-4.194a1.818,1.818,0,0,1,1.817-1.818h0a1.819,1.819,0,0,1,1.818,1.818v4.194a1.818,1.818,0,0,1-1.818,1.817h0A1.817,1.817,0,0,1,523.045,826.771Z" transform="translate(-513.562 -805.986)" fill="rgba(0,0,0,0.1)"/>
            <path id="Path_2473" data-name="Path 2473" d="M529.589,816.032h4.194a1.817,1.817,0,0,1,1.817,1.817h0a1.817,1.817,0,0,1-1.817,1.818h-4.194a1.818,1.818,0,0,1-1.818-1.818h0A1.817,1.817,0,0,1,529.589,816.032Z" transform="translate(-512.999 -806.549)" fill="rgba(0,0,0,0.1)"/>
            <path id="Path_2474" data-name="Path 2474" d="M516.388,816.032h4.194a1.817,1.817,0,0,1,1.817,1.817h0a1.817,1.817,0,0,1-1.817,1.818h-4.194a1.817,1.817,0,0,1-1.817-1.818h0A1.817,1.817,0,0,1,516.388,816.032Z" transform="translate(-514.571 -806.549)" fill="rgba(0,0,0,0.1)"/>
          </g>
          <g id="Group_1490" data-name="Group 1490" transform="translate(587.834 755.336)">
            <path id="Path_2475" data-name="Path 2475" d="M572.095,772.328v-4.2a1.817,1.817,0,0,1,1.817-1.817h0a1.817,1.817,0,0,1,1.817,1.817v4.2a1.817,1.817,0,0,1-1.817,1.817h0A1.817,1.817,0,0,1,572.095,772.328Z" transform="translate(-562.611 -766.315)" fill="rgba(0,0,0,0.1)"/>
            <path id="Path_2476" data-name="Path 2476" d="M572.095,785.528v-4.194a1.817,1.817,0,0,1,1.817-1.817h0a1.817,1.817,0,0,1,1.817,1.817v4.194a1.817,1.817,0,0,1-1.817,1.817h0A1.817,1.817,0,0,1,572.095,785.528Z" transform="translate(-562.611 -764.743)" fill="rgba(0,0,0,0.1)"/>
            <path id="Path_2477" data-name="Path 2477" d="M578.638,774.789h4.194a1.818,1.818,0,0,1,1.818,1.818h0a1.818,1.818,0,0,1-1.818,1.817h-4.194a1.817,1.817,0,0,1-1.817-1.817h0A1.818,1.818,0,0,1,578.638,774.789Z" transform="translate(-562.048 -765.306)" fill="rgba(0,0,0,0.1)"/>
            <path id="Path_2478" data-name="Path 2478" d="M565.438,774.789h4.194a1.818,1.818,0,0,1,1.817,1.818h0a1.817,1.817,0,0,1-1.817,1.817h-4.194a1.818,1.818,0,0,1-1.819-1.817h0A1.818,1.818,0,0,1,565.438,774.789Z" transform="translate(-563.62 -765.306)" fill="rgba(0,0,0,0.1)"/>
          </g>
          <g id="Group_1464" data-name="Group 1464" transform="translate(741.57 699.57)">
            <path id="Path_2479" data-name="Path 2479" d="M684.472,699.5v-4.2a1.817,1.817,0,0,1,1.817-1.817h0a1.817,1.817,0,0,1,1.817,1.817v4.2a1.817,1.817,0,0,1-1.817,1.817h0A1.817,1.817,0,0,1,684.472,699.5Z" transform="translate(-674.988 -693.483)" fill="rgba(0,0,0,0.1)"/>
            <path id="Path_2480" data-name="Path 2480" d="M684.472,712.7V708.5a1.817,1.817,0,0,1,1.817-1.817h0a1.817,1.817,0,0,1,1.817,1.817V712.7a1.818,1.818,0,0,1-1.817,1.819h0A1.818,1.818,0,0,1,684.472,712.7Z" transform="translate(-674.988 -691.911)" fill="rgba(0,0,0,0.1)"/>
            <path id="Path_2481" data-name="Path 2481" d="M691.015,701.958h4.2a1.817,1.817,0,0,1,1.817,1.817h0a1.817,1.817,0,0,1-1.817,1.817h-4.2a1.817,1.817,0,0,1-1.817-1.817h0A1.817,1.817,0,0,1,691.015,701.958Z" transform="translate(-674.425 -692.474)" fill="rgba(0,0,0,0.1)"/>
            <path id="Path_2482" data-name="Path 2482" d="M677.815,701.958h4.194a1.817,1.817,0,0,1,1.817,1.817h0a1.817,1.817,0,0,1-1.817,1.817h-4.194A1.818,1.818,0,0,1,676,703.775h0A1.818,1.818,0,0,1,677.815,701.958Z" transform="translate(-675.997 -692.474)" fill="rgba(0,0,0,0.1)"/>
          </g>
          <g id="Group_1465" data-name="Group 1465" transform="translate(419.854 792.865)">
            <path id="Path_2483" data-name="Path 2483" d="M425.99,785.863v-4.2a1.817,1.817,0,0,1,1.817-1.817h0a1.817,1.817,0,0,1,1.817,1.817v4.2a1.817,1.817,0,0,1-1.817,1.817h0A1.817,1.817,0,0,1,425.99,785.863Z" transform="translate(-416.506 -779.85)" fill="rgba(0,0,0,0.1)"/>
            <path id="Path_2484" data-name="Path 2484" d="M425.99,799.063v-4.194a1.817,1.817,0,0,1,1.817-1.817h0a1.817,1.817,0,0,1,1.817,1.817v4.194a1.818,1.818,0,0,1-1.817,1.819h0A1.818,1.818,0,0,1,425.99,799.063Z" transform="translate(-416.506 -778.278)" fill="rgba(0,0,0,0.1)"/>
            <path id="Path_2485" data-name="Path 2485" d="M432.533,788.325h4.194a1.817,1.817,0,0,1,1.819,1.817h0a1.818,1.818,0,0,1-1.819,1.817h-4.194a1.817,1.817,0,0,1-1.817-1.817h0A1.817,1.817,0,0,1,432.533,788.325Z" transform="translate(-415.943 -778.841)" fill="rgba(0,0,0,0.1)"/>
            <path id="Path_2486" data-name="Path 2486" d="M419.332,788.325h4.2a1.817,1.817,0,0,1,1.817,1.817h0a1.817,1.817,0,0,1-1.817,1.817h-4.2a1.817,1.817,0,0,1-1.817-1.817h0A1.817,1.817,0,0,1,419.332,788.325Z" transform="translate(-417.515 -778.841)" fill="rgba(0,0,0,0.1)"/>
          </g>
          <g id="Group_1466" data-name="Group 1466" transform="translate(753.705 778.92)">
            <path id="Path_2487" data-name="Path 2487" d="M682.848,775.764v-4.194a1.818,1.818,0,0,1,1.817-1.819h0a1.818,1.818,0,0,1,1.817,1.819v4.194a1.817,1.817,0,0,1-1.817,1.817h0A1.817,1.817,0,0,1,682.848,775.764Z" transform="translate(-673.364 -769.751)" fill="rgba(0,0,0,0.1)"/>
            <path id="Path_2488" data-name="Path 2488" d="M682.848,788.965v-4.2a1.817,1.817,0,0,1,1.817-1.817h0a1.817,1.817,0,0,1,1.817,1.817v4.2a1.817,1.817,0,0,1-1.817,1.817h0A1.817,1.817,0,0,1,682.848,788.965Z" transform="translate(-673.364 -768.179)" fill="rgba(0,0,0,0.1)"/>
            <path id="Path_2489" data-name="Path 2489" d="M689.391,778.226h4.194a1.818,1.818,0,0,1,1.818,1.817h0a1.818,1.818,0,0,1-1.818,1.817h-4.194a1.817,1.817,0,0,1-1.817-1.817h0A1.817,1.817,0,0,1,689.391,778.226Z" transform="translate(-672.801 -768.742)" fill="rgba(0,0,0,0.1)"/>
            <path id="Path_2490" data-name="Path 2490" d="M676.19,778.226h4.2a1.817,1.817,0,0,1,1.817,1.817h0a1.817,1.817,0,0,1-1.817,1.817h-4.2a1.817,1.817,0,0,1-1.817-1.817h0A1.817,1.817,0,0,1,676.19,778.226Z" transform="translate(-674.373 -768.742)" fill="rgba(0,0,0,0.1)"/>
          </g>
          <g id="Group_1467" data-name="Group 1467" transform="translate(802.786 991.897)">
            <path id="Path_2491" data-name="Path 2491" d="M768.173,963.715V959.52a1.818,1.818,0,0,1,1.819-1.817h0a1.817,1.817,0,0,1,1.817,1.817v4.194a1.817,1.817,0,0,1-1.817,1.817h0A1.818,1.818,0,0,1,768.173,963.715Z" transform="translate(-758.69 -957.703)" fill="rgba(0,0,0,0.1)"/>
            <path id="Path_2492" data-name="Path 2492" d="M768.173,976.916v-4.194a1.819,1.819,0,0,1,1.819-1.819h0a1.818,1.818,0,0,1,1.817,1.819v4.194a1.817,1.817,0,0,1-1.817,1.818h0A1.818,1.818,0,0,1,768.173,976.916Z" transform="translate(-758.69 -956.131)" fill="rgba(0,0,0,0.1)"/>
            <path id="Path_2493" data-name="Path 2493" d="M774.717,966.177h4.194a1.817,1.817,0,0,1,1.818,1.817h0a1.818,1.818,0,0,1-1.818,1.818h-4.194a1.818,1.818,0,0,1-1.817-1.818h0A1.817,1.817,0,0,1,774.717,966.177Z" transform="translate(-758.127 -956.694)" fill="rgba(0,0,0,0.1)"/>
            <path id="Path_2494" data-name="Path 2494" d="M761.516,966.177h4.194a1.817,1.817,0,0,1,1.819,1.817h0a1.818,1.818,0,0,1-1.819,1.818h-4.194a1.818,1.818,0,0,1-1.817-1.818h0A1.817,1.817,0,0,1,761.516,966.177Z" transform="translate(-759.699 -956.694)" fill="rgba(0,0,0,0.1)"/>
          </g>
          <g id="Group_1468" data-name="Group 1468" transform="translate(742.138 904.391)">
            <path id="Path_2495" data-name="Path 2495" d="M713.98,885.521v-4.194a1.817,1.817,0,0,1,1.817-1.817h0a1.817,1.817,0,0,1,1.817,1.817v4.194a1.817,1.817,0,0,1-1.817,1.818h0A1.817,1.817,0,0,1,713.98,885.521Z" transform="translate(-704.496 -879.509)" fill="rgba(0,0,0,0.1)"/>
            <path id="Path_2496" data-name="Path 2496" d="M713.98,898.722v-4.194a1.817,1.817,0,0,1,1.817-1.817h0a1.817,1.817,0,0,1,1.817,1.817v4.194a1.818,1.818,0,0,1-1.817,1.819h0A1.818,1.818,0,0,1,713.98,898.722Z" transform="translate(-704.496 -877.937)" fill="rgba(0,0,0,0.1)"/>
            <path id="Path_2497" data-name="Path 2497" d="M720.523,887.984h4.2a1.817,1.817,0,0,1,1.817,1.817h0a1.817,1.817,0,0,1-1.817,1.818h-4.2a1.817,1.817,0,0,1-1.817-1.818h0A1.817,1.817,0,0,1,720.523,887.984Z" transform="translate(-703.933 -878.5)" fill="rgba(0,0,0,0.1)"/>
            <path id="Path_2498" data-name="Path 2498" d="M707.323,887.984h4.194a1.817,1.817,0,0,1,1.817,1.817h0a1.817,1.817,0,0,1-1.817,1.818h-4.194a1.818,1.818,0,0,1-1.818-1.818h0A1.818,1.818,0,0,1,707.323,887.984Z" transform="translate(-705.505 -878.5)" fill="rgba(0,0,0,0.1)"/>
          </g>
          <g id="Group_1491" data-name="Group 1491" transform="translate(505.803 781.711)">
            <path id="Path_2499" data-name="Path 2499" d="M695.792,974.9V970.7a1.819,1.819,0,0,1,1.818-1.818h0a1.818,1.818,0,0,1,1.817,1.818V974.9a1.817,1.817,0,0,1-1.817,1.817h0A1.818,1.818,0,0,1,695.792,974.9Z" transform="translate(-686.309 -968.883)" fill="rgba(0,0,0,0.1)"/>
            <path id="Path_2500" data-name="Path 2500" d="M695.792,988.1V983.9a1.818,1.818,0,0,1,1.818-1.818h0a1.818,1.818,0,0,1,1.817,1.818V988.1a1.817,1.817,0,0,1-1.817,1.817h0A1.818,1.818,0,0,1,695.792,988.1Z" transform="translate(-686.309 -967.311)" fill="rgba(0,0,0,0.1)"/>
            <path id="Path_2501" data-name="Path 2501" d="M702.336,977.358h4.194a1.817,1.817,0,0,1,1.818,1.818h0a1.817,1.817,0,0,1-1.818,1.817h-4.194a1.817,1.817,0,0,1-1.818-1.817h0A1.817,1.817,0,0,1,702.336,977.358Z" transform="translate(-685.746 -967.874)" fill="rgba(0,0,0,0.1)"/>
            <path id="Path_2502" data-name="Path 2502" d="M689.135,977.358h4.2a1.818,1.818,0,0,1,1.817,1.818h0a1.818,1.818,0,0,1-1.817,1.817h-4.2a1.817,1.817,0,0,1-1.817-1.817h0A1.817,1.817,0,0,1,689.135,977.358Z" transform="translate(-687.318 -967.874)" fill="rgba(0,0,0,0.1)"/>
          </g>
          <g id="Group_1471" data-name="Group 1471" transform="translate(495.054 1007.881)">
            <path id="Path_2507" data-name="Path 2507" d="M493.187,978V973.8A1.818,1.818,0,0,1,495,971.986h0a1.818,1.818,0,0,1,1.819,1.817V978A1.818,1.818,0,0,1,495,979.815h0A1.818,1.818,0,0,1,493.187,978Z" transform="translate(-483.704 -971.986)" fill="rgba(0,0,0,0.1)"/>
            <path id="Path_2508" data-name="Path 2508" d="M493.187,991.2V987A1.818,1.818,0,0,1,495,985.186h0A1.818,1.818,0,0,1,496.823,987v4.2A1.818,1.818,0,0,1,495,993.016h0A1.818,1.818,0,0,1,493.187,991.2Z" transform="translate(-483.704 -970.414)" fill="rgba(0,0,0,0.1)"/>
            <path id="Path_2509" data-name="Path 2509" d="M499.731,980.46h4.194a1.817,1.817,0,0,1,1.817,1.817h0a1.818,1.818,0,0,1-1.817,1.818h-4.194a1.818,1.818,0,0,1-1.817-1.818h0A1.817,1.817,0,0,1,499.731,980.46Z" transform="translate(-483.141 -970.977)" fill="rgba(0,0,0,0.1)"/>
            <path id="Path_2510" data-name="Path 2510" d="M486.53,980.46h4.194a1.818,1.818,0,0,1,1.818,1.817h0a1.819,1.819,0,0,1-1.818,1.818H486.53a1.818,1.818,0,0,1-1.817-1.818h0A1.817,1.817,0,0,1,486.53,980.46Z" transform="translate(-484.713 -970.977)" fill="rgba(0,0,0,0.1)"/>
          </g>
          <g id="Group_1472" data-name="Group 1472" transform="translate(453.83 907.764)">
            <path id="Path_2511" data-name="Path 2511" d="M468.861,888.536v-4.2a1.817,1.817,0,0,1,1.817-1.817h0a1.817,1.817,0,0,1,1.817,1.817v4.2a1.817,1.817,0,0,1-1.817,1.817h0A1.817,1.817,0,0,1,468.861,888.536Z" transform="translate(-459.377 -882.523)" fill="rgba(0,0,0,0.1)"/>
            <path id="Path_2512" data-name="Path 2512" d="M468.861,901.736v-4.194a1.817,1.817,0,0,1,1.817-1.817h0a1.817,1.817,0,0,1,1.817,1.817v4.194a1.818,1.818,0,0,1-1.817,1.818h0A1.818,1.818,0,0,1,468.861,901.736Z" transform="translate(-459.377 -880.951)" fill="rgba(0,0,0,0.1)"/>
            <path id="Path_2513" data-name="Path 2513" d="M475.4,891h4.2a1.817,1.817,0,0,1,1.817,1.817h0a1.817,1.817,0,0,1-1.817,1.817h-4.2a1.817,1.817,0,0,1-1.817-1.817h0A1.817,1.817,0,0,1,475.4,891Z" transform="translate(-458.814 -881.514)" fill="rgba(0,0,0,0.1)"/>
            <path id="Path_2514" data-name="Path 2514" d="M462.2,891H466.4a1.817,1.817,0,0,1,1.817,1.817h0a1.817,1.817,0,0,1-1.817,1.817H462.2a1.818,1.818,0,0,1-1.819-1.817h0A1.818,1.818,0,0,1,462.2,891Z" transform="translate(-460.386 -881.514)" fill="rgba(0,0,0,0.1)"/>
          </g>
          <g id="Group_1474" data-name="Group 1474" transform="translate(446.016 762.888)">
            <path id="Path_2516" data-name="Path 2516" d="M448.873,769.024a7.981,7.981,0,1,1,7.981-7.98A7.989,7.989,0,0,1,448.873,769.024Zm0-12.337a4.356,4.356,0,1,0,4.357,4.357A4.361,4.361,0,0,0,448.873,756.688Z" transform="translate(-440.893 -753.063)" fill="rgba(0,0,0,0.1)"/>
          </g>
          <g id="Group_1489" data-name="Group 1489" transform="translate(674.667 754.933)">
            <path id="Path_2517" data-name="Path 2517" d="M631.194,772.918a7.981,7.981,0,1,1,7.981-7.981A7.99,7.99,0,0,1,631.194,772.918Zm0-12.337a4.356,4.356,0,1,0,4.356,4.355A4.361,4.361,0,0,0,631.194,760.581Z" transform="translate(-623.213 -756.955)" fill="rgba(0,0,0,0.1)"/>
          </g>
          <g id="Group_1477" data-name="Group 1477" transform="translate(733.087 839.066)">
            <path id="Path_2519" data-name="Path 2519" d="M705.4,837.1a7.981,7.981,0,1,1,7.981-7.981A7.99,7.99,0,0,1,705.4,837.1Zm0-12.337a4.356,4.356,0,1,0,4.357,4.355A4.36,4.36,0,0,0,705.4,824.76Z" transform="translate(-697.417 -821.135)" fill="rgba(0,0,0,0.1)"/>
          </g>
          <g id="Group_1478" data-name="Group 1478" transform="translate(843.581 964.333)">
            <path id="Path_2520" data-name="Path 2520" d="M804.134,949.034a7.981,7.981,0,1,1,7.981-7.981A7.99,7.99,0,0,1,804.134,949.034Zm0-12.338a4.356,4.356,0,1,0,4.356,4.357A4.361,4.361,0,0,0,804.134,936.7Z" transform="translate(-796.153 -933.072)" fill="rgba(0,0,0,0.1)"/>
          </g>
          <g id="Group_1480" data-name="Group 1480" transform="translate(765.113 963.583)">
            <path id="Path_2522" data-name="Path 2522" d="M734.016,948.365A7.981,7.981,0,1,1,742,940.383,7.99,7.99,0,0,1,734.016,948.365Zm0-12.337a4.355,4.355,0,1,0,4.355,4.355A4.361,4.361,0,0,0,734.016,936.028Z" transform="translate(-726.035 -932.402)" fill="rgba(0,0,0,0.1)"/>
          </g>
          <g id="Group_1481" data-name="Group 1481" transform="translate(682.4 1048.008)">
            <path id="Path_2523" data-name="Path 2523" d="M660.1,1023.806a7.981,7.981,0,1,1,7.981-7.981A7.99,7.99,0,0,1,660.1,1023.806Zm0-12.337a4.356,4.356,0,1,0,4.357,4.355A4.36,4.36,0,0,0,660.1,1011.469Z" transform="translate(-652.123 -1007.843)" fill="rgba(0,0,0,0.1)"/>
          </g>
          <g id="Group_1483" data-name="Group 1483" transform="translate(487.073 956.21)">
            <path id="Path_2525" data-name="Path 2525" d="M485.562,941.776a7.981,7.981,0,1,1,7.98-7.98A7.989,7.989,0,0,1,485.562,941.776Zm0-12.337a4.356,4.356,0,1,0,4.355,4.357A4.362,4.362,0,0,0,485.562,929.439Z" transform="translate(-477.581 -925.814)" fill="rgba(0,0,0,0.1)"/>
          </g>
          <g id="Group_1484" data-name="Group 1484" transform="translate(493.859 859.185)">
            <path id="Path_2526" data-name="Path 2526" d="M491.625,855.076a7.981,7.981,0,1,1,7.981-7.981A7.99,7.99,0,0,1,491.625,855.076Zm0-12.337a4.356,4.356,0,1,0,4.357,4.355A4.36,4.36,0,0,0,491.625,842.739Z" transform="translate(-483.645 -839.113)" fill="rgba(0,0,0,0.1)"/>
          </g>
          <g id="Group_1485" data-name="Group 1485" transform="translate(397.872 957.918)">
            <path id="Path_2527" data-name="Path 2527" d="M405.853,943.3a7.981,7.981,0,1,1,7.981-7.981A7.99,7.99,0,0,1,405.853,943.3Zm0-12.337a4.356,4.356,0,1,0,4.355,4.355A4.361,4.361,0,0,0,405.853,930.965Z" transform="translate(-397.872 -927.34)" fill="rgba(0,0,0,0.1)"/>
          </g>
        </g>
      </g>
    </g>
  </g>
</svg>
