<svg xmlns="http://www.w3.org/2000/svg" xmlns:xlink="http://www.w3.org/1999/xlink" width="500" height="500" viewBox="0 0 500 500">
  <defs>
    <clipPath id="clip-path">
      <rect id="Rectangle_1216" data-name="Rectangle 1216" width="500" height="500" transform="translate(851 259)" fill="#fff" stroke="#707070" stroke-width="1"/>
    </clipPath>
    <filter id="Ellipse_125" x="-58.5" y="-62.5" width="618" height="618" filterUnits="userSpaceOnUse">
      <feOffset input="SourceAlpha"/>
      <feGaussianBlur stdDeviation="49.5" result="blur"/>
      <feFlood flood-opacity="0.051"/>
      <feComposite operator="in" in2="blur"/>
      <feComposite in="SourceGraphic"/>
    </filter>
    <clipPath id="clip-identity">
      <rect width="500" height="500"/>
    </clipPath>
  </defs>
  <g id="identity" clip-path="url(#clip-identity)">
    <g id="Mask_Group_16" data-name="Mask Group 16" transform="translate(-851 -259)" clip-path="url(#clip-path)">
      <g id="identity-2" data-name="identity" transform="translate(-4019 -951)">
        <g transform="matrix(1, 0, 0, 1, 4870, 1210)" filter="url(#Ellipse_125)">
          <circle id="Ellipse_125-2" data-name="Ellipse 125" cx="160.5" cy="160.5" r="160.5" transform="translate(90 86)" fill="#fff"/>
        </g>
        <g id="_3" data-name="3" transform="translate(4925.191 1056.937)">
          <g id="Group_1498" data-name="Group 1498" transform="translate(91.884 334.755)">
            <path id="Path_2591" data-name="Path 2591" d="M299.514,380.023h0l-.438-12.942H91.9l.275,12.3c-.064.627,0,10,.084,10.638v-10c.473,3.627,3.326,7.349,8.462,10.315l77.3,44.631c10.32,5.958,25.931,6.605,34.868,1.444l80.668-46.573C298.043,387.248,299.991,383.685,299.514,380.023Z" transform="translate(-91.873 -307.836)" fill="#b6d4e6"/>
            <path id="Path_2592" data-name="Path 2592" d="M293.258,404.445,212.59,451.018c-8.938,5.159-24.549,4.512-34.87-1.446l-77.3-44.629c-10.32-5.958-11.442-14.972-2.5-20.131l80.668-46.573c8.936-5.161,24.548-4.514,34.868,1.444l77.3,44.629C301.074,390.272,302.194,399.284,293.258,404.445Z" transform="translate(-91.884 -334.755)" fill="#0d6faa"/>
            <path id="Path_2593" data-name="Path 2593" d="M234.179,376.341c-10.491-3.03-27.5-6.35-38.157-.2l-5.374,3.1-6.486-2.865c.112-2.306-.969-4.628-3.27-6.624h0l-12.646-11.4c-.3-.29-.612-.576-.949-.854l-.249-.225-.022.013a20.574,20.574,0,0,0-2.575-1.77c-9.822-5.67-25.744-5.67-35.566,0s-9.822,14.863,0,20.534a26.6,26.6,0,0,0,2.956,1.44l-.022.013.4.147c.574.235,1.162.449,1.761.652l19.561,7.239h0a31.123,31.123,0,0,0,11.471,1.888l4.961,3.744-5.317,3.07c-10.681,6.167-4.95,16,.291,22.057,2.406,2.784,8.8,3.4,12.613,1.2L206.327,400.9l1.248-.722,28.669-16.551C240.053,381.423,239,377.732,234.179,376.341Z" transform="translate(-67.204 -321.002)" fill="#fff"/>
          </g>
        </g>
        <g id="Group_1594" data-name="Group 1594" transform="translate(4491.337 593.426)">
          <g id="Group_1462" data-name="Group 1462" transform="translate(616.875 670.558)">
            <path id="Path_2471" data-name="Path 2471" d="M523.045,813.57v-4.194a1.817,1.817,0,0,1,1.817-1.817h0a1.818,1.818,0,0,1,1.818,1.817v4.194a1.819,1.819,0,0,1-1.818,1.818h0A1.818,1.818,0,0,1,523.045,813.57Z" transform="translate(-513.562 -807.558)" fill="rgba(0,0,0,0.1)"/>
            <path id="Path_2472" data-name="Path 2472" d="M523.045,826.771v-4.194a1.818,1.818,0,0,1,1.817-1.818h0a1.819,1.819,0,0,1,1.818,1.818v4.194a1.818,1.818,0,0,1-1.818,1.817h0A1.817,1.817,0,0,1,523.045,826.771Z" transform="translate(-513.562 -805.986)" fill="rgba(0,0,0,0.1)"/>
            <path id="Path_2473" data-name="Path 2473" d="M529.589,816.032h4.194a1.817,1.817,0,0,1,1.817,1.817h0a1.817,1.817,0,0,1-1.817,1.818h-4.194a1.818,1.818,0,0,1-1.818-1.818h0A1.817,1.817,0,0,1,529.589,816.032Z" transform="translate(-512.999 -806.549)" fill="rgba(0,0,0,0.1)"/>
            <path id="Path_2474" data-name="Path 2474" d="M516.388,816.032h4.194a1.817,1.817,0,0,1,1.817,1.817h0a1.817,1.817,0,0,1-1.817,1.818h-4.194a1.817,1.817,0,0,1-1.817-1.818h0A1.817,1.817,0,0,1,516.388,816.032Z" transform="translate(-514.571 -806.549)" fill="rgba(0,0,0,0.1)"/>
          </g>
          <g id="Group_1490" data-name="Group 1490" transform="translate(587.834 755.336)">
            <path id="Path_2475" data-name="Path 2475" d="M572.095,772.328v-4.2a1.817,1.817,0,0,1,1.817-1.817h0a1.817,1.817,0,0,1,1.817,1.817v4.2a1.817,1.817,0,0,1-1.817,1.817h0A1.817,1.817,0,0,1,572.095,772.328Z" transform="translate(-562.611 -766.315)" fill="rgba(0,0,0,0.1)"/>
            <path id="Path_2476" data-name="Path 2476" d="M572.095,785.528v-4.194a1.817,1.817,0,0,1,1.817-1.817h0a1.817,1.817,0,0,1,1.817,1.817v4.194a1.817,1.817,0,0,1-1.817,1.817h0A1.817,1.817,0,0,1,572.095,785.528Z" transform="translate(-562.611 -764.743)" fill="rgba(0,0,0,0.1)"/>
            <path id="Path_2477" data-name="Path 2477" d="M578.638,774.789h4.194a1.818,1.818,0,0,1,1.818,1.818h0a1.818,1.818,0,0,1-1.818,1.817h-4.194a1.817,1.817,0,0,1-1.817-1.817h0A1.818,1.818,0,0,1,578.638,774.789Z" transform="translate(-562.048 -765.306)" fill="rgba(0,0,0,0.1)"/>
            <path id="Path_2478" data-name="Path 2478" d="M565.438,774.789h4.194a1.818,1.818,0,0,1,1.817,1.818h0a1.817,1.817,0,0,1-1.817,1.817h-4.194a1.818,1.818,0,0,1-1.819-1.817h0A1.818,1.818,0,0,1,565.438,774.789Z" transform="translate(-563.62 -765.306)" fill="rgba(0,0,0,0.1)"/>
          </g>
          <g id="Group_1464" data-name="Group 1464" transform="translate(741.57 699.57)">
            <path id="Path_2479" data-name="Path 2479" d="M684.472,699.5v-4.2a1.817,1.817,0,0,1,1.817-1.817h0a1.817,1.817,0,0,1,1.817,1.817v4.2a1.817,1.817,0,0,1-1.817,1.817h0A1.817,1.817,0,0,1,684.472,699.5Z" transform="translate(-674.988 -693.483)" fill="rgba(0,0,0,0.1)"/>
            <path id="Path_2480" data-name="Path 2480" d="M684.472,712.7V708.5a1.817,1.817,0,0,1,1.817-1.817h0a1.817,1.817,0,0,1,1.817,1.817V712.7a1.818,1.818,0,0,1-1.817,1.819h0A1.818,1.818,0,0,1,684.472,712.7Z" transform="translate(-674.988 -691.911)" fill="rgba(0,0,0,0.1)"/>
            <path id="Path_2481" data-name="Path 2481" d="M691.015,701.958h4.2a1.817,1.817,0,0,1,1.817,1.817h0a1.817,1.817,0,0,1-1.817,1.817h-4.2a1.817,1.817,0,0,1-1.817-1.817h0A1.817,1.817,0,0,1,691.015,701.958Z" transform="translate(-674.425 -692.474)" fill="rgba(0,0,0,0.1)"/>
            <path id="Path_2482" data-name="Path 2482" d="M677.815,701.958h4.194a1.817,1.817,0,0,1,1.817,1.817h0a1.817,1.817,0,0,1-1.817,1.817h-4.194A1.818,1.818,0,0,1,676,703.775h0A1.818,1.818,0,0,1,677.815,701.958Z" transform="translate(-675.997 -692.474)" fill="rgba(0,0,0,0.1)"/>
          </g>
          <g id="Group_1465" data-name="Group 1465" transform="translate(419.854 792.865)">
            <path id="Path_2483" data-name="Path 2483" d="M425.99,785.863v-4.2a1.817,1.817,0,0,1,1.817-1.817h0a1.817,1.817,0,0,1,1.817,1.817v4.2a1.817,1.817,0,0,1-1.817,1.817h0A1.817,1.817,0,0,1,425.99,785.863Z" transform="translate(-416.506 -779.85)" fill="rgba(0,0,0,0.1)"/>
            <path id="Path_2484" data-name="Path 2484" d="M425.99,799.063v-4.194a1.817,1.817,0,0,1,1.817-1.817h0a1.817,1.817,0,0,1,1.817,1.817v4.194a1.818,1.818,0,0,1-1.817,1.819h0A1.818,1.818,0,0,1,425.99,799.063Z" transform="translate(-416.506 -778.278)" fill="rgba(0,0,0,0.1)"/>
            <path id="Path_2485" data-name="Path 2485" d="M432.533,788.325h4.194a1.817,1.817,0,0,1,1.819,1.817h0a1.818,1.818,0,0,1-1.819,1.817h-4.194a1.817,1.817,0,0,1-1.817-1.817h0A1.817,1.817,0,0,1,432.533,788.325Z" transform="translate(-415.943 -778.841)" fill="rgba(0,0,0,0.1)"/>
            <path id="Path_2486" data-name="Path 2486" d="M419.332,788.325h4.2a1.817,1.817,0,0,1,1.817,1.817h0a1.817,1.817,0,0,1-1.817,1.817h-4.2a1.817,1.817,0,0,1-1.817-1.817h0A1.817,1.817,0,0,1,419.332,788.325Z" transform="translate(-417.515 -778.841)" fill="rgba(0,0,0,0.1)"/>
          </g>
          <g id="Group_1466" data-name="Group 1466" transform="translate(753.705 778.92)">
            <path id="Path_2487" data-name="Path 2487" d="M682.848,775.764v-4.194a1.818,1.818,0,0,1,1.817-1.819h0a1.818,1.818,0,0,1,1.817,1.819v4.194a1.817,1.817,0,0,1-1.817,1.817h0A1.817,1.817,0,0,1,682.848,775.764Z" transform="translate(-673.364 -769.751)" fill="rgba(0,0,0,0.1)"/>
            <path id="Path_2488" data-name="Path 2488" d="M682.848,788.965v-4.2a1.817,1.817,0,0,1,1.817-1.817h0a1.817,1.817,0,0,1,1.817,1.817v4.2a1.817,1.817,0,0,1-1.817,1.817h0A1.817,1.817,0,0,1,682.848,788.965Z" transform="translate(-673.364 -768.179)" fill="rgba(0,0,0,0.1)"/>
            <path id="Path_2489" data-name="Path 2489" d="M689.391,778.226h4.194a1.818,1.818,0,0,1,1.818,1.817h0a1.818,1.818,0,0,1-1.818,1.817h-4.194a1.817,1.817,0,0,1-1.817-1.817h0A1.817,1.817,0,0,1,689.391,778.226Z" transform="translate(-672.801 -768.742)" fill="rgba(0,0,0,0.1)"/>
            <path id="Path_2490" data-name="Path 2490" d="M676.19,778.226h4.2a1.817,1.817,0,0,1,1.817,1.817h0a1.817,1.817,0,0,1-1.817,1.817h-4.2a1.817,1.817,0,0,1-1.817-1.817h0A1.817,1.817,0,0,1,676.19,778.226Z" transform="translate(-674.373 -768.742)" fill="rgba(0,0,0,0.1)"/>
          </g>
          <g id="Group_1467" data-name="Group 1467" transform="translate(802.786 991.897)">
            <path id="Path_2491" data-name="Path 2491" d="M768.173,963.715V959.52a1.818,1.818,0,0,1,1.819-1.817h0a1.817,1.817,0,0,1,1.817,1.817v4.194a1.817,1.817,0,0,1-1.817,1.817h0A1.818,1.818,0,0,1,768.173,963.715Z" transform="translate(-758.69 -957.703)" fill="rgba(0,0,0,0.1)"/>
            <path id="Path_2492" data-name="Path 2492" d="M768.173,976.916v-4.194a1.819,1.819,0,0,1,1.819-1.819h0a1.818,1.818,0,0,1,1.817,1.819v4.194a1.817,1.817,0,0,1-1.817,1.818h0A1.818,1.818,0,0,1,768.173,976.916Z" transform="translate(-758.69 -956.131)" fill="rgba(0,0,0,0.1)"/>
            <path id="Path_2493" data-name="Path 2493" d="M774.717,966.177h4.194a1.817,1.817,0,0,1,1.818,1.817h0a1.818,1.818,0,0,1-1.818,1.818h-4.194a1.818,1.818,0,0,1-1.817-1.818h0A1.817,1.817,0,0,1,774.717,966.177Z" transform="translate(-758.127 -956.694)" fill="rgba(0,0,0,0.1)"/>
            <path id="Path_2494" data-name="Path 2494" d="M761.516,966.177h4.194a1.817,1.817,0,0,1,1.819,1.817h0a1.818,1.818,0,0,1-1.819,1.818h-4.194a1.818,1.818,0,0,1-1.817-1.818h0A1.817,1.817,0,0,1,761.516,966.177Z" transform="translate(-759.699 -956.694)" fill="rgba(0,0,0,0.1)"/>
          </g>
          <g id="Group_1468" data-name="Group 1468" transform="translate(742.138 904.391)">
            <path id="Path_2495" data-name="Path 2495" d="M713.98,885.521v-4.194a1.817,1.817,0,0,1,1.817-1.817h0a1.817,1.817,0,0,1,1.817,1.817v4.194a1.817,1.817,0,0,1-1.817,1.818h0A1.817,1.817,0,0,1,713.98,885.521Z" transform="translate(-704.496 -879.509)" fill="rgba(0,0,0,0.1)"/>
            <path id="Path_2496" data-name="Path 2496" d="M713.98,898.722v-4.194a1.817,1.817,0,0,1,1.817-1.817h0a1.817,1.817,0,0,1,1.817,1.817v4.194a1.818,1.818,0,0,1-1.817,1.819h0A1.818,1.818,0,0,1,713.98,898.722Z" transform="translate(-704.496 -877.937)" fill="rgba(0,0,0,0.1)"/>
            <path id="Path_2497" data-name="Path 2497" d="M720.523,887.984h4.2a1.817,1.817,0,0,1,1.817,1.817h0a1.817,1.817,0,0,1-1.817,1.818h-4.2a1.817,1.817,0,0,1-1.817-1.818h0A1.817,1.817,0,0,1,720.523,887.984Z" transform="translate(-703.933 -878.5)" fill="rgba(0,0,0,0.1)"/>
            <path id="Path_2498" data-name="Path 2498" d="M707.323,887.984h4.194a1.817,1.817,0,0,1,1.817,1.817h0a1.817,1.817,0,0,1-1.817,1.818h-4.194a1.818,1.818,0,0,1-1.818-1.818h0A1.818,1.818,0,0,1,707.323,887.984Z" transform="translate(-705.505 -878.5)" fill="rgba(0,0,0,0.1)"/>
          </g>
          <g id="Group_1491" data-name="Group 1491" transform="translate(505.803 781.711)">
            <path id="Path_2499" data-name="Path 2499" d="M695.792,974.9V970.7a1.819,1.819,0,0,1,1.818-1.818h0a1.818,1.818,0,0,1,1.817,1.818V974.9a1.817,1.817,0,0,1-1.817,1.817h0A1.818,1.818,0,0,1,695.792,974.9Z" transform="translate(-686.309 -968.883)" fill="rgba(0,0,0,0.1)"/>
            <path id="Path_2500" data-name="Path 2500" d="M695.792,988.1V983.9a1.818,1.818,0,0,1,1.818-1.818h0a1.818,1.818,0,0,1,1.817,1.818V988.1a1.817,1.817,0,0,1-1.817,1.817h0A1.818,1.818,0,0,1,695.792,988.1Z" transform="translate(-686.309 -967.311)" fill="rgba(0,0,0,0.1)"/>
            <path id="Path_2501" data-name="Path 2501" d="M702.336,977.358h4.194a1.817,1.817,0,0,1,1.818,1.818h0a1.817,1.817,0,0,1-1.818,1.817h-4.194a1.817,1.817,0,0,1-1.818-1.817h0A1.817,1.817,0,0,1,702.336,977.358Z" transform="translate(-685.746 -967.874)" fill="rgba(0,0,0,0.1)"/>
            <path id="Path_2502" data-name="Path 2502" d="M689.135,977.358h4.2a1.818,1.818,0,0,1,1.817,1.818h0a1.818,1.818,0,0,1-1.817,1.817h-4.2a1.817,1.817,0,0,1-1.817-1.817h0A1.817,1.817,0,0,1,689.135,977.358Z" transform="translate(-687.318 -967.874)" fill="rgba(0,0,0,0.1)"/>
          </g>
          <g id="Group_1471" data-name="Group 1471" transform="translate(495.054 1007.881)">
            <path id="Path_2507" data-name="Path 2507" d="M493.187,978V973.8A1.818,1.818,0,0,1,495,971.986h0a1.818,1.818,0,0,1,1.819,1.817V978A1.818,1.818,0,0,1,495,979.815h0A1.818,1.818,0,0,1,493.187,978Z" transform="translate(-483.704 -971.986)" fill="rgba(0,0,0,0.1)"/>
            <path id="Path_2508" data-name="Path 2508" d="M493.187,991.2V987A1.818,1.818,0,0,1,495,985.186h0A1.818,1.818,0,0,1,496.823,987v4.2A1.818,1.818,0,0,1,495,993.016h0A1.818,1.818,0,0,1,493.187,991.2Z" transform="translate(-483.704 -970.414)" fill="rgba(0,0,0,0.1)"/>
            <path id="Path_2509" data-name="Path 2509" d="M499.731,980.46h4.194a1.817,1.817,0,0,1,1.817,1.817h0a1.818,1.818,0,0,1-1.817,1.818h-4.194a1.818,1.818,0,0,1-1.817-1.818h0A1.817,1.817,0,0,1,499.731,980.46Z" transform="translate(-483.141 -970.977)" fill="rgba(0,0,0,0.1)"/>
            <path id="Path_2510" data-name="Path 2510" d="M486.53,980.46h4.194a1.818,1.818,0,0,1,1.818,1.817h0a1.819,1.819,0,0,1-1.818,1.818H486.53a1.818,1.818,0,0,1-1.817-1.818h0A1.817,1.817,0,0,1,486.53,980.46Z" transform="translate(-484.713 -970.977)" fill="rgba(0,0,0,0.1)"/>
          </g>
          <g id="Group_1472" data-name="Group 1472" transform="translate(453.83 907.764)">
            <path id="Path_2511" data-name="Path 2511" d="M468.861,888.536v-4.2a1.817,1.817,0,0,1,1.817-1.817h0a1.817,1.817,0,0,1,1.817,1.817v4.2a1.817,1.817,0,0,1-1.817,1.817h0A1.817,1.817,0,0,1,468.861,888.536Z" transform="translate(-459.377 -882.523)" fill="rgba(0,0,0,0.1)"/>
            <path id="Path_2512" data-name="Path 2512" d="M468.861,901.736v-4.194a1.817,1.817,0,0,1,1.817-1.817h0a1.817,1.817,0,0,1,1.817,1.817v4.194a1.818,1.818,0,0,1-1.817,1.818h0A1.818,1.818,0,0,1,468.861,901.736Z" transform="translate(-459.377 -880.951)" fill="rgba(0,0,0,0.1)"/>
            <path id="Path_2513" data-name="Path 2513" d="M475.4,891h4.2a1.817,1.817,0,0,1,1.817,1.817h0a1.817,1.817,0,0,1-1.817,1.817h-4.2a1.817,1.817,0,0,1-1.817-1.817h0A1.817,1.817,0,0,1,475.4,891Z" transform="translate(-458.814 -881.514)" fill="rgba(0,0,0,0.1)"/>
            <path id="Path_2514" data-name="Path 2514" d="M462.2,891H466.4a1.817,1.817,0,0,1,1.817,1.817h0a1.817,1.817,0,0,1-1.817,1.817H462.2a1.818,1.818,0,0,1-1.819-1.817h0A1.818,1.818,0,0,1,462.2,891Z" transform="translate(-460.386 -881.514)" fill="rgba(0,0,0,0.1)"/>
          </g>
          <g id="Group_1474" data-name="Group 1474" transform="translate(446.016 762.888)">
            <path id="Path_2516" data-name="Path 2516" d="M448.873,769.024a7.981,7.981,0,1,1,7.981-7.98A7.989,7.989,0,0,1,448.873,769.024Zm0-12.337a4.356,4.356,0,1,0,4.357,4.357A4.361,4.361,0,0,0,448.873,756.688Z" transform="translate(-440.893 -753.063)" fill="rgba(0,0,0,0.1)"/>
          </g>
          <g id="Group_1489" data-name="Group 1489" transform="translate(674.667 754.933)">
            <path id="Path_2517" data-name="Path 2517" d="M631.194,772.918a7.981,7.981,0,1,1,7.981-7.981A7.99,7.99,0,0,1,631.194,772.918Zm0-12.337a4.356,4.356,0,1,0,4.356,4.355A4.361,4.361,0,0,0,631.194,760.581Z" transform="translate(-623.213 -756.955)" fill="rgba(0,0,0,0.1)"/>
          </g>
          <g id="Group_1477" data-name="Group 1477" transform="translate(733.087 839.066)">
            <path id="Path_2519" data-name="Path 2519" d="M705.4,837.1a7.981,7.981,0,1,1,7.981-7.981A7.99,7.99,0,0,1,705.4,837.1Zm0-12.337a4.356,4.356,0,1,0,4.357,4.355A4.36,4.36,0,0,0,705.4,824.76Z" transform="translate(-697.417 -821.135)" fill="rgba(0,0,0,0.1)"/>
          </g>
          <g id="Group_1478" data-name="Group 1478" transform="translate(843.581 964.333)">
            <path id="Path_2520" data-name="Path 2520" d="M804.134,949.034a7.981,7.981,0,1,1,7.981-7.981A7.99,7.99,0,0,1,804.134,949.034Zm0-12.338a4.356,4.356,0,1,0,4.356,4.357A4.361,4.361,0,0,0,804.134,936.7Z" transform="translate(-796.153 -933.072)" fill="rgba(0,0,0,0.1)"/>
          </g>
          <g id="Group_1480" data-name="Group 1480" transform="translate(765.113 963.583)">
            <path id="Path_2522" data-name="Path 2522" d="M734.016,948.365A7.981,7.981,0,1,1,742,940.383,7.99,7.99,0,0,1,734.016,948.365Zm0-12.337a4.355,4.355,0,1,0,4.355,4.355A4.361,4.361,0,0,0,734.016,936.028Z" transform="translate(-726.035 -932.402)" fill="rgba(0,0,0,0.1)"/>
          </g>
          <g id="Group_1481" data-name="Group 1481" transform="translate(682.4 1048.008)">
            <path id="Path_2523" data-name="Path 2523" d="M660.1,1023.806a7.981,7.981,0,1,1,7.981-7.981A7.99,7.99,0,0,1,660.1,1023.806Zm0-12.337a4.356,4.356,0,1,0,4.357,4.355A4.36,4.36,0,0,0,660.1,1011.469Z" transform="translate(-652.123 -1007.843)" fill="rgba(0,0,0,0.1)"/>
          </g>
          <g id="Group_1483" data-name="Group 1483" transform="translate(487.073 956.21)">
            <path id="Path_2525" data-name="Path 2525" d="M485.562,941.776a7.981,7.981,0,1,1,7.98-7.98A7.989,7.989,0,0,1,485.562,941.776Zm0-12.337a4.356,4.356,0,1,0,4.355,4.357A4.362,4.362,0,0,0,485.562,929.439Z" transform="translate(-477.581 -925.814)" fill="rgba(0,0,0,0.1)"/>
          </g>
          <g id="Group_1484" data-name="Group 1484" transform="translate(493.859 859.185)">
            <path id="Path_2526" data-name="Path 2526" d="M491.625,855.076a7.981,7.981,0,1,1,7.981-7.981A7.99,7.99,0,0,1,491.625,855.076Zm0-12.337a4.356,4.356,0,1,0,4.357,4.355A4.36,4.36,0,0,0,491.625,842.739Z" transform="translate(-483.645 -839.113)" fill="rgba(0,0,0,0.1)"/>
          </g>
          <g id="Group_1485" data-name="Group 1485" transform="translate(397.872 957.918)">
            <path id="Path_2527" data-name="Path 2527" d="M405.853,943.3a7.981,7.981,0,1,1,7.981-7.981A7.99,7.99,0,0,1,405.853,943.3Zm0-12.337a4.356,4.356,0,1,0,4.355,4.355A4.361,4.361,0,0,0,405.853,930.965Z" transform="translate(-397.872 -927.34)" fill="rgba(0,0,0,0.1)"/>
          </g>
        </g>
      </g>
    </g>
  </g>
</svg>
