<svg xmlns="http://www.w3.org/2000/svg" width="1330" height="600" viewBox="0 0 1330 600">
  <g id="loginpage" transform="translate(-71 -25)">
    <g id="Rectangle_1485" data-name="Rectangle 1485" transform="translate(71 25)" fill="#fff" stroke="#dfe1e5" stroke-width="1">
      <rect width="1330" height="600" rx="10" stroke="none"/>
      <rect x="0.5" y="0.5" width="1329" height="599" rx="9.5" fill="none"/>
    </g>
    <g id="Group_3998" data-name="Group 3998">
      <path id="Rectangle_1719" data-name="Rectangle 1719" d="M0,0H1328a0,0,0,0,1,0,0V500a10,10,0,0,1-10,10H10A10,10,0,0,1,0,500V0A0,0,0,0,1,0,0Z" transform="translate(72 115)" fill="#f6f5f2"/>
      <path id="Rectangle_1720" data-name="Rectangle 1720" d="M0,0H400a0,0,0,0,1,0,0V509a0,0,0,0,1,0,0H10A10,10,0,0,1,0,499V0A0,0,0,0,1,0,0Z" transform="translate(72 115)" fill="#fff"/>
      <rect id="Rectangle_1730" data-name="Rectangle 1730" width="928" height="509" transform="translate(472 115)" fill="rgba(0,0,0,0.1)"/>
      <g id="Group_4002" data-name="Group 4002" transform="translate(144.938 21.504)">
        <path id="Path_28906" data-name="Path 28906" d="M52.142,236.22h8.09c4.011,0,6.273,2.708,6.273,6.033a8.884,8.884,0,0,1-8.879,8.673H54.508L53,259.393H48.063Zm6.033,10.524a3.576,3.576,0,0,0,3.291-3.839,2.123,2.123,0,0,0-2.16-2.4H56.325l-1.1,6.239Zm10.181,1.2c.72-4.148,3.531-6.925,7.884-6.925a12.765,12.765,0,0,1,3.188.446l-1.165,4.079a8.637,8.637,0,0,0-2.3-.377,2.957,2.957,0,0,0-2.811,2.777l-2.023,11.45h-4.8Zm27.095,1c.857-4.936,4.388-7.37,8.124-7.37a4.225,4.225,0,0,1,4.045,2.3,6.462,6.462,0,0,1,4.868-2.3c3.737,0,6.376,2.434,5.519,7.37l-1.919,11h-4.8l1.851-10.661c.411-2.365,0-3.565-1.405-3.565-1.44,0-2.3,1.44-2.777,4.148l-1.748,10.078h-4.8l1.748-10.078c.48-2.708.069-4.148-1.337-4.148s-2.228,1.2-2.64,3.565L98.3,259.952H93.5Zm26.121.206c.857-4.936,4.285-7.576,8.57-7.576,3.188,0,5.759,2.16,5.759,5.211,0,5.108-5.759,5.759-10.181,5.965l-.069.48c-.309,1.714.377,3.017,2.571,3.017a17.745,17.745,0,0,0,5.108-.994l.206,4.011a16.751,16.751,0,0,1-6.068,1.131c-4.833,0-7.3-3.12-6.479-7.953Zm9.53-1.885a1.514,1.514,0,0,0-1.68-1.543c-1.405,0-2.571.96-3.051,3.359l-.1.514C128.874,249.428,131.1,248.914,131.1,247.268Z" transform="translate(0 -7.531)" fill="#0d6faa"/>
        <path id="Path_28907" data-name="Path 28907" d="M448.4,238.7h5.69l2.743,23.173h-4.936l-.549-5.588H445l-2.468,5.588h-5.039Zm2.571,13.506-.411-4.388c-.1-1.1-.171-2.605-.171-4.079-.548,1.474-1.131,2.982-1.611,4.079l-1.954,4.388Zm11.655,16.9h-4.8l3.154-17.826c.857-4.9,4.045-7.782,8.741-7.782,3.942,0,6.788,2.88,5.965,7.782L475.1,254.6c-.925,5.245-3.805,7.713-8.467,7.713a8.878,8.878,0,0,1-2.708-.583Zm4.525-10.935c1.44,0,2.708-.96,3.154-3.565l.583-3.325c.411-2.365-.377-3.634-1.817-3.634-1.508,0-2.88,1.268-3.291,3.634l-1.1,6.239A5.63,5.63,0,0,0,467.146,258.168Zm13.4,10.935h-4.8l3.154-17.826c.857-4.9,4.045-7.782,8.741-7.782,3.942,0,6.787,2.88,5.965,7.782l-.583,3.325c-.926,5.245-3.805,7.713-8.467,7.713a8.881,8.881,0,0,1-2.708-.583Zm4.525-10.935c1.44,0,2.708-.96,3.154-3.565l.583-3.325c.411-2.365-.377-3.634-1.817-3.634-1.508,0-2.879,1.268-3.291,3.634l-1.1,6.239A5.629,5.629,0,0,0,485.074,258.168Zm10.627-.857a12.126,12.126,0,0,0,4.456.857c1.337,0,2.4-.686,2.4-1.611,0-2.16-5.931-1.748-5.931-6.479,0-3.736,2.708-6.582,7.2-6.582a12.281,12.281,0,0,1,4.594.857l-1.337,4.011a10.914,10.914,0,0,0-3.668-.72c-1.371,0-1.851.72-1.851,1.44,0,2.125,5.9,1.954,5.9,6.753,0,3.223-2.228,6.479-7.679,6.479a14.512,14.512,0,0,1-5.382-1.1Z" transform="translate(-301.592 -9.449)" fill="#25346e"/>
        <path id="Path_28908" data-name="Path 28908" d="M177.7,254.035s.314-18.757,10.165-23.473c1.362,2.515,4.715,10.793-4.087,25.254C180.528,254.768,177.7,254.035,177.7,254.035Zm.866-7.583s-6.42-.066-4.324,10.622a46.034,46.034,0,0,0,3.477-3.567Zm6.574,13.556s7.634-7.175,2.14-11.028l-3.5,6.836Z" transform="translate(-97.392 -3.149)" fill="#fcad2d"/>
        <path id="Path_28909" data-name="Path 28909" d="M186.074,227.08l-.316-.584-.6.287a14.308,14.308,0,0,0-6.045,5.935,30.579,30.579,0,0,0-3.107,8.032c-.161.649-.3,1.288-.43,1.91a5.3,5.3,0,0,0-3.224,1.852c-1.65,1.984-2.053,5.2-1.2,9.548l.227,1.157.906-.755a36.221,36.221,0,0,0,2.876-2.889c.341.09,2.815.745,5.659,1.651l1.592,4.9.8-.754a19.411,19.411,0,0,0,2.247-2.62c1.507-2.111,2.209-4.037,2.088-5.726a4.778,4.778,0,0,0-1.83-3.421,29.125,29.125,0,0,0,2.207-10.024A16.9,16.9,0,0,0,186.074,227.08ZM172.31,252.538a14.461,14.461,0,0,1-.064-4.268,5.876,5.876,0,0,1,1.163-2.844,3.9,3.9,0,0,1,1.89-1.272,51.579,51.579,0,0,0-.671,5.924C174.242,250.51,173.225,251.635,172.31,252.538Zm13.846-3.419c.067.929-.194,2.515-1.817,4.8a18.607,18.607,0,0,1-1.3,1.618l-.9-2.781a50.726,50.726,0,0,0,3.015-5.783A3.292,3.292,0,0,1,186.156,249.119Zm-1.912-3.585-3.222,6.288c-2.169-.686-4.1-1.222-5-1.466l.833-6.934c.145-.756.313-1.539.511-2.336a29.188,29.188,0,0,1,2.957-7.663,13.386,13.386,0,0,1,4.836-5.063,15.971,15.971,0,0,1,1.375,7.186A28.11,28.11,0,0,1,184.243,245.534Z" transform="translate(-94.989)" fill="#f06933"/>
        <path id="Path_28910" data-name="Path 28910" d="M205.435,259.023l-3.919,12.556-3.3-1.03,3.918-12.556a1.728,1.728,0,1,1,3.3,1.03Zm-.449-6.752a1.886,1.886,0,1,0,1.886,1.886A1.886,1.886,0,0,0,204.986,252.271Z" transform="translate(-116.286 -19.961)" fill="#e89728"/>
        <path id="Path_28911" data-name="Path 28911" d="M206.257,261.209l-3.7,11.855-2.444-.763,3.7-11.855a1.318,1.318,0,1,1,2.444.763Zm.2-6.848a1.415,1.415,0,1,0,1.414,1.415A1.415,1.415,0,0,0,206.454,254.361Z" transform="translate(-117.754 -21.58)" fill="#0d6faa"/>
      </g>
    </g>
    <circle id="Ellipse_636" data-name="Ellipse 636" cx="2.071" cy="2.071" r="2.071" transform="translate(1359.14 85.058)" fill="#f7f9fb"/>
    <circle id="Ellipse_637" data-name="Ellipse 637" cx="2.071" cy="2.071" r="2.071" transform="translate(1359.14 90.235)" fill="#f7f9fb"/>
    <circle id="Ellipse_638" data-name="Ellipse 638" cx="2.071" cy="2.071" r="2.071" transform="translate(1359.14 95.413)" fill="#f7f9fb"/>
    <path id="Rectangle_1483" data-name="Rectangle 1483" d="M10,0H1320a10,10,0,0,1,10,10V70a0,0,0,0,1,0,0H0a0,0,0,0,1,0,0V10A10,10,0,0,1,10,0Z" transform="translate(71 25)" fill="#dfe1e5"/>
    <path id="Path_1467" data-name="Path 1467" d="M-8619.936-1006.309l114.524-.175s2.874.022,4.288-1.152,1.371-3.546,1.371-3.546-.048-23.273,0-24.932,1.813-3.894,5.43-3.889c34.493.055,234.563.372,237.2.359,2.885-.015,6.058,2.077,6.033,5.5-.051,7.443-.122,21.064.044,22.358.229,1.817.371,2.985,1.625,4.052a9.534,9.534,0,0,0,2.233,1.412,8.074,8.074,0,0,0,2.1.48l953.149-.114v35.916l-1328,.034Z" transform="translate(8691.936 1071.002)" fill="#fff"/>
    <rect id="Rectangle_1718" data-name="Rectangle 1718" width="1170" height="30" rx="15" transform="translate(195 75)" fill="#f1f3f4"/>
    <g id="Refresh" transform="translate(162.122 81.881)">
      <path id="path" d="M12.284,4a8.284,8.284,0,1,0,0,16.568,9,9,0,0,0,8.284-6.213H18.5A7.193,7.193,0,0,1,12.284,18.5a6.213,6.213,0,1,1,0-12.426,4.833,4.833,0,0,1,4.142,2.071l-3.106,3.106h7.248V4L18.5,6.071A13.049,13.049,0,0,0,12.284,4Z" transform="translate(-4 -4)" fill-rule="evenodd" opacity="0.54"/>
    </g>
    <g id="Previous" transform="translate(87.568 81.881)">
      <path id="path-2" data-name="path" d="M20.568,11.248H7.935l5.8-5.8L12.284,4,4,12.284l8.284,8.284,1.45-1.45-5.8-5.8H20.568V11.248Z" transform="translate(-4 -4)" fill="#babcbe" fill-rule="evenodd"/>
    </g>
    <g id="Next" transform="translate(122.774 81.881)">
      <path id="path-3" data-name="path" d="M12.284,4l-1.45,1.45,5.8,5.8H4v2.071H16.633l-5.8,5.8,1.45,1.45,8.284-8.284Z" transform="translate(-4 -4)" fill="#babcbe" fill-rule="evenodd"/>
    </g>
    <text id="https:_myapp.app.primeapps.io_login" data-name="https://myapp.app.primeapps.io/login" transform="translate(235.642 93.543)" fill="#767e81" font-size="10" font-family="Roboto-Regular, Roboto"><tspan x="0" y="0">https://</tspan><tspan y="0" fill="#3c4041" font-family="Roboto-Medium, Roboto" font-weight="500">myapp.app.primeapps.io</tspan><tspan y="0">/login</tspan></text>
    <g id="Favorite" transform="translate(1332.039 77.845)">
      <path id="ic_star_border_24px" d="M20.53,8.708l-6.661-.574L11.265,2l-2.6,6.143L2,8.708,7.059,13.09,5.539,19.6l5.726-3.456L16.991,19.6,15.48,13.09Zm-9.265,5.707-3.484,2.1.926-3.965L5.632,9.884,9.69,9.532,11.265,5.8l1.584,3.743,4.058.352-3.076,2.668.926,3.965Z" transform="translate(-2)" fill="#d9dce2"/>
    </g>
    <path id="lock_24px" d="M11.939,4.969h-.567V3.835a2.835,2.835,0,1,0-5.67,0V4.969H5.134A1.137,1.137,0,0,0,4,6.1v5.671a1.137,1.137,0,0,0,1.134,1.134h6.8a1.137,1.137,0,0,0,1.134-1.134V6.1A1.137,1.137,0,0,0,11.939,4.969Zm-1.644,0H6.779V3.835a1.758,1.758,0,1,1,3.516,0Z" transform="translate(209.897 81.747)" fill="#767e81"/>
    <g id="Close" transform="translate(87.568 41.424)">
      <g id="Ellipse_639" data-name="Ellipse 639" fill="#ff6058" stroke="#ed4f47" stroke-width="1">
        <circle cx="6.731" cy="6.731" r="6.731" stroke="none"/>
        <circle cx="6.731" cy="6.731" r="6.231" fill="none"/>
      </g>
    </g>
    <g id="Minimize" transform="translate(119.386 41.424)">
      <g id="Ellipse_640" data-name="Ellipse 640" fill="#ffbd2e" stroke="#f7b528" stroke-width="1">
        <circle cx="6.731" cy="6.731" r="6.731" stroke="none"/>
        <circle cx="6.731" cy="6.731" r="6.231" fill="none"/>
      </g>
    </g>
    <g id="Expand" transform="translate(150.168 41.424)">
      <g id="Ellipse_641" data-name="Ellipse 641" fill="#27c940" stroke="#1abf33" stroke-width="1">
        <circle cx="6.731" cy="6.731" r="6.731" stroke="none"/>
        <circle cx="6.731" cy="6.731" r="6.231" fill="none"/>
      </g>
    </g>
    <text id="My_App" data-name="My App" transform="translate(228.115 51.747)" fill="#5e6365" font-size="12" font-family="Roboto-Medium, Roboto" font-weight="500"><tspan x="0" y="0">My App</tspan></text>
    <g id="Group_3996" data-name="Group 3996" transform="translate(207.119 39.722)">
      <path id="Path_1307" data-name="Path 1307" d="M62.433,17.369s.205-12.33,6.682-15.429c.9,1.653,3.1,7.1-2.687,16.6C64.292,17.851,62.433,17.369,62.433,17.369ZM63,12.384s-4.219-.044-2.843,6.981a30.413,30.413,0,0,0,2.285-2.345ZM67.324,21.3s5.019-4.717,1.407-7.249l-2.3,4.493Z" transform="translate(-59.422 -1.336)" fill="#fcad2d"/>
      <path id="Path_1308" data-name="Path 1308" d="M68.5.383,68.291,0l-.4.19a9.409,9.409,0,0,0-3.973,3.9A20.116,20.116,0,0,0,61.88,9.372c-.106.427-.2.847-.283,1.255a3.472,3.472,0,0,0-2.12,1.217c-1.084,1.3-1.348,3.416-.788,6.277l.149.76.595-.5a23.661,23.661,0,0,0,1.89-1.9c.224.059,1.85.489,3.721,1.087l1.046,3.22.526-.5a12.738,12.738,0,0,0,1.476-1.722,5.986,5.986,0,0,0,1.373-3.765,3.144,3.144,0,0,0-1.2-2.248,19.153,19.153,0,0,0,1.451-6.589A11.111,11.111,0,0,0,68.5.383ZM59.451,17.119a9.618,9.618,0,0,1-.044-2.805,3.849,3.849,0,0,1,.766-1.868,2.591,2.591,0,0,1,1.242-.838,34.231,34.231,0,0,0-.442,3.9C60.718,15.787,60.052,16.525,59.451,17.119Zm9.1-2.248a5,5,0,0,1-1.2,3.151,12.3,12.3,0,0,1-.853,1.065l-.595-1.828a33.063,33.063,0,0,0,1.98-3.8A2.167,2.167,0,0,1,68.552,14.871Zm-1.258-2.357-2.117,4.132c-1.426-.451-2.693-.8-3.288-.965l.548-4.559c.1-.5.206-1.012.336-1.535a19.2,19.2,0,0,1,1.943-5.038A8.831,8.831,0,0,1,67.9,1.221a10.516,10.516,0,0,1,.9,4.724A18.538,18.538,0,0,1,67.294,12.514Z" transform="translate(-58.402)" fill="#f06933"/>
      <path id="Path_1309" data-name="Path 1309" d="M76.245,16.71,73.67,24.965l-2.17-.676,2.575-8.255a1.136,1.136,0,1,1,2.17.676Zm-.3-4.44a1.239,1.239,0,1,0,1.239,1.239A1.239,1.239,0,0,0,75.949,12.27Z" transform="translate(-67.422 -8.449)" fill="#e89728"/>
      <path id="Path_1310" data-name="Path 1310" d="M76.439,17.772l-2.432,7.794-1.607-.5,2.432-7.794a.866.866,0,1,1,1.607.5Zm.131-4.5a.931.931,0,1,0,.931.931A.932.932,0,0,0,76.569,13.27Z" transform="translate(-68.042 -9.138)" fill="#0d6faa"/>
    </g>
    <rect id="Rectangle_1724" data-name="Rectangle 1724" width="1328" height="1" transform="translate(72 115)" fill="rgba(0,0,0,0.05)"/>
    <rect id="Rectangle_1725" data-name="Rectangle 1725" width="250" height="5" rx="2.5" transform="translate(144 302)" fill="rgba(0,0,0,0.1)"/>
    <rect id="Rectangle_1731" data-name="Rectangle 1731" width="150" height="5" rx="2.5" transform="translate(194 315)" fill="rgba(0,0,0,0.1)"/>
    <rect id="Rectangle_1732" data-name="Rectangle 1732" width="250" height="30" rx="15" transform="translate(144 338)" fill="rgba(0,0,0,0.1)"/>
    <rect id="Rectangle_1733" data-name="Rectangle 1733" width="250" height="30" rx="15" transform="translate(144 376)" fill="rgba(0,0,0,0.1)"/>
    <rect id="Rectangle_1734" data-name="Rectangle 1734" width="100" height="25" rx="12.5" transform="translate(144 414)" fill="#0d6faa"/>
    <rect id="Rectangle_1735" data-name="Rectangle 1735" width="776" height="5" rx="2.5" transform="translate(556 561)" fill="rgba(0,0,0,0.1)"/>
    <rect id="Rectangle_1736" data-name="Rectangle 1736" width="776" height="5" rx="2.5" transform="translate(556 571)" fill="rgba(0,0,0,0.1)"/>
    <rect id="Rectangle_1737" data-name="Rectangle 1737" width="500" height="5" rx="2.5" transform="translate(694 581)" fill="rgba(0,0,0,0.1)"/>
    <g id="Group_4008" data-name="Group 4008" transform="translate(-7.123 -120.57)">
      <path id="Path_29143" data-name="Path 29143" d="M43.062,0A9.583,9.583,0,0,0,50.1-2.9,9.583,9.583,0,0,0,53-9.937V-69.562A9.583,9.583,0,0,0,50.1-76.6a9.583,9.583,0,0,0-7.039-2.9H-43.063A9.583,9.583,0,0,0-50.1-76.6,9.583,9.583,0,0,0-53-69.562V-9.937A9.583,9.583,0,0,0-50.1-2.9,9.583,9.583,0,0,0-43.063,0ZM-29.813-67.906a11.157,11.157,0,0,1,8.178,3.416,11.157,11.157,0,0,1,3.416,8.178,11.157,11.157,0,0,1-3.416,8.178,11.157,11.157,0,0,1-8.178,3.416,11.157,11.157,0,0,1-8.178-3.416,11.157,11.157,0,0,1-3.416-8.178A11.157,11.157,0,0,1-37.99-64.49,11.157,11.157,0,0,1-29.813-67.906ZM-39.75-13.25v-9.937l14.906-14.906a2.238,2.238,0,0,1,1.656-.621,2.238,2.238,0,0,1,1.656.621L-9.938-26.5,18.219-54.656a2.238,2.238,0,0,1,1.656-.621,2.238,2.238,0,0,1,1.656.621L39.75-36.437V-13.25Z" transform="translate(933.123 511.57)" fill="rgba(0,0,0,0.05)"/>
      <line id="Line_129" data-name="Line 129" x2="731.678" y2="338.14" transform="translate(574.068 302.5)" fill="none" stroke="rgba(0,0,0,0.1)" stroke-width="1"/>
      <line id="Line_130" data-name="Line 130" x1="733.246" y2="338.14" transform="translate(572.5 302.5)" fill="none" stroke="rgba(0,0,0,0.1)" stroke-width="1"/>
    </g>
    <g id="More" transform="translate(-673.756 -132.457)">
      <path id="path-4" data-name="path" d="M5.854,7.709A1.854,1.854,0,1,0,4,5.854,1.86,1.86,0,0,0,5.854,7.709Zm0,1.854a1.854,1.854,0,1,0,1.854,1.854A1.86,1.86,0,0,0,5.854,9.563Zm0,5.563A1.854,1.854,0,1,0,7.709,16.98a1.86,1.86,0,0,0-1.854-1.854Z" transform="translate(2050.76 211.107)" fill-rule="evenodd" opacity="0.54"/>
    </g>
  </g>
</svg>
