<svg xmlns="http://www.w3.org/2000/svg" xmlns:xlink="http://www.w3.org/1999/xlink" width="500" height="500" viewBox="0 0 500 500">
  <defs>
    <clipPath id="clip-path">
      <rect id="Rectangle_1217" data-name="Rectangle 1217" width="500" height="500" transform="translate(851 259)" fill="#fff" stroke="#707070" stroke-width="1"/>
    </clipPath>
    <filter id="Ellipse_126" x="-58.5" y="-62.5" width="618" height="618" filterUnits="userSpaceOnUse">
      <feOffset input="SourceAlpha"/>
      <feGaussianBlur stdDeviation="49.5" result="blur"/>
      <feFlood flood-opacity="0.051"/>
      <feComposite operator="in" in2="blur"/>
      <feComposite in="SourceGraphic"/>
    </filter>
    <clipPath id="clip-security">
      <rect width="500" height="500"/>
    </clipPath>
  </defs>
  <g id="security" clip-path="url(#clip-security)">
    <g id="Mask_Group_17" data-name="Mask Group 17" transform="translate(-851 -259)" clip-path="url(#clip-path)">
      <g id="identity" transform="translate(-4019 -951)">
        <g transform="matrix(1, 0, 0, 1, 4870, 1210)" filter="url(#Ellipse_126)">
          <circle id="Ellipse_126-2" data-name="Ellipse 126" cx="160.5" cy="160.5" r="160.5" transform="translate(90 86)" fill="#fff"/>
        </g>
        <g id="Group_1658" data-name="Group 1658" transform="translate(4491.337 593.426)">
          <g id="Group_1639" data-name="Group 1639" transform="translate(616.875 670.558)">
            <path id="Path_2648" data-name="Path 2648" d="M523.045,813.57v-4.194a1.817,1.817,0,0,1,1.817-1.817h0a1.818,1.818,0,0,1,1.818,1.817v4.194a1.819,1.819,0,0,1-1.818,1.818h0A1.818,1.818,0,0,1,523.045,813.57Z" transform="translate(-513.562 -807.558)" fill="rgba(0,0,0,0.1)"/>
            <path id="Path_2649" data-name="Path 2649" d="M523.045,826.771v-4.194a1.818,1.818,0,0,1,1.817-1.818h0a1.819,1.819,0,0,1,1.818,1.818v4.194a1.818,1.818,0,0,1-1.818,1.817h0A1.817,1.817,0,0,1,523.045,826.771Z" transform="translate(-513.562 -805.986)" fill="rgba(0,0,0,0.1)"/>
            <path id="Path_2650" data-name="Path 2650" d="M529.589,816.032h4.194a1.817,1.817,0,0,1,1.817,1.817h0a1.817,1.817,0,0,1-1.817,1.818h-4.194a1.818,1.818,0,0,1-1.818-1.818h0A1.817,1.817,0,0,1,529.589,816.032Z" transform="translate(-512.999 -806.549)" fill="rgba(0,0,0,0.1)"/>
            <path id="Path_2651" data-name="Path 2651" d="M516.388,816.032h4.194a1.817,1.817,0,0,1,1.817,1.817h0a1.817,1.817,0,0,1-1.817,1.818h-4.194a1.817,1.817,0,0,1-1.817-1.818h0A1.817,1.817,0,0,1,516.388,816.032Z" transform="translate(-514.571 -806.549)" fill="rgba(0,0,0,0.1)"/>
          </g>
          <g id="Group_1640" data-name="Group 1640" transform="translate(587.834 755.336)">
            <path id="Path_2652" data-name="Path 2652" d="M572.095,772.328v-4.2a1.817,1.817,0,0,1,1.817-1.817h0a1.817,1.817,0,0,1,1.817,1.817v4.2a1.817,1.817,0,0,1-1.817,1.817h0A1.817,1.817,0,0,1,572.095,772.328Z" transform="translate(-562.611 -766.315)" fill="rgba(0,0,0,0.1)"/>
            <path id="Path_2653" data-name="Path 2653" d="M572.095,785.528v-4.194a1.817,1.817,0,0,1,1.817-1.817h0a1.817,1.817,0,0,1,1.817,1.817v4.194a1.817,1.817,0,0,1-1.817,1.817h0A1.817,1.817,0,0,1,572.095,785.528Z" transform="translate(-562.611 -764.743)" fill="rgba(0,0,0,0.1)"/>
            <path id="Path_2654" data-name="Path 2654" d="M578.638,774.789h4.194a1.818,1.818,0,0,1,1.818,1.818h0a1.818,1.818,0,0,1-1.818,1.817h-4.194a1.817,1.817,0,0,1-1.817-1.817h0A1.818,1.818,0,0,1,578.638,774.789Z" transform="translate(-562.048 -765.306)" fill="rgba(0,0,0,0.1)"/>
            <path id="Path_2655" data-name="Path 2655" d="M565.438,774.789h4.194a1.818,1.818,0,0,1,1.817,1.818h0a1.817,1.817,0,0,1-1.817,1.817h-4.194a1.818,1.818,0,0,1-1.819-1.817h0A1.818,1.818,0,0,1,565.438,774.789Z" transform="translate(-563.62 -765.306)" fill="rgba(0,0,0,0.1)"/>
          </g>
          <g id="Group_1641" data-name="Group 1641" transform="translate(741.57 699.57)">
            <path id="Path_2656" data-name="Path 2656" d="M684.472,699.5v-4.2a1.817,1.817,0,0,1,1.817-1.817h0a1.817,1.817,0,0,1,1.817,1.817v4.2a1.817,1.817,0,0,1-1.817,1.817h0A1.817,1.817,0,0,1,684.472,699.5Z" transform="translate(-674.988 -693.483)" fill="rgba(0,0,0,0.1)"/>
            <path id="Path_2657" data-name="Path 2657" d="M684.472,712.7V708.5a1.817,1.817,0,0,1,1.817-1.817h0a1.817,1.817,0,0,1,1.817,1.817V712.7a1.818,1.818,0,0,1-1.817,1.819h0A1.818,1.818,0,0,1,684.472,712.7Z" transform="translate(-674.988 -691.911)" fill="rgba(0,0,0,0.1)"/>
            <path id="Path_2658" data-name="Path 2658" d="M691.015,701.958h4.2a1.817,1.817,0,0,1,1.817,1.817h0a1.817,1.817,0,0,1-1.817,1.817h-4.2a1.817,1.817,0,0,1-1.817-1.817h0A1.817,1.817,0,0,1,691.015,701.958Z" transform="translate(-674.425 -692.474)" fill="rgba(0,0,0,0.1)"/>
            <path id="Path_2659" data-name="Path 2659" d="M677.815,701.958h4.194a1.817,1.817,0,0,1,1.817,1.817h0a1.817,1.817,0,0,1-1.817,1.817h-4.194A1.818,1.818,0,0,1,676,703.775h0A1.818,1.818,0,0,1,677.815,701.958Z" transform="translate(-675.997 -692.474)" fill="rgba(0,0,0,0.1)"/>
          </g>
          <g id="Group_1642" data-name="Group 1642" transform="translate(419.854 792.865)">
            <path id="Path_2660" data-name="Path 2660" d="M425.99,785.863v-4.2a1.817,1.817,0,0,1,1.817-1.817h0a1.817,1.817,0,0,1,1.817,1.817v4.2a1.817,1.817,0,0,1-1.817,1.817h0A1.817,1.817,0,0,1,425.99,785.863Z" transform="translate(-416.506 -779.85)" fill="rgba(0,0,0,0.1)"/>
            <path id="Path_2661" data-name="Path 2661" d="M425.99,799.063v-4.194a1.817,1.817,0,0,1,1.817-1.817h0a1.817,1.817,0,0,1,1.817,1.817v4.194a1.818,1.818,0,0,1-1.817,1.819h0A1.818,1.818,0,0,1,425.99,799.063Z" transform="translate(-416.506 -778.278)" fill="rgba(0,0,0,0.1)"/>
            <path id="Path_2662" data-name="Path 2662" d="M432.533,788.325h4.194a1.817,1.817,0,0,1,1.819,1.817h0a1.818,1.818,0,0,1-1.819,1.817h-4.194a1.817,1.817,0,0,1-1.817-1.817h0A1.817,1.817,0,0,1,432.533,788.325Z" transform="translate(-415.943 -778.841)" fill="rgba(0,0,0,0.1)"/>
            <path id="Path_2663" data-name="Path 2663" d="M419.332,788.325h4.2a1.817,1.817,0,0,1,1.817,1.817h0a1.817,1.817,0,0,1-1.817,1.817h-4.2a1.817,1.817,0,0,1-1.817-1.817h0A1.817,1.817,0,0,1,419.332,788.325Z" transform="translate(-417.515 -778.841)" fill="rgba(0,0,0,0.1)"/>
          </g>
          <g id="Group_1643" data-name="Group 1643" transform="translate(753.705 778.92)">
            <path id="Path_2664" data-name="Path 2664" d="M682.848,775.764v-4.194a1.818,1.818,0,0,1,1.817-1.819h0a1.818,1.818,0,0,1,1.817,1.819v4.194a1.817,1.817,0,0,1-1.817,1.817h0A1.817,1.817,0,0,1,682.848,775.764Z" transform="translate(-673.364 -769.751)" fill="rgba(0,0,0,0.1)"/>
            <path id="Path_2665" data-name="Path 2665" d="M682.848,788.965v-4.2a1.817,1.817,0,0,1,1.817-1.817h0a1.817,1.817,0,0,1,1.817,1.817v4.2a1.817,1.817,0,0,1-1.817,1.817h0A1.817,1.817,0,0,1,682.848,788.965Z" transform="translate(-673.364 -768.179)" fill="rgba(0,0,0,0.1)"/>
            <path id="Path_2666" data-name="Path 2666" d="M689.391,778.226h4.194a1.818,1.818,0,0,1,1.818,1.817h0a1.818,1.818,0,0,1-1.818,1.817h-4.194a1.817,1.817,0,0,1-1.817-1.817h0A1.817,1.817,0,0,1,689.391,778.226Z" transform="translate(-672.801 -768.742)" fill="rgba(0,0,0,0.1)"/>
            <path id="Path_2667" data-name="Path 2667" d="M676.19,778.226h4.2a1.817,1.817,0,0,1,1.817,1.817h0a1.817,1.817,0,0,1-1.817,1.817h-4.2a1.817,1.817,0,0,1-1.817-1.817h0A1.817,1.817,0,0,1,676.19,778.226Z" transform="translate(-674.373 -768.742)" fill="rgba(0,0,0,0.1)"/>
          </g>
          <g id="Group_1644" data-name="Group 1644" transform="translate(802.786 991.897)">
            <path id="Path_2668" data-name="Path 2668" d="M768.173,963.715V959.52a1.818,1.818,0,0,1,1.819-1.817h0a1.817,1.817,0,0,1,1.817,1.817v4.194a1.817,1.817,0,0,1-1.817,1.817h0A1.818,1.818,0,0,1,768.173,963.715Z" transform="translate(-758.69 -957.703)" fill="rgba(0,0,0,0.1)"/>
            <path id="Path_2669" data-name="Path 2669" d="M768.173,976.916v-4.194a1.819,1.819,0,0,1,1.819-1.819h0a1.818,1.818,0,0,1,1.817,1.819v4.194a1.817,1.817,0,0,1-1.817,1.818h0A1.818,1.818,0,0,1,768.173,976.916Z" transform="translate(-758.69 -956.131)" fill="rgba(0,0,0,0.1)"/>
            <path id="Path_2670" data-name="Path 2670" d="M774.717,966.177h4.194a1.817,1.817,0,0,1,1.818,1.817h0a1.818,1.818,0,0,1-1.818,1.818h-4.194a1.818,1.818,0,0,1-1.817-1.818h0A1.817,1.817,0,0,1,774.717,966.177Z" transform="translate(-758.127 -956.694)" fill="rgba(0,0,0,0.1)"/>
            <path id="Path_2671" data-name="Path 2671" d="M761.516,966.177h4.194a1.817,1.817,0,0,1,1.819,1.817h0a1.818,1.818,0,0,1-1.819,1.818h-4.194a1.818,1.818,0,0,1-1.817-1.818h0A1.817,1.817,0,0,1,761.516,966.177Z" transform="translate(-759.699 -956.694)" fill="rgba(0,0,0,0.1)"/>
          </g>
          <g id="Group_1645" data-name="Group 1645" transform="translate(742.138 904.391)">
            <path id="Path_2672" data-name="Path 2672" d="M713.98,885.521v-4.194a1.817,1.817,0,0,1,1.817-1.817h0a1.817,1.817,0,0,1,1.817,1.817v4.194a1.817,1.817,0,0,1-1.817,1.818h0A1.817,1.817,0,0,1,713.98,885.521Z" transform="translate(-704.496 -879.509)" fill="rgba(0,0,0,0.1)"/>
            <path id="Path_2673" data-name="Path 2673" d="M713.98,898.722v-4.194a1.817,1.817,0,0,1,1.817-1.817h0a1.817,1.817,0,0,1,1.817,1.817v4.194a1.818,1.818,0,0,1-1.817,1.819h0A1.818,1.818,0,0,1,713.98,898.722Z" transform="translate(-704.496 -877.937)" fill="rgba(0,0,0,0.1)"/>
            <path id="Path_2674" data-name="Path 2674" d="M720.523,887.984h4.2a1.817,1.817,0,0,1,1.817,1.817h0a1.817,1.817,0,0,1-1.817,1.818h-4.2a1.817,1.817,0,0,1-1.817-1.818h0A1.817,1.817,0,0,1,720.523,887.984Z" transform="translate(-703.933 -878.5)" fill="rgba(0,0,0,0.1)"/>
            <path id="Path_2675" data-name="Path 2675" d="M707.323,887.984h4.194a1.817,1.817,0,0,1,1.817,1.817h0a1.817,1.817,0,0,1-1.817,1.818h-4.194a1.818,1.818,0,0,1-1.818-1.818h0A1.818,1.818,0,0,1,707.323,887.984Z" transform="translate(-705.505 -878.5)" fill="rgba(0,0,0,0.1)"/>
          </g>
          <g id="Group_1646" data-name="Group 1646" transform="translate(505.803 781.711)">
            <path id="Path_2676" data-name="Path 2676" d="M695.792,974.9V970.7a1.819,1.819,0,0,1,1.818-1.818h0a1.818,1.818,0,0,1,1.817,1.818V974.9a1.817,1.817,0,0,1-1.817,1.817h0A1.818,1.818,0,0,1,695.792,974.9Z" transform="translate(-686.309 -968.883)" fill="rgba(0,0,0,0.1)"/>
            <path id="Path_2677" data-name="Path 2677" d="M695.792,988.1V983.9a1.818,1.818,0,0,1,1.818-1.818h0a1.818,1.818,0,0,1,1.817,1.818V988.1a1.817,1.817,0,0,1-1.817,1.817h0A1.818,1.818,0,0,1,695.792,988.1Z" transform="translate(-686.309 -967.311)" fill="rgba(0,0,0,0.1)"/>
            <path id="Path_2678" data-name="Path 2678" d="M702.336,977.358h4.194a1.817,1.817,0,0,1,1.818,1.818h0a1.817,1.817,0,0,1-1.818,1.817h-4.194a1.817,1.817,0,0,1-1.818-1.817h0A1.817,1.817,0,0,1,702.336,977.358Z" transform="translate(-685.746 -967.874)" fill="rgba(0,0,0,0.1)"/>
            <path id="Path_2679" data-name="Path 2679" d="M689.135,977.358h4.2a1.818,1.818,0,0,1,1.817,1.818h0a1.818,1.818,0,0,1-1.817,1.817h-4.2a1.817,1.817,0,0,1-1.817-1.817h0A1.817,1.817,0,0,1,689.135,977.358Z" transform="translate(-687.318 -967.874)" fill="rgba(0,0,0,0.1)"/>
          </g>
          <g id="Group_1647" data-name="Group 1647" transform="translate(495.054 1007.881)">
            <path id="Path_2680" data-name="Path 2680" d="M493.187,978V973.8A1.818,1.818,0,0,1,495,971.986h0a1.818,1.818,0,0,1,1.819,1.817V978A1.818,1.818,0,0,1,495,979.815h0A1.818,1.818,0,0,1,493.187,978Z" transform="translate(-483.704 -971.986)" fill="rgba(0,0,0,0.1)"/>
            <path id="Path_2681" data-name="Path 2681" d="M493.187,991.2V987A1.818,1.818,0,0,1,495,985.186h0A1.818,1.818,0,0,1,496.823,987v4.2A1.818,1.818,0,0,1,495,993.016h0A1.818,1.818,0,0,1,493.187,991.2Z" transform="translate(-483.704 -970.414)" fill="rgba(0,0,0,0.1)"/>
            <path id="Path_2682" data-name="Path 2682" d="M499.731,980.46h4.194a1.817,1.817,0,0,1,1.817,1.817h0a1.818,1.818,0,0,1-1.817,1.818h-4.194a1.818,1.818,0,0,1-1.817-1.818h0A1.817,1.817,0,0,1,499.731,980.46Z" transform="translate(-483.141 -970.977)" fill="rgba(0,0,0,0.1)"/>
            <path id="Path_2683" data-name="Path 2683" d="M486.53,980.46h4.194a1.818,1.818,0,0,1,1.818,1.817h0a1.819,1.819,0,0,1-1.818,1.818H486.53a1.818,1.818,0,0,1-1.817-1.818h0A1.817,1.817,0,0,1,486.53,980.46Z" transform="translate(-484.713 -970.977)" fill="rgba(0,0,0,0.1)"/>
          </g>
          <g id="Group_1648" data-name="Group 1648" transform="translate(453.83 907.764)">
            <path id="Path_2684" data-name="Path 2684" d="M468.861,888.536v-4.2a1.817,1.817,0,0,1,1.817-1.817h0a1.817,1.817,0,0,1,1.817,1.817v4.2a1.817,1.817,0,0,1-1.817,1.817h0A1.817,1.817,0,0,1,468.861,888.536Z" transform="translate(-459.377 -882.523)" fill="rgba(0,0,0,0.1)"/>
            <path id="Path_2685" data-name="Path 2685" d="M468.861,901.736v-4.194a1.817,1.817,0,0,1,1.817-1.817h0a1.817,1.817,0,0,1,1.817,1.817v4.194a1.818,1.818,0,0,1-1.817,1.818h0A1.818,1.818,0,0,1,468.861,901.736Z" transform="translate(-459.377 -880.951)" fill="rgba(0,0,0,0.1)"/>
            <path id="Path_2686" data-name="Path 2686" d="M475.4,891h4.2a1.817,1.817,0,0,1,1.817,1.817h0a1.817,1.817,0,0,1-1.817,1.817h-4.2a1.817,1.817,0,0,1-1.817-1.817h0A1.817,1.817,0,0,1,475.4,891Z" transform="translate(-458.814 -881.514)" fill="rgba(0,0,0,0.1)"/>
            <path id="Path_2687" data-name="Path 2687" d="M462.2,891H466.4a1.817,1.817,0,0,1,1.817,1.817h0a1.817,1.817,0,0,1-1.817,1.817H462.2a1.818,1.818,0,0,1-1.819-1.817h0A1.818,1.818,0,0,1,462.2,891Z" transform="translate(-460.386 -881.514)" fill="rgba(0,0,0,0.1)"/>
          </g>
          <g id="Group_1649" data-name="Group 1649" transform="translate(446.016 762.888)">
            <path id="Path_2688" data-name="Path 2688" d="M448.873,769.024a7.981,7.981,0,1,1,7.981-7.98A7.989,7.989,0,0,1,448.873,769.024Zm0-12.337a4.356,4.356,0,1,0,4.357,4.357A4.361,4.361,0,0,0,448.873,756.688Z" transform="translate(-440.893 -753.063)" fill="rgba(0,0,0,0.1)"/>
          </g>
          <g id="Group_1650" data-name="Group 1650" transform="translate(674.667 754.933)">
            <path id="Path_2689" data-name="Path 2689" d="M631.194,772.918a7.981,7.981,0,1,1,7.981-7.981A7.99,7.99,0,0,1,631.194,772.918Zm0-12.337a4.356,4.356,0,1,0,4.356,4.355A4.361,4.361,0,0,0,631.194,760.581Z" transform="translate(-623.213 -756.955)" fill="rgba(0,0,0,0.1)"/>
          </g>
          <g id="Group_1651" data-name="Group 1651" transform="translate(733.087 839.066)">
            <path id="Path_2690" data-name="Path 2690" d="M705.4,837.1a7.981,7.981,0,1,1,7.981-7.981A7.99,7.99,0,0,1,705.4,837.1Zm0-12.337a4.356,4.356,0,1,0,4.357,4.355A4.36,4.36,0,0,0,705.4,824.76Z" transform="translate(-697.417 -821.135)" fill="rgba(0,0,0,0.1)"/>
          </g>
          <g id="Group_1652" data-name="Group 1652" transform="translate(843.581 964.333)">
            <path id="Path_2691" data-name="Path 2691" d="M804.134,949.034a7.981,7.981,0,1,1,7.981-7.981A7.99,7.99,0,0,1,804.134,949.034Zm0-12.338a4.356,4.356,0,1,0,4.356,4.357A4.361,4.361,0,0,0,804.134,936.7Z" transform="translate(-796.153 -933.072)" fill="rgba(0,0,0,0.1)"/>
          </g>
          <g id="Group_1653" data-name="Group 1653" transform="translate(765.113 963.583)">
            <path id="Path_2692" data-name="Path 2692" d="M734.016,948.365A7.981,7.981,0,1,1,742,940.383,7.99,7.99,0,0,1,734.016,948.365Zm0-12.337a4.355,4.355,0,1,0,4.355,4.355A4.361,4.361,0,0,0,734.016,936.028Z" transform="translate(-726.035 -932.402)" fill="rgba(0,0,0,0.1)"/>
          </g>
          <g id="Group_1654" data-name="Group 1654" transform="translate(682.4 1048.008)">
            <path id="Path_2693" data-name="Path 2693" d="M660.1,1023.806a7.981,7.981,0,1,1,7.981-7.981A7.99,7.99,0,0,1,660.1,1023.806Zm0-12.337a4.356,4.356,0,1,0,4.357,4.355A4.36,4.36,0,0,0,660.1,1011.469Z" transform="translate(-652.123 -1007.843)" fill="rgba(0,0,0,0.1)"/>
          </g>
          <g id="Group_1655" data-name="Group 1655" transform="translate(487.073 956.21)">
            <path id="Path_2694" data-name="Path 2694" d="M485.562,941.776a7.981,7.981,0,1,1,7.98-7.98A7.989,7.989,0,0,1,485.562,941.776Zm0-12.337a4.356,4.356,0,1,0,4.355,4.357A4.362,4.362,0,0,0,485.562,929.439Z" transform="translate(-477.581 -925.814)" fill="rgba(0,0,0,0.1)"/>
          </g>
          <g id="Group_1656" data-name="Group 1656" transform="translate(493.859 859.185)">
            <path id="Path_2695" data-name="Path 2695" d="M491.625,855.076a7.981,7.981,0,1,1,7.981-7.981A7.99,7.99,0,0,1,491.625,855.076Zm0-12.337a4.356,4.356,0,1,0,4.357,4.355A4.36,4.36,0,0,0,491.625,842.739Z" transform="translate(-483.645 -839.113)" fill="rgba(0,0,0,0.1)"/>
          </g>
          <g id="Group_1657" data-name="Group 1657" transform="translate(397.872 957.918)">
            <path id="Path_2696" data-name="Path 2696" d="M405.853,943.3a7.981,7.981,0,1,1,7.981-7.981A7.99,7.99,0,0,1,405.853,943.3Zm0-12.337a4.356,4.356,0,1,0,4.355,4.355A4.361,4.361,0,0,0,405.853,930.965Z" transform="translate(-397.872 -927.34)" fill="rgba(0,0,0,0.1)"/>
          </g>
        </g>
        <g id="Group_1593" data-name="Group 1593" transform="translate(5035.502 1350.777)">
          <path id="Path_2424" data-name="Path 2424" d="M440.362,824.254l-.429-.047-.063-.007-.306-.037-.047-.007-.177-.023L421.354,813.68l.177.024.047.005.306.037.063.007c.126.014.27.031.429.047l.084.009q.252.026.557.052l.116.011c.124.012.254.023.39.033l.137.01c.18.016.371.03.571.044l.075,0,.55.037.2.01.534.03.178.009.753.031.17.005c.212.009.43.016.655.021l.256.007c.238.005.483.011.733.014l.161,0c.3,0,.618.007.938.009h.812c.128,0,.259,0,.389,0l.473,0,.418-.007.48-.009c.143,0,.289-.007.434-.012.166,0,.336-.009.508-.014.147,0,.3-.009.448-.014l.518-.02.471-.019.539-.026c.161-.007.324-.016.488-.025.18-.01.362-.019.548-.031.17-.009.34-.019.513-.03l.564-.037.444-.031c.53-.037,1.071-.079,1.626-.126l.291-.026c.564-.049,1.138-.1,1.726-.163l.075-.007c.6-.061,1.213-.13,1.836-.2.114-.012.228-.026.343-.04q.911-.107,1.852-.234c.138-.018.278-.037.417-.056q.68-.094,1.378-.2l.355-.053q.845-.129,1.715-.269l.411-.068c.48-.081.963-.163,1.451-.25l.445-.079q.9-.163,1.827-.341c.135-.026.273-.054.408-.082.424-.082.849-.168,1.279-.257l.579-.121q.6-.126,1.2-.259c.191-.04.382-.082.572-.126.481-.107.968-.219,1.456-.333l.32-.073q.89-.21,1.8-.438c.089-.021.182-.045.271-.068q1.628-.407,3.3-.868l.359-.1q1.654-.457,3.357-.97c.116-.035.231-.068.348-.1q1.539-.468,3.117-.98l.368-.117q1.591-.523,3.222-1.094l.361-.126q1.481-.522,2.993-1.089l.459-.171q1.5-.564,3.021-1.173c.17-.068.341-.135.511-.2q1.426-.572,2.874-1.183c.156-.065.312-.133.467-.2,1.008-.429,2.022-.868,3.045-1.327l.138-.063q1.389-.622,2.8-1.285c.175-.08.348-.161.523-.245q1.413-.667,2.844-1.373c.5-.247,1-.493,1.507-.747l17.986,10.453c-.424.214-.844.423-1.264.63l-.243.117q-1.431.7-2.843,1.372l-.527.247q-1.407.659-2.8,1.283l-.107.049-.031.014c-1.026.459-2.041.9-3.049,1.328l-.462.2q-1.449.612-2.876,1.185l-.256.1c-.086.035-.17.065-.256.1q-1.523.607-3.021,1.173l-.459.17q-1.51.567-2.993,1.09c-.046.016-.093.033-.138.051-.075.026-.147.047-.222.073q-1.63.572-3.222,1.094l-.368.119q-1.575.512-3.117.98c-.049.016-.1.033-.152.047-.067.021-.13.037-.2.058q-1.7.512-3.355.97l-.359.1q-1.678.459-3.3.868l-.145.039-.126.03q-.908.226-1.8.436c-.107.026-.214.049-.32.075-.488.114-.973.226-1.455.333-.192.044-.383.084-.574.126q-.6.134-1.2.259l-.579.121q-.643.131-1.278.257c-.107.021-.219.045-.326.065l-.084.017c-.618.119-1.225.231-1.826.341l-.446.079c-.488.086-.971.17-1.451.249l-.411.07q-.872.142-1.719.27l-.343.051c-.469.068-.935.135-1.393.2l-.252.037-.152.019q-.948.126-1.86.235l-.334.04q-.937.11-1.841.2l-.075.007c-.59.06-1.166.114-1.733.162-.093.009-.187.018-.28.025q-.832.071-1.63.128l-.145.011-.3.019-.564.039c-.173.01-.343.021-.515.03l-.546.031-.488.025c-.18.009-.361.017-.539.024l-.471.021-.518.019c-.151.005-.3.01-.448.014-.171.005-.341.011-.508.014-.145,0-.291.009-.434.011l-.48.01-.418.005-.473.005-.389,0h-.812c-.32,0-.634-.005-.938-.009l-.159,0c-.252,0-.5-.009-.735-.014l-.256-.007-.655-.021-.168-.005c-.261-.011-.513-.021-.754-.033l-.178-.009c-.184-.009-.361-.017-.534-.028l-.2-.012c-.191-.011-.375-.023-.55-.035l-.075-.005-.571-.042-.137-.011c-.137-.01-.266-.023-.39-.033l-.077-.007-.04,0c-.2-.017-.387-.037-.555-.052Z" transform="translate(-345.644 -796.569)" fill="#8bb4cc"/>
          <path id="Path_2425" data-name="Path 2425" d="M378.195,865.9c-.012-.369-.021-.735-.03-1.1-.007-.25-.014-.5-.017-.748-.009-.369-.016-.733-.021-1.094l-.01-.675c-.005-.387-.007-.763-.011-1.14,0-.149,0-.306,0-.455v-.1q-.005-.89,0-1.738c0-.129,0-.25,0-.378,0-.434.007-.861.012-1.278,0-.184,0-.364.007-.544.005-.359.012-.709.019-1.052l.01-.5q.013-.562.028-1.092c0-.084,0-.177.007-.259l0-.1.007-.24c.009-.28.019-.553.028-.819l.01-.278c.012-.313.025-.62.037-.912l0-.03c.014-.306.026-.6.04-.88l.012-.221c.01-.224.021-.438.033-.646l.009-.158c.014-.25.028-.486.04-.711l.009-.136c.007-.109.014-.219.019-.322l.009-.131c.01-.144.019-.277.028-.406.005-.084.01-.168.016-.247.009-.124.017-.236.025-.346l.016-.2.021-.287.011-.142.025-.3L396.573,856.7l-.024.3-.011.142-.021.287-.016.2c-.007.11-.016.222-.025.347l-.016.24c-.009.135-.019.275-.028.423-.009.133-.017.27-.026.411l-.01.178c-.014.217-.026.448-.04.688l-.011.194q-.016.291-.032.6l-.012.248c-.014.28-.028.567-.04.87l0,.03c-.012.292-.025.6-.037.912l-.011.276c-.009.268-.019.541-.028.821l-.007.238c0,.117-.007.24-.011.359q-.016.531-.028,1.091c0,.166-.007.334-.01.5-.007.343-.014.693-.019,1.05,0,.182-.005.362-.007.546-.005.415-.01.844-.012,1.278,0,.128,0,.248,0,.378,0,.564,0,1.145,0,1.738,0,.182,0,.369,0,.553,0,.376.005.753.01,1.139,0,.222.007.45.01.674.005.362.012.725.021,1.1.005.247.01.5.017.748.009.362.017.728.03,1.1.007.259.016.522.025.784q.018.562.042,1.134c.011.277.021.552.033.832.014.326.03.656.047.989.014.3.028.6.046.912.017.338.037.679.056,1.02.018.308.035.616.056.928.021.35.046.7.068,1.057.021.313.042.625.065.942.026.362.056.728.084,1.094.025.32.049.637.075.961s.054.628.082.943q.047.535.1,1.077.045.481.093.964c.037.364.072.728.11,1.1.033.327.07.656.107.985.039.366.079.732.121,1.1.039.336.081.674.121,1.014.039.317.079.635.117.956q.22,1.748.483,3.534c.028.2.058.4.087.6q.268,1.785.578,3.6c.033.194.068.39.1.586q.315,1.8.672,3.614c.028.138.058.275.086.413.252,1.257.518,2.517.807,3.784l.017.085q.428,1.872.912,3.753c.045.173.087.346.133.52q.467,1.8.989,3.6.131.456.266.914c.094.318.191.637.287.954q.194.638.4,1.273.15.472.3.945.21.643.429,1.286c.1.308.2.614.312.923q.231.664.471,1.325c.105.291.207.583.313.872.15.406.306.81.46,1.217.133.346.263.693.4,1.039.159.406.327.811.49,1.215.138.34.275.681.415,1.019.173.413.354.823.532,1.234.14.327.278.655.424.98.187.422.383.839.576,1.258.145.312.285.627.432.938.091.191.185.378.277.567.3.611.593,1.221.9,1.827.144.283.294.565.441.849.264.508.53,1.013.805,1.516.165.307.334.609.5.912.27.48.541.958.819,1.432q.265.457.537.91c.287.48.581.954.879,1.428.193.308.383.618.581.924.149.231.3.459.452.69.273.411.548.821.828,1.229.159.231.319.464.48.695.292.417.592.83.891,1.241.152.206.3.415.455.62q.588.788,1.2,1.563c.065.081.128.165.193.247q.706.89,1.444,1.759c.147.175.3.345.448.518q.525.609,1.064,1.21c.187.206.376.411.563.616q.507.549,1.027,1.087.294.307.593.609c.366.371.737.735,1.111,1.1.182.177.362.354.546.529q.775.732,1.575,1.444c.044.039.088.08.133.119.578.511,1.171,1.012,1.77,1.505.187.152.378.3.565.452.424.34.849.675,1.281,1,.229.175.46.346.691.518q.614.457,1.244.9.357.252.716.5.675.459,1.364.9c.214.139.425.28.641.417.676.427,1.36.847,2.058,1.253l-17.987-10.453q-1.047-.609-2.058-1.253c-.215-.136-.427-.276-.641-.415q-.688-.449-1.363-.906c-.24-.167-.478-.333-.716-.5q-.63-.444-1.244-.9c-.231-.172-.464-.343-.691-.516-.432-.331-.858-.667-1.281-1.007-.187-.151-.378-.3-.565-.452q-.9-.74-1.771-1.505c-.042-.037-.084-.077-.126-.116q-.8-.711-1.581-1.448c-.184-.175-.364-.352-.546-.529-.374-.362-.747-.726-1.112-1.1q-.3-.3-.593-.611-.52-.538-1.027-1.087c-.187-.2-.376-.408-.562-.614-.362-.4-.716-.805-1.068-1.213-.149-.171-.3-.341-.446-.516q-.735-.869-1.446-1.761c-.063-.079-.123-.159-.184-.238q-.614-.777-1.206-1.57c-.152-.2-.3-.411-.452-.618q-.452-.62-.893-1.243-.241-.347-.48-.693-.42-.614-.828-1.234-.228-.341-.45-.684c-.073-.114-.149-.224-.222-.338-.124-.194-.24-.4-.362-.59q-.446-.709-.877-1.425c-.182-.3-.361-.607-.539-.912q-.415-.711-.817-1.43c-.17-.3-.338-.607-.5-.914-.275-.5-.541-1.007-.805-1.514-.147-.283-.3-.565-.441-.851q-.46-.906-.9-1.819c-.081-.165-.165-.326-.243-.492l-.039-.084c-.147-.308-.285-.62-.429-.929-.194-.422-.39-.844-.579-1.267-.143-.324-.282-.651-.424-.977-.179-.411-.359-.823-.532-1.237-.14-.338-.275-.677-.413-1.015-.165-.406-.331-.811-.492-1.218-.135-.345-.264-.693-.4-1.04-.126-.331-.257-.661-.38-.994-.028-.073-.052-.147-.081-.221-.107-.291-.208-.583-.313-.873q-.239-.662-.471-1.325c-.1-.307-.208-.614-.312-.921q-.218-.643-.429-1.288c-.1-.315-.2-.629-.3-.943q-.2-.636-.4-1.274c-.1-.317-.193-.635-.287-.952-.056-.189-.115-.378-.17-.569-.035-.116-.063-.231-.1-.347q-.52-1.8-.989-3.6c-.046-.173-.087-.347-.133-.52-.32-1.253-.627-2.5-.91-3.751l-.005-.021-.016-.072q-.431-1.9-.805-3.777c-.028-.138-.058-.276-.086-.415q-.36-1.817-.672-3.615c-.019-.11-.042-.222-.061-.331-.014-.086-.026-.17-.04-.256q-.313-1.814-.578-3.6c-.03-.2-.059-.4-.089-.6-.173-1.188-.334-2.368-.481-3.532-.009-.072-.019-.145-.028-.217-.031-.248-.059-.494-.089-.742-.04-.338-.082-.676-.119-1.01-.044-.369-.084-.737-.124-1.1-.035-.329-.072-.658-.105-.985-.038-.37-.075-.735-.11-1.1-.032-.318-.063-.639-.093-.954-.035-.368-.066-.732-.1-1.1-.026-.308-.054-.616-.081-.923-.005-.081-.014-.163-.021-.243-.019-.247-.037-.486-.056-.733-.028-.361-.056-.725-.082-1.082-.023-.317-.044-.628-.065-.942-.023-.355-.047-.709-.07-1.057-.019-.313-.037-.62-.054-.927q-.029-.515-.056-1.022c-.018-.306-.031-.609-.046-.912-.016-.331-.033-.662-.047-.989,0-.11-.011-.224-.016-.333-.007-.17-.011-.331-.017-.5q-.024-.572-.042-1.133C378.211,866.419,378.2,866.159,378.195,865.9Z" transform="translate(-378.099 -759.295)" fill="#9ebcce"/>
          <path id="Path_2426" data-name="Path 2426" d="M388.863,889.49c42.636-27.765,73.593-67.734,75.222-69.838,1.637.219,32.723,4.367,75.378-17.111.5,5.356,10.1,107.122-74.832,209.482C379.4,1007.907,388.389,895.412,388.863,889.49Z" transform="translate(-370.389 -792.088)" fill="#e8f6fd"/>
          <path id="Path_2427" data-name="Path 2427" d="M378.378,876.183q2.3-1.5,4.556-3.046l.466-.32q1.58-1.087,3.14-2.192l.415-.3q1.607-1.147,3.191-2.308l.17-.128q1.82-1.339,3.6-2.7l.2-.152q1.762-1.344,3.485-2.7l.207-.163q1.859-1.47,3.676-2.951c.121-.1.24-.2.361-.3q1.749-1.431,3.452-2.867c.121-.1.24-.2.361-.3q1.985-1.678,3.909-3.357l.009-.007q1.922-1.678,3.775-3.35c.159-.142.317-.285.474-.427q.717-.646,1.421-1.292c.166-.151.333-.3.5-.453q.924-.848,1.831-1.691l.329-.307q.751-.7,1.49-1.4c.187-.177.373-.353.56-.529q.662-.63,1.314-1.253c.154-.147.308-.3.462-.441q.914-.88,1.806-1.749c.124-.122.247-.243.371-.364q.738-.719,1.458-1.432l.46-.453q.869-.864,1.717-1.714l.116-.116q.8-.8,1.566-1.587l.429-.436c.583-.6,1.16-1.187,1.724-1.769l.033-.035q.84-.869,1.652-1.721c.124-.13.248-.261.371-.391q.809-.848,1.591-1.68l.156-.166q.717-.764,1.409-1.509l.338-.366c.53-.571,1.05-1.136,1.556-1.689.091-.1.18-.2.27-.3.506-.553,1-1.1,1.486-1.637l.063-.07c.5-.55.977-1.087,1.448-1.616l.261-.294q.677-.762,1.32-1.493l.212-.241c.487-.555.961-1.1,1.414-1.621l.126-.147c.471-.544.928-1.075,1.364-1.584l.028-.033q.656-.77,1.257-1.481l.074-.089c.387-.458.753-.894,1.1-1.316l.145-.173.471-.567.156-.187.6-.723.03-.037.506-.62.168-.208.334-.41.172-.214c.093-.115.184-.227.27-.336l.182-.224.226-.283.156-.194c.075-.1.147-.187.217-.275l.119-.149.21-.266.081-.1.129-.163.109-.138.087-.114.093-.117.1-.126.145-.189L471.587,816.8l-.145.189-.1.126-.04.054-.149.187-.061.079-.166.212-.014.019-.065.081-.214.271-.112.142-.226.283-.142.177c-.079.1-.161.2-.247.308l-.168.21c-.086.107-.175.219-.268.333l-.184.228-.3.368-.207.252c-.124.154-.257.315-.39.478l-.149.182-.572.7-.212.256c-.138.168-.278.336-.423.511l-.068.082-.082.1c-.348.42-.712.856-1.1,1.313l-.073.089q-.6.712-1.258,1.482l-.026.03c-.434.508-.889,1.036-1.358,1.579l-.135.156c-.453.525-.928,1.068-1.414,1.622l-.123.142-.086.1q-.638.727-1.315,1.488c-.089.1-.182.2-.273.3-.469.527-.947,1.063-1.441,1.611l-.065.07c-.481.534-.977,1.08-1.481,1.633l-.273.3q-.761.832-1.558,1.691l-.138.151-.2.214c-.46.5-.928,1-1.406,1.507l-.157.168q-.777.824-1.582,1.672c-.129.135-.259.271-.388.408q-.809.848-1.644,1.712l-.033.035q-.845.874-1.721,1.764c-.073.077-.145.151-.219.226l-.214.217q-.769.78-1.553,1.57l-.133.133c-.562.565-1.136,1.138-1.714,1.71-.152.152-.306.3-.46.455q-.72.712-1.458,1.432l-.371.362q-.893.871-1.808,1.75l-.136.132c-.1.1-.214.2-.32.3q-.656.63-1.325,1.264c-.182.173-.364.345-.548.518-.5.471-1,.943-1.512,1.418l-.308.289q-.908.845-1.838,1.7l-.49.447q-.707.645-1.421,1.291c-.11.1-.217.2-.327.3-.049.045-.1.089-.151.133q-1.856,1.669-3.775,3.35l-.009.007q-1.922,1.678-3.909,3.355c-.054.048-.107.093-.163.14s-.133.11-.2.167q-1.7,1.433-3.448,2.862c-.121.1-.242.2-.364.3q-1.814,1.481-3.672,2.948c-.045.037-.091.075-.138.112l-.072.056q-1.722,1.357-3.483,2.7l-.2.152q-1.783,1.36-3.606,2.7l-.114.086-.049.035q-1.583,1.166-3.194,2.313c-.138.1-.275.2-.413.294q-1.557,1.105-3.138,2.192c-.1.068-.193.136-.291.2-.06.042-.119.079-.179.121q-2.255,1.541-4.554,3.044Z" transform="translate(-377.891 -789.234)" fill="#b6d4e6"/>
          <g id="Group_1446" data-name="Group 1446" transform="translate(25.688 23.771)">
            <g id="Group_1442" data-name="Group 1442" transform="translate(72.23 58.836)">
              <path id="Path_2428" data-name="Path 2428" d="M440.41,873.3a26.526,26.526,0,0,1-6.368,11.039l.234,82.558a313.348,313.348,0,0,0,37.074-61.719,304.507,304.507,0,0,0,20.213-61.412Z" transform="translate(-434.042 -843.764)" fill="#0d6faa"/>
            </g>
            <g id="Group_1443" data-name="Group 1443" transform="translate(71.99)">
              <path id="Path_2429" data-name="Path 2429" d="M433.9,825.154l.172,60.416a5.758,5.758,0,0,1,6.406,3.65l53.245-30.741a258.311,258.311,0,0,0,4.18-48.328C469.13,823.244,445.643,825.192,433.9,825.154Z" transform="translate(-433.905 -810.15)" fill="#0d6faa"/>
            </g>
            <g id="Group_1444" data-name="Group 1444" transform="translate(0 19.681)">
              <path id="Path_2430" data-name="Path 2430" d="M456.667,821.394c-11.7,13.57-35.12,38.705-63.882,58.828a191.749,191.749,0,0,0,4.444,43.351l53.245-30.741a26.525,26.525,0,0,1,6.364-11.022Z" transform="translate(-392.775 -821.394)" fill="#0d6faa"/>
            </g>
            <g id="Group_1445" data-name="Group 1445" transform="translate(6.563 100.424)">
              <path id="Path_2431" data-name="Path 2431" d="M396.525,897.059c4.619,15.762,11.505,28.516,20.5,37.905,9.9,10.33,22.424,16.621,37.3,18.779l-.233-82.558a5.748,5.748,0,0,1-6.41-3.662Z" transform="translate(-396.525 -867.524)" fill="#0d6faa"/>
            </g>
          </g>
        </g>
      </g>
    </g>
  </g>
</svg>
